G04*
G04 #@! TF.GenerationSoftware,Altium Limited,Altium Designer,25.3.3 (18)*
G04*
G04 Layer_Color=128*
%FSLAX44Y44*%
%MOMM*%
G71*
G04*
G04 #@! TF.SameCoordinates,6D202E75-467B-4672-BE30-C010D47AD25D*
G04*
G04*
G04 #@! TF.FilePolarity,Positive*
G04*
G01*
G75*
%ADD12C,0.1270*%
D12*
X967550Y322500D02*
X977450D01*
X972500Y317550D02*
Y327450D01*
X922550Y322500D02*
X932450D01*
X927500Y317550D02*
Y327450D01*
X967550Y257500D02*
X977450D01*
X972500Y252550D02*
Y262450D01*
X922550Y257500D02*
X932450D01*
X927500Y252550D02*
Y262450D01*
X40640Y585540D02*
X46640D01*
X43640Y582540D02*
Y588540D01*
X40640Y499040D02*
X46640D01*
X43640Y496040D02*
Y502040D01*
X74440Y585540D02*
X80440D01*
X77440Y582540D02*
Y588540D01*
X74440Y499040D02*
X80440D01*
X77440Y496040D02*
Y502040D01*
X85240Y572040D02*
X89240D01*
X87240Y570040D02*
Y574040D01*
X85240Y563540D02*
X89240D01*
X87240Y561540D02*
Y565540D01*
X85240Y555040D02*
X89240D01*
X87240Y553040D02*
Y557040D01*
X85240Y529540D02*
X89240D01*
X87240Y527540D02*
Y531540D01*
X85240Y521040D02*
X89240D01*
X87240Y519040D02*
Y523040D01*
X85240Y512540D02*
X89240D01*
X87240Y510540D02*
Y514540D01*
X71740Y512540D02*
X75740D01*
X73740Y510540D02*
Y514540D01*
X71740Y521040D02*
X75740D01*
X73740Y519040D02*
Y523040D01*
X71740Y529540D02*
X75740D01*
X73740Y527540D02*
Y531540D01*
X71740Y555040D02*
X75740D01*
X73740Y553040D02*
Y557040D01*
X71740Y563540D02*
X75740D01*
X73740Y561540D02*
Y565540D01*
X71740Y572040D02*
X75740D01*
X73740Y570040D02*
Y574040D01*
X71740Y538040D02*
X75740D01*
X73740Y536040D02*
Y540040D01*
X85240Y546540D02*
X89240D01*
X87240Y544540D02*
Y548540D01*
X85240Y538040D02*
X89240D01*
X87240Y536040D02*
Y540040D01*
X71740Y546540D02*
X75740D01*
X73740Y544540D02*
Y548540D01*
X1012786Y595884D02*
X1023786D01*
X1018286Y590384D02*
Y601384D01*
X1012786Y621284D02*
X1023786D01*
X1018286Y615784D02*
Y626784D01*
X1038186Y595884D02*
X1049186D01*
X1043686Y590384D02*
Y601384D01*
X1038186Y621284D02*
X1049186D01*
X1043686Y615784D02*
Y626784D01*
X922550Y417500D02*
X932450D01*
X927500Y412550D02*
Y422450D01*
X967550Y417500D02*
X977450D01*
X972500Y412550D02*
Y422450D01*
X922550Y482500D02*
X932450D01*
X927500Y477550D02*
Y487450D01*
X967550Y482500D02*
X977450D01*
X972500Y477550D02*
Y487450D01*
X1019678Y258826D02*
X1028578D01*
X1024128Y254376D02*
Y263276D01*
X1043266Y138684D02*
X1054266D01*
X1048766Y133184D02*
Y144184D01*
X1043266Y113284D02*
X1054266D01*
X1048766Y107784D02*
Y118784D01*
X1017866Y138684D02*
X1028866D01*
X1023366Y133184D02*
Y144184D01*
X1017866Y113284D02*
X1028866D01*
X1023366Y107784D02*
Y118784D01*
X913252Y69088D02*
X922152D01*
X917702Y64638D02*
Y73538D01*
X1013548Y528066D02*
X1024548D01*
X1019048Y522566D02*
Y533566D01*
X1013548Y553466D02*
X1024548D01*
X1019048Y547966D02*
Y558966D01*
X1038948Y528066D02*
X1049948D01*
X1044448Y522566D02*
Y533566D01*
X1038948Y553466D02*
X1049948D01*
X1044448Y547966D02*
Y558966D01*
X232390Y281178D02*
X242590D01*
X237490Y276078D02*
Y286278D01*
X257790Y281178D02*
X267990D01*
X262890Y276078D02*
Y286278D01*
X232390Y306578D02*
X242590D01*
X237490Y301478D02*
Y311678D01*
X257790Y306578D02*
X267990D01*
X262890Y301478D02*
Y311678D01*
X232390Y331978D02*
X242590D01*
X237490Y326878D02*
Y337078D01*
X257790Y331978D02*
X267990D01*
X262890Y326878D02*
Y337078D01*
X232390Y357378D02*
X242590D01*
X237490Y352278D02*
Y362478D01*
X257790Y357378D02*
X267990D01*
X262890Y352278D02*
Y362478D01*
X232390Y382778D02*
X242590D01*
X237490Y377678D02*
Y387878D01*
X257790Y382778D02*
X267990D01*
X262890Y377678D02*
Y387878D01*
X232390Y408178D02*
X242590D01*
X237490Y403078D02*
Y413278D01*
X257790Y408178D02*
X267990D01*
X262890Y403078D02*
Y413278D01*
X232390Y433578D02*
X242590D01*
X237490Y428478D02*
Y438678D01*
X257790Y433578D02*
X267990D01*
X262890Y428478D02*
Y438678D01*
X232390Y458978D02*
X242590D01*
X237490Y453878D02*
Y464078D01*
X257790Y458978D02*
X267990D01*
X262890Y453878D02*
Y464078D01*
X989198Y191008D02*
X998098D01*
X993648Y186558D02*
Y195458D01*
X438130Y614934D02*
X448330D01*
X443230Y609834D02*
Y620034D01*
X412730Y614934D02*
X422930D01*
X417830Y609834D02*
Y620034D01*
X387330Y614934D02*
X397530D01*
X392430Y609834D02*
Y620034D01*
X361930Y614934D02*
X372130D01*
X367030Y609834D02*
Y620034D01*
X336530Y614934D02*
X346730D01*
X341630Y609834D02*
Y620034D01*
X311130Y614934D02*
X321330D01*
X316230Y609834D02*
Y620034D01*
X645438Y169406D02*
X655338D01*
X650388Y164456D02*
Y174356D01*
X600438Y169406D02*
X610338D01*
X605388Y164456D02*
Y174356D01*
X645438Y104406D02*
X655338D01*
X650388Y99456D02*
Y109356D01*
X600438Y104406D02*
X610338D01*
X605388Y99456D02*
Y109356D01*
X29608Y175000D02*
X47608D01*
X38608Y166000D02*
Y184000D01*
X29608Y225000D02*
X47608D01*
X38608Y216000D02*
Y234000D01*
X69112Y163322D02*
X72112D01*
X70612Y161822D02*
Y164822D01*
X81304Y163322D02*
X84304D01*
X82804Y161822D02*
Y164822D01*
X69112Y173736D02*
X72112D01*
X70612Y172236D02*
Y175236D01*
X81304Y173736D02*
X84304D01*
X82804Y172236D02*
Y175236D01*
X81558Y231140D02*
X84558D01*
X83058Y229640D02*
Y232640D01*
X69366Y231140D02*
X72366D01*
X70866Y229640D02*
Y232640D01*
X81558Y220726D02*
X84558D01*
X83058Y219226D02*
Y222226D01*
X377722Y433832D02*
X380722D01*
X379222Y432332D02*
Y435332D01*
X69366Y220726D02*
X72366D01*
X70866Y219226D02*
Y222226D01*
X332764Y386080D02*
X335764D01*
X334264Y384580D02*
Y387580D01*
X1273678Y700000D02*
X1276678D01*
X1275178Y698500D02*
Y701500D01*
X1273678Y600000D02*
X1276678D01*
X1275178Y598500D02*
Y601500D01*
X1248678Y550000D02*
X1251678D01*
X1250178Y548500D02*
Y551500D01*
X1273678Y500000D02*
X1276678D01*
X1275178Y498500D02*
Y501500D01*
X1273678Y400000D02*
X1276678D01*
X1275178Y398500D02*
Y401500D01*
X1248678Y350000D02*
X1251678D01*
X1250178Y348500D02*
Y351500D01*
X1273678Y300000D02*
X1276678D01*
X1275178Y298500D02*
Y301500D01*
X1248678Y250000D02*
X1251678D01*
X1250178Y248500D02*
Y251500D01*
X1273678Y200000D02*
X1276678D01*
X1275178Y198500D02*
Y201500D01*
X1248678Y150000D02*
X1251678D01*
X1250178Y148500D02*
Y151500D01*
X1273678Y100000D02*
X1276678D01*
X1275178Y98500D02*
Y101500D01*
X1248678Y50000D02*
X1251678D01*
X1250178Y48500D02*
Y51500D01*
X1223678Y700000D02*
X1226678D01*
X1225178Y698500D02*
Y701500D01*
X1198678Y650000D02*
X1201678D01*
X1200178Y648500D02*
Y651500D01*
X1223678Y600000D02*
X1226678D01*
X1225178Y598500D02*
Y601500D01*
X1198678Y550000D02*
X1201678D01*
X1200178Y548500D02*
Y551500D01*
X1223678Y500000D02*
X1226678D01*
X1225178Y498500D02*
Y501500D01*
X1198678Y450000D02*
X1201678D01*
X1200178Y448500D02*
Y451500D01*
X1223678Y400000D02*
X1226678D01*
X1225178Y398500D02*
Y401500D01*
X1198678Y350000D02*
X1201678D01*
X1200178Y348500D02*
Y351500D01*
X1223678Y300000D02*
X1226678D01*
X1225178Y298500D02*
Y301500D01*
X1198678Y250000D02*
X1201678D01*
X1200178Y248500D02*
Y251500D01*
X1223678Y200000D02*
X1226678D01*
X1225178Y198500D02*
Y201500D01*
X1198678Y150000D02*
X1201678D01*
X1200178Y148500D02*
Y151500D01*
X1223678Y100000D02*
X1226678D01*
X1225178Y98500D02*
Y101500D01*
X1198678Y50000D02*
X1201678D01*
X1200178Y48500D02*
Y51500D01*
X1173678Y700000D02*
X1176678D01*
X1175178Y698500D02*
Y701500D01*
X1148678Y650000D02*
X1151678D01*
X1150178Y648500D02*
Y651500D01*
X1173678Y600000D02*
X1176678D01*
X1175178Y598500D02*
Y601500D01*
X1148678Y550000D02*
X1151678D01*
X1150178Y548500D02*
Y551500D01*
X1173678Y500000D02*
X1176678D01*
X1175178Y498500D02*
Y501500D01*
X1148678Y450000D02*
X1151678D01*
X1150178Y448500D02*
Y451500D01*
X1173678Y400000D02*
X1176678D01*
X1175178Y398500D02*
Y401500D01*
X1148678Y350000D02*
X1151678D01*
X1150178Y348500D02*
Y351500D01*
X1173678Y300000D02*
X1176678D01*
X1175178Y298500D02*
Y301500D01*
X1148678Y250000D02*
X1151678D01*
X1150178Y248500D02*
Y251500D01*
X1173678Y200000D02*
X1176678D01*
X1175178Y198500D02*
Y201500D01*
X1148678Y150000D02*
X1151678D01*
X1150178Y148500D02*
Y151500D01*
X1173678Y100000D02*
X1176678D01*
X1175178Y98500D02*
Y101500D01*
X1148678Y50000D02*
X1151678D01*
X1150178Y48500D02*
Y51500D01*
X1123678Y700000D02*
X1126678D01*
X1125178Y698500D02*
Y701500D01*
X1098678Y650000D02*
X1101678D01*
X1100178Y648500D02*
Y651500D01*
X1123678Y600000D02*
X1126678D01*
X1125178Y598500D02*
Y601500D01*
X1098678Y550000D02*
X1101678D01*
X1100178Y548500D02*
Y551500D01*
X1123678Y500000D02*
X1126678D01*
X1125178Y498500D02*
Y501500D01*
X1098678Y450000D02*
X1101678D01*
X1100178Y448500D02*
Y451500D01*
X1123678Y400000D02*
X1126678D01*
X1125178Y398500D02*
Y401500D01*
X1098678Y350000D02*
X1101678D01*
X1100178Y348500D02*
Y351500D01*
X1123678Y300000D02*
X1126678D01*
X1125178Y298500D02*
Y301500D01*
X1098678Y250000D02*
X1101678D01*
X1100178Y248500D02*
Y251500D01*
X1123678Y200000D02*
X1126678D01*
X1125178Y198500D02*
Y201500D01*
X1098678Y150000D02*
X1101678D01*
X1100178Y148500D02*
Y151500D01*
X1123678Y100000D02*
X1126678D01*
X1125178Y98500D02*
Y101500D01*
X1098678Y50000D02*
X1101678D01*
X1100178Y48500D02*
Y51500D01*
X1073678Y700000D02*
X1076678D01*
X1075178Y698500D02*
Y701500D01*
X1048678Y650000D02*
X1051678D01*
X1050178Y648500D02*
Y651500D01*
X1073678Y600000D02*
X1076678D01*
X1075178Y598500D02*
Y601500D01*
X1073678Y500000D02*
X1076678D01*
X1075178Y498500D02*
Y501500D01*
X1048678Y450000D02*
X1051678D01*
X1050178Y448500D02*
Y451500D01*
X1073678Y400000D02*
X1076678D01*
X1075178Y398500D02*
Y401500D01*
X1048678Y350000D02*
X1051678D01*
X1050178Y348500D02*
Y351500D01*
X1073678Y300000D02*
X1076678D01*
X1075178Y298500D02*
Y301500D01*
X1048678Y250000D02*
X1051678D01*
X1050178Y248500D02*
Y251500D01*
X1073678Y200000D02*
X1076678D01*
X1075178Y198500D02*
Y201500D01*
X1048678Y150000D02*
X1051678D01*
X1050178Y148500D02*
Y151500D01*
X1073678Y100000D02*
X1076678D01*
X1075178Y98500D02*
Y101500D01*
X1048678Y50000D02*
X1051678D01*
X1050178Y48500D02*
Y51500D01*
X1023678Y700000D02*
X1026678D01*
X1025178Y698500D02*
Y701500D01*
X998678Y650000D02*
X1001678D01*
X1000178Y648500D02*
Y651500D01*
X998678Y550000D02*
X1001678D01*
X1000178Y548500D02*
Y551500D01*
X1023678Y500000D02*
X1026678D01*
X1025178Y498500D02*
Y501500D01*
X998678Y450000D02*
X1001678D01*
X1000178Y448500D02*
Y451500D01*
X1023678Y400000D02*
X1026678D01*
X1025178Y398500D02*
Y401500D01*
X998678Y350000D02*
X1001678D01*
X1000178Y348500D02*
Y351500D01*
X1023678Y300000D02*
X1026678D01*
X1025178Y298500D02*
Y301500D01*
X998678Y250000D02*
X1001678D01*
X1000178Y248500D02*
Y251500D01*
X1023678Y200000D02*
X1026678D01*
X1025178Y198500D02*
Y201500D01*
X998678Y50000D02*
X1001678D01*
X1000178Y48500D02*
Y51500D01*
X973678Y700000D02*
X976678D01*
X975178Y698500D02*
Y701500D01*
X948678Y650000D02*
X951678D01*
X950178Y648500D02*
Y651500D01*
X973678Y600000D02*
X976678D01*
X975178Y598500D02*
Y601500D01*
X948678Y550000D02*
X951678D01*
X950178Y548500D02*
Y551500D01*
X973678Y500000D02*
X976678D01*
X975178Y498500D02*
Y501500D01*
X948678Y450000D02*
X951678D01*
X950178Y448500D02*
Y451500D01*
X948678Y350000D02*
X951678D01*
X950178Y348500D02*
Y351500D01*
X973678Y300000D02*
X976678D01*
X975178Y298500D02*
Y301500D01*
X948678Y250000D02*
X951678D01*
X950178Y248500D02*
Y251500D01*
X973678Y200000D02*
X976678D01*
X975178Y198500D02*
Y201500D01*
X948678Y50000D02*
X951678D01*
X950178Y48500D02*
Y51500D01*
X923678Y700000D02*
X926678D01*
X925178Y698500D02*
Y701500D01*
X898678Y650000D02*
X901678D01*
X900178Y648500D02*
Y651500D01*
X923678Y600000D02*
X926678D01*
X925178Y598500D02*
Y601500D01*
X898678Y550000D02*
X901678D01*
X900178Y548500D02*
Y551500D01*
X923678Y500000D02*
X926678D01*
X925178Y498500D02*
Y501500D01*
X898678Y450000D02*
X901678D01*
X900178Y448500D02*
Y451500D01*
X923678Y400000D02*
X926678D01*
X925178Y398500D02*
Y401500D01*
X898678Y350000D02*
X901678D01*
X900178Y348500D02*
Y351500D01*
X923678Y200000D02*
X926678D01*
X925178Y198500D02*
Y201500D01*
X898678Y50000D02*
X901678D01*
X900178Y48500D02*
Y51500D01*
X873678Y700000D02*
X876678D01*
X875178Y698500D02*
Y701500D01*
X848678Y650000D02*
X851678D01*
X850178Y648500D02*
Y651500D01*
X873678Y600000D02*
X876678D01*
X875178Y598500D02*
Y601500D01*
X848678Y550000D02*
X851678D01*
X850178Y548500D02*
Y551500D01*
X873678Y500000D02*
X876678D01*
X875178Y498500D02*
Y501500D01*
X848678Y450000D02*
X851678D01*
X850178Y448500D02*
Y451500D01*
X873678Y400000D02*
X876678D01*
X875178Y398500D02*
Y401500D01*
X873678Y300000D02*
X876678D01*
X875178Y298500D02*
Y301500D01*
X848678Y250000D02*
X851678D01*
X850178Y248500D02*
Y251500D01*
X873678Y200000D02*
X876678D01*
X875178Y198500D02*
Y201500D01*
X848678Y50000D02*
X851678D01*
X850178Y48500D02*
Y51500D01*
X823678Y700000D02*
X826678D01*
X825178Y698500D02*
Y701500D01*
X798678Y650000D02*
X801678D01*
X800178Y648500D02*
Y651500D01*
X823678Y600000D02*
X826678D01*
X825178Y598500D02*
Y601500D01*
X798678Y550000D02*
X801678D01*
X800178Y548500D02*
Y551500D01*
X823678Y500000D02*
X826678D01*
X825178Y498500D02*
Y501500D01*
X798678Y450000D02*
X801678D01*
X800178Y448500D02*
Y451500D01*
X798678Y350000D02*
X801678D01*
X800178Y348500D02*
Y351500D01*
X823678Y300000D02*
X826678D01*
X825178Y298500D02*
Y301500D01*
X773678Y700000D02*
X776678D01*
X775178Y698500D02*
Y701500D01*
X748678Y650000D02*
X751678D01*
X750178Y648500D02*
Y651500D01*
X773678Y600000D02*
X776678D01*
X775178Y598500D02*
Y601500D01*
X748678Y550000D02*
X751678D01*
X750178Y548500D02*
Y551500D01*
X748678Y450000D02*
X751678D01*
X750178Y448500D02*
Y451500D01*
X773678Y400000D02*
X776678D01*
X775178Y398500D02*
Y401500D01*
X748678Y350000D02*
X751678D01*
X750178Y348500D02*
Y351500D01*
X773678Y300000D02*
X776678D01*
X775178Y298500D02*
Y301500D01*
X723678Y700000D02*
X726678D01*
X725178Y698500D02*
Y701500D01*
X698678Y650000D02*
X701678D01*
X700178Y648500D02*
Y651500D01*
X723678Y600000D02*
X726678D01*
X725178Y598500D02*
Y601500D01*
X698678Y550000D02*
X701678D01*
X700178Y548500D02*
Y551500D01*
X723678Y500000D02*
X726678D01*
X725178Y498500D02*
Y501500D01*
X698678Y450000D02*
X701678D01*
X700178Y448500D02*
Y451500D01*
X723678Y400000D02*
X726678D01*
X725178Y398500D02*
Y401500D01*
X698678Y350000D02*
X701678D01*
X700178Y348500D02*
Y351500D01*
X723678Y300000D02*
X726678D01*
X725178Y298500D02*
Y301500D01*
X698678Y250000D02*
X701678D01*
X700178Y248500D02*
Y251500D01*
X698678Y150000D02*
X701678D01*
X700178Y148500D02*
Y151500D01*
X673678Y700000D02*
X676678D01*
X675178Y698500D02*
Y701500D01*
X648678Y650000D02*
X651678D01*
X650178Y648500D02*
Y651500D01*
X673678Y600000D02*
X676678D01*
X675178Y598500D02*
Y601500D01*
X648678Y550000D02*
X651678D01*
X650178Y548500D02*
Y551500D01*
X673678Y500000D02*
X676678D01*
X675178Y498500D02*
Y501500D01*
X648678Y450000D02*
X651678D01*
X650178Y448500D02*
Y451500D01*
X673678Y400000D02*
X676678D01*
X675178Y398500D02*
Y401500D01*
X648678Y350000D02*
X651678D01*
X650178Y348500D02*
Y351500D01*
X673678Y300000D02*
X676678D01*
X675178Y298500D02*
Y301500D01*
X673678Y200000D02*
X676678D01*
X675178Y198500D02*
Y201500D01*
X648678Y150000D02*
X651678D01*
X650178Y148500D02*
Y151500D01*
X623678Y700000D02*
X626678D01*
X625178Y698500D02*
Y701500D01*
X598678Y650000D02*
X601678D01*
X600178Y648500D02*
Y651500D01*
X623678Y600000D02*
X626678D01*
X625178Y598500D02*
Y601500D01*
X598678Y550000D02*
X601678D01*
X600178Y548500D02*
Y551500D01*
X623678Y500000D02*
X626678D01*
X625178Y498500D02*
Y501500D01*
X598678Y450000D02*
X601678D01*
X600178Y448500D02*
Y451500D01*
X623678Y400000D02*
X626678D01*
X625178Y398500D02*
Y401500D01*
X598678Y350000D02*
X601678D01*
X600178Y348500D02*
Y351500D01*
X598678Y250000D02*
X601678D01*
X600178Y248500D02*
Y251500D01*
X598678Y150000D02*
X601678D01*
X600178Y148500D02*
Y151500D01*
X623678Y100000D02*
X626678D01*
X625178Y98500D02*
Y101500D01*
X573678Y700000D02*
X576678D01*
X575178Y698500D02*
Y701500D01*
X548678Y650000D02*
X551678D01*
X550178Y648500D02*
Y651500D01*
X573678Y600000D02*
X576678D01*
X575178Y598500D02*
Y601500D01*
X548678Y550000D02*
X551678D01*
X550178Y548500D02*
Y551500D01*
X573678Y500000D02*
X576678D01*
X575178Y498500D02*
Y501500D01*
X548678Y450000D02*
X551678D01*
X550178Y448500D02*
Y451500D01*
X573678Y400000D02*
X576678D01*
X575178Y398500D02*
Y401500D01*
X573678Y300000D02*
X576678D01*
X575178Y298500D02*
Y301500D01*
X548678Y250000D02*
X551678D01*
X550178Y248500D02*
Y251500D01*
X573678Y200000D02*
X576678D01*
X575178Y198500D02*
Y201500D01*
X523678Y700000D02*
X526678D01*
X525178Y698500D02*
Y701500D01*
X498678Y650000D02*
X501678D01*
X500178Y648500D02*
Y651500D01*
X498678Y550000D02*
X501678D01*
X500178Y548500D02*
Y551500D01*
X523678Y500000D02*
X526678D01*
X525178Y498500D02*
Y501500D01*
X498678Y450000D02*
X501678D01*
X500178Y448500D02*
Y451500D01*
X498678Y350000D02*
X501678D01*
X500178Y348500D02*
Y351500D01*
X498678Y250000D02*
X501678D01*
X500178Y248500D02*
Y251500D01*
X523678Y200000D02*
X526678D01*
X525178Y198500D02*
Y201500D01*
X473678Y700000D02*
X476678D01*
X475178Y698500D02*
Y701500D01*
X448678Y650000D02*
X451678D01*
X450178Y648500D02*
Y651500D01*
X473678Y600000D02*
X476678D01*
X475178Y598500D02*
Y601500D01*
X473678Y500000D02*
X476678D01*
X475178Y498500D02*
Y501500D01*
X473678Y400000D02*
X476678D01*
X475178Y398500D02*
Y401500D01*
X473678Y300000D02*
X476678D01*
X475178Y298500D02*
Y301500D01*
X448678Y250000D02*
X451678D01*
X450178Y248500D02*
Y251500D01*
X473678Y200000D02*
X476678D01*
X475178Y198500D02*
Y201500D01*
X473678Y100000D02*
X476678D01*
X475178Y98500D02*
Y101500D01*
X423678Y700000D02*
X426678D01*
X425178Y698500D02*
Y701500D01*
X398678Y650000D02*
X401678D01*
X400178Y648500D02*
Y651500D01*
X398678Y250000D02*
X401678D01*
X400178Y248500D02*
Y251500D01*
X423678Y200000D02*
X426678D01*
X425178Y198500D02*
Y201500D01*
X398678Y150000D02*
X401678D01*
X400178Y148500D02*
Y151500D01*
X373678Y700000D02*
X376678D01*
X375178Y698500D02*
Y701500D01*
X348678Y650000D02*
X351678D01*
X350178Y648500D02*
Y651500D01*
X373678Y300000D02*
X376678D01*
X375178Y298500D02*
Y301500D01*
X348678Y250000D02*
X351678D01*
X350178Y248500D02*
Y251500D01*
X373678Y200000D02*
X376678D01*
X375178Y198500D02*
Y201500D01*
X348678Y150000D02*
X351678D01*
X350178Y148500D02*
Y151500D01*
X373678Y100000D02*
X376678D01*
X375178Y98500D02*
Y101500D01*
X323678Y700000D02*
X326678D01*
X325178Y698500D02*
Y701500D01*
X298678Y650000D02*
X301678D01*
X300178Y648500D02*
Y651500D01*
X323678Y500000D02*
X326678D01*
X325178Y498500D02*
Y501500D01*
X323678Y300000D02*
X326678D01*
X325178Y298500D02*
Y301500D01*
X298678Y250000D02*
X301678D01*
X300178Y248500D02*
Y251500D01*
X323678Y100000D02*
X326678D01*
X325178Y98500D02*
Y101500D01*
X273678Y700000D02*
X276678D01*
X275178Y698500D02*
Y701500D01*
X248678Y650000D02*
X251678D01*
X250178Y648500D02*
Y651500D01*
X273678Y600000D02*
X276678D01*
X275178Y598500D02*
Y601500D01*
X273678Y400000D02*
X276678D01*
X275178Y398500D02*
Y401500D01*
X248678Y350000D02*
X251678D01*
X250178Y348500D02*
Y351500D01*
X273678Y300000D02*
X276678D01*
X275178Y298500D02*
Y301500D01*
X223678Y700000D02*
X226678D01*
X225178Y698500D02*
Y701500D01*
X198678Y650000D02*
X201678D01*
X200178Y648500D02*
Y651500D01*
X223678Y600000D02*
X226678D01*
X225178Y598500D02*
Y601500D01*
X198678Y550000D02*
X201678D01*
X200178Y548500D02*
Y551500D01*
X198678Y450000D02*
X201678D01*
X200178Y448500D02*
Y451500D01*
X223678Y400000D02*
X226678D01*
X225178Y398500D02*
Y401500D01*
X198678Y350000D02*
X201678D01*
X200178Y348500D02*
Y351500D01*
X223678Y300000D02*
X226678D01*
X225178Y298500D02*
Y301500D01*
X198678Y250000D02*
X201678D01*
X200178Y248500D02*
Y251500D01*
X223678Y200000D02*
X226678D01*
X225178Y198500D02*
Y201500D01*
X198678Y150000D02*
X201678D01*
X200178Y148500D02*
Y151500D01*
X223678Y100000D02*
X226678D01*
X225178Y98500D02*
Y101500D01*
X173678Y700000D02*
X176678D01*
X175178Y698500D02*
Y701500D01*
X148678Y650000D02*
X151678D01*
X150178Y648500D02*
Y651500D01*
X173678Y600000D02*
X176678D01*
X175178Y598500D02*
Y601500D01*
X173678Y500000D02*
X176678D01*
X175178Y498500D02*
Y501500D01*
X148678Y450000D02*
X151678D01*
X150178Y448500D02*
Y451500D01*
X173678Y400000D02*
X176678D01*
X175178Y398500D02*
Y401500D01*
X148678Y350000D02*
X151678D01*
X150178Y348500D02*
Y351500D01*
X173678Y300000D02*
X176678D01*
X175178Y298500D02*
Y301500D01*
X148678Y250000D02*
X151678D01*
X150178Y248500D02*
Y251500D01*
X123678Y700000D02*
X126678D01*
X125178Y698500D02*
Y701500D01*
X98678Y650000D02*
X101678D01*
X100178Y648500D02*
Y651500D01*
X123678Y600000D02*
X126678D01*
X125178Y598500D02*
Y601500D01*
X123678Y500000D02*
X126678D01*
X125178Y498500D02*
Y501500D01*
X98678Y450000D02*
X101678D01*
X100178Y448500D02*
Y451500D01*
X123678Y400000D02*
X126678D01*
X125178Y398500D02*
Y401500D01*
X98678Y350000D02*
X101678D01*
X100178Y348500D02*
Y351500D01*
X123678Y300000D02*
X126678D01*
X125178Y298500D02*
Y301500D01*
X123678Y200000D02*
X126678D01*
X125178Y198500D02*
Y201500D01*
X98678Y50000D02*
X101678D01*
X100178Y48500D02*
Y51500D01*
X73678Y700000D02*
X76678D01*
X75178Y698500D02*
Y701500D01*
X48678Y650000D02*
X51678D01*
X50178Y648500D02*
Y651500D01*
X73678Y600000D02*
X76678D01*
X75178Y598500D02*
Y601500D01*
X48678Y550000D02*
X51678D01*
X50178Y548500D02*
Y551500D01*
X48678Y450000D02*
X51678D01*
X50178Y448500D02*
Y451500D01*
X73678Y400000D02*
X76678D01*
X75178Y398500D02*
Y401500D01*
X48678Y350000D02*
X51678D01*
X50178Y348500D02*
Y351500D01*
X73678Y300000D02*
X76678D01*
X75178Y298500D02*
Y301500D01*
X73678Y200000D02*
X76678D01*
X75178Y198500D02*
Y201500D01*
X73678Y100000D02*
X76678D01*
X75178Y98500D02*
Y101500D01*
X48678Y50000D02*
X51678D01*
X50178Y48500D02*
Y51500D01*
X780419Y125172D02*
X783419D01*
X781919Y123672D02*
Y126672D01*
X780312Y134874D02*
X783312D01*
X781812Y133374D02*
Y136374D01*
X787170Y128397D02*
X790170D01*
X788670Y126897D02*
Y129897D01*
X792504Y128397D02*
X795504D01*
X794004Y126897D02*
Y129897D01*
X707922Y96012D02*
X710922D01*
X709422Y94512D02*
Y97512D01*
X707922Y104394D02*
X710922D01*
X709422Y102894D02*
Y105894D01*
X698270Y87630D02*
X701270D01*
X699770Y86130D02*
Y89130D01*
X698270Y96012D02*
X701270D01*
X699770Y94512D02*
Y97512D01*
X698270Y104394D02*
X701270D01*
X699770Y102894D02*
Y105894D01*
X707922Y87630D02*
X710922D01*
X709422Y86130D02*
Y89130D01*
X457986Y431000D02*
X460986D01*
X459486Y429500D02*
Y432500D01*
X457986Y450342D02*
X460986D01*
X459486Y448842D02*
Y451842D01*
X811046Y409956D02*
X814046D01*
X812546Y408456D02*
Y411456D01*
X789964Y132842D02*
X792964D01*
X791464Y131342D02*
Y134342D01*
X789964Y123746D02*
X792964D01*
X791464Y122246D02*
Y125246D01*
X763548Y120650D02*
X766548D01*
X765048Y119150D02*
Y122150D01*
X754404Y114808D02*
X757404D01*
X755904Y113308D02*
Y116308D01*
X556792Y226314D02*
X559792D01*
X558292Y224814D02*
Y227814D01*
X709954Y127508D02*
X712954D01*
X711454Y126008D02*
Y129008D01*
X457986Y402590D02*
X460986D01*
X459486Y401090D02*
Y404090D01*
X457986Y410718D02*
X460986D01*
X459486Y409218D02*
Y412218D01*
X754404Y135636D02*
X757404D01*
X755904Y134136D02*
Y137136D01*
X421410Y416560D02*
X424410D01*
X422910Y415060D02*
Y418060D01*
X457986Y422276D02*
X460986D01*
X459486Y420776D02*
Y423776D01*
X763548Y130810D02*
X766548D01*
X765048Y129310D02*
Y132310D01*
X754404Y125476D02*
X757404D01*
X755904Y123976D02*
Y126976D01*
X769073Y149939D02*
X772073D01*
X770573Y148439D02*
Y151439D01*
X900454Y115316D02*
X903454D01*
X901954Y113816D02*
Y116816D01*
X900454Y105664D02*
X903454D01*
X901954Y104164D02*
Y107164D01*
X900454Y124968D02*
X903454D01*
X901954Y123468D02*
Y126468D01*
X912138Y124968D02*
X915138D01*
X913638Y123468D02*
Y126468D01*
X912138Y115316D02*
X915138D01*
X913638Y113816D02*
Y116816D01*
X912138Y105664D02*
X915138D01*
X913638Y104164D02*
Y107164D01*
X784376Y153162D02*
X787376D01*
X785876Y151662D02*
Y154662D01*
X778788Y158496D02*
X781788D01*
X780288Y156996D02*
Y159996D01*
X803172Y114046D02*
X806172D01*
X804672Y112546D02*
Y115546D01*
X813078Y103378D02*
X816078D01*
X814578Y101878D02*
Y104878D01*
X785980Y103632D02*
X788980D01*
X787480Y102132D02*
Y105132D01*
X425728Y350774D02*
X428728D01*
X427228Y349274D02*
Y352274D01*
X399312Y405892D02*
X402312D01*
X400812Y404392D02*
Y407392D01*
X398550Y330962D02*
X401550D01*
X400050Y329462D02*
Y332462D01*
X376537Y330962D02*
X379537D01*
X378037Y329462D02*
Y332462D01*
X354523Y330962D02*
X357523D01*
X356023Y329462D02*
Y332462D01*
X332510Y330962D02*
X335510D01*
X334010Y329462D02*
Y332462D01*
X452398Y126492D02*
X455398D01*
X453898Y124992D02*
Y127992D01*
X436142Y126238D02*
X439142D01*
X437642Y124738D02*
Y127738D01*
X436904Y153924D02*
X439904D01*
X438404Y152424D02*
Y155424D01*
X452398Y153416D02*
X455398D01*
X453898Y151916D02*
Y154916D01*
X274344Y159512D02*
X277344D01*
X275844Y158012D02*
Y161012D01*
X258850Y160020D02*
X261850D01*
X260350Y158520D02*
Y161520D01*
X258088Y132334D02*
X261088D01*
X259588Y130834D02*
Y133834D01*
X274344Y132588D02*
X277344D01*
X275844Y131088D02*
Y134088D01*
X421410Y454152D02*
X424410D01*
X422910Y452652D02*
Y455652D01*
X414044Y405892D02*
X417044D01*
X415544Y404392D02*
Y407392D01*
X401598Y459994D02*
X404598D01*
X403098Y458494D02*
Y461494D01*
X394740Y451866D02*
X397740D01*
X396240Y450366D02*
Y453366D01*
X134390Y562356D02*
X137390D01*
X135890Y560856D02*
Y563856D01*
X135406Y543306D02*
X138406D01*
X136906Y541806D02*
Y544806D01*
X233140Y235830D02*
X258140D01*
X245640Y223330D02*
Y248330D01*
X763140Y235830D02*
X788140D01*
X775640Y223330D02*
Y248330D01*
X763140Y505830D02*
X788140D01*
X775640Y493330D02*
Y518330D01*
X233140Y505830D02*
X258140D01*
X245640Y493330D02*
Y518330D01*
X1185950Y730758D02*
X1188950D01*
X1187450Y729258D02*
Y732258D01*
X1164360Y730758D02*
X1167360D01*
X1165860Y729258D02*
Y732258D01*
X1142770Y730758D02*
X1145770D01*
X1144270Y729258D02*
Y732258D01*
X1119910Y730758D02*
X1122910D01*
X1121410Y729258D02*
Y732258D01*
X1100860Y730758D02*
X1103860D01*
X1102360Y729258D02*
Y732258D01*
X1079270Y730758D02*
X1082270D01*
X1080770Y729258D02*
Y732258D01*
X1058950Y730758D02*
X1061950D01*
X1060450Y729258D02*
Y732258D01*
X1039900Y730758D02*
X1042900D01*
X1041400Y729258D02*
Y732258D01*
X1022120Y730758D02*
X1025120D01*
X1023620Y729258D02*
Y732258D01*
X1000530Y730758D02*
X1003530D01*
X1002030Y729258D02*
Y732258D01*
X980210Y730758D02*
X983210D01*
X981710Y729258D02*
Y732258D01*
X958620Y730758D02*
X961620D01*
X960120Y729258D02*
Y732258D01*
X937030Y730758D02*
X940030D01*
X938530Y729258D02*
Y732258D01*
X916710Y730758D02*
X919710D01*
X918210Y729258D02*
Y732258D01*
X897660Y730758D02*
X900660D01*
X899160Y729258D02*
Y732258D01*
X877340Y730758D02*
X880340D01*
X878840Y729258D02*
Y732258D01*
X855750Y730758D02*
X858750D01*
X857250Y729258D02*
Y732258D01*
X835430Y730758D02*
X838430D01*
X836930Y729258D02*
Y732258D01*
X813840Y730758D02*
X816840D01*
X815340Y729258D02*
Y732258D01*
X792250Y730758D02*
X795250D01*
X793750Y729258D02*
Y732258D01*
X773200Y730758D02*
X776200D01*
X774700Y729258D02*
Y732258D01*
X752880Y730758D02*
X755880D01*
X754380Y729258D02*
Y732258D01*
X732560Y730758D02*
X735560D01*
X734060Y729258D02*
Y732258D01*
X710970Y730758D02*
X713970D01*
X712470Y729258D02*
Y732258D01*
X691920Y730758D02*
X694920D01*
X693420Y729258D02*
Y732258D01*
X674140Y730758D02*
X677140D01*
X675640Y729258D02*
Y732258D01*
X655090Y730758D02*
X658090D01*
X656590Y729258D02*
Y732258D01*
X634770Y730758D02*
X637770D01*
X636270Y729258D02*
Y732258D01*
X616990Y730758D02*
X619990D01*
X618490Y729258D02*
Y732258D01*
X596670Y730758D02*
X599670D01*
X598170Y729258D02*
Y732258D01*
X575080Y730758D02*
X578080D01*
X576580Y729258D02*
Y732258D01*
X556030Y730758D02*
X559030D01*
X557530Y729258D02*
Y732258D01*
X535710Y730758D02*
X538710D01*
X537210Y729258D02*
Y732258D01*
X516660Y730758D02*
X519660D01*
X518160Y729258D02*
Y732258D01*
X497610Y730758D02*
X500610D01*
X499110Y729258D02*
Y732258D01*
X478560Y730758D02*
X481560D01*
X480060Y729258D02*
Y732258D01*
X458240Y730758D02*
X461240D01*
X459740Y729258D02*
Y732258D01*
X437920Y730758D02*
X440920D01*
X439420Y729258D02*
Y732258D01*
X420140Y730758D02*
X423140D01*
X421640Y729258D02*
Y732258D01*
X401090Y730758D02*
X404090D01*
X402590Y729258D02*
Y732258D01*
X382040Y730758D02*
X385040D01*
X383540Y729258D02*
Y732258D01*
X361720Y730758D02*
X364720D01*
X363220Y729258D02*
Y732258D01*
X341400Y730758D02*
X344400D01*
X342900Y729258D02*
Y732258D01*
X322350Y730758D02*
X325350D01*
X323850Y729258D02*
Y732258D01*
X302030Y730758D02*
X305030D01*
X303530Y729258D02*
Y732258D01*
X282980Y730758D02*
X285980D01*
X284480Y729258D02*
Y732258D01*
X265200Y730758D02*
X268200D01*
X266700Y729258D02*
Y732258D01*
X248690Y730758D02*
X251690D01*
X250190Y729258D02*
Y732258D01*
X230910Y730758D02*
X233910D01*
X232410Y729258D02*
Y732258D01*
X214400Y730758D02*
X217400D01*
X215900Y729258D02*
Y732258D01*
X197890Y730758D02*
X200890D01*
X199390Y729258D02*
Y732258D01*
X181380Y730758D02*
X184380D01*
X182880Y729258D02*
Y732258D01*
X164870Y730758D02*
X167870D01*
X166370Y729258D02*
Y732258D01*
X148360Y730758D02*
X151360D01*
X149860Y729258D02*
Y732258D01*
X131850Y730758D02*
X134850D01*
X133350Y729258D02*
Y732258D01*
X116610Y730758D02*
X119610D01*
X118110Y729258D02*
Y732258D01*
X100100Y730758D02*
X103100D01*
X101600Y729258D02*
Y732258D01*
X83590Y730758D02*
X86590D01*
X85090Y729258D02*
Y732258D01*
X67080Y730758D02*
X70080D01*
X68580Y729258D02*
Y732258D01*
X51840Y730758D02*
X54840D01*
X53340Y729258D02*
Y732258D01*
X37870Y730758D02*
X40870D01*
X39370Y729258D02*
Y732258D01*
X22630Y730758D02*
X25630D01*
X24130Y729258D02*
Y732258D01*
X6120Y730758D02*
X9120D01*
X7620Y729258D02*
Y732258D01*
X1185950Y10160D02*
X1188950D01*
X1187450Y8660D02*
Y11660D01*
X1164360Y10160D02*
X1167360D01*
X1165860Y8660D02*
Y11660D01*
X1142770Y10160D02*
X1145770D01*
X1144270Y8660D02*
Y11660D01*
X1119910Y10160D02*
X1122910D01*
X1121410Y8660D02*
Y11660D01*
X1100860Y10160D02*
X1103860D01*
X1102360Y8660D02*
Y11660D01*
X1079270Y10160D02*
X1082270D01*
X1080770Y8660D02*
Y11660D01*
X1058950Y10160D02*
X1061950D01*
X1060450Y8660D02*
Y11660D01*
X1039900Y10160D02*
X1042900D01*
X1041400Y8660D02*
Y11660D01*
X1022120Y10160D02*
X1025120D01*
X1023620Y8660D02*
Y11660D01*
X1000530Y10160D02*
X1003530D01*
X1002030Y8660D02*
Y11660D01*
X980210Y10160D02*
X983210D01*
X981710Y8660D02*
Y11660D01*
X958620Y10160D02*
X961620D01*
X960120Y8660D02*
Y11660D01*
X937030Y10160D02*
X940030D01*
X938530Y8660D02*
Y11660D01*
X916710Y10160D02*
X919710D01*
X918210Y8660D02*
Y11660D01*
X897660Y10160D02*
X900660D01*
X899160Y8660D02*
Y11660D01*
X877340Y10160D02*
X880340D01*
X878840Y8660D02*
Y11660D01*
X855750Y10160D02*
X858750D01*
X857250Y8660D02*
Y11660D01*
X835430Y10160D02*
X838430D01*
X836930Y8660D02*
Y11660D01*
X813840Y10160D02*
X816840D01*
X815340Y8660D02*
Y11660D01*
X792250Y10160D02*
X795250D01*
X793750Y8660D02*
Y11660D01*
X773200Y10160D02*
X776200D01*
X774700Y8660D02*
Y11660D01*
X752880Y10160D02*
X755880D01*
X754380Y8660D02*
Y11660D01*
X732560Y10160D02*
X735560D01*
X734060Y8660D02*
Y11660D01*
X710970Y10160D02*
X713970D01*
X712470Y8660D02*
Y11660D01*
X691920Y10160D02*
X694920D01*
X693420Y8660D02*
Y11660D01*
X674140Y10160D02*
X677140D01*
X675640Y8660D02*
Y11660D01*
X655090Y10160D02*
X658090D01*
X656590Y8660D02*
Y11660D01*
X634770Y10160D02*
X637770D01*
X636270Y8660D02*
Y11660D01*
X616990Y10160D02*
X619990D01*
X618490Y8660D02*
Y11660D01*
X596670Y10160D02*
X599670D01*
X598170Y8660D02*
Y11660D01*
X575080Y10160D02*
X578080D01*
X576580Y8660D02*
Y11660D01*
X556030Y10160D02*
X559030D01*
X557530Y8660D02*
Y11660D01*
X535710Y10160D02*
X538710D01*
X537210Y8660D02*
Y11660D01*
X516660Y10160D02*
X519660D01*
X518160Y8660D02*
Y11660D01*
X497610Y10160D02*
X500610D01*
X499110Y8660D02*
Y11660D01*
X478560Y10160D02*
X481560D01*
X480060Y8660D02*
Y11660D01*
X458240Y10160D02*
X461240D01*
X459740Y8660D02*
Y11660D01*
X437920Y10160D02*
X440920D01*
X439420Y8660D02*
Y11660D01*
X420140Y10160D02*
X423140D01*
X421640Y8660D02*
Y11660D01*
X401090Y10160D02*
X404090D01*
X402590Y8660D02*
Y11660D01*
X382040Y10160D02*
X385040D01*
X383540Y8660D02*
Y11660D01*
X361720Y10160D02*
X364720D01*
X363220Y8660D02*
Y11660D01*
X341400Y10160D02*
X344400D01*
X342900Y8660D02*
Y11660D01*
X322350Y10160D02*
X325350D01*
X323850Y8660D02*
Y11660D01*
X302030Y10160D02*
X305030D01*
X303530Y8660D02*
Y11660D01*
X282980Y10160D02*
X285980D01*
X284480Y8660D02*
Y11660D01*
X265200Y10160D02*
X268200D01*
X266700Y8660D02*
Y11660D01*
X248690Y10160D02*
X251690D01*
X250190Y8660D02*
Y11660D01*
X230910Y10160D02*
X233910D01*
X232410Y8660D02*
Y11660D01*
X214400Y10160D02*
X217400D01*
X215900Y8660D02*
Y11660D01*
X197890Y10160D02*
X200890D01*
X199390Y8660D02*
Y11660D01*
X181380Y10160D02*
X184380D01*
X182880Y8660D02*
Y11660D01*
X164870Y10160D02*
X167870D01*
X166370Y8660D02*
Y11660D01*
X148360Y10160D02*
X151360D01*
X149860Y8660D02*
Y11660D01*
X131850Y10160D02*
X134850D01*
X133350Y8660D02*
Y11660D01*
X116610Y10160D02*
X119610D01*
X118110Y8660D02*
Y11660D01*
X100100Y10160D02*
X103100D01*
X101600Y8660D02*
Y11660D01*
X83590Y10160D02*
X86590D01*
X85090Y8660D02*
Y11660D01*
X67080Y10160D02*
X70080D01*
X68580Y8660D02*
Y11660D01*
X51840Y10160D02*
X54840D01*
X53340Y8660D02*
Y11660D01*
X37870Y10160D02*
X40870D01*
X39370Y8660D02*
Y11660D01*
X22630Y10160D02*
X25630D01*
X24130Y8660D02*
Y11660D01*
X6120Y10160D02*
X9120D01*
X7620Y8660D02*
Y11660D01*
M02*
