G04*
G04 #@! TF.GenerationSoftware,Altium Limited,Altium Designer,25.3.3 (18)*
G04*
G04 Layer_Color=2752767*
%FSLAX44Y44*%
%MOMM*%
G71*
G04*
G04 #@! TF.SameCoordinates,6D202E75-467B-4672-BE30-C010D47AD25D*
G04*
G04*
G04 #@! TF.FilePolarity,Positive*
G04*
G01*
G75*
%ADD12C,0.1270*%
%ADD100C,0.1693*%
%ADD101C,0.1016*%
D12*
X967420Y317420D02*
X969960D01*
X972500Y319960D01*
X975040Y317420D01*
X977580D01*
Y319960D01*
X975040Y322500D01*
X977580Y325040D01*
Y327580D01*
X975040D01*
X972500Y325040D01*
X969960Y327580D01*
X967420D01*
Y325040D01*
X969960Y322500D01*
X967420Y319960D01*
Y317420D01*
X922420D02*
X924960D01*
X927500Y319960D01*
X930040Y317420D01*
X932580D01*
Y319960D01*
X930040Y322500D01*
X932580Y325040D01*
Y327580D01*
X930040D01*
X927500Y325040D01*
X924960Y327580D01*
X922420D01*
Y325040D01*
X924960Y322500D01*
X922420Y319960D01*
Y317420D01*
X967420Y252420D02*
X969960D01*
X972500Y254960D01*
X975040Y252420D01*
X977580D01*
Y254960D01*
X975040Y257500D01*
X977580Y260040D01*
Y262580D01*
X975040D01*
X972500Y260040D01*
X969960Y262580D01*
X967420D01*
Y260040D01*
X969960Y257500D01*
X967420Y254960D01*
Y252420D01*
X922420D02*
X924960D01*
X927500Y254960D01*
X930040Y252420D01*
X932580D01*
Y254960D01*
X930040Y257500D01*
X932580Y260040D01*
Y262580D01*
X930040D01*
X927500Y260040D01*
X924960Y262580D01*
X922420D01*
Y260040D01*
X924960Y257500D01*
X922420Y254960D01*
Y252420D01*
X38560Y580460D02*
Y590620D01*
X48720D01*
Y580460D01*
X38560D01*
X40592Y582492D02*
Y588588D01*
X46688D01*
Y582492D01*
X40592D01*
X38560Y493960D02*
Y504120D01*
X48720D01*
Y493960D01*
X38560D01*
X40592Y495992D02*
Y502088D01*
X46688D01*
Y495992D01*
X40592D01*
X77440Y580460D02*
X79980Y583000D01*
X82520D01*
X79980Y585540D01*
X82520Y588080D01*
X79980D01*
X77440Y590620D01*
X74900Y588080D01*
X72360D01*
X74900Y585540D01*
X72360Y583000D01*
X74900D01*
X77440Y580460D01*
Y493960D02*
X79980Y496500D01*
X82520D01*
X79980Y499040D01*
X82520Y501580D01*
X79980D01*
X77440Y504120D01*
X74900Y501580D01*
X72360D01*
X74900Y499040D01*
X72360Y496500D01*
X74900D01*
X77440Y493960D01*
X1018286Y590804D02*
X1013206Y600964D01*
X1023366D01*
X1018286Y590804D01*
Y616204D02*
X1013206Y626364D01*
X1023366D01*
X1018286Y616204D01*
X1038606Y590804D02*
Y600964D01*
X1048766D01*
Y590804D01*
X1038606D01*
Y616204D02*
Y626364D01*
X1048766D01*
Y616204D01*
X1038606D01*
X922420Y412420D02*
X924960D01*
X927500Y414960D01*
X930040Y412420D01*
X932580D01*
Y414960D01*
X930040Y417500D01*
X932580Y420040D01*
Y422580D01*
X930040D01*
X927500Y420040D01*
X924960Y422580D01*
X922420D01*
Y420040D01*
X924960Y417500D01*
X922420Y414960D01*
Y412420D01*
X967420D02*
X969960D01*
X972500Y414960D01*
X975040Y412420D01*
X977580D01*
Y414960D01*
X975040Y417500D01*
X977580Y420040D01*
Y422580D01*
X975040D01*
X972500Y420040D01*
X969960Y422580D01*
X967420D01*
Y420040D01*
X969960Y417500D01*
X967420Y414960D01*
Y412420D01*
X922420Y477420D02*
X924960D01*
X927500Y479960D01*
X930040Y477420D01*
X932580D01*
Y479960D01*
X930040Y482500D01*
X932580Y485040D01*
Y487580D01*
X930040D01*
X927500Y485040D01*
X924960Y487580D01*
X922420D01*
Y485040D01*
X924960Y482500D01*
X922420Y479960D01*
Y477420D01*
X967420D02*
X969960D01*
X972500Y479960D01*
X975040Y477420D01*
X977580D01*
Y479960D01*
X975040Y482500D01*
X977580Y485040D01*
Y487580D01*
X975040D01*
X972500Y485040D01*
X969960Y487580D01*
X967420D01*
Y485040D01*
X969960Y482500D01*
X967420Y479960D01*
Y477420D01*
X1021588Y256286D02*
Y253746D01*
X1026668D01*
Y256286D01*
X1029208D01*
Y261366D01*
X1026668D01*
Y263906D01*
X1021588D01*
Y261366D01*
X1019048D01*
Y256286D01*
X1021588D01*
X1043686Y133604D02*
Y143764D01*
X1053846D01*
Y133604D01*
X1043686D01*
Y108204D02*
Y118364D01*
X1053846D01*
Y108204D01*
X1043686D01*
X1023366Y133604D02*
X1018286Y143764D01*
X1028446D01*
X1023366Y133604D01*
Y108204D02*
X1018286Y118364D01*
X1028446D01*
X1023366Y108204D01*
X915162Y66548D02*
Y64008D01*
X920242D01*
Y66548D01*
X922782D01*
Y71628D01*
X920242D01*
Y74168D01*
X915162D01*
Y71628D01*
X912622D01*
Y66548D01*
X915162D01*
X1019048Y522986D02*
X1013968Y533146D01*
X1024128D01*
X1019048Y522986D01*
Y548386D02*
X1013968Y558546D01*
X1024128D01*
X1019048Y548386D01*
X1039368Y522986D02*
Y533146D01*
X1049528D01*
Y522986D01*
X1039368D01*
Y548386D02*
Y558546D01*
X1049528D01*
Y548386D01*
X1039368D01*
X232410Y276098D02*
X234950Y281178D01*
X232410Y286258D01*
X237490Y283718D01*
X242570Y286258D01*
X240030Y281178D01*
X242570Y276098D01*
X237490Y278638D01*
X232410Y276098D01*
X257810D02*
X260350Y281178D01*
X257810Y286258D01*
X262890Y283718D01*
X267970Y286258D01*
X265430Y281178D01*
X267970Y276098D01*
X262890Y278638D01*
X257810Y276098D01*
X232410Y301498D02*
X234950Y306578D01*
X232410Y311658D01*
X237490Y309118D01*
X242570Y311658D01*
X240030Y306578D01*
X242570Y301498D01*
X237490Y304038D01*
X232410Y301498D01*
X257810D02*
X260350Y306578D01*
X257810Y311658D01*
X262890Y309118D01*
X267970Y311658D01*
X265430Y306578D01*
X267970Y301498D01*
X262890Y304038D01*
X257810Y301498D01*
X232410Y326898D02*
X234950Y331978D01*
X232410Y337058D01*
X237490Y334518D01*
X242570Y337058D01*
X240030Y331978D01*
X242570Y326898D01*
X237490Y329438D01*
X232410Y326898D01*
X257810D02*
X260350Y331978D01*
X257810Y337058D01*
X262890Y334518D01*
X267970Y337058D01*
X265430Y331978D01*
X267970Y326898D01*
X262890Y329438D01*
X257810Y326898D01*
X232410Y352298D02*
X234950Y357378D01*
X232410Y362458D01*
X237490Y359918D01*
X242570Y362458D01*
X240030Y357378D01*
X242570Y352298D01*
X237490Y354838D01*
X232410Y352298D01*
X257810D02*
X260350Y357378D01*
X257810Y362458D01*
X262890Y359918D01*
X267970Y362458D01*
X265430Y357378D01*
X267970Y352298D01*
X262890Y354838D01*
X257810Y352298D01*
X232410Y377698D02*
X234950Y382778D01*
X232410Y387858D01*
X237490Y385318D01*
X242570Y387858D01*
X240030Y382778D01*
X242570Y377698D01*
X237490Y380238D01*
X232410Y377698D01*
X257810D02*
X260350Y382778D01*
X257810Y387858D01*
X262890Y385318D01*
X267970Y387858D01*
X265430Y382778D01*
X267970Y377698D01*
X262890Y380238D01*
X257810Y377698D01*
X232410Y403098D02*
X234950Y408178D01*
X232410Y413258D01*
X237490Y410718D01*
X242570Y413258D01*
X240030Y408178D01*
X242570Y403098D01*
X237490Y405638D01*
X232410Y403098D01*
X257810D02*
X260350Y408178D01*
X257810Y413258D01*
X262890Y410718D01*
X267970Y413258D01*
X265430Y408178D01*
X267970Y403098D01*
X262890Y405638D01*
X257810Y403098D01*
X232410Y428498D02*
X234950Y433578D01*
X232410Y438658D01*
X237490Y436118D01*
X242570Y438658D01*
X240030Y433578D01*
X242570Y428498D01*
X237490Y431038D01*
X232410Y428498D01*
X257810D02*
X260350Y433578D01*
X257810Y438658D01*
X262890Y436118D01*
X267970Y438658D01*
X265430Y433578D01*
X267970Y428498D01*
X262890Y431038D01*
X257810Y428498D01*
X232410Y453898D02*
X234950Y458978D01*
X232410Y464058D01*
X237490Y461518D01*
X242570Y464058D01*
X240030Y458978D01*
X242570Y453898D01*
X237490Y456438D01*
X232410Y453898D01*
X257810D02*
X260350Y458978D01*
X257810Y464058D01*
X262890Y461518D01*
X267970Y464058D01*
X265430Y458978D01*
X267970Y453898D01*
X262890Y456438D01*
X257810Y453898D01*
X991108Y188468D02*
Y185928D01*
X996188D01*
Y188468D01*
X998728D01*
Y193548D01*
X996188D01*
Y196088D01*
X991108D01*
Y193548D01*
X988568D01*
Y188468D01*
X991108D01*
X438150Y609854D02*
X440690Y614934D01*
X438150Y620014D01*
X443230Y617474D01*
X448310Y620014D01*
X445770Y614934D01*
X448310Y609854D01*
X443230Y612394D01*
X438150Y609854D01*
X412750D02*
X415290Y614934D01*
X412750Y620014D01*
X417830Y617474D01*
X422910Y620014D01*
X420370Y614934D01*
X422910Y609854D01*
X417830Y612394D01*
X412750Y609854D01*
X387350D02*
X389890Y614934D01*
X387350Y620014D01*
X392430Y617474D01*
X397510Y620014D01*
X394970Y614934D01*
X397510Y609854D01*
X392430Y612394D01*
X387350Y609854D01*
X361950D02*
X364490Y614934D01*
X361950Y620014D01*
X367030Y617474D01*
X372110Y620014D01*
X369570Y614934D01*
X372110Y609854D01*
X367030Y612394D01*
X361950Y609854D01*
X336550D02*
X339090Y614934D01*
X336550Y620014D01*
X341630Y617474D01*
X346710Y620014D01*
X344170Y614934D01*
X346710Y609854D01*
X341630Y612394D01*
X336550Y609854D01*
X311150D02*
X313690Y614934D01*
X311150Y620014D01*
X316230Y617474D01*
X321310Y620014D01*
X318770Y614934D01*
X321310Y609854D01*
X316230Y612394D01*
X311150Y609854D01*
X645308Y164326D02*
X647848D01*
X650388Y166866D01*
X652928Y164326D01*
X655468D01*
Y166866D01*
X652928Y169406D01*
X655468Y171946D01*
Y174486D01*
X652928D01*
X650388Y171946D01*
X647848Y174486D01*
X645308D01*
Y171946D01*
X647848Y169406D01*
X645308Y166866D01*
Y164326D01*
X600308D02*
X602848D01*
X605388Y166866D01*
X607928Y164326D01*
X610468D01*
Y166866D01*
X607928Y169406D01*
X610468Y171946D01*
Y174486D01*
X607928D01*
X605388Y171946D01*
X602848Y174486D01*
X600308D01*
Y171946D01*
X602848Y169406D01*
X600308Y166866D01*
Y164326D01*
X645308Y99326D02*
X647848D01*
X650388Y101866D01*
X652928Y99326D01*
X655468D01*
Y101866D01*
X652928Y104406D01*
X655468Y106946D01*
Y109486D01*
X652928D01*
X650388Y106946D01*
X647848Y109486D01*
X645308D01*
Y106946D01*
X647848Y104406D01*
X645308Y101866D01*
Y99326D01*
X600308D02*
X602848D01*
X605388Y101866D01*
X607928Y99326D01*
X610468D01*
Y101866D01*
X607928Y104406D01*
X610468Y106946D01*
Y109486D01*
X607928D01*
X605388Y106946D01*
X602848Y109486D01*
X600308D01*
Y106946D01*
X602848Y104406D01*
X600308Y101866D01*
Y99326D01*
X38608Y169920D02*
X41148Y172460D01*
X43688D01*
X41148Y175000D01*
X43688Y177540D01*
X41148D01*
X38608Y180080D01*
X36068Y177540D01*
X33528D01*
X36068Y175000D01*
X33528Y172460D01*
X36068D01*
X38608Y169920D01*
Y171952D02*
X40132Y173476D01*
X41656D01*
X40132Y175000D01*
X41656Y176524D01*
X40132D01*
X38608Y178048D01*
X37084Y176524D01*
X35560D01*
X37084Y175000D01*
X35560Y173476D01*
X37084D01*
X38608Y171952D01*
Y219920D02*
X41148Y222460D01*
X43688D01*
X41148Y225000D01*
X43688Y227540D01*
X41148D01*
X38608Y230080D01*
X36068Y227540D01*
X33528D01*
X36068Y225000D01*
X33528Y222460D01*
X36068D01*
X38608Y219920D01*
Y221952D02*
X40132Y223476D01*
X41656D01*
X40132Y225000D01*
X41656Y226524D01*
X40132D01*
X38608Y228048D01*
X37084Y226524D01*
X35560D01*
X37084Y225000D01*
X35560Y223476D01*
X37084D01*
X38608Y221952D01*
X68072Y160782D02*
Y158242D01*
X73152D01*
Y160782D01*
X75692D01*
Y165862D01*
X73152D01*
Y168402D01*
X68072D01*
Y165862D01*
X65532D01*
Y160782D01*
X68072D01*
X69088Y161798D02*
Y160274D01*
X72136D01*
Y161798D01*
X73660D01*
Y164846D01*
X72136D01*
Y166370D01*
X69088D01*
Y164846D01*
X67564D01*
Y161798D01*
X69088D01*
X80264Y160782D02*
Y158242D01*
X85344D01*
Y160782D01*
X87884D01*
Y165862D01*
X85344D01*
Y168402D01*
X80264D01*
Y165862D01*
X77724D01*
Y160782D01*
X80264D01*
X81280Y161798D02*
Y160274D01*
X84328D01*
Y161798D01*
X85852D01*
Y164846D01*
X84328D01*
Y166370D01*
X81280D01*
Y164846D01*
X79756D01*
Y161798D01*
X81280D01*
X68072Y171196D02*
Y168656D01*
X73152D01*
Y171196D01*
X75692D01*
Y176276D01*
X73152D01*
Y178816D01*
X68072D01*
Y176276D01*
X65532D01*
Y171196D01*
X68072D01*
X69088Y172212D02*
Y170688D01*
X72136D01*
Y172212D01*
X73660D01*
Y175260D01*
X72136D01*
Y176784D01*
X69088D01*
Y175260D01*
X67564D01*
Y172212D01*
X69088D01*
X80264Y171196D02*
Y168656D01*
X85344D01*
Y171196D01*
X87884D01*
Y176276D01*
X85344D01*
Y178816D01*
X80264D01*
Y176276D01*
X77724D01*
Y171196D01*
X80264D01*
X81280Y172212D02*
Y170688D01*
X84328D01*
Y172212D01*
X85852D01*
Y175260D01*
X84328D01*
Y176784D01*
X81280D01*
Y175260D01*
X79756D01*
Y172212D01*
X81280D01*
X80518Y228600D02*
Y226060D01*
X85598D01*
Y228600D01*
X88138D01*
Y233680D01*
X85598D01*
Y236220D01*
X80518D01*
Y233680D01*
X77978D01*
Y228600D01*
X80518D01*
X81534Y229616D02*
Y228092D01*
X84582D01*
Y229616D01*
X86106D01*
Y232664D01*
X84582D01*
Y234188D01*
X81534D01*
Y232664D01*
X80010D01*
Y229616D01*
X81534D01*
X68326Y228600D02*
Y226060D01*
X73406D01*
Y228600D01*
X75946D01*
Y233680D01*
X73406D01*
Y236220D01*
X68326D01*
Y233680D01*
X65786D01*
Y228600D01*
X68326D01*
X69342Y229616D02*
Y228092D01*
X72390D01*
Y229616D01*
X73914D01*
Y232664D01*
X72390D01*
Y234188D01*
X69342D01*
Y232664D01*
X67818D01*
Y229616D01*
X69342D01*
X80518Y218186D02*
Y215646D01*
X85598D01*
Y218186D01*
X88138D01*
Y223266D01*
X85598D01*
Y225806D01*
X80518D01*
Y223266D01*
X77978D01*
Y218186D01*
X80518D01*
X81534Y219202D02*
Y217678D01*
X84582D01*
Y219202D01*
X86106D01*
Y222250D01*
X84582D01*
Y223774D01*
X81534D01*
Y222250D01*
X80010D01*
Y219202D01*
X81534D01*
X376682Y431292D02*
Y428752D01*
X381762D01*
Y431292D01*
X384302D01*
Y436372D01*
X381762D01*
Y438912D01*
X376682D01*
Y436372D01*
X374142D01*
Y431292D01*
X376682D01*
X377698Y432308D02*
Y430784D01*
X380746D01*
Y432308D01*
X382270D01*
Y435356D01*
X380746D01*
Y436880D01*
X377698D01*
Y435356D01*
X376174D01*
Y432308D01*
X377698D01*
X68326Y218186D02*
Y215646D01*
X73406D01*
Y218186D01*
X75946D01*
Y223266D01*
X73406D01*
Y225806D01*
X68326D01*
Y223266D01*
X65786D01*
Y218186D01*
X68326D01*
X69342Y219202D02*
Y217678D01*
X72390D01*
Y219202D01*
X73914D01*
Y222250D01*
X72390D01*
Y223774D01*
X69342D01*
Y222250D01*
X67818D01*
Y219202D01*
X69342D01*
X331724Y383540D02*
Y381000D01*
X336804D01*
Y383540D01*
X339344D01*
Y388620D01*
X336804D01*
Y391160D01*
X331724D01*
Y388620D01*
X329184D01*
Y383540D01*
X331724D01*
X332740Y384556D02*
Y383032D01*
X335788D01*
Y384556D01*
X337312D01*
Y387604D01*
X335788D01*
Y389128D01*
X332740D01*
Y387604D01*
X331216D01*
Y384556D01*
X332740D01*
X1270098Y700000D02*
X1275178Y705080D01*
X1280258Y700000D01*
X1275178Y694920D01*
X1270098Y700000D01*
Y600000D02*
X1275178Y605080D01*
X1280258Y600000D01*
X1275178Y594920D01*
X1270098Y600000D01*
X1245098Y550000D02*
X1250178Y555080D01*
X1255258Y550000D01*
X1250178Y544920D01*
X1245098Y550000D01*
X1270098Y500000D02*
X1275178Y505080D01*
X1280258Y500000D01*
X1275178Y494920D01*
X1270098Y500000D01*
Y400000D02*
X1275178Y405080D01*
X1280258Y400000D01*
X1275178Y394920D01*
X1270098Y400000D01*
X1245098Y350000D02*
X1250178Y355080D01*
X1255258Y350000D01*
X1250178Y344920D01*
X1245098Y350000D01*
X1270098Y300000D02*
X1275178Y305080D01*
X1280258Y300000D01*
X1275178Y294920D01*
X1270098Y300000D01*
X1245098Y250000D02*
X1250178Y255080D01*
X1255258Y250000D01*
X1250178Y244920D01*
X1245098Y250000D01*
X1270098Y200000D02*
X1275178Y205080D01*
X1280258Y200000D01*
X1275178Y194920D01*
X1270098Y200000D01*
X1245098Y150000D02*
X1250178Y155080D01*
X1255258Y150000D01*
X1250178Y144920D01*
X1245098Y150000D01*
X1270098Y100000D02*
X1275178Y105080D01*
X1280258Y100000D01*
X1275178Y94920D01*
X1270098Y100000D01*
X1245098Y50000D02*
X1250178Y55080D01*
X1255258Y50000D01*
X1250178Y44920D01*
X1245098Y50000D01*
X1220098Y700000D02*
X1225178Y705080D01*
X1230258Y700000D01*
X1225178Y694920D01*
X1220098Y700000D01*
X1195098Y650000D02*
X1200178Y655080D01*
X1205258Y650000D01*
X1200178Y644920D01*
X1195098Y650000D01*
X1220098Y600000D02*
X1225178Y605080D01*
X1230258Y600000D01*
X1225178Y594920D01*
X1220098Y600000D01*
X1195098Y550000D02*
X1200178Y555080D01*
X1205258Y550000D01*
X1200178Y544920D01*
X1195098Y550000D01*
X1220098Y500000D02*
X1225178Y505080D01*
X1230258Y500000D01*
X1225178Y494920D01*
X1220098Y500000D01*
X1195098Y450000D02*
X1200178Y455080D01*
X1205258Y450000D01*
X1200178Y444920D01*
X1195098Y450000D01*
X1220098Y400000D02*
X1225178Y405080D01*
X1230258Y400000D01*
X1225178Y394920D01*
X1220098Y400000D01*
X1195098Y350000D02*
X1200178Y355080D01*
X1205258Y350000D01*
X1200178Y344920D01*
X1195098Y350000D01*
X1220098Y300000D02*
X1225178Y305080D01*
X1230258Y300000D01*
X1225178Y294920D01*
X1220098Y300000D01*
X1195098Y250000D02*
X1200178Y255080D01*
X1205258Y250000D01*
X1200178Y244920D01*
X1195098Y250000D01*
X1220098Y200000D02*
X1225178Y205080D01*
X1230258Y200000D01*
X1225178Y194920D01*
X1220098Y200000D01*
X1195098Y150000D02*
X1200178Y155080D01*
X1205258Y150000D01*
X1200178Y144920D01*
X1195098Y150000D01*
X1220098Y100000D02*
X1225178Y105080D01*
X1230258Y100000D01*
X1225178Y94920D01*
X1220098Y100000D01*
X1195098Y50000D02*
X1200178Y55080D01*
X1205258Y50000D01*
X1200178Y44920D01*
X1195098Y50000D01*
X1170098Y700000D02*
X1175178Y705080D01*
X1180258Y700000D01*
X1175178Y694920D01*
X1170098Y700000D01*
X1145098Y650000D02*
X1150178Y655080D01*
X1155258Y650000D01*
X1150178Y644920D01*
X1145098Y650000D01*
X1170098Y600000D02*
X1175178Y605080D01*
X1180258Y600000D01*
X1175178Y594920D01*
X1170098Y600000D01*
X1145098Y550000D02*
X1150178Y555080D01*
X1155258Y550000D01*
X1150178Y544920D01*
X1145098Y550000D01*
X1170098Y500000D02*
X1175178Y505080D01*
X1180258Y500000D01*
X1175178Y494920D01*
X1170098Y500000D01*
X1145098Y450000D02*
X1150178Y455080D01*
X1155258Y450000D01*
X1150178Y444920D01*
X1145098Y450000D01*
X1170098Y400000D02*
X1175178Y405080D01*
X1180258Y400000D01*
X1175178Y394920D01*
X1170098Y400000D01*
X1145098Y350000D02*
X1150178Y355080D01*
X1155258Y350000D01*
X1150178Y344920D01*
X1145098Y350000D01*
X1170098Y300000D02*
X1175178Y305080D01*
X1180258Y300000D01*
X1175178Y294920D01*
X1170098Y300000D01*
X1145098Y250000D02*
X1150178Y255080D01*
X1155258Y250000D01*
X1150178Y244920D01*
X1145098Y250000D01*
X1170098Y200000D02*
X1175178Y205080D01*
X1180258Y200000D01*
X1175178Y194920D01*
X1170098Y200000D01*
X1145098Y150000D02*
X1150178Y155080D01*
X1155258Y150000D01*
X1150178Y144920D01*
X1145098Y150000D01*
X1170098Y100000D02*
X1175178Y105080D01*
X1180258Y100000D01*
X1175178Y94920D01*
X1170098Y100000D01*
X1145098Y50000D02*
X1150178Y55080D01*
X1155258Y50000D01*
X1150178Y44920D01*
X1145098Y50000D01*
X1120098Y700000D02*
X1125178Y705080D01*
X1130258Y700000D01*
X1125178Y694920D01*
X1120098Y700000D01*
X1095098Y650000D02*
X1100178Y655080D01*
X1105258Y650000D01*
X1100178Y644920D01*
X1095098Y650000D01*
X1120098Y600000D02*
X1125178Y605080D01*
X1130258Y600000D01*
X1125178Y594920D01*
X1120098Y600000D01*
X1095098Y550000D02*
X1100178Y555080D01*
X1105258Y550000D01*
X1100178Y544920D01*
X1095098Y550000D01*
X1120098Y500000D02*
X1125178Y505080D01*
X1130258Y500000D01*
X1125178Y494920D01*
X1120098Y500000D01*
X1095098Y450000D02*
X1100178Y455080D01*
X1105258Y450000D01*
X1100178Y444920D01*
X1095098Y450000D01*
X1120098Y400000D02*
X1125178Y405080D01*
X1130258Y400000D01*
X1125178Y394920D01*
X1120098Y400000D01*
X1095098Y350000D02*
X1100178Y355080D01*
X1105258Y350000D01*
X1100178Y344920D01*
X1095098Y350000D01*
X1120098Y300000D02*
X1125178Y305080D01*
X1130258Y300000D01*
X1125178Y294920D01*
X1120098Y300000D01*
X1095098Y250000D02*
X1100178Y255080D01*
X1105258Y250000D01*
X1100178Y244920D01*
X1095098Y250000D01*
X1120098Y200000D02*
X1125178Y205080D01*
X1130258Y200000D01*
X1125178Y194920D01*
X1120098Y200000D01*
X1095098Y150000D02*
X1100178Y155080D01*
X1105258Y150000D01*
X1100178Y144920D01*
X1095098Y150000D01*
X1120098Y100000D02*
X1125178Y105080D01*
X1130258Y100000D01*
X1125178Y94920D01*
X1120098Y100000D01*
X1095098Y50000D02*
X1100178Y55080D01*
X1105258Y50000D01*
X1100178Y44920D01*
X1095098Y50000D01*
X1070098Y700000D02*
X1075178Y705080D01*
X1080258Y700000D01*
X1075178Y694920D01*
X1070098Y700000D01*
X1045098Y650000D02*
X1050178Y655080D01*
X1055258Y650000D01*
X1050178Y644920D01*
X1045098Y650000D01*
X1070098Y600000D02*
X1075178Y605080D01*
X1080258Y600000D01*
X1075178Y594920D01*
X1070098Y600000D01*
Y500000D02*
X1075178Y505080D01*
X1080258Y500000D01*
X1075178Y494920D01*
X1070098Y500000D01*
X1045098Y450000D02*
X1050178Y455080D01*
X1055258Y450000D01*
X1050178Y444920D01*
X1045098Y450000D01*
X1070098Y400000D02*
X1075178Y405080D01*
X1080258Y400000D01*
X1075178Y394920D01*
X1070098Y400000D01*
X1045098Y350000D02*
X1050178Y355080D01*
X1055258Y350000D01*
X1050178Y344920D01*
X1045098Y350000D01*
X1070098Y300000D02*
X1075178Y305080D01*
X1080258Y300000D01*
X1075178Y294920D01*
X1070098Y300000D01*
X1045098Y250000D02*
X1050178Y255080D01*
X1055258Y250000D01*
X1050178Y244920D01*
X1045098Y250000D01*
X1070098Y200000D02*
X1075178Y205080D01*
X1080258Y200000D01*
X1075178Y194920D01*
X1070098Y200000D01*
X1045098Y150000D02*
X1050178Y155080D01*
X1055258Y150000D01*
X1050178Y144920D01*
X1045098Y150000D01*
X1070098Y100000D02*
X1075178Y105080D01*
X1080258Y100000D01*
X1075178Y94920D01*
X1070098Y100000D01*
X1045098Y50000D02*
X1050178Y55080D01*
X1055258Y50000D01*
X1050178Y44920D01*
X1045098Y50000D01*
X1020098Y700000D02*
X1025178Y705080D01*
X1030258Y700000D01*
X1025178Y694920D01*
X1020098Y700000D01*
X995098Y650000D02*
X1000178Y655080D01*
X1005258Y650000D01*
X1000178Y644920D01*
X995098Y650000D01*
Y550000D02*
X1000178Y555080D01*
X1005258Y550000D01*
X1000178Y544920D01*
X995098Y550000D01*
X1020098Y500000D02*
X1025178Y505080D01*
X1030258Y500000D01*
X1025178Y494920D01*
X1020098Y500000D01*
X995098Y450000D02*
X1000178Y455080D01*
X1005258Y450000D01*
X1000178Y444920D01*
X995098Y450000D01*
X1020098Y400000D02*
X1025178Y405080D01*
X1030258Y400000D01*
X1025178Y394920D01*
X1020098Y400000D01*
X995098Y350000D02*
X1000178Y355080D01*
X1005258Y350000D01*
X1000178Y344920D01*
X995098Y350000D01*
X1020098Y300000D02*
X1025178Y305080D01*
X1030258Y300000D01*
X1025178Y294920D01*
X1020098Y300000D01*
X995098Y250000D02*
X1000178Y255080D01*
X1005258Y250000D01*
X1000178Y244920D01*
X995098Y250000D01*
X1020098Y200000D02*
X1025178Y205080D01*
X1030258Y200000D01*
X1025178Y194920D01*
X1020098Y200000D01*
X995098Y50000D02*
X1000178Y55080D01*
X1005258Y50000D01*
X1000178Y44920D01*
X995098Y50000D01*
X970098Y700000D02*
X975178Y705080D01*
X980258Y700000D01*
X975178Y694920D01*
X970098Y700000D01*
X945098Y650000D02*
X950178Y655080D01*
X955258Y650000D01*
X950178Y644920D01*
X945098Y650000D01*
X970098Y600000D02*
X975178Y605080D01*
X980258Y600000D01*
X975178Y594920D01*
X970098Y600000D01*
X945098Y550000D02*
X950178Y555080D01*
X955258Y550000D01*
X950178Y544920D01*
X945098Y550000D01*
X970098Y500000D02*
X975178Y505080D01*
X980258Y500000D01*
X975178Y494920D01*
X970098Y500000D01*
X945098Y450000D02*
X950178Y455080D01*
X955258Y450000D01*
X950178Y444920D01*
X945098Y450000D01*
Y350000D02*
X950178Y355080D01*
X955258Y350000D01*
X950178Y344920D01*
X945098Y350000D01*
X970098Y300000D02*
X975178Y305080D01*
X980258Y300000D01*
X975178Y294920D01*
X970098Y300000D01*
X945098Y250000D02*
X950178Y255080D01*
X955258Y250000D01*
X950178Y244920D01*
X945098Y250000D01*
X970098Y200000D02*
X975178Y205080D01*
X980258Y200000D01*
X975178Y194920D01*
X970098Y200000D01*
X945098Y50000D02*
X950178Y55080D01*
X955258Y50000D01*
X950178Y44920D01*
X945098Y50000D01*
X920098Y700000D02*
X925178Y705080D01*
X930258Y700000D01*
X925178Y694920D01*
X920098Y700000D01*
X895098Y650000D02*
X900178Y655080D01*
X905258Y650000D01*
X900178Y644920D01*
X895098Y650000D01*
X920098Y600000D02*
X925178Y605080D01*
X930258Y600000D01*
X925178Y594920D01*
X920098Y600000D01*
X895098Y550000D02*
X900178Y555080D01*
X905258Y550000D01*
X900178Y544920D01*
X895098Y550000D01*
X920098Y500000D02*
X925178Y505080D01*
X930258Y500000D01*
X925178Y494920D01*
X920098Y500000D01*
X895098Y450000D02*
X900178Y455080D01*
X905258Y450000D01*
X900178Y444920D01*
X895098Y450000D01*
X920098Y400000D02*
X925178Y405080D01*
X930258Y400000D01*
X925178Y394920D01*
X920098Y400000D01*
X895098Y350000D02*
X900178Y355080D01*
X905258Y350000D01*
X900178Y344920D01*
X895098Y350000D01*
X920098Y200000D02*
X925178Y205080D01*
X930258Y200000D01*
X925178Y194920D01*
X920098Y200000D01*
X895098Y50000D02*
X900178Y55080D01*
X905258Y50000D01*
X900178Y44920D01*
X895098Y50000D01*
X870098Y700000D02*
X875178Y705080D01*
X880258Y700000D01*
X875178Y694920D01*
X870098Y700000D01*
X845098Y650000D02*
X850178Y655080D01*
X855258Y650000D01*
X850178Y644920D01*
X845098Y650000D01*
X870098Y600000D02*
X875178Y605080D01*
X880258Y600000D01*
X875178Y594920D01*
X870098Y600000D01*
X845098Y550000D02*
X850178Y555080D01*
X855258Y550000D01*
X850178Y544920D01*
X845098Y550000D01*
X870098Y500000D02*
X875178Y505080D01*
X880258Y500000D01*
X875178Y494920D01*
X870098Y500000D01*
X845098Y450000D02*
X850178Y455080D01*
X855258Y450000D01*
X850178Y444920D01*
X845098Y450000D01*
X870098Y400000D02*
X875178Y405080D01*
X880258Y400000D01*
X875178Y394920D01*
X870098Y400000D01*
Y300000D02*
X875178Y305080D01*
X880258Y300000D01*
X875178Y294920D01*
X870098Y300000D01*
X845098Y250000D02*
X850178Y255080D01*
X855258Y250000D01*
X850178Y244920D01*
X845098Y250000D01*
X870098Y200000D02*
X875178Y205080D01*
X880258Y200000D01*
X875178Y194920D01*
X870098Y200000D01*
X845098Y50000D02*
X850178Y55080D01*
X855258Y50000D01*
X850178Y44920D01*
X845098Y50000D01*
X820098Y700000D02*
X825178Y705080D01*
X830258Y700000D01*
X825178Y694920D01*
X820098Y700000D01*
X795098Y650000D02*
X800178Y655080D01*
X805258Y650000D01*
X800178Y644920D01*
X795098Y650000D01*
X820098Y600000D02*
X825178Y605080D01*
X830258Y600000D01*
X825178Y594920D01*
X820098Y600000D01*
X795098Y550000D02*
X800178Y555080D01*
X805258Y550000D01*
X800178Y544920D01*
X795098Y550000D01*
X820098Y500000D02*
X825178Y505080D01*
X830258Y500000D01*
X825178Y494920D01*
X820098Y500000D01*
X795098Y450000D02*
X800178Y455080D01*
X805258Y450000D01*
X800178Y444920D01*
X795098Y450000D01*
Y350000D02*
X800178Y355080D01*
X805258Y350000D01*
X800178Y344920D01*
X795098Y350000D01*
X820098Y300000D02*
X825178Y305080D01*
X830258Y300000D01*
X825178Y294920D01*
X820098Y300000D01*
X770098Y700000D02*
X775178Y705080D01*
X780258Y700000D01*
X775178Y694920D01*
X770098Y700000D01*
X745098Y650000D02*
X750178Y655080D01*
X755258Y650000D01*
X750178Y644920D01*
X745098Y650000D01*
X770098Y600000D02*
X775178Y605080D01*
X780258Y600000D01*
X775178Y594920D01*
X770098Y600000D01*
X745098Y550000D02*
X750178Y555080D01*
X755258Y550000D01*
X750178Y544920D01*
X745098Y550000D01*
Y450000D02*
X750178Y455080D01*
X755258Y450000D01*
X750178Y444920D01*
X745098Y450000D01*
X770098Y400000D02*
X775178Y405080D01*
X780258Y400000D01*
X775178Y394920D01*
X770098Y400000D01*
X745098Y350000D02*
X750178Y355080D01*
X755258Y350000D01*
X750178Y344920D01*
X745098Y350000D01*
X770098Y300000D02*
X775178Y305080D01*
X780258Y300000D01*
X775178Y294920D01*
X770098Y300000D01*
X720098Y700000D02*
X725178Y705080D01*
X730258Y700000D01*
X725178Y694920D01*
X720098Y700000D01*
X695098Y650000D02*
X700178Y655080D01*
X705258Y650000D01*
X700178Y644920D01*
X695098Y650000D01*
X720098Y600000D02*
X725178Y605080D01*
X730258Y600000D01*
X725178Y594920D01*
X720098Y600000D01*
X695098Y550000D02*
X700178Y555080D01*
X705258Y550000D01*
X700178Y544920D01*
X695098Y550000D01*
X720098Y500000D02*
X725178Y505080D01*
X730258Y500000D01*
X725178Y494920D01*
X720098Y500000D01*
X695098Y450000D02*
X700178Y455080D01*
X705258Y450000D01*
X700178Y444920D01*
X695098Y450000D01*
X720098Y400000D02*
X725178Y405080D01*
X730258Y400000D01*
X725178Y394920D01*
X720098Y400000D01*
X695098Y350000D02*
X700178Y355080D01*
X705258Y350000D01*
X700178Y344920D01*
X695098Y350000D01*
X720098Y300000D02*
X725178Y305080D01*
X730258Y300000D01*
X725178Y294920D01*
X720098Y300000D01*
X695098Y250000D02*
X700178Y255080D01*
X705258Y250000D01*
X700178Y244920D01*
X695098Y250000D01*
Y150000D02*
X700178Y155080D01*
X705258Y150000D01*
X700178Y144920D01*
X695098Y150000D01*
X670098Y700000D02*
X675178Y705080D01*
X680258Y700000D01*
X675178Y694920D01*
X670098Y700000D01*
X645098Y650000D02*
X650178Y655080D01*
X655258Y650000D01*
X650178Y644920D01*
X645098Y650000D01*
X670098Y600000D02*
X675178Y605080D01*
X680258Y600000D01*
X675178Y594920D01*
X670098Y600000D01*
X645098Y550000D02*
X650178Y555080D01*
X655258Y550000D01*
X650178Y544920D01*
X645098Y550000D01*
X670098Y500000D02*
X675178Y505080D01*
X680258Y500000D01*
X675178Y494920D01*
X670098Y500000D01*
X645098Y450000D02*
X650178Y455080D01*
X655258Y450000D01*
X650178Y444920D01*
X645098Y450000D01*
X670098Y400000D02*
X675178Y405080D01*
X680258Y400000D01*
X675178Y394920D01*
X670098Y400000D01*
X645098Y350000D02*
X650178Y355080D01*
X655258Y350000D01*
X650178Y344920D01*
X645098Y350000D01*
X670098Y300000D02*
X675178Y305080D01*
X680258Y300000D01*
X675178Y294920D01*
X670098Y300000D01*
Y200000D02*
X675178Y205080D01*
X680258Y200000D01*
X675178Y194920D01*
X670098Y200000D01*
X645098Y150000D02*
X650178Y155080D01*
X655258Y150000D01*
X650178Y144920D01*
X645098Y150000D01*
X620098Y700000D02*
X625178Y705080D01*
X630258Y700000D01*
X625178Y694920D01*
X620098Y700000D01*
X595098Y650000D02*
X600178Y655080D01*
X605258Y650000D01*
X600178Y644920D01*
X595098Y650000D01*
X620098Y600000D02*
X625178Y605080D01*
X630258Y600000D01*
X625178Y594920D01*
X620098Y600000D01*
X595098Y550000D02*
X600178Y555080D01*
X605258Y550000D01*
X600178Y544920D01*
X595098Y550000D01*
X620098Y500000D02*
X625178Y505080D01*
X630258Y500000D01*
X625178Y494920D01*
X620098Y500000D01*
X595098Y450000D02*
X600178Y455080D01*
X605258Y450000D01*
X600178Y444920D01*
X595098Y450000D01*
X620098Y400000D02*
X625178Y405080D01*
X630258Y400000D01*
X625178Y394920D01*
X620098Y400000D01*
X595098Y350000D02*
X600178Y355080D01*
X605258Y350000D01*
X600178Y344920D01*
X595098Y350000D01*
Y250000D02*
X600178Y255080D01*
X605258Y250000D01*
X600178Y244920D01*
X595098Y250000D01*
Y150000D02*
X600178Y155080D01*
X605258Y150000D01*
X600178Y144920D01*
X595098Y150000D01*
X620098Y100000D02*
X625178Y105080D01*
X630258Y100000D01*
X625178Y94920D01*
X620098Y100000D01*
X570098Y700000D02*
X575178Y705080D01*
X580258Y700000D01*
X575178Y694920D01*
X570098Y700000D01*
X545098Y650000D02*
X550178Y655080D01*
X555258Y650000D01*
X550178Y644920D01*
X545098Y650000D01*
X570098Y600000D02*
X575178Y605080D01*
X580258Y600000D01*
X575178Y594920D01*
X570098Y600000D01*
X545098Y550000D02*
X550178Y555080D01*
X555258Y550000D01*
X550178Y544920D01*
X545098Y550000D01*
X570098Y500000D02*
X575178Y505080D01*
X580258Y500000D01*
X575178Y494920D01*
X570098Y500000D01*
X545098Y450000D02*
X550178Y455080D01*
X555258Y450000D01*
X550178Y444920D01*
X545098Y450000D01*
X570098Y400000D02*
X575178Y405080D01*
X580258Y400000D01*
X575178Y394920D01*
X570098Y400000D01*
Y300000D02*
X575178Y305080D01*
X580258Y300000D01*
X575178Y294920D01*
X570098Y300000D01*
X545098Y250000D02*
X550178Y255080D01*
X555258Y250000D01*
X550178Y244920D01*
X545098Y250000D01*
X570098Y200000D02*
X575178Y205080D01*
X580258Y200000D01*
X575178Y194920D01*
X570098Y200000D01*
X520098Y700000D02*
X525178Y705080D01*
X530258Y700000D01*
X525178Y694920D01*
X520098Y700000D01*
X495098Y650000D02*
X500178Y655080D01*
X505258Y650000D01*
X500178Y644920D01*
X495098Y650000D01*
Y550000D02*
X500178Y555080D01*
X505258Y550000D01*
X500178Y544920D01*
X495098Y550000D01*
X520098Y500000D02*
X525178Y505080D01*
X530258Y500000D01*
X525178Y494920D01*
X520098Y500000D01*
X495098Y450000D02*
X500178Y455080D01*
X505258Y450000D01*
X500178Y444920D01*
X495098Y450000D01*
Y350000D02*
X500178Y355080D01*
X505258Y350000D01*
X500178Y344920D01*
X495098Y350000D01*
Y250000D02*
X500178Y255080D01*
X505258Y250000D01*
X500178Y244920D01*
X495098Y250000D01*
X520098Y200000D02*
X525178Y205080D01*
X530258Y200000D01*
X525178Y194920D01*
X520098Y200000D01*
X470098Y700000D02*
X475178Y705080D01*
X480258Y700000D01*
X475178Y694920D01*
X470098Y700000D01*
X445098Y650000D02*
X450178Y655080D01*
X455258Y650000D01*
X450178Y644920D01*
X445098Y650000D01*
X470098Y600000D02*
X475178Y605080D01*
X480258Y600000D01*
X475178Y594920D01*
X470098Y600000D01*
Y500000D02*
X475178Y505080D01*
X480258Y500000D01*
X475178Y494920D01*
X470098Y500000D01*
Y400000D02*
X475178Y405080D01*
X480258Y400000D01*
X475178Y394920D01*
X470098Y400000D01*
Y300000D02*
X475178Y305080D01*
X480258Y300000D01*
X475178Y294920D01*
X470098Y300000D01*
X445098Y250000D02*
X450178Y255080D01*
X455258Y250000D01*
X450178Y244920D01*
X445098Y250000D01*
X470098Y200000D02*
X475178Y205080D01*
X480258Y200000D01*
X475178Y194920D01*
X470098Y200000D01*
Y100000D02*
X475178Y105080D01*
X480258Y100000D01*
X475178Y94920D01*
X470098Y100000D01*
X420098Y700000D02*
X425178Y705080D01*
X430258Y700000D01*
X425178Y694920D01*
X420098Y700000D01*
X395098Y650000D02*
X400178Y655080D01*
X405258Y650000D01*
X400178Y644920D01*
X395098Y650000D01*
Y250000D02*
X400178Y255080D01*
X405258Y250000D01*
X400178Y244920D01*
X395098Y250000D01*
X420098Y200000D02*
X425178Y205080D01*
X430258Y200000D01*
X425178Y194920D01*
X420098Y200000D01*
X395098Y150000D02*
X400178Y155080D01*
X405258Y150000D01*
X400178Y144920D01*
X395098Y150000D01*
X370098Y700000D02*
X375178Y705080D01*
X380258Y700000D01*
X375178Y694920D01*
X370098Y700000D01*
X345098Y650000D02*
X350178Y655080D01*
X355258Y650000D01*
X350178Y644920D01*
X345098Y650000D01*
X370098Y300000D02*
X375178Y305080D01*
X380258Y300000D01*
X375178Y294920D01*
X370098Y300000D01*
X345098Y250000D02*
X350178Y255080D01*
X355258Y250000D01*
X350178Y244920D01*
X345098Y250000D01*
X370098Y200000D02*
X375178Y205080D01*
X380258Y200000D01*
X375178Y194920D01*
X370098Y200000D01*
X345098Y150000D02*
X350178Y155080D01*
X355258Y150000D01*
X350178Y144920D01*
X345098Y150000D01*
X370098Y100000D02*
X375178Y105080D01*
X380258Y100000D01*
X375178Y94920D01*
X370098Y100000D01*
X320098Y700000D02*
X325178Y705080D01*
X330258Y700000D01*
X325178Y694920D01*
X320098Y700000D01*
X295098Y650000D02*
X300178Y655080D01*
X305258Y650000D01*
X300178Y644920D01*
X295098Y650000D01*
X320098Y500000D02*
X325178Y505080D01*
X330258Y500000D01*
X325178Y494920D01*
X320098Y500000D01*
Y300000D02*
X325178Y305080D01*
X330258Y300000D01*
X325178Y294920D01*
X320098Y300000D01*
X295098Y250000D02*
X300178Y255080D01*
X305258Y250000D01*
X300178Y244920D01*
X295098Y250000D01*
X320098Y100000D02*
X325178Y105080D01*
X330258Y100000D01*
X325178Y94920D01*
X320098Y100000D01*
X270098Y700000D02*
X275178Y705080D01*
X280258Y700000D01*
X275178Y694920D01*
X270098Y700000D01*
X245098Y650000D02*
X250178Y655080D01*
X255258Y650000D01*
X250178Y644920D01*
X245098Y650000D01*
X270098Y600000D02*
X275178Y605080D01*
X280258Y600000D01*
X275178Y594920D01*
X270098Y600000D01*
Y400000D02*
X275178Y405080D01*
X280258Y400000D01*
X275178Y394920D01*
X270098Y400000D01*
X245098Y350000D02*
X250178Y355080D01*
X255258Y350000D01*
X250178Y344920D01*
X245098Y350000D01*
X270098Y300000D02*
X275178Y305080D01*
X280258Y300000D01*
X275178Y294920D01*
X270098Y300000D01*
X220098Y700000D02*
X225178Y705080D01*
X230258Y700000D01*
X225178Y694920D01*
X220098Y700000D01*
X195098Y650000D02*
X200178Y655080D01*
X205258Y650000D01*
X200178Y644920D01*
X195098Y650000D01*
X220098Y600000D02*
X225178Y605080D01*
X230258Y600000D01*
X225178Y594920D01*
X220098Y600000D01*
X195098Y550000D02*
X200178Y555080D01*
X205258Y550000D01*
X200178Y544920D01*
X195098Y550000D01*
Y450000D02*
X200178Y455080D01*
X205258Y450000D01*
X200178Y444920D01*
X195098Y450000D01*
X220098Y400000D02*
X225178Y405080D01*
X230258Y400000D01*
X225178Y394920D01*
X220098Y400000D01*
X195098Y350000D02*
X200178Y355080D01*
X205258Y350000D01*
X200178Y344920D01*
X195098Y350000D01*
X220098Y300000D02*
X225178Y305080D01*
X230258Y300000D01*
X225178Y294920D01*
X220098Y300000D01*
X195098Y250000D02*
X200178Y255080D01*
X205258Y250000D01*
X200178Y244920D01*
X195098Y250000D01*
X220098Y200000D02*
X225178Y205080D01*
X230258Y200000D01*
X225178Y194920D01*
X220098Y200000D01*
X195098Y150000D02*
X200178Y155080D01*
X205258Y150000D01*
X200178Y144920D01*
X195098Y150000D01*
X220098Y100000D02*
X225178Y105080D01*
X230258Y100000D01*
X225178Y94920D01*
X220098Y100000D01*
X170098Y700000D02*
X175178Y705080D01*
X180258Y700000D01*
X175178Y694920D01*
X170098Y700000D01*
X145098Y650000D02*
X150178Y655080D01*
X155258Y650000D01*
X150178Y644920D01*
X145098Y650000D01*
X170098Y600000D02*
X175178Y605080D01*
X180258Y600000D01*
X175178Y594920D01*
X170098Y600000D01*
Y500000D02*
X175178Y505080D01*
X180258Y500000D01*
X175178Y494920D01*
X170098Y500000D01*
X145098Y450000D02*
X150178Y455080D01*
X155258Y450000D01*
X150178Y444920D01*
X145098Y450000D01*
X170098Y400000D02*
X175178Y405080D01*
X180258Y400000D01*
X175178Y394920D01*
X170098Y400000D01*
X145098Y350000D02*
X150178Y355080D01*
X155258Y350000D01*
X150178Y344920D01*
X145098Y350000D01*
X170098Y300000D02*
X175178Y305080D01*
X180258Y300000D01*
X175178Y294920D01*
X170098Y300000D01*
X145098Y250000D02*
X150178Y255080D01*
X155258Y250000D01*
X150178Y244920D01*
X145098Y250000D01*
X120098Y700000D02*
X125178Y705080D01*
X130258Y700000D01*
X125178Y694920D01*
X120098Y700000D01*
X95098Y650000D02*
X100178Y655080D01*
X105258Y650000D01*
X100178Y644920D01*
X95098Y650000D01*
X120098Y600000D02*
X125178Y605080D01*
X130258Y600000D01*
X125178Y594920D01*
X120098Y600000D01*
Y500000D02*
X125178Y505080D01*
X130258Y500000D01*
X125178Y494920D01*
X120098Y500000D01*
X95098Y450000D02*
X100178Y455080D01*
X105258Y450000D01*
X100178Y444920D01*
X95098Y450000D01*
X120098Y400000D02*
X125178Y405080D01*
X130258Y400000D01*
X125178Y394920D01*
X120098Y400000D01*
X95098Y350000D02*
X100178Y355080D01*
X105258Y350000D01*
X100178Y344920D01*
X95098Y350000D01*
X120098Y300000D02*
X125178Y305080D01*
X130258Y300000D01*
X125178Y294920D01*
X120098Y300000D01*
Y200000D02*
X125178Y205080D01*
X130258Y200000D01*
X125178Y194920D01*
X120098Y200000D01*
X95098Y50000D02*
X100178Y55080D01*
X105258Y50000D01*
X100178Y44920D01*
X95098Y50000D01*
X70098Y700000D02*
X75178Y705080D01*
X80258Y700000D01*
X75178Y694920D01*
X70098Y700000D01*
X45098Y650000D02*
X50178Y655080D01*
X55258Y650000D01*
X50178Y644920D01*
X45098Y650000D01*
X70098Y600000D02*
X75178Y605080D01*
X80258Y600000D01*
X75178Y594920D01*
X70098Y600000D01*
X45098Y550000D02*
X50178Y555080D01*
X55258Y550000D01*
X50178Y544920D01*
X45098Y550000D01*
Y450000D02*
X50178Y455080D01*
X55258Y450000D01*
X50178Y444920D01*
X45098Y450000D01*
X70098Y400000D02*
X75178Y405080D01*
X80258Y400000D01*
X75178Y394920D01*
X70098Y400000D01*
X45098Y350000D02*
X50178Y355080D01*
X55258Y350000D01*
X50178Y344920D01*
X45098Y350000D01*
X70098Y300000D02*
X75178Y305080D01*
X80258Y300000D01*
X75178Y294920D01*
X70098Y300000D01*
Y200000D02*
X75178Y205080D01*
X80258Y200000D01*
X75178Y194920D01*
X70098Y200000D01*
Y100000D02*
X75178Y105080D01*
X80258Y100000D01*
X75178Y94920D01*
X70098Y100000D01*
X45098Y50000D02*
X50178Y55080D01*
X55258Y50000D01*
X50178Y44920D01*
X45098Y50000D01*
X776839Y125172D02*
X781919Y130252D01*
X786999Y125172D01*
X781919Y120092D01*
X776839Y125172D01*
X776732Y134874D02*
X781812Y139954D01*
X786892Y134874D01*
X781812Y129794D01*
X776732Y134874D01*
X783590Y128397D02*
X788670Y133477D01*
X793750Y128397D01*
X788670Y123317D01*
X783590Y128397D01*
X788924D02*
X794004Y133477D01*
X799084Y128397D01*
X794004Y123317D01*
X788924Y128397D01*
X706882Y93472D02*
Y90932D01*
X711962D01*
Y93472D01*
X714502D01*
Y98552D01*
X711962D01*
Y101092D01*
X706882D01*
Y98552D01*
X704342D01*
Y93472D01*
X706882D01*
X707898Y94488D02*
Y92964D01*
X710946D01*
Y94488D01*
X712470D01*
Y97536D01*
X710946D01*
Y99060D01*
X707898D01*
Y97536D01*
X706374D01*
Y94488D01*
X707898D01*
X706882Y101854D02*
Y99314D01*
X711962D01*
Y101854D01*
X714502D01*
Y106934D01*
X711962D01*
Y109474D01*
X706882D01*
Y106934D01*
X704342D01*
Y101854D01*
X706882D01*
X707898Y102870D02*
Y101346D01*
X710946D01*
Y102870D01*
X712470D01*
Y105918D01*
X710946D01*
Y107442D01*
X707898D01*
Y105918D01*
X706374D01*
Y102870D01*
X707898D01*
X697230Y85090D02*
Y82550D01*
X702310D01*
Y85090D01*
X704850D01*
Y90170D01*
X702310D01*
Y92710D01*
X697230D01*
Y90170D01*
X694690D01*
Y85090D01*
X697230D01*
X698246Y86106D02*
Y84582D01*
X701294D01*
Y86106D01*
X702818D01*
Y89154D01*
X701294D01*
Y90678D01*
X698246D01*
Y89154D01*
X696722D01*
Y86106D01*
X698246D01*
X697230Y93472D02*
Y90932D01*
X702310D01*
Y93472D01*
X704850D01*
Y98552D01*
X702310D01*
Y101092D01*
X697230D01*
Y98552D01*
X694690D01*
Y93472D01*
X697230D01*
X698246Y94488D02*
Y92964D01*
X701294D01*
Y94488D01*
X702818D01*
Y97536D01*
X701294D01*
Y99060D01*
X698246D01*
Y97536D01*
X696722D01*
Y94488D01*
X698246D01*
X697230Y101854D02*
Y99314D01*
X702310D01*
Y101854D01*
X704850D01*
Y106934D01*
X702310D01*
Y109474D01*
X697230D01*
Y106934D01*
X694690D01*
Y101854D01*
X697230D01*
X698246Y102870D02*
Y101346D01*
X701294D01*
Y102870D01*
X702818D01*
Y105918D01*
X701294D01*
Y107442D01*
X698246D01*
Y105918D01*
X696722D01*
Y102870D01*
X698246D01*
X706882Y85090D02*
Y82550D01*
X711962D01*
Y85090D01*
X714502D01*
Y90170D01*
X711962D01*
Y92710D01*
X706882D01*
Y90170D01*
X704342D01*
Y85090D01*
X706882D01*
X707898Y86106D02*
Y84582D01*
X710946D01*
Y86106D01*
X712470D01*
Y89154D01*
X710946D01*
Y90678D01*
X707898D01*
Y89154D01*
X706374D01*
Y86106D01*
X707898D01*
X454406Y431000D02*
X459486Y436080D01*
X464566Y431000D01*
X459486Y425920D01*
X454406Y431000D01*
Y450342D02*
X459486Y455422D01*
X464566Y450342D01*
X459486Y445262D01*
X454406Y450342D01*
X807466Y409956D02*
X812546Y415036D01*
X817626Y409956D01*
X812546Y404876D01*
X807466Y409956D01*
X786384Y132842D02*
X791464Y137922D01*
X796544Y132842D01*
X791464Y127762D01*
X786384Y132842D01*
Y123746D02*
X791464Y128826D01*
X796544Y123746D01*
X791464Y118666D01*
X786384Y123746D01*
X762508Y118110D02*
Y115570D01*
X767588D01*
Y118110D01*
X770128D01*
Y123190D01*
X767588D01*
Y125730D01*
X762508D01*
Y123190D01*
X759968D01*
Y118110D01*
X762508D01*
X763524Y119126D02*
Y117602D01*
X766572D01*
Y119126D01*
X768096D01*
Y122174D01*
X766572D01*
Y123698D01*
X763524D01*
Y122174D01*
X762000D01*
Y119126D01*
X763524D01*
X753364Y112268D02*
Y109728D01*
X758444D01*
Y112268D01*
X760984D01*
Y117348D01*
X758444D01*
Y119888D01*
X753364D01*
Y117348D01*
X750824D01*
Y112268D01*
X753364D01*
X754380Y113284D02*
Y111760D01*
X757428D01*
Y113284D01*
X758952D01*
Y116332D01*
X757428D01*
Y117856D01*
X754380D01*
Y116332D01*
X752856D01*
Y113284D01*
X754380D01*
X553212Y226314D02*
X558292Y231394D01*
X563372Y226314D01*
X558292Y221234D01*
X553212Y226314D01*
X708914Y124968D02*
Y122428D01*
X713994D01*
Y124968D01*
X716534D01*
Y130048D01*
X713994D01*
Y132588D01*
X708914D01*
Y130048D01*
X706374D01*
Y124968D01*
X708914D01*
X709930Y125984D02*
Y124460D01*
X712978D01*
Y125984D01*
X714502D01*
Y129032D01*
X712978D01*
Y130556D01*
X709930D01*
Y129032D01*
X708406D01*
Y125984D01*
X709930D01*
X454406Y402590D02*
X459486Y407670D01*
X464566Y402590D01*
X459486Y397510D01*
X454406Y402590D01*
Y410718D02*
X459486Y415798D01*
X464566Y410718D01*
X459486Y405638D01*
X454406Y410718D01*
X753364Y133096D02*
Y130556D01*
X758444D01*
Y133096D01*
X760984D01*
Y138176D01*
X758444D01*
Y140716D01*
X753364D01*
Y138176D01*
X750824D01*
Y133096D01*
X753364D01*
X754380Y134112D02*
Y132588D01*
X757428D01*
Y134112D01*
X758952D01*
Y137160D01*
X757428D01*
Y138684D01*
X754380D01*
Y137160D01*
X752856D01*
Y134112D01*
X754380D01*
X417830Y416560D02*
X422910Y421640D01*
X427990Y416560D01*
X422910Y411480D01*
X417830Y416560D01*
X454406Y422276D02*
X459486Y427356D01*
X464566Y422276D01*
X459486Y417196D01*
X454406Y422276D01*
X762508Y128270D02*
Y125730D01*
X767588D01*
Y128270D01*
X770128D01*
Y133350D01*
X767588D01*
Y135890D01*
X762508D01*
Y133350D01*
X759968D01*
Y128270D01*
X762508D01*
X763524Y129286D02*
Y127762D01*
X766572D01*
Y129286D01*
X768096D01*
Y132334D01*
X766572D01*
Y133858D01*
X763524D01*
Y132334D01*
X762000D01*
Y129286D01*
X763524D01*
X753364Y122936D02*
Y120396D01*
X758444D01*
Y122936D01*
X760984D01*
Y128016D01*
X758444D01*
Y130556D01*
X753364D01*
Y128016D01*
X750824D01*
Y122936D01*
X753364D01*
X754380Y123952D02*
Y122428D01*
X757428D01*
Y123952D01*
X758952D01*
Y127000D01*
X757428D01*
Y128524D01*
X754380D01*
Y127000D01*
X752856D01*
Y123952D01*
X754380D01*
X768033Y147399D02*
Y144859D01*
X773113D01*
Y147399D01*
X775653D01*
Y152479D01*
X773113D01*
Y155019D01*
X768033D01*
Y152479D01*
X765493D01*
Y147399D01*
X768033D01*
X769049Y148415D02*
Y146891D01*
X772097D01*
Y148415D01*
X773621D01*
Y151463D01*
X772097D01*
Y152987D01*
X769049D01*
Y151463D01*
X767525D01*
Y148415D01*
X769049D01*
X899414Y112776D02*
Y110236D01*
X904494D01*
Y112776D01*
X907034D01*
Y117856D01*
X904494D01*
Y120396D01*
X899414D01*
Y117856D01*
X896874D01*
Y112776D01*
X899414D01*
X900430Y113792D02*
Y112268D01*
X903478D01*
Y113792D01*
X905002D01*
Y116840D01*
X903478D01*
Y118364D01*
X900430D01*
Y116840D01*
X898906D01*
Y113792D01*
X900430D01*
X899414Y103124D02*
Y100584D01*
X904494D01*
Y103124D01*
X907034D01*
Y108204D01*
X904494D01*
Y110744D01*
X899414D01*
Y108204D01*
X896874D01*
Y103124D01*
X899414D01*
X900430Y104140D02*
Y102616D01*
X903478D01*
Y104140D01*
X905002D01*
Y107188D01*
X903478D01*
Y108712D01*
X900430D01*
Y107188D01*
X898906D01*
Y104140D01*
X900430D01*
X899414Y122428D02*
Y119888D01*
X904494D01*
Y122428D01*
X907034D01*
Y127508D01*
X904494D01*
Y130048D01*
X899414D01*
Y127508D01*
X896874D01*
Y122428D01*
X899414D01*
X900430Y123444D02*
Y121920D01*
X903478D01*
Y123444D01*
X905002D01*
Y126492D01*
X903478D01*
Y128016D01*
X900430D01*
Y126492D01*
X898906D01*
Y123444D01*
X900430D01*
X911098Y122428D02*
Y119888D01*
X916178D01*
Y122428D01*
X918718D01*
Y127508D01*
X916178D01*
Y130048D01*
X911098D01*
Y127508D01*
X908558D01*
Y122428D01*
X911098D01*
X912114Y123444D02*
Y121920D01*
X915162D01*
Y123444D01*
X916686D01*
Y126492D01*
X915162D01*
Y128016D01*
X912114D01*
Y126492D01*
X910590D01*
Y123444D01*
X912114D01*
X911098Y112776D02*
Y110236D01*
X916178D01*
Y112776D01*
X918718D01*
Y117856D01*
X916178D01*
Y120396D01*
X911098D01*
Y117856D01*
X908558D01*
Y112776D01*
X911098D01*
X912114Y113792D02*
Y112268D01*
X915162D01*
Y113792D01*
X916686D01*
Y116840D01*
X915162D01*
Y118364D01*
X912114D01*
Y116840D01*
X910590D01*
Y113792D01*
X912114D01*
X911098Y103124D02*
Y100584D01*
X916178D01*
Y103124D01*
X918718D01*
Y108204D01*
X916178D01*
Y110744D01*
X911098D01*
Y108204D01*
X908558D01*
Y103124D01*
X911098D01*
X912114Y104140D02*
Y102616D01*
X915162D01*
Y104140D01*
X916686D01*
Y107188D01*
X915162D01*
Y108712D01*
X912114D01*
Y107188D01*
X910590D01*
Y104140D01*
X912114D01*
X783336Y150622D02*
Y148082D01*
X788416D01*
Y150622D01*
X790956D01*
Y155702D01*
X788416D01*
Y158242D01*
X783336D01*
Y155702D01*
X780796D01*
Y150622D01*
X783336D01*
X784352Y151638D02*
Y150114D01*
X787400D01*
Y151638D01*
X788924D01*
Y154686D01*
X787400D01*
Y156210D01*
X784352D01*
Y154686D01*
X782828D01*
Y151638D01*
X784352D01*
X777748Y155956D02*
Y153416D01*
X782828D01*
Y155956D01*
X785368D01*
Y161036D01*
X782828D01*
Y163576D01*
X777748D01*
Y161036D01*
X775208D01*
Y155956D01*
X777748D01*
X778764Y156972D02*
Y155448D01*
X781812D01*
Y156972D01*
X783336D01*
Y160020D01*
X781812D01*
Y161544D01*
X778764D01*
Y160020D01*
X777240D01*
Y156972D01*
X778764D01*
X802132Y111506D02*
Y108966D01*
X807212D01*
Y111506D01*
X809752D01*
Y116586D01*
X807212D01*
Y119126D01*
X802132D01*
Y116586D01*
X799592D01*
Y111506D01*
X802132D01*
X803148Y112522D02*
Y110998D01*
X806196D01*
Y112522D01*
X807720D01*
Y115570D01*
X806196D01*
Y117094D01*
X803148D01*
Y115570D01*
X801624D01*
Y112522D01*
X803148D01*
X812038Y100838D02*
Y98298D01*
X817118D01*
Y100838D01*
X819658D01*
Y105918D01*
X817118D01*
Y108458D01*
X812038D01*
Y105918D01*
X809498D01*
Y100838D01*
X812038D01*
X813054Y101854D02*
Y100330D01*
X816102D01*
Y101854D01*
X817626D01*
Y104902D01*
X816102D01*
Y106426D01*
X813054D01*
Y104902D01*
X811530D01*
Y101854D01*
X813054D01*
X784940Y101092D02*
Y98552D01*
X790020D01*
Y101092D01*
X792560D01*
Y106172D01*
X790020D01*
Y108712D01*
X784940D01*
Y106172D01*
X782400D01*
Y101092D01*
X784940D01*
X785956Y102108D02*
Y100584D01*
X789004D01*
Y102108D01*
X790528D01*
Y105156D01*
X789004D01*
Y106680D01*
X785956D01*
Y105156D01*
X784432D01*
Y102108D01*
X785956D01*
X422148Y350774D02*
X427228Y355854D01*
X432308Y350774D01*
X427228Y345694D01*
X422148Y350774D01*
X395732Y405892D02*
X400812Y410972D01*
X405892Y405892D01*
X400812Y400812D01*
X395732Y405892D01*
X394970Y330962D02*
X400050Y336042D01*
X405130Y330962D01*
X400050Y325882D01*
X394970Y330962D01*
X372957D02*
X378037Y336042D01*
X383117Y330962D01*
X378037Y325882D01*
X372957Y330962D01*
X350943D02*
X356023Y336042D01*
X361103Y330962D01*
X356023Y325882D01*
X350943Y330962D01*
X328930D02*
X334010Y336042D01*
X339090Y330962D01*
X334010Y325882D01*
X328930Y330962D01*
X451358Y123952D02*
Y121412D01*
X456438D01*
Y123952D01*
X458978D01*
Y129032D01*
X456438D01*
Y131572D01*
X451358D01*
Y129032D01*
X448818D01*
Y123952D01*
X451358D01*
X452374Y124968D02*
Y123444D01*
X455422D01*
Y124968D01*
X456946D01*
Y128016D01*
X455422D01*
Y129540D01*
X452374D01*
Y128016D01*
X450850D01*
Y124968D01*
X452374D01*
X435102Y123698D02*
Y121158D01*
X440182D01*
Y123698D01*
X442722D01*
Y128778D01*
X440182D01*
Y131318D01*
X435102D01*
Y128778D01*
X432562D01*
Y123698D01*
X435102D01*
X436118Y124714D02*
Y123190D01*
X439166D01*
Y124714D01*
X440690D01*
Y127762D01*
X439166D01*
Y129286D01*
X436118D01*
Y127762D01*
X434594D01*
Y124714D01*
X436118D01*
X435864Y151384D02*
Y148844D01*
X440944D01*
Y151384D01*
X443484D01*
Y156464D01*
X440944D01*
Y159004D01*
X435864D01*
Y156464D01*
X433324D01*
Y151384D01*
X435864D01*
X436880Y152400D02*
Y150876D01*
X439928D01*
Y152400D01*
X441452D01*
Y155448D01*
X439928D01*
Y156972D01*
X436880D01*
Y155448D01*
X435356D01*
Y152400D01*
X436880D01*
X451358Y150876D02*
Y148336D01*
X456438D01*
Y150876D01*
X458978D01*
Y155956D01*
X456438D01*
Y158496D01*
X451358D01*
Y155956D01*
X448818D01*
Y150876D01*
X451358D01*
X452374Y151892D02*
Y150368D01*
X455422D01*
Y151892D01*
X456946D01*
Y154940D01*
X455422D01*
Y156464D01*
X452374D01*
Y154940D01*
X450850D01*
Y151892D01*
X452374D01*
X273304Y156972D02*
Y154432D01*
X278384D01*
Y156972D01*
X280924D01*
Y162052D01*
X278384D01*
Y164592D01*
X273304D01*
Y162052D01*
X270764D01*
Y156972D01*
X273304D01*
X274320Y157988D02*
Y156464D01*
X277368D01*
Y157988D01*
X278892D01*
Y161036D01*
X277368D01*
Y162560D01*
X274320D01*
Y161036D01*
X272796D01*
Y157988D01*
X274320D01*
X257810Y157480D02*
Y154940D01*
X262890D01*
Y157480D01*
X265430D01*
Y162560D01*
X262890D01*
Y165100D01*
X257810D01*
Y162560D01*
X255270D01*
Y157480D01*
X257810D01*
X258826Y158496D02*
Y156972D01*
X261874D01*
Y158496D01*
X263398D01*
Y161544D01*
X261874D01*
Y163068D01*
X258826D01*
Y161544D01*
X257302D01*
Y158496D01*
X258826D01*
X257048Y129794D02*
Y127254D01*
X262128D01*
Y129794D01*
X264668D01*
Y134874D01*
X262128D01*
Y137414D01*
X257048D01*
Y134874D01*
X254508D01*
Y129794D01*
X257048D01*
X258064Y130810D02*
Y129286D01*
X261112D01*
Y130810D01*
X262636D01*
Y133858D01*
X261112D01*
Y135382D01*
X258064D01*
Y133858D01*
X256540D01*
Y130810D01*
X258064D01*
X273304Y130048D02*
Y127508D01*
X278384D01*
Y130048D01*
X280924D01*
Y135128D01*
X278384D01*
Y137668D01*
X273304D01*
Y135128D01*
X270764D01*
Y130048D01*
X273304D01*
X274320Y131064D02*
Y129540D01*
X277368D01*
Y131064D01*
X278892D01*
Y134112D01*
X277368D01*
Y135636D01*
X274320D01*
Y134112D01*
X272796D01*
Y131064D01*
X274320D01*
X417830Y454152D02*
X422910Y459232D01*
X427990Y454152D01*
X422910Y449072D01*
X417830Y454152D01*
X410464Y405892D02*
X415544Y410972D01*
X420624Y405892D01*
X415544Y400812D01*
X410464Y405892D01*
X398018Y459994D02*
X403098Y465074D01*
X408178Y459994D01*
X403098Y454914D01*
X398018Y459994D01*
X391160Y451866D02*
X396240Y456946D01*
X401320Y451866D01*
X396240Y446786D01*
X391160Y451866D01*
X133350Y559816D02*
Y557276D01*
X138430D01*
Y559816D01*
X140970D01*
Y564896D01*
X138430D01*
Y567436D01*
X133350D01*
Y564896D01*
X130810D01*
Y559816D01*
X133350D01*
X134366Y560832D02*
Y559308D01*
X137414D01*
Y560832D01*
X138938D01*
Y563880D01*
X137414D01*
Y565404D01*
X134366D01*
Y563880D01*
X132842D01*
Y560832D01*
X134366D01*
Y540766D02*
Y538226D01*
X139446D01*
Y540766D01*
X141986D01*
Y545846D01*
X139446D01*
Y548386D01*
X134366D01*
Y545846D01*
X131826D01*
Y540766D01*
X134366D01*
X135382Y541782D02*
Y540258D01*
X138430D01*
Y541782D01*
X139954D01*
Y544830D01*
X138430D01*
Y546354D01*
X135382D01*
Y544830D01*
X133858D01*
Y541782D01*
X135382D01*
X1184910Y728218D02*
Y725678D01*
X1189990D01*
Y728218D01*
X1192530D01*
Y733298D01*
X1189990D01*
Y735838D01*
X1184910D01*
Y733298D01*
X1182370D01*
Y728218D01*
X1184910D01*
X1185926Y729234D02*
Y727710D01*
X1188974D01*
Y729234D01*
X1190498D01*
Y732282D01*
X1188974D01*
Y733806D01*
X1185926D01*
Y732282D01*
X1184402D01*
Y729234D01*
X1185926D01*
X1163320Y728218D02*
Y725678D01*
X1168400D01*
Y728218D01*
X1170940D01*
Y733298D01*
X1168400D01*
Y735838D01*
X1163320D01*
Y733298D01*
X1160780D01*
Y728218D01*
X1163320D01*
X1164336Y729234D02*
Y727710D01*
X1167384D01*
Y729234D01*
X1168908D01*
Y732282D01*
X1167384D01*
Y733806D01*
X1164336D01*
Y732282D01*
X1162812D01*
Y729234D01*
X1164336D01*
X1141730Y728218D02*
Y725678D01*
X1146810D01*
Y728218D01*
X1149350D01*
Y733298D01*
X1146810D01*
Y735838D01*
X1141730D01*
Y733298D01*
X1139190D01*
Y728218D01*
X1141730D01*
X1142746Y729234D02*
Y727710D01*
X1145794D01*
Y729234D01*
X1147318D01*
Y732282D01*
X1145794D01*
Y733806D01*
X1142746D01*
Y732282D01*
X1141222D01*
Y729234D01*
X1142746D01*
X1118870Y728218D02*
Y725678D01*
X1123950D01*
Y728218D01*
X1126490D01*
Y733298D01*
X1123950D01*
Y735838D01*
X1118870D01*
Y733298D01*
X1116330D01*
Y728218D01*
X1118870D01*
X1119886Y729234D02*
Y727710D01*
X1122934D01*
Y729234D01*
X1124458D01*
Y732282D01*
X1122934D01*
Y733806D01*
X1119886D01*
Y732282D01*
X1118362D01*
Y729234D01*
X1119886D01*
X1099820Y728218D02*
Y725678D01*
X1104900D01*
Y728218D01*
X1107440D01*
Y733298D01*
X1104900D01*
Y735838D01*
X1099820D01*
Y733298D01*
X1097280D01*
Y728218D01*
X1099820D01*
X1100836Y729234D02*
Y727710D01*
X1103884D01*
Y729234D01*
X1105408D01*
Y732282D01*
X1103884D01*
Y733806D01*
X1100836D01*
Y732282D01*
X1099312D01*
Y729234D01*
X1100836D01*
X1078230Y728218D02*
Y725678D01*
X1083310D01*
Y728218D01*
X1085850D01*
Y733298D01*
X1083310D01*
Y735838D01*
X1078230D01*
Y733298D01*
X1075690D01*
Y728218D01*
X1078230D01*
X1079246Y729234D02*
Y727710D01*
X1082294D01*
Y729234D01*
X1083818D01*
Y732282D01*
X1082294D01*
Y733806D01*
X1079246D01*
Y732282D01*
X1077722D01*
Y729234D01*
X1079246D01*
X1057910Y728218D02*
Y725678D01*
X1062990D01*
Y728218D01*
X1065530D01*
Y733298D01*
X1062990D01*
Y735838D01*
X1057910D01*
Y733298D01*
X1055370D01*
Y728218D01*
X1057910D01*
X1058926Y729234D02*
Y727710D01*
X1061974D01*
Y729234D01*
X1063498D01*
Y732282D01*
X1061974D01*
Y733806D01*
X1058926D01*
Y732282D01*
X1057402D01*
Y729234D01*
X1058926D01*
X1038860Y728218D02*
Y725678D01*
X1043940D01*
Y728218D01*
X1046480D01*
Y733298D01*
X1043940D01*
Y735838D01*
X1038860D01*
Y733298D01*
X1036320D01*
Y728218D01*
X1038860D01*
X1039876Y729234D02*
Y727710D01*
X1042924D01*
Y729234D01*
X1044448D01*
Y732282D01*
X1042924D01*
Y733806D01*
X1039876D01*
Y732282D01*
X1038352D01*
Y729234D01*
X1039876D01*
X1021080Y728218D02*
Y725678D01*
X1026160D01*
Y728218D01*
X1028700D01*
Y733298D01*
X1026160D01*
Y735838D01*
X1021080D01*
Y733298D01*
X1018540D01*
Y728218D01*
X1021080D01*
X1022096Y729234D02*
Y727710D01*
X1025144D01*
Y729234D01*
X1026668D01*
Y732282D01*
X1025144D01*
Y733806D01*
X1022096D01*
Y732282D01*
X1020572D01*
Y729234D01*
X1022096D01*
X999490Y728218D02*
Y725678D01*
X1004570D01*
Y728218D01*
X1007110D01*
Y733298D01*
X1004570D01*
Y735838D01*
X999490D01*
Y733298D01*
X996950D01*
Y728218D01*
X999490D01*
X1000506Y729234D02*
Y727710D01*
X1003554D01*
Y729234D01*
X1005078D01*
Y732282D01*
X1003554D01*
Y733806D01*
X1000506D01*
Y732282D01*
X998982D01*
Y729234D01*
X1000506D01*
X979170Y728218D02*
Y725678D01*
X984250D01*
Y728218D01*
X986790D01*
Y733298D01*
X984250D01*
Y735838D01*
X979170D01*
Y733298D01*
X976630D01*
Y728218D01*
X979170D01*
X980186Y729234D02*
Y727710D01*
X983234D01*
Y729234D01*
X984758D01*
Y732282D01*
X983234D01*
Y733806D01*
X980186D01*
Y732282D01*
X978662D01*
Y729234D01*
X980186D01*
X957580Y728218D02*
Y725678D01*
X962660D01*
Y728218D01*
X965200D01*
Y733298D01*
X962660D01*
Y735838D01*
X957580D01*
Y733298D01*
X955040D01*
Y728218D01*
X957580D01*
X958596Y729234D02*
Y727710D01*
X961644D01*
Y729234D01*
X963168D01*
Y732282D01*
X961644D01*
Y733806D01*
X958596D01*
Y732282D01*
X957072D01*
Y729234D01*
X958596D01*
X935990Y728218D02*
Y725678D01*
X941070D01*
Y728218D01*
X943610D01*
Y733298D01*
X941070D01*
Y735838D01*
X935990D01*
Y733298D01*
X933450D01*
Y728218D01*
X935990D01*
X937006Y729234D02*
Y727710D01*
X940054D01*
Y729234D01*
X941578D01*
Y732282D01*
X940054D01*
Y733806D01*
X937006D01*
Y732282D01*
X935482D01*
Y729234D01*
X937006D01*
X915670Y728218D02*
Y725678D01*
X920750D01*
Y728218D01*
X923290D01*
Y733298D01*
X920750D01*
Y735838D01*
X915670D01*
Y733298D01*
X913130D01*
Y728218D01*
X915670D01*
X916686Y729234D02*
Y727710D01*
X919734D01*
Y729234D01*
X921258D01*
Y732282D01*
X919734D01*
Y733806D01*
X916686D01*
Y732282D01*
X915162D01*
Y729234D01*
X916686D01*
X896620Y728218D02*
Y725678D01*
X901700D01*
Y728218D01*
X904240D01*
Y733298D01*
X901700D01*
Y735838D01*
X896620D01*
Y733298D01*
X894080D01*
Y728218D01*
X896620D01*
X897636Y729234D02*
Y727710D01*
X900684D01*
Y729234D01*
X902208D01*
Y732282D01*
X900684D01*
Y733806D01*
X897636D01*
Y732282D01*
X896112D01*
Y729234D01*
X897636D01*
X876300Y728218D02*
Y725678D01*
X881380D01*
Y728218D01*
X883920D01*
Y733298D01*
X881380D01*
Y735838D01*
X876300D01*
Y733298D01*
X873760D01*
Y728218D01*
X876300D01*
X877316Y729234D02*
Y727710D01*
X880364D01*
Y729234D01*
X881888D01*
Y732282D01*
X880364D01*
Y733806D01*
X877316D01*
Y732282D01*
X875792D01*
Y729234D01*
X877316D01*
X854710Y728218D02*
Y725678D01*
X859790D01*
Y728218D01*
X862330D01*
Y733298D01*
X859790D01*
Y735838D01*
X854710D01*
Y733298D01*
X852170D01*
Y728218D01*
X854710D01*
X855726Y729234D02*
Y727710D01*
X858774D01*
Y729234D01*
X860298D01*
Y732282D01*
X858774D01*
Y733806D01*
X855726D01*
Y732282D01*
X854202D01*
Y729234D01*
X855726D01*
X834390Y728218D02*
Y725678D01*
X839470D01*
Y728218D01*
X842010D01*
Y733298D01*
X839470D01*
Y735838D01*
X834390D01*
Y733298D01*
X831850D01*
Y728218D01*
X834390D01*
X835406Y729234D02*
Y727710D01*
X838454D01*
Y729234D01*
X839978D01*
Y732282D01*
X838454D01*
Y733806D01*
X835406D01*
Y732282D01*
X833882D01*
Y729234D01*
X835406D01*
X812800Y728218D02*
Y725678D01*
X817880D01*
Y728218D01*
X820420D01*
Y733298D01*
X817880D01*
Y735838D01*
X812800D01*
Y733298D01*
X810260D01*
Y728218D01*
X812800D01*
X813816Y729234D02*
Y727710D01*
X816864D01*
Y729234D01*
X818388D01*
Y732282D01*
X816864D01*
Y733806D01*
X813816D01*
Y732282D01*
X812292D01*
Y729234D01*
X813816D01*
X791210Y728218D02*
Y725678D01*
X796290D01*
Y728218D01*
X798830D01*
Y733298D01*
X796290D01*
Y735838D01*
X791210D01*
Y733298D01*
X788670D01*
Y728218D01*
X791210D01*
X792226Y729234D02*
Y727710D01*
X795274D01*
Y729234D01*
X796798D01*
Y732282D01*
X795274D01*
Y733806D01*
X792226D01*
Y732282D01*
X790702D01*
Y729234D01*
X792226D01*
X772160Y728218D02*
Y725678D01*
X777240D01*
Y728218D01*
X779780D01*
Y733298D01*
X777240D01*
Y735838D01*
X772160D01*
Y733298D01*
X769620D01*
Y728218D01*
X772160D01*
X773176Y729234D02*
Y727710D01*
X776224D01*
Y729234D01*
X777748D01*
Y732282D01*
X776224D01*
Y733806D01*
X773176D01*
Y732282D01*
X771652D01*
Y729234D01*
X773176D01*
X751840Y728218D02*
Y725678D01*
X756920D01*
Y728218D01*
X759460D01*
Y733298D01*
X756920D01*
Y735838D01*
X751840D01*
Y733298D01*
X749300D01*
Y728218D01*
X751840D01*
X752856Y729234D02*
Y727710D01*
X755904D01*
Y729234D01*
X757428D01*
Y732282D01*
X755904D01*
Y733806D01*
X752856D01*
Y732282D01*
X751332D01*
Y729234D01*
X752856D01*
X731520Y728218D02*
Y725678D01*
X736600D01*
Y728218D01*
X739140D01*
Y733298D01*
X736600D01*
Y735838D01*
X731520D01*
Y733298D01*
X728980D01*
Y728218D01*
X731520D01*
X732536Y729234D02*
Y727710D01*
X735584D01*
Y729234D01*
X737108D01*
Y732282D01*
X735584D01*
Y733806D01*
X732536D01*
Y732282D01*
X731012D01*
Y729234D01*
X732536D01*
X709930Y728218D02*
Y725678D01*
X715010D01*
Y728218D01*
X717550D01*
Y733298D01*
X715010D01*
Y735838D01*
X709930D01*
Y733298D01*
X707390D01*
Y728218D01*
X709930D01*
X710946Y729234D02*
Y727710D01*
X713994D01*
Y729234D01*
X715518D01*
Y732282D01*
X713994D01*
Y733806D01*
X710946D01*
Y732282D01*
X709422D01*
Y729234D01*
X710946D01*
X690880Y728218D02*
Y725678D01*
X695960D01*
Y728218D01*
X698500D01*
Y733298D01*
X695960D01*
Y735838D01*
X690880D01*
Y733298D01*
X688340D01*
Y728218D01*
X690880D01*
X691896Y729234D02*
Y727710D01*
X694944D01*
Y729234D01*
X696468D01*
Y732282D01*
X694944D01*
Y733806D01*
X691896D01*
Y732282D01*
X690372D01*
Y729234D01*
X691896D01*
X673100Y728218D02*
Y725678D01*
X678180D01*
Y728218D01*
X680720D01*
Y733298D01*
X678180D01*
Y735838D01*
X673100D01*
Y733298D01*
X670560D01*
Y728218D01*
X673100D01*
X674116Y729234D02*
Y727710D01*
X677164D01*
Y729234D01*
X678688D01*
Y732282D01*
X677164D01*
Y733806D01*
X674116D01*
Y732282D01*
X672592D01*
Y729234D01*
X674116D01*
X654050Y728218D02*
Y725678D01*
X659130D01*
Y728218D01*
X661670D01*
Y733298D01*
X659130D01*
Y735838D01*
X654050D01*
Y733298D01*
X651510D01*
Y728218D01*
X654050D01*
X655066Y729234D02*
Y727710D01*
X658114D01*
Y729234D01*
X659638D01*
Y732282D01*
X658114D01*
Y733806D01*
X655066D01*
Y732282D01*
X653542D01*
Y729234D01*
X655066D01*
X633730Y728218D02*
Y725678D01*
X638810D01*
Y728218D01*
X641350D01*
Y733298D01*
X638810D01*
Y735838D01*
X633730D01*
Y733298D01*
X631190D01*
Y728218D01*
X633730D01*
X634746Y729234D02*
Y727710D01*
X637794D01*
Y729234D01*
X639318D01*
Y732282D01*
X637794D01*
Y733806D01*
X634746D01*
Y732282D01*
X633222D01*
Y729234D01*
X634746D01*
X615950Y728218D02*
Y725678D01*
X621030D01*
Y728218D01*
X623570D01*
Y733298D01*
X621030D01*
Y735838D01*
X615950D01*
Y733298D01*
X613410D01*
Y728218D01*
X615950D01*
X616966Y729234D02*
Y727710D01*
X620014D01*
Y729234D01*
X621538D01*
Y732282D01*
X620014D01*
Y733806D01*
X616966D01*
Y732282D01*
X615442D01*
Y729234D01*
X616966D01*
X595630Y728218D02*
Y725678D01*
X600710D01*
Y728218D01*
X603250D01*
Y733298D01*
X600710D01*
Y735838D01*
X595630D01*
Y733298D01*
X593090D01*
Y728218D01*
X595630D01*
X596646Y729234D02*
Y727710D01*
X599694D01*
Y729234D01*
X601218D01*
Y732282D01*
X599694D01*
Y733806D01*
X596646D01*
Y732282D01*
X595122D01*
Y729234D01*
X596646D01*
X574040Y728218D02*
Y725678D01*
X579120D01*
Y728218D01*
X581660D01*
Y733298D01*
X579120D01*
Y735838D01*
X574040D01*
Y733298D01*
X571500D01*
Y728218D01*
X574040D01*
X575056Y729234D02*
Y727710D01*
X578104D01*
Y729234D01*
X579628D01*
Y732282D01*
X578104D01*
Y733806D01*
X575056D01*
Y732282D01*
X573532D01*
Y729234D01*
X575056D01*
X554990Y728218D02*
Y725678D01*
X560070D01*
Y728218D01*
X562610D01*
Y733298D01*
X560070D01*
Y735838D01*
X554990D01*
Y733298D01*
X552450D01*
Y728218D01*
X554990D01*
X556006Y729234D02*
Y727710D01*
X559054D01*
Y729234D01*
X560578D01*
Y732282D01*
X559054D01*
Y733806D01*
X556006D01*
Y732282D01*
X554482D01*
Y729234D01*
X556006D01*
X534670Y728218D02*
Y725678D01*
X539750D01*
Y728218D01*
X542290D01*
Y733298D01*
X539750D01*
Y735838D01*
X534670D01*
Y733298D01*
X532130D01*
Y728218D01*
X534670D01*
X535686Y729234D02*
Y727710D01*
X538734D01*
Y729234D01*
X540258D01*
Y732282D01*
X538734D01*
Y733806D01*
X535686D01*
Y732282D01*
X534162D01*
Y729234D01*
X535686D01*
X515620Y728218D02*
Y725678D01*
X520700D01*
Y728218D01*
X523240D01*
Y733298D01*
X520700D01*
Y735838D01*
X515620D01*
Y733298D01*
X513080D01*
Y728218D01*
X515620D01*
X516636Y729234D02*
Y727710D01*
X519684D01*
Y729234D01*
X521208D01*
Y732282D01*
X519684D01*
Y733806D01*
X516636D01*
Y732282D01*
X515112D01*
Y729234D01*
X516636D01*
X496570Y728218D02*
Y725678D01*
X501650D01*
Y728218D01*
X504190D01*
Y733298D01*
X501650D01*
Y735838D01*
X496570D01*
Y733298D01*
X494030D01*
Y728218D01*
X496570D01*
X497586Y729234D02*
Y727710D01*
X500634D01*
Y729234D01*
X502158D01*
Y732282D01*
X500634D01*
Y733806D01*
X497586D01*
Y732282D01*
X496062D01*
Y729234D01*
X497586D01*
X477520Y728218D02*
Y725678D01*
X482600D01*
Y728218D01*
X485140D01*
Y733298D01*
X482600D01*
Y735838D01*
X477520D01*
Y733298D01*
X474980D01*
Y728218D01*
X477520D01*
X478536Y729234D02*
Y727710D01*
X481584D01*
Y729234D01*
X483108D01*
Y732282D01*
X481584D01*
Y733806D01*
X478536D01*
Y732282D01*
X477012D01*
Y729234D01*
X478536D01*
X457200Y728218D02*
Y725678D01*
X462280D01*
Y728218D01*
X464820D01*
Y733298D01*
X462280D01*
Y735838D01*
X457200D01*
Y733298D01*
X454660D01*
Y728218D01*
X457200D01*
X458216Y729234D02*
Y727710D01*
X461264D01*
Y729234D01*
X462788D01*
Y732282D01*
X461264D01*
Y733806D01*
X458216D01*
Y732282D01*
X456692D01*
Y729234D01*
X458216D01*
X436880Y728218D02*
Y725678D01*
X441960D01*
Y728218D01*
X444500D01*
Y733298D01*
X441960D01*
Y735838D01*
X436880D01*
Y733298D01*
X434340D01*
Y728218D01*
X436880D01*
X437896Y729234D02*
Y727710D01*
X440944D01*
Y729234D01*
X442468D01*
Y732282D01*
X440944D01*
Y733806D01*
X437896D01*
Y732282D01*
X436372D01*
Y729234D01*
X437896D01*
X419100Y728218D02*
Y725678D01*
X424180D01*
Y728218D01*
X426720D01*
Y733298D01*
X424180D01*
Y735838D01*
X419100D01*
Y733298D01*
X416560D01*
Y728218D01*
X419100D01*
X420116Y729234D02*
Y727710D01*
X423164D01*
Y729234D01*
X424688D01*
Y732282D01*
X423164D01*
Y733806D01*
X420116D01*
Y732282D01*
X418592D01*
Y729234D01*
X420116D01*
X400050Y728218D02*
Y725678D01*
X405130D01*
Y728218D01*
X407670D01*
Y733298D01*
X405130D01*
Y735838D01*
X400050D01*
Y733298D01*
X397510D01*
Y728218D01*
X400050D01*
X401066Y729234D02*
Y727710D01*
X404114D01*
Y729234D01*
X405638D01*
Y732282D01*
X404114D01*
Y733806D01*
X401066D01*
Y732282D01*
X399542D01*
Y729234D01*
X401066D01*
X381000Y728218D02*
Y725678D01*
X386080D01*
Y728218D01*
X388620D01*
Y733298D01*
X386080D01*
Y735838D01*
X381000D01*
Y733298D01*
X378460D01*
Y728218D01*
X381000D01*
X382016Y729234D02*
Y727710D01*
X385064D01*
Y729234D01*
X386588D01*
Y732282D01*
X385064D01*
Y733806D01*
X382016D01*
Y732282D01*
X380492D01*
Y729234D01*
X382016D01*
X360680Y728218D02*
Y725678D01*
X365760D01*
Y728218D01*
X368300D01*
Y733298D01*
X365760D01*
Y735838D01*
X360680D01*
Y733298D01*
X358140D01*
Y728218D01*
X360680D01*
X361696Y729234D02*
Y727710D01*
X364744D01*
Y729234D01*
X366268D01*
Y732282D01*
X364744D01*
Y733806D01*
X361696D01*
Y732282D01*
X360172D01*
Y729234D01*
X361696D01*
X340360Y728218D02*
Y725678D01*
X345440D01*
Y728218D01*
X347980D01*
Y733298D01*
X345440D01*
Y735838D01*
X340360D01*
Y733298D01*
X337820D01*
Y728218D01*
X340360D01*
X341376Y729234D02*
Y727710D01*
X344424D01*
Y729234D01*
X345948D01*
Y732282D01*
X344424D01*
Y733806D01*
X341376D01*
Y732282D01*
X339852D01*
Y729234D01*
X341376D01*
X321310Y728218D02*
Y725678D01*
X326390D01*
Y728218D01*
X328930D01*
Y733298D01*
X326390D01*
Y735838D01*
X321310D01*
Y733298D01*
X318770D01*
Y728218D01*
X321310D01*
X322326Y729234D02*
Y727710D01*
X325374D01*
Y729234D01*
X326898D01*
Y732282D01*
X325374D01*
Y733806D01*
X322326D01*
Y732282D01*
X320802D01*
Y729234D01*
X322326D01*
X300990Y728218D02*
Y725678D01*
X306070D01*
Y728218D01*
X308610D01*
Y733298D01*
X306070D01*
Y735838D01*
X300990D01*
Y733298D01*
X298450D01*
Y728218D01*
X300990D01*
X302006Y729234D02*
Y727710D01*
X305054D01*
Y729234D01*
X306578D01*
Y732282D01*
X305054D01*
Y733806D01*
X302006D01*
Y732282D01*
X300482D01*
Y729234D01*
X302006D01*
X281940Y728218D02*
Y725678D01*
X287020D01*
Y728218D01*
X289560D01*
Y733298D01*
X287020D01*
Y735838D01*
X281940D01*
Y733298D01*
X279400D01*
Y728218D01*
X281940D01*
X282956Y729234D02*
Y727710D01*
X286004D01*
Y729234D01*
X287528D01*
Y732282D01*
X286004D01*
Y733806D01*
X282956D01*
Y732282D01*
X281432D01*
Y729234D01*
X282956D01*
X264160Y728218D02*
Y725678D01*
X269240D01*
Y728218D01*
X271780D01*
Y733298D01*
X269240D01*
Y735838D01*
X264160D01*
Y733298D01*
X261620D01*
Y728218D01*
X264160D01*
X265176Y729234D02*
Y727710D01*
X268224D01*
Y729234D01*
X269748D01*
Y732282D01*
X268224D01*
Y733806D01*
X265176D01*
Y732282D01*
X263652D01*
Y729234D01*
X265176D01*
X247650Y728218D02*
Y725678D01*
X252730D01*
Y728218D01*
X255270D01*
Y733298D01*
X252730D01*
Y735838D01*
X247650D01*
Y733298D01*
X245110D01*
Y728218D01*
X247650D01*
X248666Y729234D02*
Y727710D01*
X251714D01*
Y729234D01*
X253238D01*
Y732282D01*
X251714D01*
Y733806D01*
X248666D01*
Y732282D01*
X247142D01*
Y729234D01*
X248666D01*
X229870Y728218D02*
Y725678D01*
X234950D01*
Y728218D01*
X237490D01*
Y733298D01*
X234950D01*
Y735838D01*
X229870D01*
Y733298D01*
X227330D01*
Y728218D01*
X229870D01*
X230886Y729234D02*
Y727710D01*
X233934D01*
Y729234D01*
X235458D01*
Y732282D01*
X233934D01*
Y733806D01*
X230886D01*
Y732282D01*
X229362D01*
Y729234D01*
X230886D01*
X213360Y728218D02*
Y725678D01*
X218440D01*
Y728218D01*
X220980D01*
Y733298D01*
X218440D01*
Y735838D01*
X213360D01*
Y733298D01*
X210820D01*
Y728218D01*
X213360D01*
X214376Y729234D02*
Y727710D01*
X217424D01*
Y729234D01*
X218948D01*
Y732282D01*
X217424D01*
Y733806D01*
X214376D01*
Y732282D01*
X212852D01*
Y729234D01*
X214376D01*
X196850Y728218D02*
Y725678D01*
X201930D01*
Y728218D01*
X204470D01*
Y733298D01*
X201930D01*
Y735838D01*
X196850D01*
Y733298D01*
X194310D01*
Y728218D01*
X196850D01*
X197866Y729234D02*
Y727710D01*
X200914D01*
Y729234D01*
X202438D01*
Y732282D01*
X200914D01*
Y733806D01*
X197866D01*
Y732282D01*
X196342D01*
Y729234D01*
X197866D01*
X180340Y728218D02*
Y725678D01*
X185420D01*
Y728218D01*
X187960D01*
Y733298D01*
X185420D01*
Y735838D01*
X180340D01*
Y733298D01*
X177800D01*
Y728218D01*
X180340D01*
X181356Y729234D02*
Y727710D01*
X184404D01*
Y729234D01*
X185928D01*
Y732282D01*
X184404D01*
Y733806D01*
X181356D01*
Y732282D01*
X179832D01*
Y729234D01*
X181356D01*
X163830Y728218D02*
Y725678D01*
X168910D01*
Y728218D01*
X171450D01*
Y733298D01*
X168910D01*
Y735838D01*
X163830D01*
Y733298D01*
X161290D01*
Y728218D01*
X163830D01*
X164846Y729234D02*
Y727710D01*
X167894D01*
Y729234D01*
X169418D01*
Y732282D01*
X167894D01*
Y733806D01*
X164846D01*
Y732282D01*
X163322D01*
Y729234D01*
X164846D01*
X147320Y728218D02*
Y725678D01*
X152400D01*
Y728218D01*
X154940D01*
Y733298D01*
X152400D01*
Y735838D01*
X147320D01*
Y733298D01*
X144780D01*
Y728218D01*
X147320D01*
X148336Y729234D02*
Y727710D01*
X151384D01*
Y729234D01*
X152908D01*
Y732282D01*
X151384D01*
Y733806D01*
X148336D01*
Y732282D01*
X146812D01*
Y729234D01*
X148336D01*
X130810Y728218D02*
Y725678D01*
X135890D01*
Y728218D01*
X138430D01*
Y733298D01*
X135890D01*
Y735838D01*
X130810D01*
Y733298D01*
X128270D01*
Y728218D01*
X130810D01*
X131826Y729234D02*
Y727710D01*
X134874D01*
Y729234D01*
X136398D01*
Y732282D01*
X134874D01*
Y733806D01*
X131826D01*
Y732282D01*
X130302D01*
Y729234D01*
X131826D01*
X115570Y728218D02*
Y725678D01*
X120650D01*
Y728218D01*
X123190D01*
Y733298D01*
X120650D01*
Y735838D01*
X115570D01*
Y733298D01*
X113030D01*
Y728218D01*
X115570D01*
X116586Y729234D02*
Y727710D01*
X119634D01*
Y729234D01*
X121158D01*
Y732282D01*
X119634D01*
Y733806D01*
X116586D01*
Y732282D01*
X115062D01*
Y729234D01*
X116586D01*
X99060Y728218D02*
Y725678D01*
X104140D01*
Y728218D01*
X106680D01*
Y733298D01*
X104140D01*
Y735838D01*
X99060D01*
Y733298D01*
X96520D01*
Y728218D01*
X99060D01*
X100076Y729234D02*
Y727710D01*
X103124D01*
Y729234D01*
X104648D01*
Y732282D01*
X103124D01*
Y733806D01*
X100076D01*
Y732282D01*
X98552D01*
Y729234D01*
X100076D01*
X82550Y728218D02*
Y725678D01*
X87630D01*
Y728218D01*
X90170D01*
Y733298D01*
X87630D01*
Y735838D01*
X82550D01*
Y733298D01*
X80010D01*
Y728218D01*
X82550D01*
X83566Y729234D02*
Y727710D01*
X86614D01*
Y729234D01*
X88138D01*
Y732282D01*
X86614D01*
Y733806D01*
X83566D01*
Y732282D01*
X82042D01*
Y729234D01*
X83566D01*
X66040Y728218D02*
Y725678D01*
X71120D01*
Y728218D01*
X73660D01*
Y733298D01*
X71120D01*
Y735838D01*
X66040D01*
Y733298D01*
X63500D01*
Y728218D01*
X66040D01*
X67056Y729234D02*
Y727710D01*
X70104D01*
Y729234D01*
X71628D01*
Y732282D01*
X70104D01*
Y733806D01*
X67056D01*
Y732282D01*
X65532D01*
Y729234D01*
X67056D01*
X50800Y728218D02*
Y725678D01*
X55880D01*
Y728218D01*
X58420D01*
Y733298D01*
X55880D01*
Y735838D01*
X50800D01*
Y733298D01*
X48260D01*
Y728218D01*
X50800D01*
X51816Y729234D02*
Y727710D01*
X54864D01*
Y729234D01*
X56388D01*
Y732282D01*
X54864D01*
Y733806D01*
X51816D01*
Y732282D01*
X50292D01*
Y729234D01*
X51816D01*
X36830Y728218D02*
Y725678D01*
X41910D01*
Y728218D01*
X44450D01*
Y733298D01*
X41910D01*
Y735838D01*
X36830D01*
Y733298D01*
X34290D01*
Y728218D01*
X36830D01*
X37846Y729234D02*
Y727710D01*
X40894D01*
Y729234D01*
X42418D01*
Y732282D01*
X40894D01*
Y733806D01*
X37846D01*
Y732282D01*
X36322D01*
Y729234D01*
X37846D01*
X21590Y728218D02*
Y725678D01*
X26670D01*
Y728218D01*
X29210D01*
Y733298D01*
X26670D01*
Y735838D01*
X21590D01*
Y733298D01*
X19050D01*
Y728218D01*
X21590D01*
X22606Y729234D02*
Y727710D01*
X25654D01*
Y729234D01*
X27178D01*
Y732282D01*
X25654D01*
Y733806D01*
X22606D01*
Y732282D01*
X21082D01*
Y729234D01*
X22606D01*
X5080Y728218D02*
Y725678D01*
X10160D01*
Y728218D01*
X12700D01*
Y733298D01*
X10160D01*
Y735838D01*
X5080D01*
Y733298D01*
X2540D01*
Y728218D01*
X5080D01*
X6096Y729234D02*
Y727710D01*
X9144D01*
Y729234D01*
X10668D01*
Y732282D01*
X9144D01*
Y733806D01*
X6096D01*
Y732282D01*
X4572D01*
Y729234D01*
X6096D01*
X1184910Y7620D02*
Y5080D01*
X1189990D01*
Y7620D01*
X1192530D01*
Y12700D01*
X1189990D01*
Y15240D01*
X1184910D01*
Y12700D01*
X1182370D01*
Y7620D01*
X1184910D01*
X1185926Y8636D02*
Y7112D01*
X1188974D01*
Y8636D01*
X1190498D01*
Y11684D01*
X1188974D01*
Y13208D01*
X1185926D01*
Y11684D01*
X1184402D01*
Y8636D01*
X1185926D01*
X1163320Y7620D02*
Y5080D01*
X1168400D01*
Y7620D01*
X1170940D01*
Y12700D01*
X1168400D01*
Y15240D01*
X1163320D01*
Y12700D01*
X1160780D01*
Y7620D01*
X1163320D01*
X1164336Y8636D02*
Y7112D01*
X1167384D01*
Y8636D01*
X1168908D01*
Y11684D01*
X1167384D01*
Y13208D01*
X1164336D01*
Y11684D01*
X1162812D01*
Y8636D01*
X1164336D01*
X1141730Y7620D02*
Y5080D01*
X1146810D01*
Y7620D01*
X1149350D01*
Y12700D01*
X1146810D01*
Y15240D01*
X1141730D01*
Y12700D01*
X1139190D01*
Y7620D01*
X1141730D01*
X1142746Y8636D02*
Y7112D01*
X1145794D01*
Y8636D01*
X1147318D01*
Y11684D01*
X1145794D01*
Y13208D01*
X1142746D01*
Y11684D01*
X1141222D01*
Y8636D01*
X1142746D01*
X1118870Y7620D02*
Y5080D01*
X1123950D01*
Y7620D01*
X1126490D01*
Y12700D01*
X1123950D01*
Y15240D01*
X1118870D01*
Y12700D01*
X1116330D01*
Y7620D01*
X1118870D01*
X1119886Y8636D02*
Y7112D01*
X1122934D01*
Y8636D01*
X1124458D01*
Y11684D01*
X1122934D01*
Y13208D01*
X1119886D01*
Y11684D01*
X1118362D01*
Y8636D01*
X1119886D01*
X1099820Y7620D02*
Y5080D01*
X1104900D01*
Y7620D01*
X1107440D01*
Y12700D01*
X1104900D01*
Y15240D01*
X1099820D01*
Y12700D01*
X1097280D01*
Y7620D01*
X1099820D01*
X1100836Y8636D02*
Y7112D01*
X1103884D01*
Y8636D01*
X1105408D01*
Y11684D01*
X1103884D01*
Y13208D01*
X1100836D01*
Y11684D01*
X1099312D01*
Y8636D01*
X1100836D01*
X1078230Y7620D02*
Y5080D01*
X1083310D01*
Y7620D01*
X1085850D01*
Y12700D01*
X1083310D01*
Y15240D01*
X1078230D01*
Y12700D01*
X1075690D01*
Y7620D01*
X1078230D01*
X1079246Y8636D02*
Y7112D01*
X1082294D01*
Y8636D01*
X1083818D01*
Y11684D01*
X1082294D01*
Y13208D01*
X1079246D01*
Y11684D01*
X1077722D01*
Y8636D01*
X1079246D01*
X1057910Y7620D02*
Y5080D01*
X1062990D01*
Y7620D01*
X1065530D01*
Y12700D01*
X1062990D01*
Y15240D01*
X1057910D01*
Y12700D01*
X1055370D01*
Y7620D01*
X1057910D01*
X1058926Y8636D02*
Y7112D01*
X1061974D01*
Y8636D01*
X1063498D01*
Y11684D01*
X1061974D01*
Y13208D01*
X1058926D01*
Y11684D01*
X1057402D01*
Y8636D01*
X1058926D01*
X1038860Y7620D02*
Y5080D01*
X1043940D01*
Y7620D01*
X1046480D01*
Y12700D01*
X1043940D01*
Y15240D01*
X1038860D01*
Y12700D01*
X1036320D01*
Y7620D01*
X1038860D01*
X1039876Y8636D02*
Y7112D01*
X1042924D01*
Y8636D01*
X1044448D01*
Y11684D01*
X1042924D01*
Y13208D01*
X1039876D01*
Y11684D01*
X1038352D01*
Y8636D01*
X1039876D01*
X1021080Y7620D02*
Y5080D01*
X1026160D01*
Y7620D01*
X1028700D01*
Y12700D01*
X1026160D01*
Y15240D01*
X1021080D01*
Y12700D01*
X1018540D01*
Y7620D01*
X1021080D01*
X1022096Y8636D02*
Y7112D01*
X1025144D01*
Y8636D01*
X1026668D01*
Y11684D01*
X1025144D01*
Y13208D01*
X1022096D01*
Y11684D01*
X1020572D01*
Y8636D01*
X1022096D01*
X999490Y7620D02*
Y5080D01*
X1004570D01*
Y7620D01*
X1007110D01*
Y12700D01*
X1004570D01*
Y15240D01*
X999490D01*
Y12700D01*
X996950D01*
Y7620D01*
X999490D01*
X1000506Y8636D02*
Y7112D01*
X1003554D01*
Y8636D01*
X1005078D01*
Y11684D01*
X1003554D01*
Y13208D01*
X1000506D01*
Y11684D01*
X998982D01*
Y8636D01*
X1000506D01*
X979170Y7620D02*
Y5080D01*
X984250D01*
Y7620D01*
X986790D01*
Y12700D01*
X984250D01*
Y15240D01*
X979170D01*
Y12700D01*
X976630D01*
Y7620D01*
X979170D01*
X980186Y8636D02*
Y7112D01*
X983234D01*
Y8636D01*
X984758D01*
Y11684D01*
X983234D01*
Y13208D01*
X980186D01*
Y11684D01*
X978662D01*
Y8636D01*
X980186D01*
X957580Y7620D02*
Y5080D01*
X962660D01*
Y7620D01*
X965200D01*
Y12700D01*
X962660D01*
Y15240D01*
X957580D01*
Y12700D01*
X955040D01*
Y7620D01*
X957580D01*
X958596Y8636D02*
Y7112D01*
X961644D01*
Y8636D01*
X963168D01*
Y11684D01*
X961644D01*
Y13208D01*
X958596D01*
Y11684D01*
X957072D01*
Y8636D01*
X958596D01*
X935990Y7620D02*
Y5080D01*
X941070D01*
Y7620D01*
X943610D01*
Y12700D01*
X941070D01*
Y15240D01*
X935990D01*
Y12700D01*
X933450D01*
Y7620D01*
X935990D01*
X937006Y8636D02*
Y7112D01*
X940054D01*
Y8636D01*
X941578D01*
Y11684D01*
X940054D01*
Y13208D01*
X937006D01*
Y11684D01*
X935482D01*
Y8636D01*
X937006D01*
X915670Y7620D02*
Y5080D01*
X920750D01*
Y7620D01*
X923290D01*
Y12700D01*
X920750D01*
Y15240D01*
X915670D01*
Y12700D01*
X913130D01*
Y7620D01*
X915670D01*
X916686Y8636D02*
Y7112D01*
X919734D01*
Y8636D01*
X921258D01*
Y11684D01*
X919734D01*
Y13208D01*
X916686D01*
Y11684D01*
X915162D01*
Y8636D01*
X916686D01*
X896620Y7620D02*
Y5080D01*
X901700D01*
Y7620D01*
X904240D01*
Y12700D01*
X901700D01*
Y15240D01*
X896620D01*
Y12700D01*
X894080D01*
Y7620D01*
X896620D01*
X897636Y8636D02*
Y7112D01*
X900684D01*
Y8636D01*
X902208D01*
Y11684D01*
X900684D01*
Y13208D01*
X897636D01*
Y11684D01*
X896112D01*
Y8636D01*
X897636D01*
X876300Y7620D02*
Y5080D01*
X881380D01*
Y7620D01*
X883920D01*
Y12700D01*
X881380D01*
Y15240D01*
X876300D01*
Y12700D01*
X873760D01*
Y7620D01*
X876300D01*
X877316Y8636D02*
Y7112D01*
X880364D01*
Y8636D01*
X881888D01*
Y11684D01*
X880364D01*
Y13208D01*
X877316D01*
Y11684D01*
X875792D01*
Y8636D01*
X877316D01*
X854710Y7620D02*
Y5080D01*
X859790D01*
Y7620D01*
X862330D01*
Y12700D01*
X859790D01*
Y15240D01*
X854710D01*
Y12700D01*
X852170D01*
Y7620D01*
X854710D01*
X855726Y8636D02*
Y7112D01*
X858774D01*
Y8636D01*
X860298D01*
Y11684D01*
X858774D01*
Y13208D01*
X855726D01*
Y11684D01*
X854202D01*
Y8636D01*
X855726D01*
X834390Y7620D02*
Y5080D01*
X839470D01*
Y7620D01*
X842010D01*
Y12700D01*
X839470D01*
Y15240D01*
X834390D01*
Y12700D01*
X831850D01*
Y7620D01*
X834390D01*
X835406Y8636D02*
Y7112D01*
X838454D01*
Y8636D01*
X839978D01*
Y11684D01*
X838454D01*
Y13208D01*
X835406D01*
Y11684D01*
X833882D01*
Y8636D01*
X835406D01*
X812800Y7620D02*
Y5080D01*
X817880D01*
Y7620D01*
X820420D01*
Y12700D01*
X817880D01*
Y15240D01*
X812800D01*
Y12700D01*
X810260D01*
Y7620D01*
X812800D01*
X813816Y8636D02*
Y7112D01*
X816864D01*
Y8636D01*
X818388D01*
Y11684D01*
X816864D01*
Y13208D01*
X813816D01*
Y11684D01*
X812292D01*
Y8636D01*
X813816D01*
X791210Y7620D02*
Y5080D01*
X796290D01*
Y7620D01*
X798830D01*
Y12700D01*
X796290D01*
Y15240D01*
X791210D01*
Y12700D01*
X788670D01*
Y7620D01*
X791210D01*
X792226Y8636D02*
Y7112D01*
X795274D01*
Y8636D01*
X796798D01*
Y11684D01*
X795274D01*
Y13208D01*
X792226D01*
Y11684D01*
X790702D01*
Y8636D01*
X792226D01*
X772160Y7620D02*
Y5080D01*
X777240D01*
Y7620D01*
X779780D01*
Y12700D01*
X777240D01*
Y15240D01*
X772160D01*
Y12700D01*
X769620D01*
Y7620D01*
X772160D01*
X773176Y8636D02*
Y7112D01*
X776224D01*
Y8636D01*
X777748D01*
Y11684D01*
X776224D01*
Y13208D01*
X773176D01*
Y11684D01*
X771652D01*
Y8636D01*
X773176D01*
X751840Y7620D02*
Y5080D01*
X756920D01*
Y7620D01*
X759460D01*
Y12700D01*
X756920D01*
Y15240D01*
X751840D01*
Y12700D01*
X749300D01*
Y7620D01*
X751840D01*
X752856Y8636D02*
Y7112D01*
X755904D01*
Y8636D01*
X757428D01*
Y11684D01*
X755904D01*
Y13208D01*
X752856D01*
Y11684D01*
X751332D01*
Y8636D01*
X752856D01*
X731520Y7620D02*
Y5080D01*
X736600D01*
Y7620D01*
X739140D01*
Y12700D01*
X736600D01*
Y15240D01*
X731520D01*
Y12700D01*
X728980D01*
Y7620D01*
X731520D01*
X732536Y8636D02*
Y7112D01*
X735584D01*
Y8636D01*
X737108D01*
Y11684D01*
X735584D01*
Y13208D01*
X732536D01*
Y11684D01*
X731012D01*
Y8636D01*
X732536D01*
X709930Y7620D02*
Y5080D01*
X715010D01*
Y7620D01*
X717550D01*
Y12700D01*
X715010D01*
Y15240D01*
X709930D01*
Y12700D01*
X707390D01*
Y7620D01*
X709930D01*
X710946Y8636D02*
Y7112D01*
X713994D01*
Y8636D01*
X715518D01*
Y11684D01*
X713994D01*
Y13208D01*
X710946D01*
Y11684D01*
X709422D01*
Y8636D01*
X710946D01*
X690880Y7620D02*
Y5080D01*
X695960D01*
Y7620D01*
X698500D01*
Y12700D01*
X695960D01*
Y15240D01*
X690880D01*
Y12700D01*
X688340D01*
Y7620D01*
X690880D01*
X691896Y8636D02*
Y7112D01*
X694944D01*
Y8636D01*
X696468D01*
Y11684D01*
X694944D01*
Y13208D01*
X691896D01*
Y11684D01*
X690372D01*
Y8636D01*
X691896D01*
X673100Y7620D02*
Y5080D01*
X678180D01*
Y7620D01*
X680720D01*
Y12700D01*
X678180D01*
Y15240D01*
X673100D01*
Y12700D01*
X670560D01*
Y7620D01*
X673100D01*
X674116Y8636D02*
Y7112D01*
X677164D01*
Y8636D01*
X678688D01*
Y11684D01*
X677164D01*
Y13208D01*
X674116D01*
Y11684D01*
X672592D01*
Y8636D01*
X674116D01*
X654050Y7620D02*
Y5080D01*
X659130D01*
Y7620D01*
X661670D01*
Y12700D01*
X659130D01*
Y15240D01*
X654050D01*
Y12700D01*
X651510D01*
Y7620D01*
X654050D01*
X655066Y8636D02*
Y7112D01*
X658114D01*
Y8636D01*
X659638D01*
Y11684D01*
X658114D01*
Y13208D01*
X655066D01*
Y11684D01*
X653542D01*
Y8636D01*
X655066D01*
X633730Y7620D02*
Y5080D01*
X638810D01*
Y7620D01*
X641350D01*
Y12700D01*
X638810D01*
Y15240D01*
X633730D01*
Y12700D01*
X631190D01*
Y7620D01*
X633730D01*
X634746Y8636D02*
Y7112D01*
X637794D01*
Y8636D01*
X639318D01*
Y11684D01*
X637794D01*
Y13208D01*
X634746D01*
Y11684D01*
X633222D01*
Y8636D01*
X634746D01*
X615950Y7620D02*
Y5080D01*
X621030D01*
Y7620D01*
X623570D01*
Y12700D01*
X621030D01*
Y15240D01*
X615950D01*
Y12700D01*
X613410D01*
Y7620D01*
X615950D01*
X616966Y8636D02*
Y7112D01*
X620014D01*
Y8636D01*
X621538D01*
Y11684D01*
X620014D01*
Y13208D01*
X616966D01*
Y11684D01*
X615442D01*
Y8636D01*
X616966D01*
X595630Y7620D02*
Y5080D01*
X600710D01*
Y7620D01*
X603250D01*
Y12700D01*
X600710D01*
Y15240D01*
X595630D01*
Y12700D01*
X593090D01*
Y7620D01*
X595630D01*
X596646Y8636D02*
Y7112D01*
X599694D01*
Y8636D01*
X601218D01*
Y11684D01*
X599694D01*
Y13208D01*
X596646D01*
Y11684D01*
X595122D01*
Y8636D01*
X596646D01*
X574040Y7620D02*
Y5080D01*
X579120D01*
Y7620D01*
X581660D01*
Y12700D01*
X579120D01*
Y15240D01*
X574040D01*
Y12700D01*
X571500D01*
Y7620D01*
X574040D01*
X575056Y8636D02*
Y7112D01*
X578104D01*
Y8636D01*
X579628D01*
Y11684D01*
X578104D01*
Y13208D01*
X575056D01*
Y11684D01*
X573532D01*
Y8636D01*
X575056D01*
X554990Y7620D02*
Y5080D01*
X560070D01*
Y7620D01*
X562610D01*
Y12700D01*
X560070D01*
Y15240D01*
X554990D01*
Y12700D01*
X552450D01*
Y7620D01*
X554990D01*
X556006Y8636D02*
Y7112D01*
X559054D01*
Y8636D01*
X560578D01*
Y11684D01*
X559054D01*
Y13208D01*
X556006D01*
Y11684D01*
X554482D01*
Y8636D01*
X556006D01*
X534670Y7620D02*
Y5080D01*
X539750D01*
Y7620D01*
X542290D01*
Y12700D01*
X539750D01*
Y15240D01*
X534670D01*
Y12700D01*
X532130D01*
Y7620D01*
X534670D01*
X535686Y8636D02*
Y7112D01*
X538734D01*
Y8636D01*
X540258D01*
Y11684D01*
X538734D01*
Y13208D01*
X535686D01*
Y11684D01*
X534162D01*
Y8636D01*
X535686D01*
X515620Y7620D02*
Y5080D01*
X520700D01*
Y7620D01*
X523240D01*
Y12700D01*
X520700D01*
Y15240D01*
X515620D01*
Y12700D01*
X513080D01*
Y7620D01*
X515620D01*
X516636Y8636D02*
Y7112D01*
X519684D01*
Y8636D01*
X521208D01*
Y11684D01*
X519684D01*
Y13208D01*
X516636D01*
Y11684D01*
X515112D01*
Y8636D01*
X516636D01*
X496570Y7620D02*
Y5080D01*
X501650D01*
Y7620D01*
X504190D01*
Y12700D01*
X501650D01*
Y15240D01*
X496570D01*
Y12700D01*
X494030D01*
Y7620D01*
X496570D01*
X497586Y8636D02*
Y7112D01*
X500634D01*
Y8636D01*
X502158D01*
Y11684D01*
X500634D01*
Y13208D01*
X497586D01*
Y11684D01*
X496062D01*
Y8636D01*
X497586D01*
X477520Y7620D02*
Y5080D01*
X482600D01*
Y7620D01*
X485140D01*
Y12700D01*
X482600D01*
Y15240D01*
X477520D01*
Y12700D01*
X474980D01*
Y7620D01*
X477520D01*
X478536Y8636D02*
Y7112D01*
X481584D01*
Y8636D01*
X483108D01*
Y11684D01*
X481584D01*
Y13208D01*
X478536D01*
Y11684D01*
X477012D01*
Y8636D01*
X478536D01*
X457200Y7620D02*
Y5080D01*
X462280D01*
Y7620D01*
X464820D01*
Y12700D01*
X462280D01*
Y15240D01*
X457200D01*
Y12700D01*
X454660D01*
Y7620D01*
X457200D01*
X458216Y8636D02*
Y7112D01*
X461264D01*
Y8636D01*
X462788D01*
Y11684D01*
X461264D01*
Y13208D01*
X458216D01*
Y11684D01*
X456692D01*
Y8636D01*
X458216D01*
X436880Y7620D02*
Y5080D01*
X441960D01*
Y7620D01*
X444500D01*
Y12700D01*
X441960D01*
Y15240D01*
X436880D01*
Y12700D01*
X434340D01*
Y7620D01*
X436880D01*
X437896Y8636D02*
Y7112D01*
X440944D01*
Y8636D01*
X442468D01*
Y11684D01*
X440944D01*
Y13208D01*
X437896D01*
Y11684D01*
X436372D01*
Y8636D01*
X437896D01*
X419100Y7620D02*
Y5080D01*
X424180D01*
Y7620D01*
X426720D01*
Y12700D01*
X424180D01*
Y15240D01*
X419100D01*
Y12700D01*
X416560D01*
Y7620D01*
X419100D01*
X420116Y8636D02*
Y7112D01*
X423164D01*
Y8636D01*
X424688D01*
Y11684D01*
X423164D01*
Y13208D01*
X420116D01*
Y11684D01*
X418592D01*
Y8636D01*
X420116D01*
X400050Y7620D02*
Y5080D01*
X405130D01*
Y7620D01*
X407670D01*
Y12700D01*
X405130D01*
Y15240D01*
X400050D01*
Y12700D01*
X397510D01*
Y7620D01*
X400050D01*
X401066Y8636D02*
Y7112D01*
X404114D01*
Y8636D01*
X405638D01*
Y11684D01*
X404114D01*
Y13208D01*
X401066D01*
Y11684D01*
X399542D01*
Y8636D01*
X401066D01*
X381000Y7620D02*
Y5080D01*
X386080D01*
Y7620D01*
X388620D01*
Y12700D01*
X386080D01*
Y15240D01*
X381000D01*
Y12700D01*
X378460D01*
Y7620D01*
X381000D01*
X382016Y8636D02*
Y7112D01*
X385064D01*
Y8636D01*
X386588D01*
Y11684D01*
X385064D01*
Y13208D01*
X382016D01*
Y11684D01*
X380492D01*
Y8636D01*
X382016D01*
X360680Y7620D02*
Y5080D01*
X365760D01*
Y7620D01*
X368300D01*
Y12700D01*
X365760D01*
Y15240D01*
X360680D01*
Y12700D01*
X358140D01*
Y7620D01*
X360680D01*
X361696Y8636D02*
Y7112D01*
X364744D01*
Y8636D01*
X366268D01*
Y11684D01*
X364744D01*
Y13208D01*
X361696D01*
Y11684D01*
X360172D01*
Y8636D01*
X361696D01*
X340360Y7620D02*
Y5080D01*
X345440D01*
Y7620D01*
X347980D01*
Y12700D01*
X345440D01*
Y15240D01*
X340360D01*
Y12700D01*
X337820D01*
Y7620D01*
X340360D01*
X341376Y8636D02*
Y7112D01*
X344424D01*
Y8636D01*
X345948D01*
Y11684D01*
X344424D01*
Y13208D01*
X341376D01*
Y11684D01*
X339852D01*
Y8636D01*
X341376D01*
X321310Y7620D02*
Y5080D01*
X326390D01*
Y7620D01*
X328930D01*
Y12700D01*
X326390D01*
Y15240D01*
X321310D01*
Y12700D01*
X318770D01*
Y7620D01*
X321310D01*
X322326Y8636D02*
Y7112D01*
X325374D01*
Y8636D01*
X326898D01*
Y11684D01*
X325374D01*
Y13208D01*
X322326D01*
Y11684D01*
X320802D01*
Y8636D01*
X322326D01*
X300990Y7620D02*
Y5080D01*
X306070D01*
Y7620D01*
X308610D01*
Y12700D01*
X306070D01*
Y15240D01*
X300990D01*
Y12700D01*
X298450D01*
Y7620D01*
X300990D01*
X302006Y8636D02*
Y7112D01*
X305054D01*
Y8636D01*
X306578D01*
Y11684D01*
X305054D01*
Y13208D01*
X302006D01*
Y11684D01*
X300482D01*
Y8636D01*
X302006D01*
X281940Y7620D02*
Y5080D01*
X287020D01*
Y7620D01*
X289560D01*
Y12700D01*
X287020D01*
Y15240D01*
X281940D01*
Y12700D01*
X279400D01*
Y7620D01*
X281940D01*
X282956Y8636D02*
Y7112D01*
X286004D01*
Y8636D01*
X287528D01*
Y11684D01*
X286004D01*
Y13208D01*
X282956D01*
Y11684D01*
X281432D01*
Y8636D01*
X282956D01*
X264160Y7620D02*
Y5080D01*
X269240D01*
Y7620D01*
X271780D01*
Y12700D01*
X269240D01*
Y15240D01*
X264160D01*
Y12700D01*
X261620D01*
Y7620D01*
X264160D01*
X265176Y8636D02*
Y7112D01*
X268224D01*
Y8636D01*
X269748D01*
Y11684D01*
X268224D01*
Y13208D01*
X265176D01*
Y11684D01*
X263652D01*
Y8636D01*
X265176D01*
X247650Y7620D02*
Y5080D01*
X252730D01*
Y7620D01*
X255270D01*
Y12700D01*
X252730D01*
Y15240D01*
X247650D01*
Y12700D01*
X245110D01*
Y7620D01*
X247650D01*
X248666Y8636D02*
Y7112D01*
X251714D01*
Y8636D01*
X253238D01*
Y11684D01*
X251714D01*
Y13208D01*
X248666D01*
Y11684D01*
X247142D01*
Y8636D01*
X248666D01*
X229870Y7620D02*
Y5080D01*
X234950D01*
Y7620D01*
X237490D01*
Y12700D01*
X234950D01*
Y15240D01*
X229870D01*
Y12700D01*
X227330D01*
Y7620D01*
X229870D01*
X230886Y8636D02*
Y7112D01*
X233934D01*
Y8636D01*
X235458D01*
Y11684D01*
X233934D01*
Y13208D01*
X230886D01*
Y11684D01*
X229362D01*
Y8636D01*
X230886D01*
X213360Y7620D02*
Y5080D01*
X218440D01*
Y7620D01*
X220980D01*
Y12700D01*
X218440D01*
Y15240D01*
X213360D01*
Y12700D01*
X210820D01*
Y7620D01*
X213360D01*
X214376Y8636D02*
Y7112D01*
X217424D01*
Y8636D01*
X218948D01*
Y11684D01*
X217424D01*
Y13208D01*
X214376D01*
Y11684D01*
X212852D01*
Y8636D01*
X214376D01*
X196850Y7620D02*
Y5080D01*
X201930D01*
Y7620D01*
X204470D01*
Y12700D01*
X201930D01*
Y15240D01*
X196850D01*
Y12700D01*
X194310D01*
Y7620D01*
X196850D01*
X197866Y8636D02*
Y7112D01*
X200914D01*
Y8636D01*
X202438D01*
Y11684D01*
X200914D01*
Y13208D01*
X197866D01*
Y11684D01*
X196342D01*
Y8636D01*
X197866D01*
X180340Y7620D02*
Y5080D01*
X185420D01*
Y7620D01*
X187960D01*
Y12700D01*
X185420D01*
Y15240D01*
X180340D01*
Y12700D01*
X177800D01*
Y7620D01*
X180340D01*
X181356Y8636D02*
Y7112D01*
X184404D01*
Y8636D01*
X185928D01*
Y11684D01*
X184404D01*
Y13208D01*
X181356D01*
Y11684D01*
X179832D01*
Y8636D01*
X181356D01*
X163830Y7620D02*
Y5080D01*
X168910D01*
Y7620D01*
X171450D01*
Y12700D01*
X168910D01*
Y15240D01*
X163830D01*
Y12700D01*
X161290D01*
Y7620D01*
X163830D01*
X164846Y8636D02*
Y7112D01*
X167894D01*
Y8636D01*
X169418D01*
Y11684D01*
X167894D01*
Y13208D01*
X164846D01*
Y11684D01*
X163322D01*
Y8636D01*
X164846D01*
X147320Y7620D02*
Y5080D01*
X152400D01*
Y7620D01*
X154940D01*
Y12700D01*
X152400D01*
Y15240D01*
X147320D01*
Y12700D01*
X144780D01*
Y7620D01*
X147320D01*
X148336Y8636D02*
Y7112D01*
X151384D01*
Y8636D01*
X152908D01*
Y11684D01*
X151384D01*
Y13208D01*
X148336D01*
Y11684D01*
X146812D01*
Y8636D01*
X148336D01*
X130810Y7620D02*
Y5080D01*
X135890D01*
Y7620D01*
X138430D01*
Y12700D01*
X135890D01*
Y15240D01*
X130810D01*
Y12700D01*
X128270D01*
Y7620D01*
X130810D01*
X131826Y8636D02*
Y7112D01*
X134874D01*
Y8636D01*
X136398D01*
Y11684D01*
X134874D01*
Y13208D01*
X131826D01*
Y11684D01*
X130302D01*
Y8636D01*
X131826D01*
X115570Y7620D02*
Y5080D01*
X120650D01*
Y7620D01*
X123190D01*
Y12700D01*
X120650D01*
Y15240D01*
X115570D01*
Y12700D01*
X113030D01*
Y7620D01*
X115570D01*
X116586Y8636D02*
Y7112D01*
X119634D01*
Y8636D01*
X121158D01*
Y11684D01*
X119634D01*
Y13208D01*
X116586D01*
Y11684D01*
X115062D01*
Y8636D01*
X116586D01*
X99060Y7620D02*
Y5080D01*
X104140D01*
Y7620D01*
X106680D01*
Y12700D01*
X104140D01*
Y15240D01*
X99060D01*
Y12700D01*
X96520D01*
Y7620D01*
X99060D01*
X100076Y8636D02*
Y7112D01*
X103124D01*
Y8636D01*
X104648D01*
Y11684D01*
X103124D01*
Y13208D01*
X100076D01*
Y11684D01*
X98552D01*
Y8636D01*
X100076D01*
X82550Y7620D02*
Y5080D01*
X87630D01*
Y7620D01*
X90170D01*
Y12700D01*
X87630D01*
Y15240D01*
X82550D01*
Y12700D01*
X80010D01*
Y7620D01*
X82550D01*
X83566Y8636D02*
Y7112D01*
X86614D01*
Y8636D01*
X88138D01*
Y11684D01*
X86614D01*
Y13208D01*
X83566D01*
Y11684D01*
X82042D01*
Y8636D01*
X83566D01*
X66040Y7620D02*
Y5080D01*
X71120D01*
Y7620D01*
X73660D01*
Y12700D01*
X71120D01*
Y15240D01*
X66040D01*
Y12700D01*
X63500D01*
Y7620D01*
X66040D01*
X67056Y8636D02*
Y7112D01*
X70104D01*
Y8636D01*
X71628D01*
Y11684D01*
X70104D01*
Y13208D01*
X67056D01*
Y11684D01*
X65532D01*
Y8636D01*
X67056D01*
X50800Y7620D02*
Y5080D01*
X55880D01*
Y7620D01*
X58420D01*
Y12700D01*
X55880D01*
Y15240D01*
X50800D01*
Y12700D01*
X48260D01*
Y7620D01*
X50800D01*
X51816Y8636D02*
Y7112D01*
X54864D01*
Y8636D01*
X56388D01*
Y11684D01*
X54864D01*
Y13208D01*
X51816D01*
Y11684D01*
X50292D01*
Y8636D01*
X51816D01*
X36830Y7620D02*
Y5080D01*
X41910D01*
Y7620D01*
X44450D01*
Y12700D01*
X41910D01*
Y15240D01*
X36830D01*
Y12700D01*
X34290D01*
Y7620D01*
X36830D01*
X37846Y8636D02*
Y7112D01*
X40894D01*
Y8636D01*
X42418D01*
Y11684D01*
X40894D01*
Y13208D01*
X37846D01*
Y11684D01*
X36322D01*
Y8636D01*
X37846D01*
X21590Y7620D02*
Y5080D01*
X26670D01*
Y7620D01*
X29210D01*
Y12700D01*
X26670D01*
Y15240D01*
X21590D01*
Y12700D01*
X19050D01*
Y7620D01*
X21590D01*
X22606Y8636D02*
Y7112D01*
X25654D01*
Y8636D01*
X27178D01*
Y11684D01*
X25654D01*
Y13208D01*
X22606D01*
Y11684D01*
X21082D01*
Y8636D01*
X22606D01*
X5080Y7620D02*
Y5080D01*
X10160D01*
Y7620D01*
X12700D01*
Y12700D01*
X10160D01*
Y15240D01*
X5080D01*
Y12700D01*
X2540D01*
Y7620D01*
X5080D01*
X6096Y8636D02*
Y7112D01*
X9144D01*
Y8636D01*
X10668D01*
Y11684D01*
X9144D01*
Y13208D01*
X6096D01*
Y11684D01*
X4572D01*
Y8636D01*
X6096D01*
D100*
X92320Y572040D02*
G03*
X92320Y572040I-5080J0D01*
G01*
Y563540D02*
G03*
X92320Y563540I-5080J0D01*
G01*
Y555040D02*
G03*
X92320Y555040I-5080J0D01*
G01*
Y529540D02*
G03*
X92320Y529540I-5080J0D01*
G01*
Y521040D02*
G03*
X92320Y521040I-5080J0D01*
G01*
Y512540D02*
G03*
X92320Y512540I-5080J0D01*
G01*
X78820D02*
G03*
X78820Y512540I-5080J0D01*
G01*
Y521040D02*
G03*
X78820Y521040I-5080J0D01*
G01*
Y529540D02*
G03*
X78820Y529540I-5080J0D01*
G01*
Y555040D02*
G03*
X78820Y555040I-5080J0D01*
G01*
Y563540D02*
G03*
X78820Y563540I-5080J0D01*
G01*
Y572040D02*
G03*
X78820Y572040I-5080J0D01*
G01*
Y538040D02*
G03*
X78820Y538040I-5080J0D01*
G01*
X92320Y546540D02*
G03*
X92320Y546540I-5080J0D01*
G01*
Y538040D02*
G03*
X92320Y538040I-5080J0D01*
G01*
X78820Y546540D02*
G03*
X78820Y546540I-5080J0D01*
G01*
X250720Y235830D02*
G03*
X250720Y235830I-5080J0D01*
G01*
X780720D02*
G03*
X780720Y235830I-5080J0D01*
G01*
Y505830D02*
G03*
X780720Y505830I-5080J0D01*
G01*
X250720D02*
G03*
X250720Y505830I-5080J0D01*
G01*
D101*
X248688Y235830D02*
G03*
X248688Y235830I-3048J0D01*
G01*
X778688D02*
G03*
X778688Y235830I-3048J0D01*
G01*
Y505830D02*
G03*
X778688Y505830I-3048J0D01*
G01*
X248688D02*
G03*
X248688Y505830I-3048J0D01*
G01*
M02*
