G04*
G04 #@! TF.GenerationSoftware,Altium Limited,Altium Designer,25.3.3 (18)*
G04*
G04 Layer_Color=32768*
%FSLAX44Y44*%
%MOMM*%
G71*
G04*
G04 #@! TF.SameCoordinates,6D202E75-467B-4672-BE30-C010D47AD25D*
G04*
G04*
G04 #@! TF.FilePolarity,Positive*
G04*
G01*
G75*
%ADD15C,0.1000*%
%ADD98C,0.0500*%
D15*
X814324Y188294D02*
Y198294D01*
X809324Y193294D02*
X819324D01*
X741506Y164338D02*
X751506D01*
X746506Y159338D02*
Y169338D01*
X807800Y62230D02*
X817800D01*
X812800Y57230D02*
Y67230D01*
D98*
X917500Y247500D02*
Y332500D01*
X982500D01*
Y247500D02*
Y332500D01*
X917500Y247500D02*
X982500D01*
X794824Y183294D02*
X833824D01*
X794824Y203294D02*
X833824D01*
Y183294D02*
Y203294D01*
X794824Y183294D02*
Y203294D01*
X432890Y304810D02*
Y337810D01*
Y304810D02*
X473890D01*
X432890Y337810D02*
X473890D01*
Y304810D02*
Y337810D01*
X285478Y111468D02*
Y153468D01*
X251478Y111468D02*
X285478D01*
X251478D02*
Y153468D01*
X285478D01*
X766006Y154338D02*
Y174338D01*
X727006Y154338D02*
Y174338D01*
Y154338D02*
X766006D01*
X727006Y174338D02*
X766006D01*
X927524Y159246D02*
X980524D01*
X927524Y94246D02*
Y159246D01*
Y94246D02*
X980524D01*
Y159246D01*
X-1360Y592540D02*
X95340D01*
X-1360Y492040D02*
Y592540D01*
Y492040D02*
X95340D01*
Y592540D01*
X1051786Y578384D02*
Y638784D01*
X984786D02*
X1051786D01*
X984786Y578384D02*
Y638784D01*
Y578384D02*
X1051786D01*
X917500Y407500D02*
X982500D01*
Y492500D01*
X917500D02*
X982500D01*
X917500Y407500D02*
Y492500D01*
X1011628Y232976D02*
Y284676D01*
X1036628D01*
Y232976D02*
Y284676D01*
X1011628Y232976D02*
X1036628D01*
X989866Y95784D02*
X1056866D01*
X989866D02*
Y156184D01*
X1056866D01*
Y95784D02*
Y156184D01*
X891852Y56588D02*
X943552D01*
X891852D02*
Y81588D01*
X943552D01*
Y56588D02*
Y81588D01*
X463532Y105492D02*
Y147492D01*
X429532Y105492D02*
X463532D01*
X429532D02*
Y147492D01*
X463532D01*
X1052548Y510566D02*
Y570966D01*
X985548D02*
X1052548D01*
X985548Y510566D02*
Y570966D01*
Y510566D02*
X1052548D01*
X793300Y52230D02*
Y72230D01*
X832300Y52230D02*
Y72230D01*
X793300D02*
X832300D01*
X793300Y52230D02*
X832300D01*
X222940Y476728D02*
X277440D01*
X222940Y263428D02*
Y476728D01*
Y263428D02*
X277440D01*
Y476728D01*
X313298Y103748D02*
Y181748D01*
X391298D01*
Y103748D02*
Y181748D01*
X313298Y103748D02*
X391298D01*
X967798Y178508D02*
X1019498D01*
X967798D02*
Y203508D01*
X1019498D01*
Y178508D02*
Y203508D01*
X458366Y541498D02*
Y569498D01*
X445366Y541498D02*
X458366D01*
X445366D02*
Y569498D01*
X458366D01*
X595388Y94406D02*
Y179406D01*
X660388D01*
Y94406D02*
Y179406D01*
X595388Y94406D02*
X660388D01*
M02*
