G04*
G04 #@! TF.GenerationSoftware,Altium Limited,Altium Designer,25.3.3 (18)*
G04*
G04 Layer_Color=32896*
%FSLAX44Y44*%
%MOMM*%
G71*
G04*
G04 #@! TF.SameCoordinates,6D202E75-467B-4672-BE30-C010D47AD25D*
G04*
G04*
G04 #@! TF.FilePolarity,Positive*
G04*
G01*
G75*
%ADD93C,0.6000*%
%ADD94C,0.5000*%
D93*
X7620Y10160D02*
D03*
X24130D02*
D03*
X39370D02*
D03*
X53340D02*
D03*
X68580D02*
D03*
X85090D02*
D03*
X101600D02*
D03*
X118110D02*
D03*
X133350D02*
D03*
X149860D02*
D03*
X166370D02*
D03*
X182880D02*
D03*
X199390D02*
D03*
X215900D02*
D03*
X232410D02*
D03*
X250190D02*
D03*
X266700D02*
D03*
X284480D02*
D03*
X303530D02*
D03*
X323850D02*
D03*
X342900D02*
D03*
X363220D02*
D03*
X383540D02*
D03*
X402590D02*
D03*
X421640D02*
D03*
X439420D02*
D03*
X459740D02*
D03*
X480060D02*
D03*
X499110D02*
D03*
X518160D02*
D03*
X537210D02*
D03*
X557530D02*
D03*
X576580D02*
D03*
X598170D02*
D03*
X618490D02*
D03*
X636270D02*
D03*
X656590D02*
D03*
X675640D02*
D03*
X693420D02*
D03*
X712470D02*
D03*
X734060D02*
D03*
X754380D02*
D03*
X774700D02*
D03*
X793750D02*
D03*
X815340D02*
D03*
X836930D02*
D03*
X857250D02*
D03*
X878840D02*
D03*
X899160D02*
D03*
X918210D02*
D03*
X938530D02*
D03*
X960120D02*
D03*
X981710D02*
D03*
X1002030D02*
D03*
X1023620D02*
D03*
X1041400D02*
D03*
X1060450D02*
D03*
X1080770D02*
D03*
X1102360D02*
D03*
X1121410D02*
D03*
X1144270D02*
D03*
X1165860D02*
D03*
X1187450D02*
D03*
X7620Y730758D02*
D03*
X24130D02*
D03*
X39370D02*
D03*
X53340D02*
D03*
X68580D02*
D03*
X85090D02*
D03*
X101600D02*
D03*
X118110D02*
D03*
X133350D02*
D03*
X149860D02*
D03*
X166370D02*
D03*
X182880D02*
D03*
X199390D02*
D03*
X215900D02*
D03*
X232410D02*
D03*
X250190D02*
D03*
X266700D02*
D03*
X284480D02*
D03*
X303530D02*
D03*
X323850D02*
D03*
X342900D02*
D03*
X363220D02*
D03*
X383540D02*
D03*
X402590D02*
D03*
X421640D02*
D03*
X439420D02*
D03*
X459740D02*
D03*
X480060D02*
D03*
X499110D02*
D03*
X518160D02*
D03*
X537210D02*
D03*
X557530D02*
D03*
X576580D02*
D03*
X598170D02*
D03*
X618490D02*
D03*
X636270D02*
D03*
X656590D02*
D03*
X675640D02*
D03*
X693420D02*
D03*
X712470D02*
D03*
X734060D02*
D03*
X754380D02*
D03*
X774700D02*
D03*
X793750D02*
D03*
X815340D02*
D03*
X836930D02*
D03*
X857250D02*
D03*
X878840D02*
D03*
X899160D02*
D03*
X918210D02*
D03*
X938530D02*
D03*
X960120D02*
D03*
X981710D02*
D03*
X1002030D02*
D03*
X1023620D02*
D03*
X1041400D02*
D03*
X1060450D02*
D03*
X1080770D02*
D03*
X1102360D02*
D03*
X1121410D02*
D03*
X1144270D02*
D03*
X1165860D02*
D03*
X1187450D02*
D03*
X136906Y543306D02*
D03*
X135890Y562356D02*
D03*
X275844Y132588D02*
D03*
X259588Y132334D02*
D03*
X260350Y160020D02*
D03*
X275844Y159512D02*
D03*
X453898Y153416D02*
D03*
X438404Y153924D02*
D03*
X437642Y126238D02*
D03*
X453898Y126492D02*
D03*
X913638Y105664D02*
D03*
Y115316D02*
D03*
Y124968D02*
D03*
X901954D02*
D03*
Y105664D02*
D03*
Y115316D02*
D03*
X334264Y386080D02*
D03*
X70866Y220726D02*
D03*
X379222Y433832D02*
D03*
X83058Y220726D02*
D03*
X70866Y231140D02*
D03*
X83058D02*
D03*
X82804Y173736D02*
D03*
X70612D02*
D03*
X82804Y163322D02*
D03*
X70612D02*
D03*
D94*
X787480Y103632D02*
D03*
X814578Y103378D02*
D03*
X804672Y114046D02*
D03*
X780288Y158496D02*
D03*
X785876Y153162D02*
D03*
X770573Y149939D02*
D03*
X755904Y125476D02*
D03*
X765048Y130810D02*
D03*
X755904Y135636D02*
D03*
X711454Y127508D02*
D03*
X755904Y114808D02*
D03*
X765048Y120650D02*
D03*
X709422Y87630D02*
D03*
X699770Y104394D02*
D03*
Y96012D02*
D03*
Y87630D02*
D03*
X709422Y104394D02*
D03*
Y96012D02*
D03*
M02*
