G04*
G04 #@! TF.GenerationSoftware,Altium Limited,Altium Designer,25.3.3 (18)*
G04*
G04 Layer_Physical_Order=2*
G04 Layer_Color=16711680*
%FSLAX44Y44*%
%MOMM*%
G71*
G04*
G04 #@! TF.SameCoordinates,6D202E75-467B-4672-BE30-C010D47AD25D*
G04*
G04*
G04 #@! TF.FilePolarity,Positive*
G04*
G01*
G75*
%ADD10C,0.2500*%
%ADD13C,0.2540*%
%ADD69C,1.5700*%
%ADD70R,1.5700X1.5700*%
%ADD76C,0.3000*%
%ADD77C,0.2761*%
%ADD79R,119.5000X2.0000*%
%ADD80C,1.4980*%
%ADD81R,1.4980X1.4980*%
%ADD82O,1.7000X0.9000*%
%ADD83O,2.4000X0.9000*%
%ADD84R,0.6500X0.6500*%
%ADD85C,0.6500*%
%ADD86R,1.6500X1.6500*%
%ADD87C,1.6500*%
%ADD88C,1.1000*%
%ADD89C,1.2400*%
%ADD90R,1.5300X1.5300*%
%ADD91C,1.5300*%
%ADD92C,1.8000*%
%ADD93C,0.6000*%
%ADD94C,0.5000*%
%ADD95C,5.0000*%
G36*
X1278146Y2779D02*
X1854D01*
Y738306D01*
X1278146D01*
Y2779D01*
D02*
G37*
%LPC*%
G36*
X1044542Y627784D02*
X1042830D01*
X1041177Y627341D01*
X1039695Y626485D01*
X1038485Y625275D01*
X1037629Y623793D01*
X1037186Y622140D01*
Y620428D01*
X1037629Y618775D01*
X1038485Y617293D01*
X1039695Y616083D01*
X1041177Y615227D01*
X1042830Y614784D01*
X1044542D01*
X1046195Y615227D01*
X1047677Y616083D01*
X1048887Y617293D01*
X1049743Y618775D01*
X1050186Y620428D01*
Y622140D01*
X1049743Y623793D01*
X1048887Y625275D01*
X1047677Y626485D01*
X1046195Y627341D01*
X1044542Y627784D01*
D02*
G37*
G36*
X1019504Y630534D02*
X1017068D01*
X1014716Y629904D01*
X1012606Y628686D01*
X1010884Y626964D01*
X1009666Y624854D01*
X1009036Y622502D01*
Y620066D01*
X1009666Y617714D01*
X1010884Y615604D01*
X1012606Y613882D01*
X1014716Y612664D01*
X1017068Y612034D01*
X1019504D01*
X1021856Y612664D01*
X1023966Y613882D01*
X1025688Y615604D01*
X1026906Y617714D01*
X1027536Y620066D01*
Y622502D01*
X1026906Y624854D01*
X1025688Y626964D01*
X1023966Y628686D01*
X1021856Y629904D01*
X1019504Y630534D01*
D02*
G37*
G36*
X393595Y623784D02*
X391265D01*
X389014Y623181D01*
X386996Y622016D01*
X385348Y620368D01*
X384183Y618350D01*
X383580Y616099D01*
Y613769D01*
X384183Y611518D01*
X385348Y609500D01*
X386996Y607852D01*
X389014Y606687D01*
X391265Y606084D01*
X393595D01*
X395846Y606687D01*
X397864Y607852D01*
X399512Y609500D01*
X400677Y611518D01*
X401280Y613769D01*
Y616099D01*
X400677Y618350D01*
X399512Y620368D01*
X397864Y622016D01*
X395846Y623181D01*
X393595Y623784D01*
D02*
G37*
G36*
X1044542Y602384D02*
X1042830D01*
X1041177Y601941D01*
X1039695Y601085D01*
X1038485Y599875D01*
X1037629Y598393D01*
X1037186Y596740D01*
Y595028D01*
X1037629Y593375D01*
X1038485Y591893D01*
X1039695Y590683D01*
X1041177Y589827D01*
X1042830Y589384D01*
X1044542D01*
X1046195Y589827D01*
X1047677Y590683D01*
X1048887Y591893D01*
X1049743Y593375D01*
X1050186Y595028D01*
Y596740D01*
X1049743Y598393D01*
X1048887Y599875D01*
X1047677Y601085D01*
X1046195Y601941D01*
X1044542Y602384D01*
D02*
G37*
G36*
X1027536Y605134D02*
X1009036D01*
Y586634D01*
X1027536D01*
Y605134D01*
D02*
G37*
G36*
X1045304Y559966D02*
X1043592D01*
X1041939Y559523D01*
X1040457Y558667D01*
X1039247Y557457D01*
X1038391Y555975D01*
X1037948Y554322D01*
Y552610D01*
X1038391Y550957D01*
X1039247Y549475D01*
X1040457Y548265D01*
X1041939Y547409D01*
X1043592Y546966D01*
X1045304D01*
X1046957Y547409D01*
X1048439Y548265D01*
X1049649Y549475D01*
X1050505Y550957D01*
X1050948Y552610D01*
Y554322D01*
X1050505Y555975D01*
X1049649Y557457D01*
X1048439Y558667D01*
X1046957Y559523D01*
X1045304Y559966D01*
D02*
G37*
G36*
X88085Y567790D02*
X86395D01*
X84833Y567143D01*
X83637Y565947D01*
X82990Y564385D01*
Y562695D01*
X83637Y561133D01*
X84833Y559937D01*
X85188Y559790D01*
Y558790D01*
X84833Y558643D01*
X83637Y557447D01*
X82990Y555885D01*
Y554195D01*
X83637Y552633D01*
X84833Y551437D01*
X85188Y551290D01*
Y550290D01*
X84833Y550143D01*
X83637Y548947D01*
X83349Y548252D01*
X81525D01*
X80596Y548067D01*
X79808Y547541D01*
X78914Y546646D01*
X77990Y547029D01*
Y547385D01*
X77343Y548947D01*
X76147Y550143D01*
X75792Y550290D01*
Y551290D01*
X76147Y551437D01*
X77343Y552633D01*
X77990Y554195D01*
Y555885D01*
X77343Y557447D01*
X76147Y558643D01*
X75793Y558790D01*
Y559790D01*
X76147Y559937D01*
X77343Y561133D01*
X77990Y562695D01*
Y564385D01*
X77343Y565947D01*
X76147Y567143D01*
X74585Y567790D01*
X72895D01*
X71333Y567143D01*
X70279Y566089D01*
X67224D01*
X66248Y565895D01*
X65422Y565342D01*
X62206Y562126D01*
X61653Y561300D01*
X61459Y560324D01*
Y524510D01*
X61653Y523535D01*
X62206Y522708D01*
X65676Y519238D01*
X66503Y518685D01*
X67478Y518491D01*
X70279D01*
X71333Y517437D01*
X72895Y516790D01*
X74585D01*
X76147Y517437D01*
X77343Y518633D01*
X77990Y520195D01*
Y521885D01*
X77343Y523447D01*
X76147Y524643D01*
X75793Y524790D01*
Y525790D01*
X76147Y525937D01*
X77343Y527132D01*
X77990Y528695D01*
Y530385D01*
X77343Y531947D01*
X76147Y533143D01*
X75792Y533290D01*
Y534290D01*
X76147Y534437D01*
X77343Y535633D01*
X77990Y537195D01*
Y538857D01*
X82530Y543397D01*
X84372D01*
X84833Y542937D01*
X85188Y542790D01*
Y541790D01*
X84833Y541643D01*
X83637Y540447D01*
X82990Y538885D01*
Y537195D01*
X83637Y535633D01*
X84833Y534437D01*
X85188Y534290D01*
Y533290D01*
X84833Y533143D01*
X83637Y531947D01*
X82990Y530385D01*
Y528695D01*
X83637Y527132D01*
X84833Y525937D01*
X85188Y525790D01*
Y524790D01*
X84833Y524643D01*
X83637Y523447D01*
X82990Y521885D01*
Y520195D01*
X83637Y518633D01*
X84833Y517437D01*
X86395Y516790D01*
X88085D01*
X89647Y517437D01*
X90843Y518633D01*
X91490Y520195D01*
Y521885D01*
X90843Y523447D01*
X89647Y524643D01*
X89293Y524790D01*
Y525790D01*
X89647Y525937D01*
X90843Y527132D01*
X91490Y528695D01*
Y530385D01*
X90843Y531947D01*
X89647Y533143D01*
X89292Y533290D01*
Y534290D01*
X89647Y534437D01*
X90843Y535633D01*
X91490Y537195D01*
Y538885D01*
X90843Y540447D01*
X89647Y541643D01*
X89292Y541790D01*
Y542790D01*
X89647Y542937D01*
X90843Y544133D01*
X91490Y545695D01*
Y547385D01*
X90843Y548947D01*
X89647Y550143D01*
X89292Y550290D01*
Y551290D01*
X89647Y551437D01*
X90843Y552633D01*
X91490Y554195D01*
Y555885D01*
X90843Y557447D01*
X89647Y558643D01*
X89293Y558790D01*
Y559790D01*
X89647Y559937D01*
X90843Y561133D01*
X91490Y562695D01*
Y564385D01*
X90843Y565947D01*
X89647Y567143D01*
X88085Y567790D01*
D02*
G37*
G36*
X1045304Y534566D02*
X1043592D01*
X1041939Y534123D01*
X1040457Y533267D01*
X1039247Y532057D01*
X1038391Y530575D01*
X1037948Y528922D01*
Y527210D01*
X1038391Y525557D01*
X1039247Y524075D01*
X1040457Y522865D01*
X1041939Y522009D01*
X1043592Y521566D01*
X1045304D01*
X1046957Y522009D01*
X1048439Y522865D01*
X1049649Y524075D01*
X1050505Y525557D01*
X1050948Y527210D01*
Y528922D01*
X1050505Y530575D01*
X1049649Y532057D01*
X1048439Y533267D01*
X1046957Y534123D01*
X1045304Y534566D01*
D02*
G37*
G36*
X1028298Y537316D02*
X1009798D01*
Y518816D01*
X1028298D01*
Y537316D01*
D02*
G37*
G36*
X928618Y490990D02*
X926382D01*
X924223Y490411D01*
X922287Y489294D01*
X920706Y487713D01*
X919589Y485777D01*
X919010Y483618D01*
Y481382D01*
X919589Y479223D01*
X920706Y477287D01*
X922287Y475706D01*
X924223Y474589D01*
X926382Y474010D01*
X928618D01*
X930777Y474589D01*
X932713Y475706D01*
X934294Y477287D01*
X935411Y479223D01*
X935990Y481382D01*
Y483618D01*
X935411Y485777D01*
X934294Y487713D01*
X932713Y489294D01*
X930777Y490411D01*
X928618Y490990D01*
D02*
G37*
G36*
X342795Y623784D02*
X340465D01*
X338214Y623181D01*
X336196Y622016D01*
X334548Y620368D01*
X333383Y618350D01*
X332780Y616099D01*
Y613769D01*
X333383Y611518D01*
X334548Y609500D01*
X336196Y607852D01*
X338214Y606687D01*
X340465Y606084D01*
X342795D01*
X345046Y606687D01*
X345823Y607136D01*
X400549Y552410D01*
Y464350D01*
X400266Y464233D01*
X399789Y463756D01*
X398789Y464170D01*
Y534924D01*
X398595Y535899D01*
X398042Y536726D01*
X325080Y609689D01*
Y623784D01*
X307380D01*
Y606084D01*
X321475D01*
X393691Y533868D01*
Y456222D01*
X393408Y456105D01*
X392001Y454698D01*
X391240Y452861D01*
Y450871D01*
X392001Y449034D01*
X393408Y447627D01*
X395245Y446866D01*
X397235D01*
X399072Y447627D01*
X400479Y449034D01*
X401240Y450871D01*
Y452861D01*
X400536Y454561D01*
X400792Y454988D01*
X401202Y455368D01*
X402103Y454994D01*
X404093D01*
X405930Y455755D01*
X407337Y457162D01*
X408098Y458999D01*
Y460989D01*
X407337Y462826D01*
X405930Y464233D01*
X405647Y464350D01*
Y553466D01*
X405453Y554441D01*
X404900Y555268D01*
X349428Y610741D01*
X349877Y611518D01*
X350480Y613769D01*
Y616099D01*
X349877Y618350D01*
X348712Y620368D01*
X347064Y622016D01*
X345046Y623181D01*
X342795Y623784D01*
D02*
G37*
G36*
X418995D02*
X416665D01*
X414414Y623181D01*
X412396Y622016D01*
X410748Y620368D01*
X409583Y618350D01*
X408980Y616099D01*
Y613769D01*
X409583Y611518D01*
X410748Y609500D01*
X412396Y607852D01*
X414414Y606687D01*
X416665Y606084D01*
X418995D01*
X419552Y606233D01*
X420360Y605553D01*
Y462026D01*
X420361Y462023D01*
Y458508D01*
X420078Y458391D01*
X419093Y457406D01*
X418093Y457820D01*
Y566420D01*
X417899Y567396D01*
X417346Y568222D01*
X374828Y610741D01*
X375277Y611518D01*
X375880Y613769D01*
Y616099D01*
X375277Y618350D01*
X374112Y620368D01*
X372464Y622016D01*
X370446Y623181D01*
X368195Y623784D01*
X365865D01*
X363614Y623181D01*
X361596Y622016D01*
X359948Y620368D01*
X358783Y618350D01*
X358180Y616099D01*
Y613769D01*
X358783Y611518D01*
X359948Y609500D01*
X361596Y607852D01*
X363614Y606687D01*
X365865Y606084D01*
X368195D01*
X370446Y606687D01*
X371223Y607136D01*
X412995Y565364D01*
Y410248D01*
X412712Y410131D01*
X411305Y408724D01*
X410544Y406887D01*
Y404897D01*
X411305Y403060D01*
X412712Y401653D01*
X414549Y400892D01*
X416539D01*
X418376Y401653D01*
X419783Y403060D01*
X420544Y404897D01*
Y406887D01*
X419783Y408724D01*
X418376Y410131D01*
X418093Y410248D01*
Y412892D01*
X419093Y413306D01*
X420078Y412321D01*
X421915Y411560D01*
X423905D01*
X425742Y412321D01*
X427149Y413728D01*
X427363Y414245D01*
X454636D01*
X455121Y413246D01*
X454486Y411713D01*
Y409723D01*
X455247Y407886D01*
X456479Y406654D01*
X455247Y405422D01*
X454486Y403585D01*
Y401595D01*
X455247Y399758D01*
X456654Y398351D01*
X458491Y397590D01*
X460481D01*
X461717Y398102D01*
X740805Y119013D01*
X741556Y118512D01*
X742442Y118336D01*
X751761D01*
X752144Y117412D01*
X752089Y117357D01*
X751404Y115703D01*
Y113913D01*
X752089Y112259D01*
X753355Y110993D01*
X755009Y110308D01*
X756799D01*
X758453Y110993D01*
X759719Y112259D01*
X759816Y112493D01*
X768096D01*
X768982Y112670D01*
X769733Y113171D01*
X778644Y122083D01*
X779370Y121357D01*
X781024Y120672D01*
X782814D01*
X784468Y121357D01*
X785734Y122623D01*
X786419Y124277D01*
Y126067D01*
X785734Y127721D01*
X784468Y128987D01*
X783219Y129504D01*
Y130586D01*
X784361Y131059D01*
X785627Y132325D01*
X786312Y133979D01*
Y135769D01*
X785627Y137423D01*
X784361Y138689D01*
X782707Y139374D01*
X780917D01*
X779263Y138689D01*
X778233Y137659D01*
X777728D01*
X770872Y144515D01*
X771255Y145439D01*
X771468D01*
X773122Y146124D01*
X774388Y147390D01*
X774884Y148588D01*
X775329Y148688D01*
X775966Y148588D01*
X775967Y148587D01*
X775967D01*
X781428Y143126D01*
X782193Y142809D01*
X879154D01*
X887664Y134299D01*
Y102561D01*
X887663Y102561D01*
X887981Y101795D01*
X887981Y101795D01*
X893696Y96080D01*
X894461Y95763D01*
X914400D01*
X914777Y95920D01*
X915157Y96072D01*
X920999Y101787D01*
X921001Y101793D01*
X921007Y101795D01*
X921164Y102173D01*
X921324Y102549D01*
X921322Y102555D01*
X921324Y102561D01*
Y105410D01*
Y157480D01*
X921007Y158245D01*
X921007Y158245D01*
X912879Y166373D01*
X912114Y166690D01*
X911501Y166436D01*
X782320D01*
X781555Y166119D01*
X781555Y166119D01*
X777751Y162316D01*
X777739Y162311D01*
X776473Y161045D01*
X776468Y161033D01*
X775967Y160531D01*
X775650Y159766D01*
Y152054D01*
X774650Y151855D01*
X774388Y152488D01*
X773122Y153754D01*
X771468Y154439D01*
X769678D01*
X769443Y154342D01*
X471044Y452741D01*
X470294Y453242D01*
X469408Y453419D01*
X466264D01*
X465762Y453318D01*
X463581D01*
X462318Y454581D01*
X460481Y455342D01*
X458491D01*
X456654Y454581D01*
X455247Y453174D01*
X454486Y451337D01*
Y449347D01*
X455247Y447510D01*
X456654Y446103D01*
X458491Y445342D01*
X460481D01*
X462318Y446103D01*
X463725Y447510D01*
X464213Y448690D01*
X466164D01*
X466667Y448789D01*
X468449D01*
X765694Y151545D01*
X765621Y151181D01*
X764535Y150852D01*
X482751Y432637D01*
X482000Y433138D01*
X481114Y433315D01*
X463939D01*
X463725Y433832D01*
X462318Y435239D01*
X460481Y436000D01*
X458491D01*
X456654Y435239D01*
X455247Y433832D01*
X454486Y431995D01*
Y430005D01*
X455247Y428168D01*
X456124Y427291D01*
X456570Y426638D01*
X456124Y425985D01*
X455247Y425108D01*
X454486Y423271D01*
Y421282D01*
X455069Y419874D01*
X454510Y418875D01*
X427363D01*
X427149Y419392D01*
X425742Y420799D01*
X423905Y421560D01*
X421915D01*
X420078Y420799D01*
X419093Y419814D01*
X418093Y420228D01*
Y450484D01*
X419093Y450898D01*
X420078Y449913D01*
X421915Y449152D01*
X423905D01*
X425742Y449913D01*
X427149Y451320D01*
X427910Y453157D01*
Y455147D01*
X427149Y456984D01*
X425742Y458391D01*
X425459Y458508D01*
Y459477D01*
X759420D01*
X808046Y410851D01*
X808046Y410851D01*
Y409061D01*
X808731Y407407D01*
X809997Y406141D01*
X811651Y405456D01*
X813441D01*
X815095Y406141D01*
X816361Y407407D01*
X817046Y409061D01*
Y410851D01*
X816361Y412505D01*
X815095Y413771D01*
X813441Y414456D01*
X811651D01*
X811651Y414456D01*
X762278Y463828D01*
X761451Y464381D01*
X760476Y464575D01*
X425458D01*
Y606827D01*
X425264Y607802D01*
X424712Y608629D01*
X424376Y608965D01*
X424912Y609500D01*
X426077Y611518D01*
X426680Y613769D01*
Y616099D01*
X426077Y618350D01*
X424912Y620368D01*
X423264Y622016D01*
X421246Y623181D01*
X418995Y623784D01*
D02*
G37*
G36*
X264029Y467628D02*
X261751D01*
X259551Y467038D01*
X257579Y465900D01*
X255968Y464289D01*
X254830Y462317D01*
X254240Y460117D01*
Y457839D01*
X254830Y455639D01*
X255968Y453667D01*
X257579Y452056D01*
X259551Y450918D01*
X261751Y450328D01*
X264029D01*
X266229Y450918D01*
X268201Y452056D01*
X269812Y453667D01*
X270951Y455639D01*
X271540Y457839D01*
Y460117D01*
X270951Y462317D01*
X269812Y464289D01*
X268201Y465900D01*
X266229Y467038D01*
X264029Y467628D01*
D02*
G37*
G36*
X238629D02*
X236351D01*
X234151Y467038D01*
X232179Y465900D01*
X230568Y464289D01*
X229429Y462317D01*
X228840Y460117D01*
Y457839D01*
X229429Y455639D01*
X230568Y453667D01*
X232179Y452056D01*
X234151Y450918D01*
X236351Y450328D01*
X238629D01*
X240829Y450918D01*
X242801Y452056D01*
X244412Y453667D01*
X245550Y455639D01*
X246140Y457839D01*
Y460117D01*
X245550Y462317D01*
X244412Y464289D01*
X242801Y465900D01*
X240829Y467038D01*
X238629Y467628D01*
D02*
G37*
G36*
X264029Y442228D02*
X261751D01*
X259551Y441638D01*
X257579Y440500D01*
X255968Y438889D01*
X254830Y436917D01*
X254240Y434717D01*
Y432439D01*
X254830Y430239D01*
X255968Y428267D01*
X257579Y426656D01*
X259551Y425518D01*
X261751Y424928D01*
X264029D01*
X266229Y425518D01*
X268201Y426656D01*
X269812Y428267D01*
X270951Y430239D01*
X271540Y432439D01*
Y434717D01*
X270951Y436917D01*
X269812Y438889D01*
X268201Y440500D01*
X266229Y441638D01*
X264029Y442228D01*
D02*
G37*
G36*
X238629D02*
X236351D01*
X234151Y441638D01*
X232179Y440500D01*
X230568Y438889D01*
X229429Y436917D01*
X228840Y434717D01*
Y432439D01*
X229429Y430239D01*
X230568Y428267D01*
X232179Y426656D01*
X234151Y425518D01*
X236351Y424928D01*
X238629D01*
X240829Y425518D01*
X242801Y426656D01*
X244412Y428267D01*
X245550Y430239D01*
X246140Y432439D01*
Y434717D01*
X245550Y436917D01*
X244412Y438889D01*
X242801Y440500D01*
X240829Y441638D01*
X238629Y442228D01*
D02*
G37*
G36*
X935990Y425990D02*
X919010D01*
Y409010D01*
X935990D01*
Y425990D01*
D02*
G37*
G36*
X264029Y416828D02*
X261751D01*
X259551Y416239D01*
X257579Y415100D01*
X255968Y413489D01*
X254830Y411517D01*
X254240Y409317D01*
Y407039D01*
X254830Y404839D01*
X255968Y402867D01*
X257579Y401256D01*
X259551Y400117D01*
X261751Y399528D01*
X264029D01*
X266229Y400117D01*
X268201Y401256D01*
X269812Y402867D01*
X270951Y404839D01*
X271540Y407039D01*
Y409317D01*
X270951Y411517D01*
X269812Y413489D01*
X268201Y415100D01*
X266229Y416239D01*
X264029Y416828D01*
D02*
G37*
G36*
X238629D02*
X236351D01*
X234151Y416239D01*
X232179Y415100D01*
X230568Y413489D01*
X229429Y411517D01*
X228840Y409317D01*
Y407039D01*
X229429Y404839D01*
X230568Y402867D01*
X232179Y401256D01*
X234151Y400117D01*
X236351Y399528D01*
X238629D01*
X240829Y400117D01*
X242801Y401256D01*
X244412Y402867D01*
X245550Y404839D01*
X246140Y407039D01*
Y409317D01*
X245550Y411517D01*
X244412Y413489D01*
X242801Y415100D01*
X240829Y416239D01*
X238629Y416828D01*
D02*
G37*
G36*
X264029Y391428D02*
X261751D01*
X259551Y390839D01*
X257579Y389700D01*
X255968Y388089D01*
X254830Y386117D01*
X254240Y383917D01*
Y381639D01*
X254830Y379439D01*
X255968Y377467D01*
X257579Y375856D01*
X259551Y374717D01*
X261751Y374128D01*
X264029D01*
X266229Y374717D01*
X268201Y375856D01*
X269812Y377467D01*
X270951Y379439D01*
X271540Y381639D01*
Y383917D01*
X270951Y386117D01*
X269812Y388089D01*
X268201Y389700D01*
X266229Y390839D01*
X264029Y391428D01*
D02*
G37*
G36*
X238629D02*
X236351D01*
X234151Y390839D01*
X232179Y389700D01*
X230568Y388089D01*
X229429Y386117D01*
X228840Y383917D01*
Y381639D01*
X229429Y379439D01*
X230568Y377467D01*
X232179Y375856D01*
X234151Y374717D01*
X236351Y374128D01*
X238629D01*
X240829Y374717D01*
X242801Y375856D01*
X244412Y377467D01*
X245550Y379439D01*
X246140Y381639D01*
Y383917D01*
X245550Y386117D01*
X244412Y388089D01*
X242801Y389700D01*
X240829Y390839D01*
X238629Y391428D01*
D02*
G37*
G36*
X264029Y366028D02*
X261751D01*
X259551Y365438D01*
X257579Y364300D01*
X255968Y362689D01*
X254830Y360717D01*
X254240Y358517D01*
Y356239D01*
X254830Y354039D01*
X255968Y352067D01*
X257579Y350456D01*
X259551Y349318D01*
X261751Y348728D01*
X264029D01*
X266229Y349318D01*
X268201Y350456D01*
X269812Y352067D01*
X270951Y354039D01*
X271540Y356239D01*
Y358517D01*
X270951Y360717D01*
X269812Y362689D01*
X268201Y364300D01*
X266229Y365438D01*
X264029Y366028D01*
D02*
G37*
G36*
X238629D02*
X236351D01*
X234151Y365438D01*
X232179Y364300D01*
X230568Y362689D01*
X229429Y360717D01*
X228840Y358517D01*
Y356239D01*
X229429Y354039D01*
X230568Y352067D01*
X232179Y350456D01*
X234151Y349318D01*
X236351Y348728D01*
X238629D01*
X240829Y349318D01*
X242801Y350456D01*
X244412Y352067D01*
X245550Y354039D01*
X246140Y356239D01*
Y358517D01*
X245550Y360717D01*
X244412Y362689D01*
X242801Y364300D01*
X240829Y365438D01*
X238629Y366028D01*
D02*
G37*
G36*
X264029Y340628D02*
X261751D01*
X259551Y340038D01*
X257579Y338900D01*
X255968Y337289D01*
X254830Y335317D01*
X254240Y333117D01*
Y330839D01*
X254830Y328639D01*
X255968Y326667D01*
X257579Y325056D01*
X259551Y323918D01*
X261751Y323328D01*
X264029D01*
X266229Y323918D01*
X268201Y325056D01*
X269812Y326667D01*
X270951Y328639D01*
X271540Y330839D01*
Y333117D01*
X270951Y335317D01*
X269812Y337289D01*
X268201Y338900D01*
X266229Y340038D01*
X264029Y340628D01*
D02*
G37*
G36*
X238629D02*
X236351D01*
X234151Y340038D01*
X232179Y338900D01*
X230568Y337289D01*
X229429Y335317D01*
X228840Y333117D01*
Y330839D01*
X229429Y328639D01*
X230568Y326667D01*
X232179Y325056D01*
X234151Y323918D01*
X236351Y323328D01*
X238629D01*
X240829Y323918D01*
X242801Y325056D01*
X244412Y326667D01*
X245550Y328639D01*
X246140Y330839D01*
Y333117D01*
X245550Y335317D01*
X244412Y337289D01*
X242801Y338900D01*
X240829Y340038D01*
X238629Y340628D01*
D02*
G37*
G36*
X928618Y330990D02*
X926382D01*
X924223Y330411D01*
X922287Y329294D01*
X920706Y327713D01*
X919589Y325777D01*
X919010Y323618D01*
Y321382D01*
X919589Y319223D01*
X920706Y317287D01*
X922287Y315706D01*
X924223Y314589D01*
X926382Y314010D01*
X928618D01*
X930777Y314589D01*
X932713Y315706D01*
X934294Y317287D01*
X935411Y319223D01*
X935990Y321382D01*
Y323618D01*
X935411Y325777D01*
X934294Y327713D01*
X932713Y329294D01*
X930777Y330411D01*
X928618Y330990D01*
D02*
G37*
G36*
X264029Y315228D02*
X261751D01*
X259551Y314639D01*
X257579Y313500D01*
X255968Y311889D01*
X254830Y309917D01*
X254240Y307717D01*
Y305439D01*
X254830Y303239D01*
X255968Y301267D01*
X257579Y299656D01*
X259551Y298517D01*
X261751Y297928D01*
X264029D01*
X266229Y298517D01*
X268201Y299656D01*
X269812Y301267D01*
X270951Y303239D01*
X271540Y305439D01*
Y307717D01*
X270951Y309917D01*
X269812Y311889D01*
X268201Y313500D01*
X266229Y314639D01*
X264029Y315228D01*
D02*
G37*
G36*
X238629D02*
X236351D01*
X234151Y314639D01*
X232179Y313500D01*
X230568Y311889D01*
X229429Y309917D01*
X228840Y307717D01*
Y305439D01*
X229429Y303239D01*
X230568Y301267D01*
X232179Y299656D01*
X234151Y298517D01*
X236351Y297928D01*
X238629D01*
X240829Y298517D01*
X242801Y299656D01*
X244412Y301267D01*
X245550Y303239D01*
X246140Y305439D01*
Y307717D01*
X245550Y309917D01*
X244412Y311889D01*
X242801Y313500D01*
X240829Y314639D01*
X238629Y315228D01*
D02*
G37*
G36*
X246140Y289828D02*
X228840D01*
Y272528D01*
X246140D01*
Y289828D01*
D02*
G37*
G36*
X935990Y265990D02*
X919010D01*
Y249010D01*
X935990D01*
Y265990D01*
D02*
G37*
G36*
X39925Y235000D02*
X37292D01*
X34748Y234319D01*
X32468Y233002D01*
X30606Y231140D01*
X29290Y228860D01*
X28608Y226317D01*
Y223683D01*
X29290Y221140D01*
X30606Y218860D01*
X32468Y216998D01*
X34748Y215681D01*
X37292Y215000D01*
X39925D01*
X42468Y215681D01*
X44748Y216998D01*
X46610Y218860D01*
X47927Y221140D01*
X48608Y223683D01*
Y226317D01*
X47927Y228860D01*
X46610Y231140D01*
X44748Y233002D01*
X42468Y234319D01*
X39925Y235000D01*
D02*
G37*
G36*
X994596Y198208D02*
X992700D01*
X990869Y197717D01*
X989227Y196769D01*
X987887Y195429D01*
X986939Y193787D01*
X986448Y191956D01*
Y190060D01*
X986939Y188229D01*
X987887Y186587D01*
X989227Y185247D01*
X990869Y184299D01*
X992700Y183808D01*
X994596D01*
X996427Y184299D01*
X998069Y185247D01*
X999409Y186587D01*
X1000357Y188229D01*
X1000848Y190060D01*
Y191956D01*
X1000357Y193787D01*
X999409Y195429D01*
X998069Y196769D01*
X996427Y197717D01*
X994596Y198208D01*
D02*
G37*
G36*
X39925Y185000D02*
X37292D01*
X34748Y184319D01*
X32468Y183002D01*
X30606Y181140D01*
X29290Y178860D01*
X28608Y176317D01*
Y173683D01*
X29290Y171140D01*
X30606Y168860D01*
X32468Y166998D01*
X34748Y165681D01*
X37292Y165000D01*
X39925D01*
X42468Y165681D01*
X44748Y166998D01*
X46610Y168860D01*
X47927Y171140D01*
X48608Y173683D01*
Y176317D01*
X47927Y178860D01*
X46610Y181140D01*
X44748Y183002D01*
X42468Y184319D01*
X39925Y185000D01*
D02*
G37*
G36*
X606506Y177896D02*
X604270D01*
X602111Y177317D01*
X600175Y176200D01*
X598594Y174619D01*
X597477Y172683D01*
X596898Y170524D01*
Y168288D01*
X597477Y166129D01*
X598594Y164193D01*
X600175Y162612D01*
X602111Y161495D01*
X604270Y160916D01*
X606506D01*
X608665Y161495D01*
X610601Y162612D01*
X612182Y164193D01*
X613299Y166129D01*
X613878Y168288D01*
Y170524D01*
X613299Y172683D01*
X612182Y174619D01*
X610601Y176200D01*
X608665Y177317D01*
X606506Y177896D01*
D02*
G37*
G36*
X1049622Y145184D02*
X1047910D01*
X1046257Y144741D01*
X1044775Y143885D01*
X1043565Y142675D01*
X1042709Y141193D01*
X1042266Y139540D01*
Y137828D01*
X1042709Y136175D01*
X1043565Y134693D01*
X1044775Y133483D01*
X1046257Y132627D01*
X1047910Y132184D01*
X1049622D01*
X1051275Y132627D01*
X1052757Y133483D01*
X1053967Y134693D01*
X1054823Y136175D01*
X1055266Y137828D01*
Y139540D01*
X1054823Y141193D01*
X1053967Y142675D01*
X1052757Y143885D01*
X1051275Y144741D01*
X1049622Y145184D01*
D02*
G37*
G36*
X1024584Y147934D02*
X1022148D01*
X1019796Y147304D01*
X1017686Y146086D01*
X1015964Y144364D01*
X1014746Y142254D01*
X1014116Y139902D01*
Y137466D01*
X1014746Y135114D01*
X1015964Y133004D01*
X1017686Y131282D01*
X1019796Y130064D01*
X1022148Y129434D01*
X1024584D01*
X1026936Y130064D01*
X1029046Y131282D01*
X1030768Y133004D01*
X1031986Y135114D01*
X1032616Y137466D01*
Y139902D01*
X1031986Y142254D01*
X1030768Y144364D01*
X1029046Y146086D01*
X1026936Y147304D01*
X1024584Y147934D01*
D02*
G37*
G36*
X559187Y230814D02*
X557397D01*
X555743Y230129D01*
X554477Y228863D01*
X553792Y227209D01*
Y225419D01*
X554477Y223765D01*
X555743Y222499D01*
X557397Y221814D01*
X559187D01*
X560841Y222499D01*
X562107Y223765D01*
X562213Y224020D01*
X611698D01*
X707060Y128658D01*
X706954Y128403D01*
Y126613D01*
X707639Y124959D01*
X708905Y123693D01*
X710559Y123008D01*
X712349D01*
X714003Y123693D01*
X715269Y124959D01*
X715954Y126613D01*
Y128403D01*
X715269Y130057D01*
X714003Y131323D01*
X712349Y132008D01*
X710559D01*
X710304Y131902D01*
X614270Y227936D01*
X613526Y228433D01*
X612648Y228608D01*
X562213D01*
X562107Y228863D01*
X560841Y230129D01*
X559187Y230814D01*
D02*
G37*
G36*
X1049622Y119784D02*
X1047910D01*
X1046257Y119341D01*
X1044775Y118485D01*
X1043565Y117275D01*
X1042709Y115793D01*
X1042266Y114140D01*
Y112428D01*
X1042709Y110775D01*
X1043565Y109293D01*
X1044775Y108083D01*
X1046257Y107227D01*
X1047910Y106784D01*
X1049622D01*
X1051275Y107227D01*
X1052757Y108083D01*
X1053967Y109293D01*
X1054823Y110775D01*
X1055266Y112428D01*
Y114140D01*
X1054823Y115793D01*
X1053967Y117275D01*
X1052757Y118485D01*
X1051275Y119341D01*
X1049622Y119784D01*
D02*
G37*
G36*
X1032616Y122534D02*
X1014116D01*
Y104034D01*
X1032616D01*
Y122534D01*
D02*
G37*
G36*
X784098Y109794D02*
X783333Y109477D01*
X781555Y107699D01*
X781238Y106934D01*
Y100584D01*
X781238Y100584D01*
X781555Y99819D01*
X783333Y98041D01*
X784098Y97724D01*
X818134D01*
X818134Y97724D01*
X818899Y98041D01*
X820677Y99819D01*
X820994Y100584D01*
Y106934D01*
X820994Y106934D01*
X820677Y107699D01*
X818899Y109477D01*
X818134Y109794D01*
X784098D01*
X784098Y109794D01*
D02*
G37*
G36*
X613878Y112896D02*
X596898D01*
Y95916D01*
X613878D01*
Y112896D01*
D02*
G37*
G36*
X918650Y76288D02*
X916754D01*
X914923Y75797D01*
X913281Y74849D01*
X911941Y73509D01*
X910993Y71867D01*
X910502Y70036D01*
Y68140D01*
X910993Y66309D01*
X911941Y64667D01*
X913281Y63327D01*
X914923Y62379D01*
X916754Y61888D01*
X918650D01*
X920481Y62379D01*
X922123Y63327D01*
X923463Y64667D01*
X924411Y66309D01*
X924902Y68140D01*
Y70036D01*
X924411Y71867D01*
X923463Y73509D01*
X922123Y74849D01*
X920481Y75797D01*
X918650Y76288D01*
D02*
G37*
%LPD*%
G36*
X746991Y145086D02*
X746912Y144489D01*
X745856Y144131D01*
X477633Y412355D01*
X476882Y412856D01*
X475996Y413032D01*
X464859D01*
X464726Y413246D01*
X465279Y414245D01*
X477831D01*
X746991Y145086D01*
D02*
G37*
G36*
X753589Y146869D02*
Y139550D01*
X753584Y139546D01*
X753355Y139451D01*
X753068Y139164D01*
X752824Y138983D01*
X751869Y139379D01*
Y145796D01*
X751692Y146682D01*
X751191Y147433D01*
X480427Y418197D01*
X479676Y418698D01*
X478790Y418875D01*
X465522D01*
X464949Y419874D01*
X465000Y419962D01*
X480497D01*
X753589Y146869D01*
D02*
G37*
G36*
X775133Y133708D02*
X775884Y133206D01*
X776769Y133030D01*
X777705D01*
X777997Y132325D01*
X779263Y131059D01*
X780511Y130542D01*
Y129460D01*
X779370Y128987D01*
X778104Y127721D01*
X777896Y127220D01*
X777382Y127118D01*
X776631Y126616D01*
X770548Y120533D01*
X769548Y120947D01*
Y121545D01*
X768863Y123199D01*
X767597Y124465D01*
X765943Y125150D01*
X764153D01*
X762499Y124465D01*
X761480Y123447D01*
X761013Y123438D01*
X760370Y124270D01*
X760343Y124434D01*
X760404Y124581D01*
Y126371D01*
X760103Y127098D01*
X760421Y127800D01*
X760657Y128083D01*
X761422Y128072D01*
X762499Y126995D01*
X764153Y126310D01*
X765943D01*
X767597Y126995D01*
X768863Y128261D01*
X769548Y129915D01*
Y131705D01*
X768863Y133359D01*
X767597Y134625D01*
X765943Y135310D01*
X764153D01*
X762499Y134625D01*
X761480Y133607D01*
X761013Y133598D01*
X760370Y134430D01*
X760343Y134594D01*
X760404Y134741D01*
Y136531D01*
X759719Y138185D01*
X758453Y139451D01*
X758219Y139548D01*
Y147828D01*
X758042Y148714D01*
X757541Y149465D01*
X483093Y423913D01*
X482342Y424414D01*
X481456Y424590D01*
X463939D01*
X463725Y425108D01*
X462848Y425985D01*
X462402Y426638D01*
X462848Y427291D01*
X463725Y428168D01*
X463939Y428685D01*
X480155D01*
X775133Y133708D01*
D02*
G37*
G36*
X742667Y140773D02*
Y131864D01*
X742844Y130978D01*
X743345Y130227D01*
X749262Y124310D01*
X749780Y123965D01*
X749520Y122964D01*
X743401D01*
X464486Y401879D01*
Y403585D01*
X463725Y405422D01*
X462493Y406654D01*
X463725Y407886D01*
X463939Y408404D01*
X475037D01*
X742667Y140773D01*
D02*
G37*
G36*
X920242Y157480D02*
Y105410D01*
Y102561D01*
X914400Y96846D01*
X894461D01*
X888746Y102561D01*
Y134747D01*
X879602Y143891D01*
X782193D01*
X776732Y149352D01*
Y159766D01*
X782320Y165354D01*
X911860D01*
X912114Y165608D01*
X920242Y157480D01*
D02*
G37*
G36*
X819912Y106934D02*
Y100584D01*
X818134Y98806D01*
X784098D01*
X782320Y100584D01*
Y106934D01*
X784098Y108712D01*
X818134D01*
X819912Y106934D01*
D02*
G37*
D10*
X612648Y226314D02*
X711454Y127508D01*
X558292Y226314D02*
X612648D01*
D13*
X778268Y124979D02*
X781726D01*
X755650Y114808D02*
X768096D01*
X781726Y124979D02*
X781919Y125172D01*
X768096Y114808D02*
X778268Y124979D01*
X781341Y135345D02*
X781812Y134874D01*
X776769Y135345D02*
X781341D01*
X481114Y431000D02*
X776769Y135345D01*
X459486Y431000D02*
X481114D01*
X460148Y451004D02*
X466164D01*
X466264Y451104D02*
X469408D01*
X459486Y450342D02*
X460148Y451004D01*
X466164D02*
X466264Y451104D01*
X742442Y120650D02*
X765048D01*
X460502Y402590D02*
X742442Y120650D01*
X750899Y125947D02*
X755433D01*
X744982Y131864D02*
X750899Y125947D01*
X749554Y132298D02*
Y145796D01*
X755433Y125947D02*
X755904Y125476D01*
X744982Y131864D02*
Y141732D01*
X751042Y130810D02*
X765048D01*
X749554Y132298D02*
X751042Y130810D01*
X460502Y410718D02*
X475996D01*
X744982Y141732D01*
X755904Y135636D02*
Y147828D01*
X423418Y416560D02*
X478790D01*
X749554Y145796D01*
X459994Y422276D02*
X481456D01*
X755904Y147828D01*
X469408Y451104D02*
X770573Y149939D01*
X814451Y103505D02*
X814578Y103378D01*
X787607Y103505D02*
X814451D01*
X787480Y103632D02*
X787607Y103505D01*
D69*
X443230Y614934D02*
D03*
X417830D02*
D03*
X392430D02*
D03*
X367030D02*
D03*
X341630D02*
D03*
D70*
X316230D02*
D03*
D76*
X835546Y11938D02*
X861060D01*
X709168Y86868D02*
X754586D01*
X400431Y331343D02*
Y405511D01*
X791847Y125698D02*
X794004Y127856D01*
Y128397D01*
X793621Y128780D02*
X794004Y128397D01*
X793621Y128780D02*
Y130143D01*
X788670Y128397D02*
X789053Y128780D01*
Y129889D01*
X791464Y132301D02*
X793621Y130143D01*
X789053Y129889D02*
X791464Y132301D01*
X791847Y124129D02*
Y125698D01*
X791464Y132301D02*
Y132842D01*
X754586Y86868D02*
X791464Y123746D01*
X760476Y462026D02*
X812546Y409956D01*
X422909Y462026D02*
X760476D01*
X422909D02*
X422910Y462025D01*
Y454152D02*
Y462025D01*
X422909Y462026D02*
Y606827D01*
X827222Y114046D02*
X828979Y112289D01*
X804672Y114046D02*
X827222D01*
X828979Y18505D02*
Y112289D01*
Y18505D02*
X835546Y11938D01*
X791464Y123746D02*
X791847Y124129D01*
X804289Y114429D02*
X804672Y114046D01*
X800781Y114429D02*
X804289D01*
X791464Y123746D02*
X800781Y114429D01*
X415544Y405892D02*
Y566420D01*
X400558Y350774D02*
X427228D01*
X400431Y405511D02*
X400812Y405892D01*
X356023Y330962D02*
X378037D01*
X399542D01*
X334010D02*
X356023D01*
X284226Y281178D02*
X334010Y330962D01*
X245640Y235830D02*
Y243049D01*
X262890Y260299D01*
Y281178D01*
X284226D01*
X417830Y611906D02*
Y614934D01*
Y611906D02*
X422909Y606827D01*
X367030Y614934D02*
X415544Y566420D01*
X403098Y459994D02*
Y553466D01*
X341630Y614934D02*
X403098Y553466D01*
X396240Y451866D02*
Y534924D01*
X316230Y614934D02*
X396240Y534924D01*
X117856Y562356D02*
X136906Y543306D01*
X108172Y572040D02*
X117856Y562356D01*
X135890D01*
X87240Y572040D02*
X108172D01*
X64008Y524510D02*
Y560324D01*
X67478Y521040D02*
X73740D01*
X64008Y524510D02*
X67478Y521040D01*
X64008Y560324D02*
X67224Y563540D01*
X73740D01*
D77*
X81525Y545825D02*
X86525D01*
X73740Y538040D02*
X81525Y545825D01*
X86525D02*
X87240Y546540D01*
D79*
X597501Y730620D02*
D03*
X597495Y10005D02*
D03*
D80*
X972500Y322500D02*
D03*
X927500D02*
D03*
X972500Y257500D02*
D03*
Y417500D02*
D03*
X927500Y482500D02*
D03*
X972500D02*
D03*
X650388Y169406D02*
D03*
X605388D02*
D03*
X650388Y104406D02*
D03*
D81*
X927500Y257500D02*
D03*
Y417500D02*
D03*
X605388Y104406D02*
D03*
D82*
X43640Y585540D02*
D03*
Y499040D02*
D03*
D83*
X77440Y585540D02*
D03*
Y499040D02*
D03*
D84*
X87240Y572040D02*
D03*
D85*
Y563540D02*
D03*
Y555040D02*
D03*
Y529540D02*
D03*
Y521040D02*
D03*
Y512540D02*
D03*
X73740D02*
D03*
Y521040D02*
D03*
Y529540D02*
D03*
Y555040D02*
D03*
Y563540D02*
D03*
Y572040D02*
D03*
Y538040D02*
D03*
X87240Y546540D02*
D03*
Y538040D02*
D03*
X73740Y546540D02*
D03*
D86*
X1018286Y595884D02*
D03*
X1023366Y113284D02*
D03*
X1019048Y528066D02*
D03*
D87*
X1018286Y621284D02*
D03*
X1023366Y138684D02*
D03*
X1019048Y553466D02*
D03*
D88*
X1043686Y595884D02*
D03*
Y621284D02*
D03*
X1048766Y138684D02*
D03*
Y113284D02*
D03*
X1044448Y528066D02*
D03*
Y553466D02*
D03*
D89*
X1024128Y258826D02*
D03*
X917702Y69088D02*
D03*
X993648Y191008D02*
D03*
D90*
X237490Y281178D02*
D03*
D91*
X262890D02*
D03*
X237490Y306578D02*
D03*
X262890D02*
D03*
X237490Y331978D02*
D03*
X262890D02*
D03*
X237490Y357378D02*
D03*
X262890D02*
D03*
X237490Y382778D02*
D03*
X262890D02*
D03*
X237490Y408178D02*
D03*
X262890D02*
D03*
X237490Y433578D02*
D03*
X262890D02*
D03*
X237490Y458978D02*
D03*
X262890D02*
D03*
D92*
X38608Y175000D02*
D03*
Y225000D02*
D03*
D93*
X70612Y163322D02*
D03*
X82804D02*
D03*
X70612Y173736D02*
D03*
X82804D02*
D03*
X83058Y231140D02*
D03*
X70866D02*
D03*
X83058Y220726D02*
D03*
X379222Y433832D02*
D03*
X70866Y220726D02*
D03*
X334264Y386080D02*
D03*
X459486Y431000D02*
D03*
Y450342D02*
D03*
Y402590D02*
D03*
Y410718D02*
D03*
X422910Y416560D02*
D03*
X459486Y422276D02*
D03*
X901954Y115316D02*
D03*
Y105664D02*
D03*
Y124968D02*
D03*
X913638D02*
D03*
Y115316D02*
D03*
Y105664D02*
D03*
X427228Y350774D02*
D03*
X400812Y405892D02*
D03*
X400050Y330962D02*
D03*
X378037D02*
D03*
X356023D02*
D03*
X334010D02*
D03*
X453898Y126492D02*
D03*
X437642Y126238D02*
D03*
X438404Y153924D02*
D03*
X453898Y153416D02*
D03*
X275844Y159512D02*
D03*
X260350Y160020D02*
D03*
X259588Y132334D02*
D03*
X275844Y132588D02*
D03*
X422910Y454152D02*
D03*
X415544Y405892D02*
D03*
X403098Y459994D02*
D03*
X396240Y451866D02*
D03*
X135890Y562356D02*
D03*
X136906Y543306D02*
D03*
X1187450Y730758D02*
D03*
X1165860D02*
D03*
X1144270D02*
D03*
X1121410D02*
D03*
X1102360D02*
D03*
X1080770D02*
D03*
X1060450D02*
D03*
X1041400D02*
D03*
X1023620D02*
D03*
X1002030D02*
D03*
X981710D02*
D03*
X960120D02*
D03*
X938530D02*
D03*
X918210D02*
D03*
X899160D02*
D03*
X878840D02*
D03*
X857250D02*
D03*
X836930D02*
D03*
X815340D02*
D03*
X793750D02*
D03*
X774700D02*
D03*
X754380D02*
D03*
X734060D02*
D03*
X712470D02*
D03*
X693420D02*
D03*
X675640D02*
D03*
X656590D02*
D03*
X636270D02*
D03*
X618490D02*
D03*
X598170D02*
D03*
X576580D02*
D03*
X557530D02*
D03*
X537210D02*
D03*
X518160D02*
D03*
X499110D02*
D03*
X480060D02*
D03*
X459740D02*
D03*
X439420D02*
D03*
X421640D02*
D03*
X402590D02*
D03*
X383540D02*
D03*
X363220D02*
D03*
X342900D02*
D03*
X323850D02*
D03*
X303530D02*
D03*
X284480D02*
D03*
X266700D02*
D03*
X250190D02*
D03*
X232410D02*
D03*
X215900D02*
D03*
X199390D02*
D03*
X182880D02*
D03*
X166370D02*
D03*
X149860D02*
D03*
X133350D02*
D03*
X118110D02*
D03*
X101600D02*
D03*
X85090D02*
D03*
X68580D02*
D03*
X53340D02*
D03*
X39370D02*
D03*
X24130D02*
D03*
X7620D02*
D03*
X1187450Y10160D02*
D03*
X1165860D02*
D03*
X1144270D02*
D03*
X1121410D02*
D03*
X1102360D02*
D03*
X1080770D02*
D03*
X1060450D02*
D03*
X1041400D02*
D03*
X1023620D02*
D03*
X1002030D02*
D03*
X981710D02*
D03*
X960120D02*
D03*
X938530D02*
D03*
X918210D02*
D03*
X899160D02*
D03*
X878840D02*
D03*
X857250D02*
D03*
X836930D02*
D03*
X815340D02*
D03*
X793750D02*
D03*
X774700D02*
D03*
X754380D02*
D03*
X734060D02*
D03*
X712470D02*
D03*
X693420D02*
D03*
X675640D02*
D03*
X656590D02*
D03*
X636270D02*
D03*
X618490D02*
D03*
X598170D02*
D03*
X576580D02*
D03*
X557530D02*
D03*
X537210D02*
D03*
X518160D02*
D03*
X499110D02*
D03*
X480060D02*
D03*
X459740D02*
D03*
X439420D02*
D03*
X421640D02*
D03*
X402590D02*
D03*
X383540D02*
D03*
X363220D02*
D03*
X342900D02*
D03*
X323850D02*
D03*
X303530D02*
D03*
X284480D02*
D03*
X266700D02*
D03*
X250190D02*
D03*
X232410D02*
D03*
X215900D02*
D03*
X199390D02*
D03*
X182880D02*
D03*
X166370D02*
D03*
X149860D02*
D03*
X133350D02*
D03*
X118110D02*
D03*
X101600D02*
D03*
X85090D02*
D03*
X68580D02*
D03*
X53340D02*
D03*
X39370D02*
D03*
X24130D02*
D03*
X7620D02*
D03*
D94*
X1275178Y700000D02*
D03*
Y600000D02*
D03*
X1250178Y550000D02*
D03*
X1275178Y500000D02*
D03*
Y400000D02*
D03*
X1250178Y350000D02*
D03*
X1275178Y300000D02*
D03*
X1250178Y250000D02*
D03*
X1275178Y200000D02*
D03*
X1250178Y150000D02*
D03*
X1275178Y100000D02*
D03*
X1250178Y50000D02*
D03*
X1225178Y700000D02*
D03*
X1200178Y650000D02*
D03*
X1225178Y600000D02*
D03*
X1200178Y550000D02*
D03*
X1225178Y500000D02*
D03*
X1200178Y450000D02*
D03*
X1225178Y400000D02*
D03*
X1200178Y350000D02*
D03*
X1225178Y300000D02*
D03*
X1200178Y250000D02*
D03*
X1225178Y200000D02*
D03*
X1200178Y150000D02*
D03*
X1225178Y100000D02*
D03*
X1200178Y50000D02*
D03*
X1175178Y700000D02*
D03*
X1150178Y650000D02*
D03*
X1175178Y600000D02*
D03*
X1150178Y550000D02*
D03*
X1175178Y500000D02*
D03*
X1150178Y450000D02*
D03*
X1175178Y400000D02*
D03*
X1150178Y350000D02*
D03*
X1175178Y300000D02*
D03*
X1150178Y250000D02*
D03*
X1175178Y200000D02*
D03*
X1150178Y150000D02*
D03*
X1175178Y100000D02*
D03*
X1150178Y50000D02*
D03*
X1125178Y700000D02*
D03*
X1100178Y650000D02*
D03*
X1125178Y600000D02*
D03*
X1100178Y550000D02*
D03*
X1125178Y500000D02*
D03*
X1100178Y450000D02*
D03*
X1125178Y400000D02*
D03*
X1100178Y350000D02*
D03*
X1125178Y300000D02*
D03*
X1100178Y250000D02*
D03*
X1125178Y200000D02*
D03*
X1100178Y150000D02*
D03*
X1125178Y100000D02*
D03*
X1100178Y50000D02*
D03*
X1075178Y700000D02*
D03*
X1050178Y650000D02*
D03*
X1075178Y600000D02*
D03*
Y500000D02*
D03*
X1050178Y450000D02*
D03*
X1075178Y400000D02*
D03*
X1050178Y350000D02*
D03*
X1075178Y300000D02*
D03*
X1050178Y250000D02*
D03*
X1075178Y200000D02*
D03*
X1050178Y150000D02*
D03*
X1075178Y100000D02*
D03*
X1050178Y50000D02*
D03*
X1025178Y700000D02*
D03*
X1000178Y650000D02*
D03*
Y550000D02*
D03*
X1025178Y500000D02*
D03*
X1000178Y450000D02*
D03*
X1025178Y400000D02*
D03*
X1000178Y350000D02*
D03*
X1025178Y300000D02*
D03*
X1000178Y250000D02*
D03*
X1025178Y200000D02*
D03*
X1000178Y50000D02*
D03*
X975178Y700000D02*
D03*
X950178Y650000D02*
D03*
X975178Y600000D02*
D03*
X950178Y550000D02*
D03*
X975178Y500000D02*
D03*
X950178Y450000D02*
D03*
Y350000D02*
D03*
X975178Y300000D02*
D03*
X950178Y250000D02*
D03*
X975178Y200000D02*
D03*
X950178Y50000D02*
D03*
X925178Y700000D02*
D03*
X900178Y650000D02*
D03*
X925178Y600000D02*
D03*
X900178Y550000D02*
D03*
X925178Y500000D02*
D03*
X900178Y450000D02*
D03*
X925178Y400000D02*
D03*
X900178Y350000D02*
D03*
X925178Y200000D02*
D03*
X900178Y50000D02*
D03*
X875178Y700000D02*
D03*
X850178Y650000D02*
D03*
X875178Y600000D02*
D03*
X850178Y550000D02*
D03*
X875178Y500000D02*
D03*
X850178Y450000D02*
D03*
X875178Y400000D02*
D03*
Y300000D02*
D03*
X850178Y250000D02*
D03*
X875178Y200000D02*
D03*
X850178Y50000D02*
D03*
X825178Y700000D02*
D03*
X800178Y650000D02*
D03*
X825178Y600000D02*
D03*
X800178Y550000D02*
D03*
X825178Y500000D02*
D03*
X800178Y450000D02*
D03*
Y350000D02*
D03*
X825178Y300000D02*
D03*
X775178Y700000D02*
D03*
X750178Y650000D02*
D03*
X775178Y600000D02*
D03*
X750178Y550000D02*
D03*
Y450000D02*
D03*
X775178Y400000D02*
D03*
X750178Y350000D02*
D03*
X775178Y300000D02*
D03*
X725178Y700000D02*
D03*
X700178Y650000D02*
D03*
X725178Y600000D02*
D03*
X700178Y550000D02*
D03*
X725178Y500000D02*
D03*
X700178Y450000D02*
D03*
X725178Y400000D02*
D03*
X700178Y350000D02*
D03*
X725178Y300000D02*
D03*
X700178Y250000D02*
D03*
Y150000D02*
D03*
X675178Y700000D02*
D03*
X650178Y650000D02*
D03*
X675178Y600000D02*
D03*
X650178Y550000D02*
D03*
X675178Y500000D02*
D03*
X650178Y450000D02*
D03*
X675178Y400000D02*
D03*
X650178Y350000D02*
D03*
X675178Y300000D02*
D03*
Y200000D02*
D03*
X650178Y150000D02*
D03*
X625178Y700000D02*
D03*
X600178Y650000D02*
D03*
X625178Y600000D02*
D03*
X600178Y550000D02*
D03*
X625178Y500000D02*
D03*
X600178Y450000D02*
D03*
X625178Y400000D02*
D03*
X600178Y350000D02*
D03*
Y250000D02*
D03*
Y150000D02*
D03*
X625178Y100000D02*
D03*
X575178Y700000D02*
D03*
X550178Y650000D02*
D03*
X575178Y600000D02*
D03*
X550178Y550000D02*
D03*
X575178Y500000D02*
D03*
X550178Y450000D02*
D03*
X575178Y400000D02*
D03*
Y300000D02*
D03*
X550178Y250000D02*
D03*
X575178Y200000D02*
D03*
X525178Y700000D02*
D03*
X500178Y650000D02*
D03*
Y550000D02*
D03*
X525178Y500000D02*
D03*
X500178Y450000D02*
D03*
Y350000D02*
D03*
Y250000D02*
D03*
X525178Y200000D02*
D03*
X475178Y700000D02*
D03*
X450178Y650000D02*
D03*
X475178Y600000D02*
D03*
Y500000D02*
D03*
Y400000D02*
D03*
Y300000D02*
D03*
X450178Y250000D02*
D03*
X475178Y200000D02*
D03*
Y100000D02*
D03*
X425178Y700000D02*
D03*
X400178Y650000D02*
D03*
Y250000D02*
D03*
X425178Y200000D02*
D03*
X400178Y150000D02*
D03*
X375178Y700000D02*
D03*
X350178Y650000D02*
D03*
X375178Y300000D02*
D03*
X350178Y250000D02*
D03*
X375178Y200000D02*
D03*
X350178Y150000D02*
D03*
X375178Y100000D02*
D03*
X325178Y700000D02*
D03*
X300178Y650000D02*
D03*
X325178Y500000D02*
D03*
Y300000D02*
D03*
X300178Y250000D02*
D03*
X325178Y100000D02*
D03*
X275178Y700000D02*
D03*
X250178Y650000D02*
D03*
X275178Y600000D02*
D03*
Y400000D02*
D03*
X250178Y350000D02*
D03*
X275178Y300000D02*
D03*
X225178Y700000D02*
D03*
X200178Y650000D02*
D03*
X225178Y600000D02*
D03*
X200178Y550000D02*
D03*
Y450000D02*
D03*
X225178Y400000D02*
D03*
X200178Y350000D02*
D03*
X225178Y300000D02*
D03*
X200178Y250000D02*
D03*
X225178Y200000D02*
D03*
X200178Y150000D02*
D03*
X225178Y100000D02*
D03*
X175178Y700000D02*
D03*
X150178Y650000D02*
D03*
X175178Y600000D02*
D03*
Y500000D02*
D03*
X150178Y450000D02*
D03*
X175178Y400000D02*
D03*
X150178Y350000D02*
D03*
X175178Y300000D02*
D03*
X150178Y250000D02*
D03*
X125178Y700000D02*
D03*
X100178Y650000D02*
D03*
X125178Y600000D02*
D03*
Y500000D02*
D03*
X100178Y450000D02*
D03*
X125178Y400000D02*
D03*
X100178Y350000D02*
D03*
X125178Y300000D02*
D03*
Y200000D02*
D03*
X100178Y50000D02*
D03*
X75178Y700000D02*
D03*
X50178Y650000D02*
D03*
X75178Y600000D02*
D03*
X50178Y550000D02*
D03*
Y450000D02*
D03*
X75178Y400000D02*
D03*
X50178Y350000D02*
D03*
X75178Y300000D02*
D03*
Y200000D02*
D03*
Y100000D02*
D03*
X50178Y50000D02*
D03*
X781919Y125172D02*
D03*
X781812Y134874D02*
D03*
X788670Y128397D02*
D03*
X794004D02*
D03*
X709422Y96012D02*
D03*
Y104394D02*
D03*
X699770Y87630D02*
D03*
Y96012D02*
D03*
Y104394D02*
D03*
X709422Y87630D02*
D03*
X812546Y409956D02*
D03*
X791464Y132842D02*
D03*
Y123746D02*
D03*
X765048Y120650D02*
D03*
X755904Y114808D02*
D03*
X558292Y226314D02*
D03*
X711454Y127508D02*
D03*
X755904Y135636D02*
D03*
X765048Y130810D02*
D03*
X755904Y125476D02*
D03*
X770573Y149939D02*
D03*
X785876Y153162D02*
D03*
X780288Y158496D02*
D03*
X804672Y114046D02*
D03*
X814578Y103378D02*
D03*
X787480Y103632D02*
D03*
D95*
X245640Y235830D02*
D03*
X775640D02*
D03*
Y505830D02*
D03*
X245640D02*
D03*
M02*
