G04*
G04 #@! TF.GenerationSoftware,Altium Limited,Altium Designer,25.3.3 (18)*
G04*
G04 Layer_Color=65535*
%FSLAX44Y44*%
%MOMM*%
G71*
G04*
G04 #@! TF.SameCoordinates,6D202E75-467B-4672-BE30-C010D47AD25D*
G04*
G04*
G04 #@! TF.FilePolarity,Positive*
G04*
G01*
G75*
%ADD10C,0.2500*%
%ADD11C,0.2000*%
%ADD12C,0.1270*%
%ADD13C,0.2540*%
%ADD14C,0.5000*%
%ADD15C,0.1000*%
%ADD16C,0.4000*%
G36*
X562744Y580270D02*
X513240D01*
Y619386D01*
Y619479D01*
Y636511D01*
X562744D01*
Y580270D01*
D02*
G37*
G36*
X1220677Y703087D02*
Y703077D01*
Y703048D01*
Y702999D01*
Y702931D01*
X1220667Y702843D01*
Y702755D01*
X1220657Y702648D01*
X1220648Y702531D01*
X1220618Y702287D01*
X1220579Y702034D01*
X1220531Y701780D01*
X1220452Y701556D01*
Y701546D01*
X1220443Y701526D01*
X1220433Y701497D01*
X1220414Y701458D01*
X1220355Y701361D01*
X1220277Y701224D01*
X1220170Y701078D01*
X1220033Y700922D01*
X1219858Y700775D01*
X1219662Y700629D01*
X1219653D01*
X1219633Y700610D01*
X1219604Y700600D01*
X1219555Y700571D01*
X1219506Y700551D01*
X1219438Y700522D01*
X1219350Y700483D01*
X1219263Y700454D01*
X1219165Y700424D01*
X1219048Y700385D01*
X1218931Y700356D01*
X1218794Y700337D01*
X1218502Y700297D01*
X1218170Y700278D01*
X1218082D01*
X1218024Y700288D01*
X1217946D01*
X1217858Y700297D01*
X1217760Y700307D01*
X1217653Y700317D01*
X1217419Y700356D01*
X1217175Y700405D01*
X1216922Y700483D01*
X1216697Y700580D01*
X1216688D01*
X1216668Y700600D01*
X1216649Y700610D01*
X1216610Y700639D01*
X1216502Y700707D01*
X1216385Y700814D01*
X1216249Y700941D01*
X1216122Y701087D01*
X1215995Y701273D01*
X1215888Y701478D01*
Y701487D01*
X1215878Y701507D01*
X1215868Y701536D01*
X1215849Y701585D01*
X1215829Y701644D01*
X1215810Y701721D01*
X1215790Y701809D01*
X1215771Y701907D01*
X1215742Y702014D01*
X1215722Y702131D01*
X1215703Y702268D01*
X1215683Y702404D01*
X1215664Y702560D01*
X1215654Y702726D01*
X1215644Y702902D01*
Y703087D01*
Y706793D01*
X1216493D01*
Y703087D01*
Y703077D01*
Y703048D01*
Y703009D01*
Y702951D01*
Y702882D01*
X1216502Y702804D01*
X1216512Y702619D01*
X1216532Y702424D01*
X1216551Y702219D01*
X1216590Y702024D01*
X1216610Y701936D01*
X1216639Y701858D01*
X1216649Y701839D01*
X1216668Y701790D01*
X1216707Y701721D01*
X1216766Y701634D01*
X1216834Y701536D01*
X1216932Y701429D01*
X1217039Y701331D01*
X1217175Y701244D01*
X1217195Y701234D01*
X1217244Y701214D01*
X1217322Y701175D01*
X1217429Y701146D01*
X1217566Y701107D01*
X1217721Y701068D01*
X1217897Y701049D01*
X1218092Y701039D01*
X1218180D01*
X1218248Y701049D01*
X1218326D01*
X1218414Y701058D01*
X1218609Y701087D01*
X1218833Y701146D01*
X1219048Y701214D01*
X1219253Y701322D01*
X1219350Y701380D01*
X1219428Y701458D01*
Y701468D01*
X1219448Y701478D01*
X1219467Y701507D01*
X1219487Y701546D01*
X1219526Y701595D01*
X1219555Y701653D01*
X1219594Y701731D01*
X1219633Y701819D01*
X1219662Y701926D01*
X1219702Y702043D01*
X1219741Y702170D01*
X1219770Y702326D01*
X1219789Y702492D01*
X1219809Y702668D01*
X1219828Y702872D01*
Y703087D01*
Y706793D01*
X1220677D01*
Y703087D01*
D02*
G37*
G36*
X1225076Y702638D02*
X1225944D01*
Y701917D01*
X1225076D01*
Y700385D01*
X1224286D01*
Y701917D01*
X1221506D01*
Y702638D01*
X1224432Y706784D01*
X1225076D01*
Y702638D01*
D02*
G37*
%LPC*%
G36*
X560030Y633797D02*
X515954D01*
Y582984D01*
X560030D01*
Y633797D01*
D02*
G37*
%LPD*%
G36*
X553012Y610402D02*
X553105D01*
Y598611D01*
Y598518D01*
Y598143D01*
X553012D01*
Y598050D01*
X550672D01*
Y598143D01*
X550578D01*
Y598798D01*
X550485D01*
Y599173D01*
X550391D01*
Y599079D01*
X550298D01*
Y598985D01*
X550111D01*
Y598892D01*
X550017D01*
Y598798D01*
X549923D01*
Y598705D01*
X549736D01*
Y598611D01*
X549643D01*
Y598518D01*
X549455D01*
Y598424D01*
X549268D01*
Y598330D01*
X549081D01*
Y598237D01*
X548894D01*
Y598143D01*
X548613D01*
Y598050D01*
X548239D01*
Y597956D01*
X547584D01*
Y597863D01*
X546648D01*
Y597956D01*
X546087D01*
Y598050D01*
X545712D01*
Y598143D01*
X545432D01*
Y598237D01*
X545244D01*
Y598330D01*
X545057D01*
Y598424D01*
X544870D01*
Y598518D01*
X544776D01*
Y598611D01*
X544683D01*
Y598705D01*
X544589D01*
Y598798D01*
X544402D01*
Y598892D01*
X544309D01*
Y598985D01*
X544215D01*
Y599173D01*
X544122D01*
Y599266D01*
X544028D01*
Y599360D01*
X543934D01*
Y599547D01*
X543841D01*
Y599641D01*
X543747D01*
Y599828D01*
X543654D01*
Y600015D01*
X543560D01*
Y600296D01*
X543466D01*
Y600483D01*
X543373D01*
Y600857D01*
X543279D01*
Y601231D01*
X543186D01*
Y601980D01*
X543092D01*
Y610402D01*
X543186D01*
Y610496D01*
X545900D01*
Y601793D01*
X545993D01*
Y601418D01*
X546087D01*
Y601138D01*
X546180D01*
Y600951D01*
X546274D01*
Y600857D01*
X546367D01*
Y600670D01*
X546461D01*
Y600576D01*
X546554D01*
Y600483D01*
X546648D01*
Y600389D01*
X546835D01*
Y600296D01*
X547022D01*
Y600202D01*
X547303D01*
Y600108D01*
X548613D01*
Y600202D01*
X548988D01*
Y600296D01*
X549175D01*
Y600389D01*
X549362D01*
Y600483D01*
X549549D01*
Y600576D01*
X549643D01*
Y600670D01*
X549830D01*
Y600764D01*
X549923D01*
Y600857D01*
X550017D01*
Y600951D01*
X550111D01*
Y601044D01*
X550204D01*
Y601138D01*
X550298D01*
Y610402D01*
X550391D01*
Y610496D01*
X553012D01*
Y610402D01*
D02*
G37*
G36*
X525686Y604507D02*
X525780D01*
Y604694D01*
X525874D01*
Y604787D01*
X525967D01*
Y604881D01*
X526061D01*
Y605068D01*
X526154D01*
Y605162D01*
X526248D01*
Y605255D01*
X526342D01*
Y605442D01*
X526435D01*
Y605536D01*
X526529D01*
Y605630D01*
X526622D01*
Y605723D01*
X526716D01*
Y605910D01*
X526809D01*
Y606004D01*
X526903D01*
Y606097D01*
X526996D01*
Y606285D01*
X527090D01*
Y606378D01*
X527184D01*
Y606472D01*
X527277D01*
Y606659D01*
X527371D01*
Y606753D01*
X527464D01*
Y606846D01*
X527558D01*
Y607033D01*
X527652D01*
Y607127D01*
X527745D01*
Y607220D01*
X527839D01*
Y607408D01*
X527932D01*
Y607501D01*
X528026D01*
Y607595D01*
X528120D01*
Y607782D01*
X528213D01*
Y607876D01*
X528307D01*
Y607969D01*
X528400D01*
Y608156D01*
X528494D01*
Y608250D01*
X528587D01*
Y608343D01*
X528681D01*
Y608437D01*
X528774D01*
Y608624D01*
X528868D01*
Y608718D01*
X528962D01*
Y608811D01*
X529055D01*
Y608998D01*
X529149D01*
Y609092D01*
X529242D01*
Y609186D01*
X529336D01*
Y609373D01*
X529430D01*
Y609466D01*
X529523D01*
Y609560D01*
X529617D01*
Y609747D01*
X529710D01*
Y609841D01*
X529804D01*
Y609934D01*
X529897D01*
Y610121D01*
X529991D01*
Y610215D01*
X530085D01*
Y610308D01*
X530178D01*
Y610402D01*
X530272D01*
Y610496D01*
X533173D01*
Y610308D01*
X533079D01*
Y610215D01*
X532986D01*
Y610121D01*
X532892D01*
Y609934D01*
X532798D01*
Y609841D01*
X532705D01*
Y609747D01*
X532611D01*
Y609560D01*
X532518D01*
Y609466D01*
X532424D01*
Y609373D01*
X532331D01*
Y609279D01*
X532237D01*
Y609092D01*
X532143D01*
Y608998D01*
X532050D01*
Y608905D01*
X531956D01*
Y608718D01*
X531863D01*
Y608624D01*
X531769D01*
Y608531D01*
X531675D01*
Y608343D01*
X531582D01*
Y608250D01*
X531488D01*
Y608156D01*
X531395D01*
Y608063D01*
X531301D01*
Y607876D01*
X531208D01*
Y607782D01*
X531114D01*
Y607688D01*
X531020D01*
Y607501D01*
X530927D01*
Y607408D01*
X530833D01*
Y607314D01*
X530740D01*
Y607220D01*
X530646D01*
Y607033D01*
X530552D01*
Y606940D01*
X530459D01*
Y606846D01*
X530365D01*
Y606659D01*
X530272D01*
Y606565D01*
X530178D01*
Y606472D01*
X530085D01*
Y606285D01*
X529991D01*
Y606191D01*
X529897D01*
Y606097D01*
X529804D01*
Y606004D01*
X529710D01*
Y605817D01*
X529617D01*
Y605723D01*
X529523D01*
Y605630D01*
X529430D01*
Y605442D01*
X529336D01*
Y605349D01*
X529242D01*
Y605255D01*
X529149D01*
Y604975D01*
X529242D01*
Y604787D01*
X529336D01*
Y604694D01*
X529430D01*
Y604507D01*
X529523D01*
Y604319D01*
X529617D01*
Y604226D01*
X529710D01*
Y604039D01*
X529804D01*
Y603945D01*
X529897D01*
Y603758D01*
X529991D01*
Y603664D01*
X530085D01*
Y603477D01*
X530178D01*
Y603384D01*
X530272D01*
Y603196D01*
X530365D01*
Y603103D01*
X530459D01*
Y602916D01*
X530552D01*
Y602729D01*
X530646D01*
Y602635D01*
X530740D01*
Y602448D01*
X530833D01*
Y602354D01*
X530927D01*
Y602261D01*
Y602167D01*
X531020D01*
Y602074D01*
X531114D01*
Y601886D01*
X531208D01*
Y601793D01*
X531301D01*
Y601606D01*
X531395D01*
Y601512D01*
X531488D01*
Y601325D01*
X531582D01*
Y601138D01*
X531675D01*
Y601044D01*
X531769D01*
Y600857D01*
X531863D01*
Y600764D01*
X531956D01*
Y600576D01*
X532050D01*
Y600483D01*
X532143D01*
Y600296D01*
X532237D01*
Y600202D01*
X532331D01*
Y600015D01*
X532424D01*
Y599921D01*
X532518D01*
Y599734D01*
X532611D01*
Y599547D01*
X532705D01*
Y599453D01*
X532798D01*
Y599266D01*
X532892D01*
Y599173D01*
X532986D01*
Y598985D01*
X533079D01*
Y598892D01*
X533173D01*
Y598705D01*
X533266D01*
Y598611D01*
X533360D01*
Y598424D01*
X533453D01*
Y598237D01*
X533547D01*
Y598050D01*
X530552D01*
Y598143D01*
X530459D01*
Y598237D01*
X530365D01*
Y598424D01*
X530272D01*
Y598518D01*
X530178D01*
Y598705D01*
X530085D01*
Y598798D01*
X529991D01*
Y598985D01*
X529897D01*
Y599173D01*
X529804D01*
Y599266D01*
X529710D01*
Y599453D01*
X529617D01*
Y599641D01*
X529523D01*
Y599734D01*
X529430D01*
Y599921D01*
X529336D01*
Y600015D01*
X529242D01*
Y600202D01*
X529149D01*
Y600389D01*
X529055D01*
Y600483D01*
X528962D01*
Y600670D01*
X528868D01*
Y600857D01*
X528774D01*
Y600951D01*
X528681D01*
Y601138D01*
X528587D01*
Y601231D01*
X528494D01*
Y601418D01*
X528400D01*
Y601606D01*
X528307D01*
Y601699D01*
X528213D01*
Y601886D01*
X528120D01*
Y602074D01*
X528026D01*
Y602167D01*
X527932D01*
Y602354D01*
X527839D01*
Y602448D01*
X527745D01*
Y602635D01*
X527652D01*
Y602822D01*
X527558D01*
Y602916D01*
X527464D01*
Y603103D01*
X527371D01*
Y603196D01*
X527277D01*
Y603290D01*
X527184D01*
Y603196D01*
X527090D01*
Y603103D01*
X526996D01*
Y603009D01*
X526903D01*
Y602916D01*
X526809D01*
Y602822D01*
X526716D01*
Y602729D01*
X526622D01*
Y602635D01*
X526529D01*
Y602542D01*
X526435D01*
Y602448D01*
X526342D01*
Y602354D01*
X526248D01*
Y602261D01*
X526154D01*
Y602167D01*
X526061D01*
Y601980D01*
X525967D01*
Y601886D01*
X525874D01*
Y601793D01*
X525780D01*
Y601699D01*
X525686D01*
Y598050D01*
X522973D01*
Y598143D01*
X522879D01*
Y613958D01*
X522973D01*
Y614052D01*
X525686D01*
Y604507D01*
D02*
G37*
G36*
X538413Y612742D02*
X538507D01*
Y610028D01*
X541221D01*
Y609934D01*
X541314D01*
Y607969D01*
X541221D01*
Y607876D01*
X538507D01*
Y600951D01*
X538600D01*
Y600670D01*
X538694D01*
Y600576D01*
X538787D01*
Y600389D01*
X538881D01*
Y600296D01*
X538975D01*
Y600202D01*
X539162D01*
Y600108D01*
X539349D01*
Y600015D01*
X540659D01*
Y600108D01*
X540940D01*
Y600202D01*
X541033D01*
Y599828D01*
X541127D01*
Y599173D01*
X541221D01*
Y598424D01*
X541127D01*
Y598330D01*
X540846D01*
Y598237D01*
X540659D01*
Y598143D01*
X540378D01*
Y598050D01*
X539910D01*
Y597956D01*
X539068D01*
Y597863D01*
X538881D01*
Y597956D01*
X538039D01*
Y598050D01*
X537664D01*
Y598143D01*
X537384D01*
Y598237D01*
X537197D01*
Y598330D01*
X537010D01*
Y598424D01*
X536916D01*
Y598518D01*
X536822D01*
Y598611D01*
X536729D01*
Y598705D01*
X536542D01*
Y598892D01*
X536448D01*
Y598985D01*
X536354D01*
Y599079D01*
X536261D01*
Y599266D01*
X536167D01*
Y599453D01*
X536074D01*
Y599641D01*
X535980D01*
Y599921D01*
X535886D01*
Y600202D01*
X535793D01*
Y600670D01*
X535699D01*
Y607782D01*
X535606D01*
Y607876D01*
X535232D01*
Y607969D01*
X534857D01*
Y608063D01*
X534483D01*
Y608156D01*
X534202D01*
Y609934D01*
X534670D01*
Y610028D01*
X535793D01*
Y610121D01*
X535886D01*
Y610496D01*
X535980D01*
Y610870D01*
X536074D01*
Y611244D01*
X536167D01*
Y611525D01*
X536261D01*
Y611899D01*
X536354D01*
Y612274D01*
X536448D01*
Y612648D01*
X536542D01*
Y612835D01*
X538413D01*
Y612742D01*
D02*
G37*
G36*
X523347Y590376D02*
X523628D01*
Y590283D01*
X523815D01*
Y590189D01*
X524002D01*
Y590095D01*
X524096D01*
Y590002D01*
X524189D01*
Y589815D01*
X524283D01*
Y589628D01*
X524376D01*
Y589347D01*
X524470D01*
Y586727D01*
X524376D01*
Y586446D01*
X524283D01*
Y586259D01*
X524189D01*
Y586165D01*
X524096D01*
Y586072D01*
X524002D01*
Y585978D01*
X523908D01*
Y585884D01*
X523815D01*
Y585791D01*
X523628D01*
Y585697D01*
X523253D01*
Y585604D01*
X522411D01*
Y585697D01*
X522130D01*
Y585791D01*
X521943D01*
Y585884D01*
X521850D01*
Y585978D01*
X521756D01*
Y586072D01*
X521662D01*
Y586165D01*
X521569D01*
Y586352D01*
X521475D01*
Y586727D01*
X521662D01*
Y586820D01*
X521850D01*
Y586914D01*
X522130D01*
Y586727D01*
X522224D01*
Y586633D01*
X522318D01*
Y586539D01*
X522505D01*
Y586446D01*
X523160D01*
Y586539D01*
X523253D01*
Y586633D01*
X523347D01*
Y586727D01*
X523441D01*
Y587662D01*
X523347D01*
Y587569D01*
X523160D01*
Y587475D01*
X522224D01*
Y587569D01*
X521943D01*
Y587662D01*
X521850D01*
Y587756D01*
X521756D01*
Y587850D01*
X521662D01*
Y587943D01*
X521569D01*
Y588037D01*
X521475D01*
Y588317D01*
X521382D01*
Y589440D01*
X521475D01*
Y589721D01*
X521569D01*
Y589908D01*
X521662D01*
Y590002D01*
X521756D01*
Y590095D01*
X521850D01*
Y590189D01*
X521943D01*
Y590283D01*
X522130D01*
Y590376D01*
X522411D01*
Y590470D01*
X523347D01*
Y590376D01*
D02*
G37*
G36*
X530552D02*
X530833D01*
Y590283D01*
X531020D01*
Y590189D01*
X531208D01*
Y590095D01*
X531301D01*
Y589908D01*
X531395D01*
Y589815D01*
X531488D01*
Y589534D01*
X531582D01*
Y589440D01*
Y588692D01*
X531488D01*
Y588411D01*
X531395D01*
Y588224D01*
X531301D01*
Y588130D01*
X531208D01*
Y588037D01*
X531114D01*
Y587850D01*
X531020D01*
Y587756D01*
X530833D01*
Y587662D01*
X530740D01*
Y587569D01*
X530646D01*
Y587475D01*
X530552D01*
Y587382D01*
X530365D01*
Y587288D01*
X530272D01*
Y587195D01*
X530178D01*
Y587101D01*
X530085D01*
Y587007D01*
X529991D01*
Y586914D01*
X529897D01*
Y586820D01*
X529804D01*
Y586633D01*
X529710D01*
Y586539D01*
X531582D01*
Y585697D01*
X528587D01*
Y586539D01*
X528681D01*
Y586820D01*
X528774D01*
Y586914D01*
X528868D01*
Y587101D01*
X528962D01*
Y587195D01*
X529055D01*
Y587382D01*
X529149D01*
Y587475D01*
X529242D01*
Y587569D01*
X529336D01*
Y587662D01*
X529430D01*
Y587756D01*
X529523D01*
Y587850D01*
X529710D01*
Y587943D01*
X529804D01*
Y588037D01*
X529897D01*
Y588130D01*
X529991D01*
Y588224D01*
X530085D01*
Y588317D01*
X530178D01*
Y588411D01*
X530272D01*
Y588505D01*
X530365D01*
Y588598D01*
X530459D01*
Y588785D01*
X530552D01*
Y589440D01*
X530459D01*
Y589534D01*
X530272D01*
Y589628D01*
X529804D01*
Y589534D01*
X529617D01*
Y589440D01*
X529523D01*
Y589253D01*
X529430D01*
Y589160D01*
X529336D01*
Y588879D01*
X529242D01*
Y588973D01*
X528962D01*
Y589066D01*
X528681D01*
Y589160D01*
X528587D01*
Y589440D01*
X528681D01*
Y589628D01*
X528774D01*
Y589815D01*
X528868D01*
Y589908D01*
X528962D01*
Y590002D01*
X529055D01*
Y590095D01*
X529149D01*
Y590189D01*
X529242D01*
Y590283D01*
X529430D01*
Y590376D01*
X529710D01*
Y590470D01*
X530552D01*
Y590376D01*
D02*
G37*
G36*
X526996D02*
X527371D01*
Y590283D01*
X527464D01*
Y590189D01*
X527652D01*
Y590095D01*
X527745D01*
Y590002D01*
X527839D01*
Y589815D01*
X527932D01*
Y589628D01*
X528026D01*
Y589347D01*
Y589253D01*
Y588598D01*
X527932D01*
Y588411D01*
X527839D01*
Y588224D01*
X527745D01*
Y588037D01*
X527652D01*
Y587943D01*
X527558D01*
Y587850D01*
X527464D01*
Y587756D01*
X527371D01*
Y587662D01*
X527184D01*
Y587569D01*
X527090D01*
Y587475D01*
X526996D01*
Y587382D01*
X526903D01*
Y587288D01*
X526716D01*
Y587195D01*
X526622D01*
Y587101D01*
X526529D01*
Y587007D01*
X526435D01*
Y586914D01*
X526342D01*
Y586820D01*
X526248D01*
Y586633D01*
X526154D01*
Y586539D01*
X528026D01*
Y585697D01*
X525031D01*
Y586446D01*
X525125D01*
Y586727D01*
X525219D01*
Y586914D01*
X525312D01*
Y587101D01*
X525406D01*
Y587195D01*
X525499D01*
Y587288D01*
X525593D01*
Y587382D01*
X525686D01*
Y587475D01*
X525780D01*
Y587569D01*
X525874D01*
Y587662D01*
X525967D01*
Y587756D01*
X526061D01*
Y587850D01*
X526154D01*
Y587943D01*
X526248D01*
Y588037D01*
X526342D01*
Y588130D01*
X526435D01*
Y588224D01*
X526529D01*
Y588317D01*
X526622D01*
Y588411D01*
X526716D01*
Y588505D01*
X526809D01*
Y588598D01*
X526903D01*
Y588692D01*
X526996D01*
Y588973D01*
X527090D01*
Y589253D01*
X526996D01*
Y589440D01*
X526903D01*
Y589534D01*
X526809D01*
Y589628D01*
X526248D01*
Y589534D01*
X526154D01*
Y589440D01*
X526061D01*
Y589347D01*
X525967D01*
Y589253D01*
X525874D01*
Y589066D01*
X525780D01*
Y588879D01*
X525686D01*
Y588973D01*
X525406D01*
Y589066D01*
X525125D01*
Y589160D01*
X525031D01*
Y589440D01*
X525125D01*
Y589628D01*
X525219D01*
Y589815D01*
X525312D01*
Y589908D01*
X525406D01*
Y590002D01*
X525499D01*
Y590095D01*
X525593D01*
Y590189D01*
X525780D01*
Y590283D01*
X525874D01*
Y590376D01*
X526248D01*
Y590470D01*
X526996D01*
Y590376D01*
D02*
G37*
G36*
X520633D02*
X520727D01*
Y585697D01*
X519604D01*
Y587007D01*
Y587101D01*
Y588879D01*
X518668D01*
Y589534D01*
X519323D01*
Y589628D01*
X519604D01*
Y589721D01*
X519697D01*
Y589908D01*
X519791D01*
Y590376D01*
X519884D01*
Y590470D01*
X520633D01*
Y590376D01*
D02*
G37*
%LPC*%
G36*
X523160Y589628D02*
X522692D01*
Y589534D01*
X522505D01*
Y589440D01*
X522411D01*
Y589160D01*
X522318D01*
Y589066D01*
Y588692D01*
X522411D01*
Y588411D01*
X522505D01*
Y588317D01*
X522692D01*
Y588224D01*
X523066D01*
Y588317D01*
X523347D01*
Y588411D01*
X523441D01*
Y589440D01*
X523347D01*
Y589534D01*
X523160D01*
Y589628D01*
D02*
G37*
G36*
X1224286Y705506D02*
X1222276Y702638D01*
X1224286D01*
Y705506D01*
D02*
G37*
%LPD*%
D10*
X1240418Y443551D02*
G03*
X1240418Y443551I-1250J0D01*
G01*
X1240926Y632527D02*
G03*
X1240926Y632527I-1250J0D01*
G01*
X535666Y90382D02*
G03*
X535666Y90382I-1250J0D01*
G01*
X317480Y596434D02*
G03*
X317480Y596434I-1250J0D01*
G01*
D11*
X928289Y242670D02*
G03*
X928289Y242670I-1000J0D01*
G01*
X443390Y299810D02*
G03*
X443390Y299810I-1000J0D01*
G01*
X279478Y157468D02*
G03*
X279478Y157468I-1000J0D01*
G01*
X968024Y164146D02*
G03*
X968024Y164146I-1000J0D01*
G01*
X100990Y572040D02*
G03*
X100990Y572040I-1000J0D01*
G01*
X1019286Y575884D02*
G03*
X1019286Y575884I-1000J0D01*
G01*
X928289Y402670D02*
G03*
X928289Y402670I-1000J0D01*
G01*
X1024366Y93284D02*
G03*
X1024366Y93284I-1000J0D01*
G01*
X457532Y151492D02*
G03*
X457532Y151492I-1000J0D01*
G01*
X1020048Y508066D02*
G03*
X1020048Y508066I-1000J0D01*
G01*
X452866Y573498D02*
G03*
X452866Y573498I-1000J0D01*
G01*
X606177Y89576D02*
G03*
X606177Y89576I-1000J0D01*
G01*
X1233918Y473616D02*
Y490568D01*
X1263918Y473616D02*
Y490568D01*
X1236857Y529411D02*
X1260979D01*
X1236857Y546533D02*
X1260979D01*
X1205051Y472317D02*
Y496439D01*
X1222173Y472317D02*
Y496439D01*
X1234426Y662592D02*
Y679544D01*
X1264426Y662592D02*
Y679544D01*
X154357Y582045D02*
Y606167D01*
X137235Y582045D02*
Y606167D01*
X525093Y224159D02*
Y248281D01*
X542215Y224159D02*
Y248281D01*
X497916Y128382D02*
Y142382D01*
X570916Y128382D02*
Y142382D01*
X811324Y185794D02*
X817324D01*
X811324Y200794D02*
X817324D01*
X831417Y147705D02*
Y171827D01*
X848539Y147705D02*
Y171827D01*
X428677Y293501D02*
Y317623D01*
X411555Y293501D02*
Y317623D01*
X438027Y342721D02*
X462149D01*
X438027Y359843D02*
X462149D01*
X407595Y348873D02*
Y372995D01*
X390473Y348873D02*
Y372995D01*
X455299Y178891D02*
X479421D01*
X455299Y196013D02*
X479421D01*
X426343Y98985D02*
X450465D01*
X426343Y81863D02*
X450465D01*
X799469Y162127D02*
X823591D01*
X799469Y179249D02*
X823591D01*
X404499Y556693D02*
X428621D01*
X404499Y539571D02*
X428621D01*
X455299Y173153D02*
X479421D01*
X455299Y156031D02*
X479421D01*
X467943Y107827D02*
Y131949D01*
X485065Y107827D02*
Y131949D01*
X1237365Y735255D02*
X1261487D01*
X1237365Y718133D02*
X1261487D01*
X277753Y178741D02*
X301875D01*
X277753Y161619D02*
X301875D01*
X290143Y113923D02*
Y138045D01*
X307265Y113923D02*
Y138045D01*
X248289Y105081D02*
X272411D01*
X248289Y87959D02*
X272411D01*
X854277Y406023D02*
Y430145D01*
X871399Y406023D02*
Y430145D01*
X843609Y285373D02*
Y309495D01*
X860731Y285373D02*
Y309495D01*
X759027Y80395D02*
Y104517D01*
X776149Y80395D02*
Y104517D01*
X719713Y147499D02*
X743835D01*
X719713Y130377D02*
X743835D01*
X796929Y75259D02*
X821051D01*
X796929Y92381D02*
X821051D01*
X824615Y95579D02*
X848737D01*
X824615Y112701D02*
X848737D01*
X614811Y184987D02*
X638933D01*
X614811Y202109D02*
X638933D01*
X325195Y348873D02*
Y372995D01*
X342317Y348873D02*
Y372995D01*
X368714Y348873D02*
Y372995D01*
X385835Y348873D02*
Y372995D01*
X346955Y348873D02*
Y372995D01*
X364076Y348873D02*
Y372995D01*
X446965Y160659D02*
Y184781D01*
X429843Y160659D02*
Y184781D01*
X1225983Y662055D02*
Y686177D01*
X1208861Y662055D02*
Y686177D01*
X268657Y166755D02*
Y190877D01*
X251535Y166755D02*
Y190877D01*
X277245Y184987D02*
X301367D01*
X277245Y202109D02*
X301367D01*
X878463Y330379D02*
X902585D01*
X878463Y313257D02*
X902585D01*
X883289Y434773D02*
X907411D01*
X883289Y417651D02*
X907411D01*
X860985Y334649D02*
Y358771D01*
X843863Y334649D02*
Y358771D01*
X821511Y406023D02*
Y430145D01*
X838633Y406023D02*
Y430145D01*
X719967Y82625D02*
X744089D01*
X719967Y99747D02*
X744089D01*
X719967Y106501D02*
X744089D01*
X719967Y123623D02*
X744089D01*
X598809Y234875D02*
X622931D01*
X598809Y217753D02*
X622931D01*
X102239Y594793D02*
X126361D01*
X102239Y577671D02*
X126361D01*
X56519Y481763D02*
X80641D01*
X56519Y464641D02*
X80641D01*
X102239Y565837D02*
X126361D01*
X102239Y548715D02*
X126361D01*
X743506Y156838D02*
X749506D01*
X743506Y171838D02*
X749506D01*
X818226Y216514D02*
X893226D01*
X818226Y257764D02*
Y261514D01*
Y216514D02*
Y220264D01*
Y261514D02*
X893226D01*
Y257764D02*
Y261514D01*
Y216514D02*
Y220264D01*
X805976Y239014D02*
X811976D01*
X808976Y236014D02*
Y242014D01*
X144060Y559306D02*
X156060D01*
X159560Y528686D02*
Y557926D01*
Y528686D02*
X165560D01*
Y557926D01*
X159560D02*
X165560D01*
X1014128Y268826D02*
X1018078D01*
X1030178D02*
X1034128D01*
X1030178Y248826D02*
X1034128D01*
X1014128D02*
X1018078D01*
X1014128Y266126D02*
Y268826D01*
X1034128Y266126D02*
Y268826D01*
X1014128Y248826D02*
Y251526D01*
X1034128Y248826D02*
Y251526D01*
X907702Y59088D02*
Y63038D01*
Y75138D02*
Y79088D01*
X927702Y75138D02*
Y79088D01*
Y59088D02*
Y63038D01*
X907702Y59088D02*
X910402D01*
X907702Y79088D02*
X910402D01*
X925002Y59088D02*
X927702D01*
X925002Y79088D02*
X927702D01*
X378606Y402002D02*
X429556D01*
Y464302D01*
X367256D02*
X429556D01*
X367256Y413352D02*
Y464302D01*
Y413352D02*
X378606Y402002D01*
X809800Y69730D02*
X815800D01*
X809800Y54730D02*
X815800D01*
X225440Y474228D02*
X274940D01*
X225440Y265928D02*
Y474228D01*
Y265928D02*
X274940D01*
Y474228D01*
X983648Y181008D02*
Y184958D01*
Y197058D02*
Y201008D01*
X1003648Y197058D02*
Y201008D01*
Y181008D02*
Y184958D01*
X983648Y181008D02*
X986348D01*
X983648Y201008D02*
X986348D01*
X1000948Y181008D02*
X1003648D01*
X1000948Y201008D02*
X1003648D01*
X328930Y601234D02*
Y628634D01*
X302280Y601234D02*
Y628634D01*
Y601234D02*
X457180D01*
Y628634D01*
X302280D02*
X457180D01*
X148608Y155000D02*
Y178500D01*
X3608Y155000D02*
X33108D01*
X109108D02*
X148608D01*
Y209500D02*
Y245000D01*
X109108D02*
X148608D01*
X3608D02*
X33108D01*
X3608Y155000D02*
Y245000D01*
D12*
X961180Y290000D02*
G03*
X961180Y290000I-11180J0D01*
G01*
Y450000D02*
G03*
X961180Y450000I-11180J0D01*
G01*
X639068Y136906D02*
G03*
X639068Y136906I-11180J0D01*
G01*
X980000Y270000D02*
Y310000D01*
X940000Y260000D02*
X960000D01*
X940000Y320000D02*
X960000D01*
X920000Y270000D02*
Y310000D01*
X452590Y333810D02*
X454190D01*
X452590Y308810D02*
X454190D01*
X253978Y128468D02*
Y136468D01*
X282978Y128468D02*
Y136468D01*
X979524Y101746D02*
Y151746D01*
X928524Y101746D02*
Y151746D01*
X55340Y587040D02*
X62240D01*
X92640D02*
X92840D01*
X26240D02*
X31940D01*
X92840Y578490D02*
Y587040D01*
Y497540D02*
Y506090D01*
X55340Y497540D02*
X62240D01*
X92640D02*
X92840D01*
X26240D02*
X31940D01*
X26240D02*
Y587040D01*
X987286Y636284D02*
X1049286D01*
X987286Y580884D02*
Y636284D01*
Y580884D02*
X1049286D01*
Y587184D01*
Y604584D02*
Y612584D01*
Y629984D02*
Y636284D01*
X920000Y430000D02*
Y470000D01*
X940000Y480000D02*
X960000D01*
X940000Y420000D02*
X960000D01*
X980000Y430000D02*
Y470000D01*
X1054366Y147384D02*
Y153684D01*
Y121984D02*
Y129984D01*
Y98284D02*
Y104584D01*
X992366Y98284D02*
X1054366D01*
X992366D02*
Y153684D01*
X1054366D01*
X432032Y122492D02*
Y130492D01*
X461032Y122492D02*
Y130492D01*
X988048Y568466D02*
X1050048D01*
X988048Y513066D02*
Y568466D01*
Y513066D02*
X1050048D01*
Y519366D01*
Y536766D02*
Y544766D01*
Y562166D02*
Y568466D01*
X318298Y135448D02*
Y150048D01*
X386298Y135448D02*
Y150048D01*
X657888Y116906D02*
Y156906D01*
X617888Y106906D02*
X637888D01*
X617888Y166906D02*
X637888D01*
X597888Y116906D02*
Y156906D01*
D13*
X361762Y388700D02*
G03*
X362234Y388661I0J-2874D01*
G01*
X220781Y264045D02*
Y476743D01*
X275064Y210886D02*
X746996D01*
X800590Y262448D02*
Y478094D01*
X272778Y530926D02*
X748774D01*
X524110Y200240D02*
Y184825D01*
X534387D01*
X547233D02*
Y200240D01*
X539525Y192532D01*
X549802D01*
X937905Y351086D02*
X935336Y353656D01*
X930198D01*
X927629Y351086D01*
Y348517D01*
X930198Y345948D01*
X935336D01*
X937905Y343379D01*
Y340810D01*
X935336Y338241D01*
X930198D01*
X927629Y340810D01*
X943044Y353656D02*
Y338241D01*
X948182Y343379D01*
X953320Y338241D01*
Y353656D01*
X958459Y351086D02*
X961028Y353656D01*
X966166D01*
X968735Y351086D01*
Y348517D01*
X966166Y345948D01*
X963597D01*
X966166D01*
X968735Y343379D01*
Y340810D01*
X966166Y338241D01*
X961028D01*
X958459Y340810D01*
X439979Y644204D02*
X438313Y642538D01*
Y639206D01*
X439979Y637540D01*
X446644D01*
X448310Y639206D01*
Y642538D01*
X446644Y644204D01*
X443312D01*
Y640872D01*
X448310Y647537D02*
X438313D01*
X448310Y654201D01*
X438313D01*
Y657534D02*
X448310D01*
Y662532D01*
X446644Y664198D01*
X439979D01*
X438313Y662532D01*
Y657534D01*
X415849Y637540D02*
X414183Y639206D01*
Y642538D01*
X415849Y644204D01*
X417515D01*
X419182Y642538D01*
Y640872D01*
Y642538D01*
X420848Y644204D01*
X422514D01*
X424180Y642538D01*
Y639206D01*
X422514Y637540D01*
X414183Y647537D02*
X420848D01*
X424180Y650869D01*
X420848Y654201D01*
X414183D01*
X415849Y657534D02*
X414183Y659200D01*
Y662532D01*
X415849Y664198D01*
X417515D01*
X419182Y662532D01*
Y660866D01*
Y662532D01*
X420848Y664198D01*
X422514D01*
X424180Y662532D01*
Y659200D01*
X422514Y657534D01*
X388925Y637540D02*
X387259Y639206D01*
Y642538D01*
X388925Y644204D01*
X390592D01*
X392258Y642538D01*
Y640872D01*
Y642538D01*
X393924Y644204D01*
X395590D01*
X397256Y642538D01*
Y639206D01*
X395590Y637540D01*
X387259Y647537D02*
X393924D01*
X397256Y650869D01*
X393924Y654201D01*
X387259D01*
X388925Y657534D02*
X387259Y659200D01*
Y662532D01*
X388925Y664198D01*
X390592D01*
X392258Y662532D01*
Y660866D01*
Y662532D01*
X393924Y664198D01*
X395590D01*
X397256Y662532D01*
Y659200D01*
X395590Y657534D01*
X372872Y637540D02*
X362875D01*
X372872Y644204D01*
X362875D01*
X372872Y647537D02*
X362875D01*
Y652535D01*
X364541Y654201D01*
X367874D01*
X369540Y652535D01*
Y647537D01*
Y650869D02*
X372872Y654201D01*
X364541Y664198D02*
X362875Y662532D01*
Y659200D01*
X364541Y657534D01*
X366208D01*
X367874Y659200D01*
Y662532D01*
X369540Y664198D01*
X371206D01*
X372872Y662532D01*
Y659200D01*
X371206Y657534D01*
X362875Y667530D02*
Y674195D01*
Y670863D01*
X372872D01*
X337871Y644204D02*
X336205Y642538D01*
Y639206D01*
X337871Y637540D01*
X339538D01*
X341204Y639206D01*
Y642538D01*
X342870Y644204D01*
X344536D01*
X346202Y642538D01*
Y639206D01*
X344536Y637540D01*
X336205Y647537D02*
X346202D01*
X342870Y650869D01*
X346202Y654201D01*
X336205D01*
Y657534D02*
X346202D01*
Y662532D01*
X344536Y664198D01*
X337871D01*
X336205Y662532D01*
Y657534D01*
Y667530D02*
Y670863D01*
Y669196D01*
X346202D01*
Y667530D01*
Y670863D01*
X336205Y680859D02*
Y677527D01*
X337871Y675861D01*
X344536D01*
X346202Y677527D01*
Y680859D01*
X344536Y682525D01*
X337871D01*
X336205Y680859D01*
X312217Y644204D02*
X310551Y642538D01*
Y639206D01*
X312217Y637540D01*
X313883D01*
X315550Y639206D01*
Y642538D01*
X317216Y644204D01*
X318882D01*
X320548Y642538D01*
Y639206D01*
X318882Y637540D01*
X310551Y647537D02*
X320548D01*
X317216Y650869D01*
X320548Y654201D01*
X310551D01*
X312217Y664198D02*
X310551Y662532D01*
Y659200D01*
X312217Y657534D01*
X318882D01*
X320548Y659200D01*
Y662532D01*
X318882Y664198D01*
X310551Y667530D02*
X320548D01*
Y674195D01*
X310551Y677527D02*
X320548D01*
X317216D01*
X310551Y684192D01*
X315550Y679193D01*
X320548Y684192D01*
X1082697Y628138D02*
X1080157Y630677D01*
X1075079D01*
X1072540Y628138D01*
Y625599D01*
X1075079Y623060D01*
X1080157D01*
X1082697Y620520D01*
Y617981D01*
X1080157Y615442D01*
X1075079D01*
X1072540Y617981D01*
X1097932Y628138D02*
X1095393Y630677D01*
X1090314D01*
X1087775Y628138D01*
Y617981D01*
X1090314Y615442D01*
X1095393D01*
X1097932Y617981D01*
X1103010Y630677D02*
Y615442D01*
X1113167D01*
X1082697Y602230D02*
X1080157Y604769D01*
X1075079D01*
X1072540Y602230D01*
Y599691D01*
X1075079Y597151D01*
X1080157D01*
X1082697Y594612D01*
Y592073D01*
X1080157Y589534D01*
X1075079D01*
X1072540Y592073D01*
X1087775Y604769D02*
Y589534D01*
X1095393D01*
X1097932Y592073D01*
Y602230D01*
X1095393Y604769D01*
X1087775D01*
X1103010Y589534D02*
Y599691D01*
X1108089Y604769D01*
X1113167Y599691D01*
Y589534D01*
Y597151D01*
X1103010D01*
X1082697Y559812D02*
X1080157Y562351D01*
X1075079D01*
X1072540Y559812D01*
Y549655D01*
X1075079Y547116D01*
X1080157D01*
X1082697Y549655D01*
Y554734D01*
X1077618D01*
X1087775Y547116D02*
Y562351D01*
X1097932Y547116D01*
Y562351D01*
X1103010D02*
Y547116D01*
X1110628D01*
X1113167Y549655D01*
Y559812D01*
X1110628Y562351D01*
X1103010D01*
X1072540Y531872D02*
X1075079Y534411D01*
X1080157D01*
X1082697Y531872D01*
Y529333D01*
X1080157Y526794D01*
X1077618D01*
X1080157D01*
X1082697Y524254D01*
Y521715D01*
X1080157Y519176D01*
X1075079D01*
X1072540Y521715D01*
X1087775Y534411D02*
Y524254D01*
X1092853Y519176D01*
X1097932Y524254D01*
Y534411D01*
X1103010Y531872D02*
X1105549Y534411D01*
X1110628D01*
X1113167Y531872D01*
Y529333D01*
X1110628Y526794D01*
X1108089D01*
X1110628D01*
X1113167Y524254D01*
Y521715D01*
X1110628Y519176D01*
X1105549D01*
X1103010Y521715D01*
X1072540Y147061D02*
X1082697D01*
X1077618D01*
Y131826D01*
X1097932Y147061D02*
X1087775D01*
Y131826D01*
X1097932D01*
X1087775Y139444D02*
X1092853D01*
X1113167Y144522D02*
X1110628Y147061D01*
X1105549D01*
X1103010Y144522D01*
Y134365D01*
X1105549Y131826D01*
X1110628D01*
X1113167Y134365D01*
X1133480Y139444D02*
X1143637D01*
X1138559Y144522D02*
Y134365D01*
X1072540Y116835D02*
X1082697D01*
X1077618D01*
Y101600D01*
X1097932Y116835D02*
X1087775D01*
Y101600D01*
X1097932D01*
X1087775Y109218D02*
X1092853D01*
X1113167Y114296D02*
X1110628Y116835D01*
X1105549D01*
X1103010Y114296D01*
Y104139D01*
X1105549Y101600D01*
X1110628D01*
X1113167Y104139D01*
X1133480Y109218D02*
X1143637D01*
X867238Y92708D02*
Y77473D01*
X877395D01*
X892630D02*
X882473D01*
X892630Y87629D01*
Y90168D01*
X890091Y92708D01*
X885012D01*
X882473Y90168D01*
X871222Y207770D02*
X868683Y210310D01*
X863605D01*
X861065Y207770D01*
Y197614D01*
X863605Y195075D01*
X868683D01*
X871222Y197614D01*
X876300Y195075D02*
X881379D01*
X878840D01*
Y210310D01*
X876300Y207770D01*
X888996Y195075D02*
X894075D01*
X891535D01*
Y210310D01*
X888996Y207770D01*
X438541Y492593D02*
Y479748D01*
X441110Y477178D01*
X446249D01*
X448818Y479748D01*
Y492593D01*
X453956Y477178D02*
X459095D01*
X456525D01*
Y492593D01*
X453956Y490024D01*
X340872Y201420D02*
Y186185D01*
X351029D01*
X356107Y198880D02*
X358646Y201420D01*
X363725D01*
X366264Y198880D01*
Y196341D01*
X363725Y193802D01*
X361185D01*
X363725D01*
X366264Y191263D01*
Y188724D01*
X363725Y186185D01*
X358646D01*
X356107Y188724D01*
X1020827Y663446D02*
X1015749D01*
X1018288D01*
Y650750D01*
X1015749Y648211D01*
X1013209D01*
X1010670Y650750D01*
X1036062Y663446D02*
X1030984Y660906D01*
X1025905Y655828D01*
Y650750D01*
X1028444Y648211D01*
X1033523D01*
X1036062Y650750D01*
Y653289D01*
X1033523Y655828D01*
X1025905D01*
X186080Y471511D02*
X180942D01*
X183511D01*
Y458666D01*
X180942Y456096D01*
X178372D01*
X175803Y458666D01*
X191218Y456096D02*
X196357D01*
X193787D01*
Y471511D01*
X191218Y468942D01*
X204064D02*
X206633Y471511D01*
X211772D01*
X214341Y468942D01*
Y458666D01*
X211772Y456096D01*
X206633D01*
X204064Y458666D01*
Y468942D01*
X937143Y515932D02*
X934574Y518502D01*
X929436D01*
X926867Y515932D01*
Y513363D01*
X929436Y510794D01*
X934574D01*
X937143Y508225D01*
Y505656D01*
X934574Y503087D01*
X929436D01*
X926867Y505656D01*
X942282Y518502D02*
Y503087D01*
X947420Y508225D01*
X952558Y503087D01*
Y518502D01*
X967973Y503087D02*
X957697D01*
X967973Y513363D01*
Y515932D01*
X965404Y518502D01*
X960266D01*
X957697Y515932D01*
X619418Y82354D02*
X616849Y84923D01*
X611711D01*
X609142Y82354D01*
Y79785D01*
X611711Y77216D01*
X616849D01*
X619418Y74647D01*
Y72078D01*
X616849Y69509D01*
X611711D01*
X609142Y72078D01*
X624557Y84923D02*
Y69509D01*
X629695Y74647D01*
X634833Y69509D01*
Y84923D01*
X639972Y69509D02*
X645110D01*
X642541D01*
Y84923D01*
X639972Y82354D01*
X939175Y176364D02*
Y160949D01*
X949452D01*
X954590D02*
X959729D01*
X957160D01*
Y176364D01*
X954590Y173794D01*
X1020797Y296252D02*
X1015658D01*
X1018228D01*
Y283406D01*
X1015658Y280837D01*
X1013089D01*
X1010520Y283406D01*
X1025935Y296252D02*
X1036212D01*
Y293682D01*
X1025935Y283406D01*
Y280837D01*
X915133Y51904D02*
X909995D01*
X912564D01*
Y39058D01*
X909995Y36488D01*
X907425D01*
X904856Y39058D01*
X930548Y51904D02*
X920271D01*
Y44196D01*
X925409Y46765D01*
X927979D01*
X930548Y44196D01*
Y39058D01*
X927979Y36488D01*
X922840D01*
X920271Y39058D01*
X989809Y221322D02*
X984670D01*
X987240D01*
Y208476D01*
X984670Y205907D01*
X982101D01*
X979532Y208476D01*
X1005224Y205907D02*
X994947D01*
X1005224Y216183D01*
Y218752D01*
X1002655Y221322D01*
X997516D01*
X994947Y218752D01*
X1015463Y175602D02*
X1010324D01*
X1012894D01*
Y162756D01*
X1010324Y160187D01*
X1007755D01*
X1005186Y162756D01*
X1020601Y173032D02*
X1023170Y175602D01*
X1028309D01*
X1030878Y173032D01*
Y170463D01*
X1028309Y167894D01*
X1025740D01*
X1028309D01*
X1030878Y165325D01*
Y162756D01*
X1028309Y160187D01*
X1023170D01*
X1020601Y162756D01*
X379955Y593177D02*
X374817D01*
X377386D01*
Y580332D01*
X374817Y577762D01*
X372247D01*
X369678Y580332D01*
X385093Y590608D02*
X387662Y593177D01*
X392801D01*
X395370Y590608D01*
Y588039D01*
X392801Y585470D01*
X395370Y582901D01*
Y580332D01*
X392801Y577762D01*
X387662D01*
X385093Y580332D01*
Y582901D01*
X387662Y585470D01*
X385093Y588039D01*
Y590608D01*
X387662Y585470D02*
X392801D01*
X1015971Y494879D02*
X1010833D01*
X1013402D01*
Y482034D01*
X1010833Y479464D01*
X1008263D01*
X1005694Y482034D01*
X1028817Y479464D02*
Y494879D01*
X1021109Y487172D01*
X1031386D01*
X51308Y610449D02*
X46170D01*
X48739D01*
Y597604D01*
X46170Y595034D01*
X43601D01*
X41031Y597604D01*
X56446Y595034D02*
X61585D01*
X59015D01*
Y610449D01*
X56446Y607880D01*
X67281Y310222D02*
X62143D01*
X64712D01*
Y297376D01*
X62143Y294806D01*
X59573D01*
X57004Y297376D01*
X72419D02*
X74988Y294806D01*
X80127D01*
X82696Y297376D01*
Y307652D01*
X80127Y310222D01*
X74988D01*
X72419Y307652D01*
Y305083D01*
X74988Y302514D01*
X82696D01*
D14*
X500380Y570738D02*
X953516D01*
X500380Y697738D02*
X953516D01*
Y570738D02*
Y697738D01*
X500380Y570738D02*
Y697738D01*
D15*
X1216813Y515325D02*
Y511160D01*
X1217646Y510327D01*
X1219312D01*
X1220145Y511160D01*
Y515325D01*
X1225143D02*
X1223477Y514492D01*
X1221811Y512826D01*
Y511160D01*
X1222644Y510327D01*
X1224310D01*
X1225143Y511160D01*
Y511993D01*
X1224310Y512826D01*
X1221811D01*
X1214797Y402096D02*
X1213964Y401263D01*
Y399597D01*
X1214797Y398764D01*
X1215630D01*
X1216463Y399597D01*
Y401263D01*
X1217296Y402096D01*
X1218129D01*
X1218962Y401263D01*
Y399597D01*
X1218129Y398764D01*
X1213964Y403762D02*
X1218962D01*
Y406261D01*
X1218129Y407095D01*
X1214797D01*
X1213964Y406261D01*
Y403762D01*
X1218962Y408761D02*
X1215630D01*
X1213964Y410427D01*
X1215630Y412093D01*
X1218962D01*
X1216463D01*
Y408761D01*
X1232323Y402096D02*
X1231490Y401263D01*
Y399597D01*
X1232323Y398764D01*
X1233156D01*
X1233989Y399597D01*
Y401263D01*
X1234822Y402096D01*
X1235655D01*
X1236488Y401263D01*
Y399597D01*
X1235655Y398764D01*
X1232323Y407095D02*
X1231490Y406261D01*
Y404595D01*
X1232323Y403762D01*
X1235655D01*
X1236488Y404595D01*
Y406261D01*
X1235655Y407095D01*
X1231490Y408761D02*
X1236488D01*
Y412093D01*
X1249341Y402096D02*
X1248508Y401263D01*
Y399597D01*
X1249341Y398764D01*
X1252673D01*
X1253506Y399597D01*
Y401263D01*
X1252673Y402096D01*
X1251007D01*
Y400430D01*
X1253506Y403762D02*
X1248508D01*
X1253506Y407095D01*
X1248508D01*
Y408761D02*
X1253506D01*
Y411260D01*
X1252673Y412093D01*
X1249341D01*
X1248508Y411260D01*
Y408761D01*
X1267375Y398764D02*
X1266542Y399597D01*
Y401263D01*
X1267375Y402096D01*
X1268208D01*
X1269041Y401263D01*
Y400430D01*
Y401263D01*
X1269874Y402096D01*
X1270707D01*
X1271540Y401263D01*
Y399597D01*
X1270707Y398764D01*
X1266542Y403762D02*
X1269874D01*
X1271540Y405429D01*
X1269874Y407095D01*
X1266542D01*
X1267375Y408761D02*
X1266542Y409594D01*
Y411260D01*
X1267375Y412093D01*
X1268208D01*
X1269041Y411260D01*
Y410427D01*
Y411260D01*
X1269874Y412093D01*
X1270707D01*
X1271540Y411260D01*
Y409594D01*
X1270707Y408761D01*
X1267375Y588248D02*
X1266542Y589081D01*
Y590747D01*
X1267375Y591580D01*
X1268208D01*
X1269041Y590747D01*
Y589914D01*
Y590747D01*
X1269874Y591580D01*
X1270707D01*
X1271540Y590747D01*
Y589081D01*
X1270707Y588248D01*
X1266542Y593246D02*
X1269874D01*
X1271540Y594912D01*
X1269874Y596579D01*
X1266542D01*
X1267375Y598245D02*
X1266542Y599078D01*
Y600744D01*
X1267375Y601577D01*
X1268208D01*
X1269041Y600744D01*
Y599911D01*
Y600744D01*
X1269874Y601577D01*
X1270707D01*
X1271540Y600744D01*
Y599078D01*
X1270707Y598245D01*
X1249341Y591580D02*
X1248508Y590747D01*
Y589081D01*
X1249341Y588248D01*
X1252673D01*
X1253506Y589081D01*
Y590747D01*
X1252673Y591580D01*
X1251007D01*
Y589914D01*
X1253506Y593246D02*
X1248508D01*
X1253506Y596579D01*
X1248508D01*
Y598245D02*
X1253506D01*
Y600744D01*
X1252673Y601577D01*
X1249341D01*
X1248508Y600744D01*
Y598245D01*
X1232323Y591580D02*
X1231490Y590747D01*
Y589081D01*
X1232323Y588248D01*
X1233156D01*
X1233989Y589081D01*
Y590747D01*
X1234822Y591580D01*
X1235655D01*
X1236488Y590747D01*
Y589081D01*
X1235655Y588248D01*
X1232323Y596579D02*
X1231490Y595746D01*
Y594079D01*
X1232323Y593246D01*
X1235655D01*
X1236488Y594079D01*
Y595746D01*
X1235655Y596579D01*
X1231490Y598245D02*
X1236488D01*
Y601577D01*
X1214797Y591580D02*
X1213964Y590747D01*
Y589081D01*
X1214797Y588248D01*
X1215630D01*
X1216463Y589081D01*
Y590747D01*
X1217296Y591580D01*
X1218129D01*
X1218962Y590747D01*
Y589081D01*
X1218129Y588248D01*
X1213964Y593246D02*
X1218962D01*
Y595746D01*
X1218129Y596579D01*
X1214797D01*
X1213964Y595746D01*
Y593246D01*
X1218962Y598245D02*
X1215630D01*
X1213964Y599911D01*
X1215630Y601577D01*
X1218962D01*
X1216463D01*
Y598245D01*
X1220440Y538876D02*
X1219607Y539709D01*
X1217941D01*
X1217107Y538876D01*
Y535544D01*
X1217941Y534711D01*
X1219607D01*
X1220440Y535544D01*
X1225438Y534711D02*
X1222106D01*
X1225438Y538043D01*
Y538876D01*
X1224605Y539709D01*
X1222939D01*
X1222106Y538876D01*
X1227104Y539709D02*
X1230436D01*
Y538876D01*
X1227104Y535544D01*
Y534711D01*
X1208126Y458765D02*
Y463763D01*
X1210625D01*
X1211458Y462930D01*
Y461264D01*
X1210625Y460431D01*
X1208126D01*
X1209792D02*
X1211458Y458765D01*
X1213124D02*
X1214790D01*
X1213958D01*
Y463763D01*
X1213124Y462930D01*
X1217290Y459598D02*
X1218123Y458765D01*
X1219789D01*
X1220622Y459598D01*
Y462930D01*
X1219789Y463763D01*
X1218123D01*
X1217290Y462930D01*
Y462097D01*
X1218123Y461264D01*
X1220622D01*
X141631Y612943D02*
Y617941D01*
X144130D01*
X144963Y617108D01*
Y615442D01*
X144130Y614609D01*
X141631D01*
X143297D02*
X144963Y612943D01*
X149961D02*
X146629D01*
X149961Y616275D01*
Y617108D01*
X149128Y617941D01*
X147462D01*
X146629Y617108D01*
X507086Y232959D02*
Y237957D01*
X509585D01*
X510418Y237124D01*
Y235458D01*
X509585Y234625D01*
X507086D01*
X508752D02*
X510418Y232959D01*
X512084D02*
X513750D01*
X512918D01*
Y237957D01*
X512084Y237124D01*
X519582Y237957D02*
X517916Y237124D01*
X516250Y235458D01*
Y233792D01*
X517083Y232959D01*
X518749D01*
X519582Y233792D01*
Y234625D01*
X518749Y235458D01*
X516250D01*
X810900Y211470D02*
X810067Y212303D01*
X808401D01*
X807568Y211470D01*
Y208138D01*
X808401Y207305D01*
X810067D01*
X810900Y208138D01*
X812566Y207305D02*
X814232D01*
X813400D01*
Y212303D01*
X812566Y211470D01*
X819231Y207305D02*
Y212303D01*
X816732Y209804D01*
X820064D01*
X810689Y131085D02*
Y126920D01*
X811522Y126087D01*
X813188D01*
X814021Y126920D01*
Y131085D01*
X819019Y126087D02*
X815687D01*
X819019Y129419D01*
Y130252D01*
X818186Y131085D01*
X816520D01*
X815687Y130252D01*
X418775Y287416D02*
X417942Y288249D01*
X416276D01*
X415443Y287416D01*
Y284084D01*
X416276Y283251D01*
X417942D01*
X418775Y284084D01*
X423773Y283251D02*
X420441D01*
X423773Y286583D01*
Y287416D01*
X422940Y288249D01*
X421274D01*
X420441Y287416D01*
X447772Y302473D02*
Y301640D01*
X449438Y299974D01*
X451104Y301640D01*
Y302473D01*
X449438Y299974D02*
Y297475D01*
X452770D02*
X454436D01*
X453603D01*
Y302473D01*
X452770Y301640D01*
X472877Y353202D02*
X472044Y354035D01*
X470378D01*
X469545Y353202D01*
Y349870D01*
X470378Y349037D01*
X472044D01*
X472877Y349870D01*
X474543Y353202D02*
X475376Y354035D01*
X477042D01*
X477875Y353202D01*
Y352369D01*
X477042Y351536D01*
X476209D01*
X477042D01*
X477875Y350703D01*
Y349870D01*
X477042Y349037D01*
X475376D01*
X474543Y349870D01*
X398455Y342280D02*
X397622Y343113D01*
X395956D01*
X395123Y342280D01*
Y338948D01*
X395956Y338115D01*
X397622D01*
X398455Y338948D01*
X402620Y338115D02*
Y343113D01*
X400121Y340614D01*
X403453D01*
X434564Y76088D02*
X433731Y76921D01*
X432065D01*
X431231Y76088D01*
Y72756D01*
X432065Y71923D01*
X433731D01*
X434564Y72756D01*
X439562Y71923D02*
X436230D01*
X439562Y75255D01*
Y76088D01*
X438729Y76921D01*
X437063D01*
X436230Y76088D01*
X443727Y71923D02*
Y76921D01*
X441228Y74422D01*
X444561D01*
X788599Y172100D02*
X787766Y172933D01*
X786100D01*
X785267Y172100D01*
Y168768D01*
X786100Y167935D01*
X787766D01*
X788599Y168768D01*
X790265D02*
X791098Y167935D01*
X792764D01*
X793597Y168768D01*
Y172100D01*
X792764Y172933D01*
X791098D01*
X790265Y172100D01*
Y171267D01*
X791098Y170434D01*
X793597D01*
X808868Y49164D02*
X808035Y49997D01*
X806369D01*
X805536Y49164D01*
Y45832D01*
X806369Y44999D01*
X808035D01*
X808868Y45832D01*
X810534Y44999D02*
X812200D01*
X811367D01*
Y49997D01*
X810534Y49164D01*
X814700D02*
X815533Y49997D01*
X817199D01*
X818032Y49164D01*
Y45832D01*
X817199Y44999D01*
X815533D01*
X814700Y45832D01*
Y49164D01*
X109627Y538521D02*
Y543519D01*
X112126D01*
X112959Y542686D01*
Y541020D01*
X112126Y540187D01*
X109627D01*
X111293D02*
X112959Y538521D01*
X114625Y542686D02*
X115458Y543519D01*
X117124D01*
X117957Y542686D01*
Y541853D01*
X117124Y541020D01*
X116291D01*
X117124D01*
X117957Y540187D01*
Y539354D01*
X117124Y538521D01*
X115458D01*
X114625Y539354D01*
X172873Y526247D02*
Y521249D01*
X175372D01*
X176205Y522082D01*
Y525414D01*
X175372Y526247D01*
X172873D01*
X181203Y521249D02*
X177871D01*
X181203Y524581D01*
Y525414D01*
X180370Y526247D01*
X178704D01*
X177871Y525414D01*
X59843Y454193D02*
Y459191D01*
X62342D01*
X63175Y458358D01*
Y456692D01*
X62342Y455859D01*
X59843D01*
X61509D02*
X63175Y454193D01*
X67340D02*
Y459191D01*
X64841Y456692D01*
X68173D01*
X110714Y600243D02*
Y605241D01*
X113213D01*
X114046Y604408D01*
Y602742D01*
X113213Y601909D01*
X110714D01*
X112380D02*
X114046Y600243D01*
X115712D02*
X117378D01*
X116545D01*
Y605241D01*
X115712Y604408D01*
X885292Y335067D02*
Y340065D01*
X887791D01*
X888624Y339232D01*
Y337566D01*
X887791Y336733D01*
X885292D01*
X886958D02*
X888624Y335067D01*
X890290D02*
X891956D01*
X891124D01*
Y340065D01*
X890290Y339232D01*
X897788Y335067D02*
X894456D01*
X897788Y338399D01*
Y339232D01*
X896955Y340065D01*
X895289D01*
X894456Y339232D01*
X889935Y439207D02*
Y444205D01*
X892434D01*
X893267Y443372D01*
Y441706D01*
X892434Y440873D01*
X889935D01*
X891601D02*
X893267Y439207D01*
X894933D02*
X896600D01*
X895767D01*
Y444205D01*
X894933Y443372D01*
X899099Y439207D02*
X900765D01*
X899932D01*
Y444205D01*
X899099Y443372D01*
X238913Y146263D02*
Y142098D01*
X239746Y141265D01*
X241412D01*
X242245Y142098D01*
Y146263D01*
X243911Y145430D02*
X244744Y146263D01*
X246410D01*
X247243Y145430D01*
Y144597D01*
X246410Y143764D01*
X245577D01*
X246410D01*
X247243Y142931D01*
Y142098D01*
X246410Y141265D01*
X244744D01*
X243911Y142098D01*
X254102Y197653D02*
Y202651D01*
X256601D01*
X257434Y201818D01*
Y200152D01*
X256601Y199319D01*
X254102D01*
X255768D02*
X257434Y197653D01*
X259100D02*
X260767D01*
X259933D01*
Y202651D01*
X259100Y201818D01*
X265765Y197653D02*
Y202651D01*
X263266Y200152D01*
X266598D01*
X307188Y191811D02*
Y196809D01*
X309687D01*
X310520Y195976D01*
Y194310D01*
X309687Y193477D01*
X307188D01*
X308854D02*
X310520Y191811D01*
X312186D02*
X313853D01*
X313020D01*
Y196809D01*
X312186Y195976D01*
X316352D02*
X317185Y196809D01*
X318851D01*
X319684Y195976D01*
Y195143D01*
X318851Y194310D01*
X318018D01*
X318851D01*
X319684Y193477D01*
Y192644D01*
X318851Y191811D01*
X317185D01*
X316352Y192644D01*
X292832Y155590D02*
X291999Y156423D01*
X290333D01*
X289499Y155590D01*
Y152258D01*
X290333Y151425D01*
X291999D01*
X292832Y152258D01*
X297830Y151425D02*
X294498D01*
X297830Y154757D01*
Y155590D01*
X296997Y156423D01*
X295331D01*
X294498Y155590D01*
X302829Y151425D02*
X299496D01*
X302829Y154757D01*
Y155590D01*
X301995Y156423D01*
X300329D01*
X299496Y155590D01*
X296205Y105044D02*
X295372Y105877D01*
X293706D01*
X292873Y105044D01*
Y101712D01*
X293706Y100879D01*
X295372D01*
X296205Y101712D01*
X301203Y100879D02*
X297871D01*
X301203Y104211D01*
Y105044D01*
X300370Y105877D01*
X298704D01*
X297871Y105044D01*
X302869Y100879D02*
X304535D01*
X303702D01*
Y105877D01*
X302869Y105044D01*
X256510Y81168D02*
X255677Y82001D01*
X254011D01*
X253178Y81168D01*
Y77836D01*
X254011Y77003D01*
X255677D01*
X256510Y77836D01*
X261508Y77003D02*
X258176D01*
X261508Y80335D01*
Y81168D01*
X260675Y82001D01*
X259009D01*
X258176Y81168D01*
X263174D02*
X264007Y82001D01*
X265673D01*
X266507Y81168D01*
Y77836D01*
X265673Y77003D01*
X264007D01*
X263174Y77836D01*
Y81168D01*
X845414Y365039D02*
Y370037D01*
X847913D01*
X848746Y369204D01*
Y367538D01*
X847913Y366705D01*
X845414D01*
X847080D02*
X848746Y365039D01*
X850412D02*
X852078D01*
X851245D01*
Y370037D01*
X850412Y369204D01*
X854578D02*
X855411Y370037D01*
X857077D01*
X857910Y369204D01*
Y365872D01*
X857077Y365039D01*
X855411D01*
X854578Y365872D01*
Y369204D01*
X825399Y436667D02*
Y441665D01*
X827898D01*
X828731Y440832D01*
Y439166D01*
X827898Y438333D01*
X825399D01*
X827065D02*
X828731Y436667D01*
X830397Y437500D02*
X831230Y436667D01*
X832896D01*
X833729Y437500D01*
Y440832D01*
X832896Y441665D01*
X831230D01*
X830397Y440832D01*
Y439999D01*
X831230Y439166D01*
X833729D01*
X413411Y561889D02*
Y566887D01*
X415910D01*
X416743Y566054D01*
Y564388D01*
X415910Y563555D01*
X413411D01*
X415077D02*
X416743Y561889D01*
X421741Y566887D02*
X418409D01*
Y564388D01*
X420075Y565221D01*
X420908D01*
X421741Y564388D01*
Y562722D01*
X420908Y561889D01*
X419242D01*
X418409Y562722D01*
X460980Y557997D02*
Y552999D01*
X463479D01*
X464312Y553832D01*
Y557164D01*
X463479Y557997D01*
X460980D01*
X465978Y552999D02*
X467644D01*
X466811D01*
Y557997D01*
X465978Y557164D01*
X859160Y441848D02*
X858327Y442681D01*
X856661D01*
X855828Y441848D01*
Y438516D01*
X856661Y437683D01*
X858327D01*
X859160Y438516D01*
X860826Y437683D02*
X862493D01*
X861659D01*
Y442681D01*
X860826Y441848D01*
X864992Y438516D02*
X865825Y437683D01*
X867491D01*
X868324Y438516D01*
Y441848D01*
X867491Y442681D01*
X865825D01*
X864992Y441848D01*
Y441015D01*
X865825Y440182D01*
X868324D01*
X869574Y296560D02*
X868741Y297393D01*
X867075D01*
X866242Y296560D01*
Y293228D01*
X867075Y292395D01*
X868741D01*
X869574Y293228D01*
X871240Y292395D02*
X872906D01*
X872074D01*
Y297393D01*
X871240Y296560D01*
X875406D02*
X876239Y297393D01*
X877905D01*
X878738Y296560D01*
Y295727D01*
X877905Y294894D01*
X878738Y294061D01*
Y293228D01*
X877905Y292395D01*
X876239D01*
X875406Y293228D01*
Y294061D01*
X876239Y294894D01*
X875406Y295727D01*
Y296560D01*
X876239Y294894D02*
X877905D01*
X727609Y71923D02*
Y76921D01*
X730108D01*
X730941Y76088D01*
Y74422D01*
X730108Y73589D01*
X727609D01*
X729275D02*
X730941Y71923D01*
X732607Y76088D02*
X733440Y76921D01*
X735106D01*
X735939Y76088D01*
Y75255D01*
X735106Y74422D01*
X735939Y73589D01*
Y72756D01*
X735106Y71923D01*
X733440D01*
X732607Y72756D01*
Y73589D01*
X733440Y74422D01*
X732607Y75255D01*
Y76088D01*
X733440Y74422D02*
X735106D01*
X703479Y112309D02*
Y117307D01*
X705978D01*
X706811Y116474D01*
Y114808D01*
X705978Y113975D01*
X703479D01*
X705145D02*
X706811Y112309D01*
X708477Y117307D02*
X711809D01*
Y116474D01*
X708477Y113142D01*
Y112309D01*
X764418Y74163D02*
X763585Y74996D01*
X761919D01*
X761086Y74163D01*
Y70831D01*
X761919Y69998D01*
X763585D01*
X764418Y70831D01*
X766084Y69998D02*
X767750D01*
X766917D01*
Y74996D01*
X766084Y74163D01*
X770250Y74996D02*
X773582D01*
Y74163D01*
X770250Y70831D01*
Y69998D01*
X703458Y141874D02*
X702625Y142707D01*
X700959D01*
X700126Y141874D01*
Y138542D01*
X700959Y137709D01*
X702625D01*
X703458Y138542D01*
X705124Y137709D02*
X706790D01*
X705957D01*
Y142707D01*
X705124Y141874D01*
X712622Y142707D02*
X710956Y141874D01*
X709290Y140208D01*
Y138542D01*
X710123Y137709D01*
X711789D01*
X712622Y138542D01*
Y139375D01*
X711789Y140208D01*
X709290D01*
X744302Y184038D02*
X743469Y184871D01*
X741803D01*
X740970Y184038D01*
Y180706D01*
X741803Y179873D01*
X743469D01*
X744302Y180706D01*
X745968Y179873D02*
X747635D01*
X746802D01*
Y184871D01*
X745968Y184038D01*
X753466Y184871D02*
X750134D01*
Y182372D01*
X751800Y183205D01*
X752633D01*
X753466Y182372D01*
Y180706D01*
X752633Y179873D01*
X750967D01*
X750134Y180706D01*
X805312Y101234D02*
X804479Y102067D01*
X802813D01*
X801980Y101234D01*
Y97902D01*
X802813Y97069D01*
X804479D01*
X805312Y97902D01*
X806978Y97069D02*
X808644D01*
X807812D01*
Y102067D01*
X806978Y101234D01*
X811144D02*
X811977Y102067D01*
X813643D01*
X814476Y101234D01*
Y100401D01*
X813643Y99568D01*
X812810D01*
X813643D01*
X814476Y98735D01*
Y97902D01*
X813643Y97069D01*
X811977D01*
X811144Y97902D01*
X832744Y89550D02*
X831911Y90383D01*
X830245D01*
X829412Y89550D01*
Y86218D01*
X830245Y85385D01*
X831911D01*
X832744Y86218D01*
X834410Y85385D02*
X836077D01*
X835244D01*
Y90383D01*
X834410Y89550D01*
X841908Y85385D02*
X838576D01*
X841908Y88717D01*
Y89550D01*
X841075Y90383D01*
X839409D01*
X838576Y89550D01*
X857433Y161940D02*
X856600Y162773D01*
X854934D01*
X854101Y161940D01*
Y158608D01*
X854934Y157775D01*
X856600D01*
X857433Y158608D01*
X859099Y161940D02*
X859932Y162773D01*
X861598D01*
X862431Y161940D01*
Y161107D01*
X861598Y160274D01*
X862431Y159441D01*
Y158608D01*
X861598Y157775D01*
X859932D01*
X859099Y158608D01*
Y159441D01*
X859932Y160274D01*
X859099Y161107D01*
Y161940D01*
X859932Y160274D02*
X861598D01*
X415189Y129499D02*
Y125334D01*
X416022Y124501D01*
X417688D01*
X418521Y125334D01*
Y129499D01*
X423519D02*
X420187D01*
Y127000D01*
X421853Y127833D01*
X422686D01*
X423519Y127000D01*
Y125334D01*
X422686Y124501D01*
X421020D01*
X420187Y125334D01*
X432156Y191557D02*
Y196555D01*
X434655D01*
X435488Y195722D01*
Y194056D01*
X434655Y193223D01*
X432156D01*
X433822D02*
X435488Y191557D01*
X437154D02*
X438820D01*
X437988D01*
Y196555D01*
X437154Y195722D01*
X441320D02*
X442153Y196555D01*
X443819D01*
X444652Y195722D01*
Y194889D01*
X443819Y194056D01*
X444652Y193223D01*
Y192390D01*
X443819Y191557D01*
X442153D01*
X441320Y192390D01*
Y193223D01*
X442153Y194056D01*
X441320Y194889D01*
Y195722D01*
X442153Y194056D02*
X443819D01*
X460096Y200447D02*
Y205445D01*
X462595D01*
X463428Y204612D01*
Y202946D01*
X462595Y202113D01*
X460096D01*
X461762D02*
X463428Y200447D01*
X465094D02*
X466760D01*
X465928D01*
Y205445D01*
X465094Y204612D01*
X469260Y205445D02*
X472592D01*
Y204612D01*
X469260Y201280D01*
Y200447D01*
X471648Y150256D02*
X470815Y151089D01*
X469149D01*
X468316Y150256D01*
Y146924D01*
X469149Y146091D01*
X470815D01*
X471648Y146924D01*
X476646Y146091D02*
X473314D01*
X476646Y149423D01*
Y150256D01*
X475813Y151089D01*
X474147D01*
X473314Y150256D01*
X481645Y151089D02*
X479978Y150256D01*
X478312Y148590D01*
Y146924D01*
X479145Y146091D01*
X480811D01*
X481645Y146924D01*
Y147757D01*
X480811Y148590D01*
X478312D01*
X471648Y141620D02*
X470815Y142453D01*
X469149D01*
X468316Y141620D01*
Y138288D01*
X469149Y137455D01*
X470815D01*
X471648Y138288D01*
X476646Y137455D02*
X473314D01*
X476646Y140787D01*
Y141620D01*
X475813Y142453D01*
X474147D01*
X473314Y141620D01*
X481645Y142453D02*
X478312D01*
Y139954D01*
X479978Y140787D01*
X480811D01*
X481645Y139954D01*
Y138288D01*
X480811Y137455D01*
X479145D01*
X478312Y138288D01*
X354753Y340756D02*
X353920Y341589D01*
X352254D01*
X351421Y340756D01*
Y337424D01*
X352254Y336591D01*
X353920D01*
X354753Y337424D01*
X356419Y336591D02*
X358086D01*
X357253D01*
Y341589D01*
X356419Y340756D01*
X647629Y194960D02*
X646796Y195793D01*
X645130D01*
X644297Y194960D01*
Y191628D01*
X645130Y190795D01*
X646796D01*
X647629Y191628D01*
X649295Y195793D02*
X652627D01*
Y194960D01*
X649295Y191628D01*
Y190795D01*
X332669Y341264D02*
X331836Y342097D01*
X330170D01*
X329337Y341264D01*
Y337932D01*
X330170Y337099D01*
X331836D01*
X332669Y337932D01*
X337667Y342097D02*
X336001Y341264D01*
X334335Y339598D01*
Y337932D01*
X335168Y337099D01*
X336834D01*
X337667Y337932D01*
Y338765D01*
X336834Y339598D01*
X334335D01*
X376442Y340756D02*
X375608Y341589D01*
X373942D01*
X373109Y340756D01*
Y337424D01*
X373942Y336591D01*
X375608D01*
X376442Y337424D01*
X381440Y341589D02*
X378108D01*
Y339090D01*
X379774Y339923D01*
X380607D01*
X381440Y339090D01*
Y337424D01*
X380607Y336591D01*
X378941D01*
X378108Y337424D01*
X605689Y240325D02*
Y245323D01*
X608188D01*
X609021Y244490D01*
Y242824D01*
X608188Y241991D01*
X605689D01*
X607355D02*
X609021Y240325D01*
X614019Y245323D02*
X612353Y244490D01*
X610687Y242824D01*
Y241158D01*
X611520Y240325D01*
X613186D01*
X614019Y241158D01*
Y241991D01*
X613186Y242824D01*
X610687D01*
X1210666Y650535D02*
Y655533D01*
X1213165D01*
X1213998Y654700D01*
Y653034D01*
X1213165Y652201D01*
X1210666D01*
X1212332D02*
X1213998Y650535D01*
X1215664D02*
X1217330D01*
X1216497D01*
Y655533D01*
X1215664Y654700D01*
X1223162Y655533D02*
X1219830D01*
Y653034D01*
X1221496Y653867D01*
X1222329D01*
X1223162Y653034D01*
Y651368D01*
X1222329Y650535D01*
X1220663D01*
X1219830Y651368D01*
X1220694Y727090D02*
X1219861Y727923D01*
X1218195D01*
X1217362Y727090D01*
Y723758D01*
X1218195Y722925D01*
X1219861D01*
X1220694Y723758D01*
X1225692Y722925D02*
X1222360D01*
X1225692Y726257D01*
Y727090D01*
X1224859Y727923D01*
X1223193D01*
X1222360Y727090D01*
X1227358D02*
X1228191Y727923D01*
X1229857D01*
X1230691Y727090D01*
Y726257D01*
X1229857Y725424D01*
X1229024D01*
X1229857D01*
X1230691Y724591D01*
Y723758D01*
X1229857Y722925D01*
X1228191D01*
X1227358Y723758D01*
D16*
X870838Y602355D02*
X871790Y601403D01*
X870838Y600451D01*
X869886Y601403D01*
Y602355D01*
X870838Y604259D01*
X871790Y605211D01*
X874647Y606164D01*
X878456D01*
X881312Y605211D01*
X882264Y604259D01*
X883216Y602355D01*
Y600451D01*
X882264Y598546D01*
X879408Y596642D01*
X874647Y594738D01*
X872742Y593785D01*
X870838Y591881D01*
X869886Y589025D01*
Y586168D01*
X878456Y606164D02*
X880360Y605211D01*
X881312Y604259D01*
X882264Y602355D01*
Y600451D01*
X881312Y598546D01*
X878456Y596642D01*
X874647Y594738D01*
X869886Y588072D02*
X870838Y589025D01*
X872742D01*
X877503Y587120D01*
X880360D01*
X882264Y588072D01*
X883216Y589025D01*
Y590929D01*
X872742Y589025D02*
X877503Y586168D01*
X881312D01*
X882264Y587120D01*
X883216Y589025D01*
X891881Y606164D02*
X889025Y605211D01*
X887120Y602355D01*
X886168Y597594D01*
Y594738D01*
X887120Y589977D01*
X889025Y587120D01*
X891881Y586168D01*
X893786D01*
X896642Y587120D01*
X898547Y589977D01*
X899499Y594738D01*
Y597594D01*
X898547Y602355D01*
X896642Y605211D01*
X893786Y606164D01*
X891881D01*
X889977Y605211D01*
X889025Y604259D01*
X888073Y602355D01*
X887120Y597594D01*
Y594738D01*
X888073Y589977D01*
X889025Y588072D01*
X889977Y587120D01*
X891881Y586168D01*
X893786D02*
X895690Y587120D01*
X896642Y588072D01*
X897594Y589977D01*
X898547Y594738D01*
Y597594D01*
X897594Y602355D01*
X896642Y604259D01*
X895690Y605211D01*
X893786Y606164D01*
X903403Y602355D02*
X904355Y601403D01*
X903403Y600451D01*
X902450Y601403D01*
Y602355D01*
X903403Y604259D01*
X904355Y605211D01*
X907211Y606164D01*
X911020D01*
X913877Y605211D01*
X914829Y604259D01*
X915781Y602355D01*
Y600451D01*
X914829Y598546D01*
X911972Y596642D01*
X907211Y594738D01*
X905307Y593785D01*
X903403Y591881D01*
X902450Y589025D01*
Y586168D01*
X911020Y606164D02*
X912924Y605211D01*
X913877Y604259D01*
X914829Y602355D01*
Y600451D01*
X913877Y598546D01*
X911020Y596642D01*
X907211Y594738D01*
X902450Y588072D02*
X903403Y589025D01*
X905307D01*
X910068Y587120D01*
X912924D01*
X914829Y588072D01*
X915781Y589025D01*
Y590929D01*
X905307Y589025D02*
X910068Y586168D01*
X913877D01*
X914829Y587120D01*
X915781Y589025D01*
X920637Y606164D02*
X918733Y596642D01*
X920637Y598546D01*
X923494Y599498D01*
X926350D01*
X929207Y598546D01*
X931111Y596642D01*
X932063Y593785D01*
Y591881D01*
X931111Y589025D01*
X929207Y587120D01*
X926350Y586168D01*
X923494D01*
X920637Y587120D01*
X919685Y588072D01*
X918733Y589977D01*
Y590929D01*
X919685Y591881D01*
X920637Y590929D01*
X919685Y589977D01*
X926350Y599498D02*
X928254Y598546D01*
X930159Y596642D01*
X931111Y593785D01*
Y591881D01*
X930159Y589025D01*
X928254Y587120D01*
X926350Y586168D01*
X920637Y606164D02*
X930159D01*
X920637Y605211D02*
X925398D01*
X930159Y606164D01*
X516333Y681521D02*
Y656526D01*
X517523Y681521D02*
Y656526D01*
X512762Y681521D02*
X527045D01*
X530615Y680330D01*
X531805Y679140D01*
X532996Y676760D01*
Y673189D01*
X531805Y670809D01*
X530615Y669618D01*
X527045Y668428D01*
X517523D01*
X527045Y681521D02*
X529425Y680330D01*
X530615Y679140D01*
X531805Y676760D01*
Y673189D01*
X530615Y670809D01*
X529425Y669618D01*
X527045Y668428D01*
X512762Y656526D02*
X521093D01*
X537519Y666048D02*
X551801D01*
Y668428D01*
X550611Y670809D01*
X549421Y671999D01*
X547040Y673189D01*
X543470D01*
X539899Y671999D01*
X537519Y669618D01*
X536328Y666048D01*
Y663667D01*
X537519Y660097D01*
X539899Y657716D01*
X543470Y656526D01*
X545850D01*
X549421Y657716D01*
X551801Y660097D01*
X550611Y666048D02*
Y669618D01*
X549421Y671999D01*
X543470Y673189D02*
X541089Y671999D01*
X538709Y669618D01*
X537519Y666048D01*
Y663667D01*
X538709Y660097D01*
X541089Y657716D01*
X543470Y656526D01*
X559181Y681521D02*
Y656526D01*
X560371Y681521D02*
Y656526D01*
X555610Y681521D02*
X560371D01*
X555610Y656526D02*
X563941D01*
X575606D02*
X574415Y657716D01*
X573225Y661287D01*
Y681521D01*
X572035D01*
Y661287D01*
X573225Y657716D01*
X575606Y656526D01*
X577986D01*
X580367Y657716D01*
X581557Y660097D01*
X568464Y673189D02*
X577986D01*
X589174Y681521D02*
X587984Y680330D01*
X589174Y679140D01*
X590364Y680330D01*
X589174Y681521D01*
Y673189D02*
Y656526D01*
X590364Y673189D02*
Y656526D01*
X585603Y673189D02*
X590364D01*
X585603Y656526D02*
X593935D01*
X599648Y666048D02*
X613931D01*
Y668428D01*
X612741Y670809D01*
X611550Y671999D01*
X609170Y673189D01*
X605599D01*
X602029Y671999D01*
X599648Y669618D01*
X598458Y666048D01*
Y663667D01*
X599648Y660097D01*
X602029Y657716D01*
X605599Y656526D01*
X607980D01*
X611550Y657716D01*
X613931Y660097D01*
X612741Y666048D02*
Y669618D01*
X611550Y671999D01*
X605599Y673189D02*
X603219Y671999D01*
X600838Y669618D01*
X599648Y666048D01*
Y663667D01*
X600838Y660097D01*
X603219Y657716D01*
X605599Y656526D01*
X621310Y673189D02*
Y656526D01*
X622500Y673189D02*
Y656526D01*
Y666048D02*
X623691Y669618D01*
X626071Y671999D01*
X628451Y673189D01*
X632022D01*
X633212Y671999D01*
Y670809D01*
X632022Y669618D01*
X630832Y670809D01*
X632022Y671999D01*
X617739Y673189D02*
X622500D01*
X617739Y656526D02*
X626071D01*
X676179Y677950D02*
X677370Y674379D01*
Y681521D01*
X676179Y677950D01*
X673799Y680330D01*
X670228Y681521D01*
X667848D01*
X664277Y680330D01*
X661897Y677950D01*
X660706Y675570D01*
X659516Y671999D01*
Y666048D01*
X660706Y662477D01*
X661897Y660097D01*
X664277Y657716D01*
X667848Y656526D01*
X670228D01*
X673799Y657716D01*
X676179Y660097D01*
X677370Y662477D01*
X667848Y681521D02*
X665467Y680330D01*
X663087Y677950D01*
X661897Y675570D01*
X660706Y671999D01*
Y666048D01*
X661897Y662477D01*
X663087Y660097D01*
X665467Y657716D01*
X667848Y656526D01*
X688082Y673189D02*
X684511Y671999D01*
X682130Y669618D01*
X680940Y666048D01*
Y663667D01*
X682130Y660097D01*
X684511Y657716D01*
X688082Y656526D01*
X690462D01*
X694033Y657716D01*
X696413Y660097D01*
X697603Y663667D01*
Y666048D01*
X696413Y669618D01*
X694033Y671999D01*
X690462Y673189D01*
X688082D01*
X685701Y671999D01*
X683321Y669618D01*
X682130Y666048D01*
Y663667D01*
X683321Y660097D01*
X685701Y657716D01*
X688082Y656526D01*
X690462D02*
X692842Y657716D01*
X695223Y660097D01*
X696413Y663667D01*
Y666048D01*
X695223Y669618D01*
X692842Y671999D01*
X690462Y673189D01*
X704864D02*
Y656526D01*
X706054Y673189D02*
Y656526D01*
Y669618D02*
X708434Y671999D01*
X712005Y673189D01*
X714385D01*
X717956Y671999D01*
X719146Y669618D01*
Y656526D01*
X714385Y673189D02*
X716766Y671999D01*
X717956Y669618D01*
Y656526D01*
X701293Y673189D02*
X706054D01*
X701293Y656526D02*
X709624D01*
X714385D02*
X722717D01*
X733072D02*
X731882Y657716D01*
X730691Y661287D01*
Y681521D01*
X729501D01*
Y661287D01*
X730691Y657716D01*
X733072Y656526D01*
X735452D01*
X737833Y657716D01*
X739023Y660097D01*
X725931Y673189D02*
X735452D01*
X746640D02*
Y656526D01*
X747831Y673189D02*
Y656526D01*
Y666048D02*
X749021Y669618D01*
X751401Y671999D01*
X753782Y673189D01*
X757352D01*
X758543Y671999D01*
Y670809D01*
X757352Y669618D01*
X756162Y670809D01*
X757352Y671999D01*
X743070Y673189D02*
X747831D01*
X743070Y656526D02*
X751401D01*
X769493Y673189D02*
X765922Y671999D01*
X763541Y669618D01*
X762351Y666048D01*
Y663667D01*
X763541Y660097D01*
X765922Y657716D01*
X769493Y656526D01*
X771873D01*
X775444Y657716D01*
X777824Y660097D01*
X779014Y663667D01*
Y666048D01*
X777824Y669618D01*
X775444Y671999D01*
X771873Y673189D01*
X769493D01*
X767112Y671999D01*
X764732Y669618D01*
X763541Y666048D01*
Y663667D01*
X764732Y660097D01*
X767112Y657716D01*
X769493Y656526D01*
X771873D02*
X774253Y657716D01*
X776634Y660097D01*
X777824Y663667D01*
Y666048D01*
X776634Y669618D01*
X774253Y671999D01*
X771873Y673189D01*
X786275Y681521D02*
Y656526D01*
X787465Y681521D02*
Y656526D01*
X782704Y681521D02*
X787465D01*
X782704Y656526D02*
X791036D01*
X799129Y681521D02*
Y656526D01*
X800319Y681521D02*
Y656526D01*
X795558Y681521D02*
X800319D01*
X795558Y656526D02*
X803890D01*
X809603Y666048D02*
X823886D01*
Y668428D01*
X822695Y670809D01*
X821505Y671999D01*
X819125Y673189D01*
X815554D01*
X811983Y671999D01*
X809603Y669618D01*
X808413Y666048D01*
Y663667D01*
X809603Y660097D01*
X811983Y657716D01*
X815554Y656526D01*
X817935D01*
X821505Y657716D01*
X823886Y660097D01*
X822695Y666048D02*
Y669618D01*
X821505Y671999D01*
X815554Y673189D02*
X813174Y671999D01*
X810793Y669618D01*
X809603Y666048D01*
Y663667D01*
X810793Y660097D01*
X813174Y657716D01*
X815554Y656526D01*
X831265Y673189D02*
Y656526D01*
X832455Y673189D02*
Y656526D01*
Y666048D02*
X833646Y669618D01*
X836026Y671999D01*
X838406Y673189D01*
X841977D01*
X843167Y671999D01*
Y670809D01*
X841977Y669618D01*
X840787Y670809D01*
X841977Y671999D01*
X827694Y673189D02*
X832455D01*
X827694Y656526D02*
X836026D01*
X871852Y681521D02*
X880183Y656526D01*
X873042Y681521D02*
X880183Y660097D01*
X888515Y681521D02*
X880183Y656526D01*
X869471Y681521D02*
X876612D01*
X883754D02*
X890895D01*
X895299Y676760D02*
X896489Y675570D01*
X895299Y674379D01*
X894109Y675570D01*
Y676760D01*
X895299Y679140D01*
X896489Y680330D01*
X900060Y681521D01*
X904821D01*
X908391Y680330D01*
X909582Y679140D01*
X910772Y676760D01*
Y674379D01*
X909582Y671999D01*
X906011Y669618D01*
X900060Y667238D01*
X897679Y666048D01*
X895299Y663667D01*
X894109Y660097D01*
Y656526D01*
X904821Y681521D02*
X907201Y680330D01*
X908391Y679140D01*
X909582Y676760D01*
Y674379D01*
X908391Y671999D01*
X904821Y669618D01*
X900060Y667238D01*
X894109Y658906D02*
X895299Y660097D01*
X897679D01*
X903631Y657716D01*
X907201D01*
X909582Y658906D01*
X910772Y660097D01*
Y662477D01*
X897679Y660097D02*
X903631Y656526D01*
X908391D01*
X909582Y657716D01*
X910772Y660097D01*
X915652Y658906D02*
X914462Y657716D01*
X915652Y656526D01*
X916842Y657716D01*
X915652Y658906D01*
X929101Y681521D02*
X925531Y680330D01*
X923150Y676760D01*
X921960Y670809D01*
Y667238D01*
X923150Y661287D01*
X925531Y657716D01*
X929101Y656526D01*
X931482D01*
X935052Y657716D01*
X937433Y661287D01*
X938623Y667238D01*
Y670809D01*
X937433Y676760D01*
X935052Y680330D01*
X931482Y681521D01*
X929101D01*
X926721Y680330D01*
X925531Y679140D01*
X924340Y676760D01*
X923150Y670809D01*
Y667238D01*
X924340Y661287D01*
X925531Y658906D01*
X926721Y657716D01*
X929101Y656526D01*
X931482D02*
X933862Y657716D01*
X935052Y658906D01*
X936243Y661287D01*
X937433Y667238D01*
Y670809D01*
X936243Y676760D01*
X935052Y679140D01*
X933862Y680330D01*
X931482Y681521D01*
X708659Y641023D02*
Y621027D01*
X709611Y641023D02*
Y621027D01*
Y631501D02*
X711515Y633405D01*
X713419Y634358D01*
X715324D01*
X718180Y633405D01*
X720085Y631501D01*
X721037Y628645D01*
Y626740D01*
X720085Y623884D01*
X718180Y621979D01*
X715324Y621027D01*
X713419D01*
X711515Y621979D01*
X709611Y623884D01*
X715324Y634358D02*
X717228Y633405D01*
X719133Y631501D01*
X720085Y628645D01*
Y626740D01*
X719133Y623884D01*
X717228Y621979D01*
X715324Y621027D01*
X705802Y641023D02*
X709611D01*
X725703Y634358D02*
X731416Y621027D01*
X726655Y634358D02*
X731416Y622932D01*
X737129Y634358D02*
X731416Y621027D01*
X729511Y617219D01*
X727607Y615314D01*
X725703Y614362D01*
X724750D01*
X723798Y615314D01*
X724750Y616266D01*
X725703Y615314D01*
X723798Y634358D02*
X729511D01*
X733320D02*
X739033D01*
X768360Y641023D02*
X761695Y621027D01*
X768360Y641023D02*
X775025Y621027D01*
X768360Y638166D02*
X774073Y621027D01*
X763599Y626740D02*
X772169D01*
X759790Y621027D02*
X765503D01*
X771217D02*
X776930D01*
X780453Y622932D02*
X779501Y621979D01*
X780453Y621027D01*
X781405Y621979D01*
X780453Y622932D01*
X806352Y641023D02*
Y621027D01*
X807304Y641023D02*
Y621027D01*
X819682Y641023D02*
X807304Y628645D01*
X812065Y632453D02*
X819682Y621027D01*
X811113Y632453D02*
X818730Y621027D01*
X803495Y641023D02*
X810161D01*
X815874D02*
X821587D01*
X803495Y621027D02*
X810161D01*
X815874D02*
X821587D01*
X826919Y634358D02*
Y621027D01*
X827871Y634358D02*
Y621027D01*
Y628645D02*
X828823Y631501D01*
X830728Y633405D01*
X832632Y634358D01*
X835489D01*
X836441Y633405D01*
Y632453D01*
X835489Y631501D01*
X834536Y632453D01*
X835489Y633405D01*
X824062Y634358D02*
X827871D01*
X824062Y621027D02*
X830728D01*
X845201Y634358D02*
X842344Y633405D01*
X840440Y631501D01*
X839488Y628645D01*
Y626740D01*
X840440Y623884D01*
X842344Y621979D01*
X845201Y621027D01*
X847105D01*
X849962Y621979D01*
X851866Y623884D01*
X852818Y626740D01*
Y628645D01*
X851866Y631501D01*
X849962Y633405D01*
X847105Y634358D01*
X845201D01*
X843296Y633405D01*
X841392Y631501D01*
X840440Y628645D01*
Y626740D01*
X841392Y623884D01*
X843296Y621979D01*
X845201Y621027D01*
X847105D02*
X849009Y621979D01*
X850914Y623884D01*
X851866Y626740D01*
Y628645D01*
X850914Y631501D01*
X849009Y633405D01*
X847105Y634358D01*
X858626D02*
Y621027D01*
X859579Y634358D02*
Y621027D01*
Y631501D02*
X861483Y633405D01*
X864340Y634358D01*
X866244D01*
X869100Y633405D01*
X870053Y631501D01*
Y621027D01*
X866244Y634358D02*
X868148Y633405D01*
X869100Y631501D01*
Y621027D01*
X870053Y631501D02*
X871957Y633405D01*
X874814Y634358D01*
X876718D01*
X879574Y633405D01*
X880527Y631501D01*
Y621027D01*
X876718Y634358D02*
X878622Y633405D01*
X879574Y631501D01*
Y621027D01*
X855770Y634358D02*
X859579D01*
X855770Y621027D02*
X862435D01*
X866244D02*
X872909D01*
X876718D02*
X883383D01*
X885859Y628645D02*
X897285D01*
Y630549D01*
X896333Y632453D01*
X895380Y633405D01*
X893476Y634358D01*
X890620D01*
X887763Y633405D01*
X885859Y631501D01*
X884907Y628645D01*
Y626740D01*
X885859Y623884D01*
X887763Y621979D01*
X890620Y621027D01*
X892524D01*
X895380Y621979D01*
X897285Y623884D01*
X896333Y628645D02*
Y631501D01*
X895380Y633405D01*
X890620Y634358D02*
X888715Y633405D01*
X886811Y631501D01*
X885859Y628645D01*
Y626740D01*
X886811Y623884D01*
X888715Y621979D01*
X890620Y621027D01*
X903188Y641023D02*
Y621027D01*
X904140Y641023D02*
Y621027D01*
X900332Y641023D02*
X904140D01*
X900332Y621027D02*
X906997D01*
X913472Y641023D02*
X912520Y640071D01*
X913472Y639119D01*
X914424Y640071D01*
X913472Y641023D01*
Y634358D02*
Y621027D01*
X914424Y634358D02*
Y621027D01*
X910615Y634358D02*
X914424D01*
X910615Y621027D02*
X917281D01*
X930421Y632453D02*
X931373Y634358D01*
Y630549D01*
X930421Y632453D01*
X929469Y633405D01*
X927564Y634358D01*
X923755D01*
X921851Y633405D01*
X920899Y632453D01*
Y630549D01*
X921851Y629597D01*
X923755Y628645D01*
X928516Y626740D01*
X930421Y625788D01*
X931373Y624836D01*
X920899Y631501D02*
X921851Y630549D01*
X923755Y629597D01*
X928516Y627692D01*
X930421Y626740D01*
X931373Y625788D01*
Y622932D01*
X930421Y621979D01*
X928516Y621027D01*
X924708D01*
X922803Y621979D01*
X921851Y622932D01*
X920899Y624836D01*
Y621027D01*
X921851Y622932D01*
M02*
