G04*
G04 #@! TF.GenerationSoftware,Altium Limited,Altium Designer,25.3.3 (18)*
G04*
G04 Layer_Color=8388736*
%FSLAX44Y44*%
%MOMM*%
G71*
G04*
G04 #@! TF.SameCoordinates,6D202E75-467B-4672-BE30-C010D47AD25D*
G04*
G04*
G04 #@! TF.FilePolarity,Positive*
G04*
G01*
G75*
%ADD11C,0.2000*%
%ADD15C,0.1000*%
D11*
X1233918Y467092D02*
Y497092D01*
X1263918D01*
Y467092D02*
Y497092D01*
X1233918Y467092D02*
X1263918D01*
X1256918Y533972D02*
Y541972D01*
X1240918D02*
X1256918D01*
X1240918Y533972D02*
Y541972D01*
Y533972D02*
X1256918D01*
X1209612Y476378D02*
X1217612D01*
Y492378D01*
X1209612D02*
X1217612D01*
X1209612Y476378D02*
Y492378D01*
X1234426Y656068D02*
Y686068D01*
X1264426D01*
Y656068D02*
Y686068D01*
X1234426Y656068D02*
X1264426D01*
X141796Y602106D02*
X149796D01*
X141796Y586106D02*
Y602106D01*
Y586106D02*
X149796D01*
Y602106D01*
X529654Y228220D02*
X537654D01*
Y244220D01*
X529654D02*
X537654D01*
X529654Y228220D02*
Y244220D01*
X843978Y151766D02*
Y167766D01*
X835978Y151766D02*
X843978D01*
X835978D02*
Y167766D01*
X843978D01*
X416116Y313562D02*
X424116D01*
X416116Y297562D02*
Y313562D01*
Y297562D02*
X424116D01*
Y313562D01*
X458088Y347282D02*
Y355282D01*
X442088D02*
X458088D01*
X442088Y347282D02*
Y355282D01*
Y347282D02*
X458088D01*
X395034Y368934D02*
X403034D01*
X395034Y352934D02*
Y368934D01*
Y352934D02*
X403034D01*
Y368934D01*
X459360Y191452D02*
X475360D01*
Y183452D02*
Y191452D01*
X459360Y183452D02*
X475360D01*
X459360D02*
Y191452D01*
X430404Y86424D02*
X446404D01*
X430404D02*
Y94424D01*
X446404D01*
Y86424D02*
Y94424D01*
X803530Y174688D02*
X819530D01*
Y166688D02*
Y174688D01*
X803530Y166688D02*
X819530D01*
X803530D02*
Y174688D01*
X408560Y544132D02*
X424560D01*
X408560D02*
Y552132D01*
X424560D01*
Y544132D02*
Y552132D01*
X459360Y160592D02*
X475360D01*
X459360D02*
Y168592D01*
X475360D01*
Y160592D02*
Y168592D01*
X480504Y111888D02*
Y127888D01*
X472504Y111888D02*
X480504D01*
X472504D02*
Y127888D01*
X480504D01*
X1241426Y722694D02*
X1257426D01*
X1241426D02*
Y730694D01*
X1257426D01*
Y722694D02*
Y730694D01*
X281814Y166180D02*
X297814D01*
X281814D02*
Y174180D01*
X297814D01*
Y166180D02*
Y174180D01*
X302704Y117984D02*
Y133984D01*
X294704Y117984D02*
X302704D01*
X294704D02*
Y133984D01*
X302704D01*
X252350Y92520D02*
X268350D01*
X252350D02*
Y100520D01*
X268350D01*
Y92520D02*
Y100520D01*
X866838Y410084D02*
Y426084D01*
X858838Y410084D02*
X866838D01*
X858838D02*
Y426084D01*
X866838D01*
X856170Y289434D02*
Y305434D01*
X848170Y289434D02*
X856170D01*
X848170D02*
Y305434D01*
X856170D01*
X771588Y84456D02*
Y100456D01*
X763588Y84456D02*
X771588D01*
X763588D02*
Y100456D01*
X771588D01*
X723774Y134938D02*
X739774D01*
X723774D02*
Y142938D01*
X739774D01*
Y134938D02*
Y142938D01*
X800990Y87820D02*
X816990D01*
Y79820D02*
Y87820D01*
X800990Y79820D02*
X816990D01*
X800990D02*
Y87820D01*
X828676Y108140D02*
X844676D01*
Y100140D02*
Y108140D01*
X828676Y100140D02*
X844676D01*
X828676D02*
Y108140D01*
X618872Y197548D02*
X634872D01*
Y189548D02*
Y197548D01*
X618872Y189548D02*
X634872D01*
X618872D02*
Y197548D01*
X337756Y352934D02*
Y368934D01*
X329756Y352934D02*
X337756D01*
X329756D02*
Y368934D01*
X337756D01*
X381275Y352934D02*
Y368934D01*
X373275Y352934D02*
X381275D01*
X373275D02*
Y368934D01*
X381275D01*
X359515Y352934D02*
Y368934D01*
X351515Y352934D02*
X359515D01*
X351515D02*
Y368934D01*
X359515D01*
X434404Y164720D02*
Y180720D01*
X442404D01*
Y164720D02*
Y180720D01*
X434404Y164720D02*
X442404D01*
X1213422Y666116D02*
Y682116D01*
X1221422D01*
Y666116D02*
Y682116D01*
X1213422Y666116D02*
X1221422D01*
X256096Y170816D02*
Y186816D01*
X264096D01*
Y170816D02*
Y186816D01*
X256096Y170816D02*
X264096D01*
X281306Y197548D02*
X297306D01*
Y189548D02*
Y197548D01*
X281306Y189548D02*
X297306D01*
X281306D02*
Y197548D01*
X882524Y317818D02*
X898524D01*
X882524D02*
Y325818D01*
X898524D01*
Y317818D02*
Y325818D01*
X887350Y422212D02*
X903350D01*
X887350D02*
Y430212D01*
X903350D01*
Y422212D02*
Y430212D01*
X848424Y338710D02*
Y354710D01*
X856424D01*
Y338710D02*
Y354710D01*
X848424Y338710D02*
X856424D01*
X834072Y410084D02*
Y426084D01*
X826072Y410084D02*
X834072D01*
X826072D02*
Y426084D01*
X834072D01*
X724028Y95186D02*
X740028D01*
Y87186D02*
Y95186D01*
X724028Y87186D02*
X740028D01*
X724028D02*
Y95186D01*
Y119062D02*
X740028D01*
Y111062D02*
Y119062D01*
X724028Y111062D02*
X740028D01*
X724028D02*
Y119062D01*
X602870Y222314D02*
X618870D01*
X602870D02*
Y230314D01*
X618870D01*
Y222314D02*
Y230314D01*
X106300Y582232D02*
X122300D01*
X106300D02*
Y590232D01*
X122300D01*
Y582232D02*
Y590232D01*
X60580Y469202D02*
X76580D01*
X60580D02*
Y477202D01*
X76580D01*
Y469202D02*
Y477202D01*
X106300Y553276D02*
X122300D01*
X106300D02*
Y561276D01*
X122300D01*
Y553276D02*
Y561276D01*
X818226Y216514D02*
X893226D01*
X818226D02*
Y261514D01*
X893226D01*
Y216514D02*
Y261514D01*
X302280Y601234D02*
Y628634D01*
Y601234D02*
X457180D01*
Y628634D01*
X302280D02*
X457180D01*
D15*
X517916Y115382D02*
G03*
X517916Y115382I-3500J0D01*
G01*
X569299Y152823D02*
G03*
X499422Y152600I-34883J-17441D01*
G01*
Y118164D02*
G03*
X569299Y117941I34994J17218D01*
G01*
X569416Y118161D02*
Y152602D01*
X499416Y118161D02*
Y152602D01*
X148608Y155000D02*
Y245000D01*
X3608D02*
X148608D01*
X3608Y155000D02*
Y245000D01*
Y155000D02*
X148608D01*
X94108Y245000D02*
Y276000D01*
X48108D02*
X94108D01*
X48108Y245000D02*
Y276000D01*
Y124000D02*
Y155000D01*
Y124000D02*
X94108D01*
Y155000D01*
X148608Y203000D02*
X173608D01*
Y185000D02*
Y203000D01*
X148608Y185000D02*
X173608D01*
M02*
