M48
;Layer_Color=9474304
;FILE_FORMAT=4:4
METRIC,LZ
;TYPE=PLATED
T01F00S00C0.3000
T02F00S00C0.4000
T04F00S00C0.8900
T05F00S00C0.9900
T06F00S00C1.0200
T07F00S00C1.1000
T08F00S00C2.5000
;TYPE=NON_PLATED
T09F00S00C1.1000
T10F00S00C1.8000
%
T01
X0000762Y0001016
X0002413
X0003937
X0005334
X0006858
X0008509
X001016
X0011811
X0013335
X0014986
X0016637
X0018288
X0019939
X002159
X0023241
X0025019
X002667
X0028448
X00275844Y00132588
X00259588Y00132334
X0026035Y0016002
X00275844Y00159512
X00200178Y0015
X00225178Y002
X00200178Y0025
X00150178
X00175178Y003
X00225178
X00275178
X00250178Y0035
X00200178
X00150178
X00100178
X00050178
X00075178Y003
X00125178
Y002
X00075178
X00070866Y00220726
Y0023114
X00083058
Y00220726
X00082804Y00173736
Y00163322
X00070612
Y00173736
X00075178Y001
X00100178Y0005
X00050178
X00225178Y001
X00325178
X00375178
X00400178Y0015
X00438404Y00153924
X00453898Y00153416
Y00126492
X00437642Y00126238
X00475178Y001
X0048006Y0001016
X0049911
X0051816
X0053721
X0055753
X0057658
X0059817
X0061849
X0063627
X0065659
X0067564
X0069342
X00625178Y001
X00650178Y0015
X00600178
X00575178Y002
X00558292Y00226314
X00550178Y0025
X00600178
X00575178Y003
X00600178Y0035
X00650178
X00675178Y003
Y002
X00525178
X00475178
X00425178
X00375178
X00400178Y0025
X00450178
X00500178
X00475178Y003
X00500178Y0035
X00427228Y00350774
X0040005Y00330962
X00378037
X00356023
X0033401
X00325178Y003
X00375178
X00350178Y0025
X00300178
X00350178Y0015
X003429Y0001016
X0032385
X0030353
X0036322
X0038354
X0040259
X0042164
X0043942
X0045974
X00334264Y0038608
X00700178Y0035
X00750178
X00800178
X00825178Y003
X00875178
X00900178Y0035
X00950178
X01000178
X01050178
X01075178Y003
X01025178
X00975178
X01000178Y0025
X01050178
X01075178Y002
X01025178
X00975178
X00925178
X00875178
X00850178Y0025
X00950178
X00913638Y00124968
Y00115316
Y00105664
X00901954
Y00115316
Y00124968
X00900178Y0005
X0089916Y0001016
X0091821
X0093853
X0096012
X0098171
X0100203
X0102362
X010414
X0106045
X0108077
X01050178Y0005
X01000178
X00950178
X00850178
X0085725Y0001016
X0083693
X0081534
X0079375
X007747
X0075438
X0073406
X0071247
X00709422Y0008763
Y00096012
Y00104394
X0069977
Y00096012
Y0008763
X00711454Y00127508
X00700178Y0015
X00755904Y00135636
Y00125476
Y00114808
X00765048Y0012065
Y0013081
X00781812Y00134874
X00781919Y00125172
X0078867Y00128397
X00794004
X00791464Y00132842
Y00123746
X00804672Y00114046
X00814578Y00103378
X0078748Y00103632
X00785876Y00153162
X00780288Y00158496
X00770573Y00149939
X00775178Y003
X00725178
X00700178Y0025
X0087884Y0001016
X01075178Y001
X01050178Y0015
X01100178
X01150178
X01200178
X01250178
X01275178Y002
X01225178
X01175178
X01125178
X01150178Y0025
X01200178
X01250178
X01275178Y003
X01225178
X01175178
X01125178
X01150178Y0035
X01200178
X01250178
X01100178
Y0025
X01125178Y001
X01175178
X01225178
X01275178
X01250178Y0005
X01200178
X01150178
X0114427Y0001016
X0116586
X0118745
X0112141
X0110236
X01100178Y0005
X01125178Y004
X01175178
X01225178
X01275178
Y005
X01225178
X01175178
X01125178
X01150178Y0055
X01200178
X01250178
X01275178Y006
X01225178
X01175178
X01125178
X01150178Y0065
X01200178
X01225178Y007
X01275178
X01175178
X0116586Y00730758
X0118745
X0114427
X0112141
X0110236
X01125178Y007
X01100178Y0065
Y0055
Y0045
X01150178
X01200178
X01050178
X01000178
X00950178
X00900178
X00850178
X00800178
X00750178
X00700178
X00725178Y005
X00750178Y0055
X00800178
X00850178
X00900178
X00950178
X01000178
X01025178Y005
X01075178
Y006
X01050178Y0065
X01000178
X00950178
X00900178
X00850178
X00800178
X00750178
X00700178
X00725178Y007
X0073406Y00730758
X0075438
X007747
X0079375
X0081534
X0083693
X0085725
X0087884
X0089916
X0091821
X0093853
X0096012
X0098171
X0100203
X0102362
X010414
X0106045
X0108077
X01075178Y007
X01025178
X00975178
X00925178
X00875178
X00825178
X00775178
X0071247Y00730758
X00725178Y006
X00775178
X00825178
X00875178
X00925178
X00975178
Y005
X00925178
X00875178
X00825178
X00812546Y00409956
X00775178Y004
X00725178
X00875178
X00925178
X01025178
X01075178
X00700178Y0055
X00650178
X00600178
X00550178
X00500178
X00525178Y005
X00575178
X00625178
X00675178
X00650178Y0045
X00600178
X00550178
X00500178
X00459486Y00450342
Y00431
Y00422276
Y00410718
Y0040259
X00475178Y004
X00415544Y00405892
X00400812
X0042291Y0041656
Y00454152
X00403098Y00459994
X0039624Y00451866
X00379222Y00433832
X00325178Y005
X00475178
Y006
X00500178Y0065
X00550178
X00600178
X00650178
X00675178Y007
X0067564Y00730758
X0069342
X0065659
X0063627
X0061849
X0059817
X0057658
X0055753
X0053721
X0051816
X0049911
X0048006
X0045974
X0043942
X0042164
X0040259
X0038354
X0036322
X003429
X0032385
X0030353
X00325178Y007
X00375178
X00425178
X00475178
X00525178
X00575178
X00625178
Y006
X00675178
X00575178
X00450178Y0065
X00400178
X00350178
X00300178
X00575178Y004
X00625178
X00675178
X00275178
X00225178
X00175178
X00125178
X00075178
X00100178Y0045
X00150178
X00200178
X00175178Y005
X00125178
X00136906Y00543306
X0013589Y00562356
X00125178Y006
X00175178
X00225178
X00275178
X00250178Y0065
X00200178
X00150178
X00100178
X00050178
X00075178Y007
X0006858Y00730758
X0005334
X0003937
X0002413
X0000762
X0008509
X001016
X0011811
X0013335
X0014986
X0016637
X0018288
X0019939
X002159
X0023241
X0025019
X002667
X0028448
X00275178Y007
X00225178
X00175178
X00125178
X00075178Y006
X00050178Y0055
Y0045
X00200178Y0055
T02
X0007374Y0051254
Y0052104
Y0052954
Y0053804
Y0054654
Y0055504
Y0056354
Y0057204
X0008724
Y0056354
Y0055504
Y0054654
Y0053804
Y0052954
Y0052104
Y0051254
T04
X00917702Y00069088
X00993648Y00191008
X01024128Y00258826
T05
X00605388Y00104406
X00650388
Y00169406
X00605388
X009275Y002575
X009725
Y003225
X009275
Y004175
X009725
Y004825
X009275
T06
X0023749Y00281178
X0026289
Y00306578
X0023749
Y00331978
X0026289
Y00357378
X0023749
Y00382778
X0026289
X0031623Y00614934
X0034163
X0036703
X0039243
X0041783
X0044323
X0026289Y00458978
Y00433578
Y00408178
X0023749
Y00433578
Y00458978
T07
X01023366Y00113284
Y00138684
X01019048Y00528066
Y00553466
X01018286Y00595884
Y00621284
T08
X0024564Y0023583
X0077564
Y0050583
X0024564
T09
X01048766Y00113284
Y00138684
X01044448Y00528066
Y00553466
X01043686Y00595884
Y00621284
T10
X00038608Y00175
Y00225
M30
