G04*
G04 #@! TF.GenerationSoftware,Altium Limited,Altium Designer,25.3.3 (18)*
G04*
G04 Layer_Color=16711935*
%FSLAX44Y44*%
%MOMM*%
G71*
G04*
G04 #@! TF.SameCoordinates,6D202E75-467B-4672-BE30-C010D47AD25D*
G04*
G04*
G04 #@! TF.FilePolarity,Negative*
G04*
G01*
G75*
%ADD57C,1.7012*%
%ADD58R,1.7012X1.7012*%
%ADD59O,1.9032X1.1032*%
%ADD60O,2.6032X1.1032*%
%ADD61R,0.8532X0.8532*%
%ADD62C,0.8532*%
%ADD63R,1.8532X1.8532*%
%ADD64C,1.8532*%
%ADD65C,1.3032*%
%ADD66C,1.4432*%
%ADD67R,1.7332X1.7332*%
%ADD68C,1.7332*%
%ADD69C,1.5700*%
%ADD70R,1.5700X1.5700*%
%ADD71C,2.0032*%
%ADD96R,119.5248X2.0405*%
%ADD97R,119.8908X2.0066*%
D57*
X972500Y322500D02*
D03*
X927500D02*
D03*
X972500Y257500D02*
D03*
Y417500D02*
D03*
X927500Y482500D02*
D03*
X972500D02*
D03*
X650388Y169406D02*
D03*
X605388D02*
D03*
X650388Y104406D02*
D03*
D58*
X927500Y257500D02*
D03*
Y417500D02*
D03*
X605388Y104406D02*
D03*
D59*
X43640Y585540D02*
D03*
Y499040D02*
D03*
D60*
X77440Y585540D02*
D03*
Y499040D02*
D03*
D61*
X87240Y572040D02*
D03*
D62*
Y563540D02*
D03*
Y555040D02*
D03*
Y529540D02*
D03*
Y521040D02*
D03*
Y512540D02*
D03*
X73740D02*
D03*
Y521040D02*
D03*
Y529540D02*
D03*
Y555040D02*
D03*
Y563540D02*
D03*
Y572040D02*
D03*
Y538040D02*
D03*
X87240Y546540D02*
D03*
Y538040D02*
D03*
X73740Y546540D02*
D03*
D63*
X1018286Y595884D02*
D03*
X1023366Y113284D02*
D03*
X1019048Y528066D02*
D03*
D64*
X1018286Y621284D02*
D03*
X1023366Y138684D02*
D03*
X1019048Y553466D02*
D03*
D65*
X1043686Y595884D02*
D03*
Y621284D02*
D03*
X1048766Y138684D02*
D03*
Y113284D02*
D03*
X1044448Y528066D02*
D03*
Y553466D02*
D03*
D66*
X1024128Y258826D02*
D03*
X917702Y69088D02*
D03*
X993648Y191008D02*
D03*
D67*
X237490Y281178D02*
D03*
D68*
X262890D02*
D03*
X237490Y306578D02*
D03*
X262890D02*
D03*
X237490Y331978D02*
D03*
X262890D02*
D03*
X237490Y357378D02*
D03*
X262890D02*
D03*
X237490Y382778D02*
D03*
X262890D02*
D03*
X237490Y408178D02*
D03*
X262890D02*
D03*
X237490Y433578D02*
D03*
X262890D02*
D03*
X237490Y458978D02*
D03*
X262890D02*
D03*
D69*
X443230Y614934D02*
D03*
X417830D02*
D03*
X392430D02*
D03*
X367030D02*
D03*
X341630D02*
D03*
D70*
X316230D02*
D03*
D71*
X38608Y175000D02*
D03*
Y225000D02*
D03*
D96*
X597446Y10202D02*
D03*
D97*
X599454Y730819D02*
D03*
M02*
