G04*
G04 #@! TF.GenerationSoftware,Altium Limited,Altium Designer,25.3.3 (18)*
G04*
G04 Layer_Physical_Order=1*
G04 Layer_Color=255*
%FSLAX44Y44*%
%MOMM*%
G71*
G04*
G04 #@! TF.SameCoordinates,6D202E75-467B-4672-BE30-C010D47AD25D*
G04*
G04*
G04 #@! TF.FilePolarity,Positive*
G04*
G01*
G75*
%ADD10C,0.2500*%
%ADD13C,0.2540*%
%ADD14C,0.5000*%
%ADD16C,0.4000*%
%ADD17R,0.4980X1.8565*%
G04:AMPARAMS|DCode=18|XSize=1.8565mm|YSize=0.498mm|CornerRadius=0.249mm|HoleSize=0mm|Usage=FLASHONLY|Rotation=90.000|XOffset=0mm|YOffset=0mm|HoleType=Round|Shape=RoundedRectangle|*
%AMROUNDEDRECTD18*
21,1,1.8565,0.0000,0,0,90.0*
21,1,1.3585,0.4980,0,0,90.0*
1,1,0.4980,0.0000,0.6793*
1,1,0.4980,0.0000,-0.6793*
1,1,0.4980,0.0000,-0.6793*
1,1,0.4980,0.0000,0.6793*
%
%ADD18ROUNDEDRECTD18*%
%ADD19R,0.8587X0.9121*%
%ADD20R,0.9121X0.8587*%
%ADD21R,1.0000X1.0000*%
%ADD22R,7.5000X3.0000*%
%ADD23R,1.1500X1.7000*%
%ADD24R,0.3000X0.6500*%
%ADD25R,0.6500X0.2500*%
%ADD26R,0.2500X0.6500*%
%ADD27R,1.0000X0.7000*%
%ADD28R,1.4000X1.2000*%
%ADD29R,1.2000X0.6000*%
%ADD30R,2.0000X3.0000*%
%ADD31R,1.8000X2.4000*%
%ADD32R,0.9800X3.4000*%
%ADD33O,0.3000X1.2000*%
%ADD34R,0.3000X1.2000*%
%ADD35R,1.2000X0.3000*%
%ADD36R,0.1270X0.1270*%
%ADD37R,0.8000X0.8000*%
%ADD38R,7.0000X4.0000*%
%ADD39R,4.0000X2.5000*%
%ADD69C,1.5700*%
%ADD70R,1.5700X1.5700*%
%AMCUSTOMSHAPE72*
4,1,6,-0.1500,0.3250,0.1500,0.3250,0.1500,-0.3250,-0.0750,-0.3250,-0.1500,-0.2362,-0.1500,0.3250,-0.1500,0.3250,0.0*%
%ADD72CUSTOMSHAPE72*%

%ADD73R,0.1000X0.1000*%
%ADD74R,0.5000X0.5000*%
%ADD75C,1.0000*%
%ADD76C,0.3000*%
%ADD77C,0.2761*%
%ADD78R,1.0160X0.5842*%
%ADD79R,119.5000X2.0000*%
%ADD80C,1.4980*%
%ADD81R,1.4980X1.4980*%
%ADD82O,1.7000X0.9000*%
%ADD83O,2.4000X0.9000*%
%ADD84R,0.6500X0.6500*%
%ADD85C,0.6500*%
%ADD86R,1.6500X1.6500*%
%ADD87C,1.6500*%
%ADD88C,1.1000*%
%ADD89C,1.2400*%
%ADD90R,1.5300X1.5300*%
%ADD91C,1.5300*%
%ADD92C,1.8000*%
%ADD93C,0.6000*%
%ADD94C,0.5000*%
%ADD95C,5.0000*%
G36*
X1278146Y2779D02*
X1854D01*
Y738306D01*
X1278146D01*
Y2779D01*
D02*
G37*
%LPC*%
G36*
X18415Y733933D02*
X16510D01*
Y732028D01*
X18415D01*
Y733933D01*
D02*
G37*
G36*
X13970D02*
X12065D01*
Y732028D01*
X13970D01*
Y733933D01*
D02*
G37*
G36*
X1264027Y733795D02*
X1258463D01*
Y727964D01*
X1264027D01*
Y733795D01*
D02*
G37*
G36*
X1255923D02*
X1250359D01*
Y727964D01*
X1255923D01*
Y733795D01*
D02*
G37*
G36*
X18415Y729488D02*
X16510D01*
Y727583D01*
X18415D01*
Y729488D01*
D02*
G37*
G36*
X13970D02*
X12065D01*
Y727583D01*
X13970D01*
Y729488D01*
D02*
G37*
G36*
X1264027Y725424D02*
X1258463D01*
Y719593D01*
X1264027D01*
Y725424D01*
D02*
G37*
G36*
X1255923D02*
X1250359D01*
Y719593D01*
X1255923D01*
Y725424D01*
D02*
G37*
G36*
X1257906Y704245D02*
X1257213Y704107D01*
X1255926Y703247D01*
X1254639Y704107D01*
X1253946Y704245D01*
Y692577D01*
Y680908D01*
X1254639Y681046D01*
X1255926Y681906D01*
X1257213Y681046D01*
X1257906Y680908D01*
Y692577D01*
Y704245D01*
D02*
G37*
G36*
X1260446D02*
Y693847D01*
X1264305D01*
Y699369D01*
X1263914Y701332D01*
X1262802Y702996D01*
X1261139Y704107D01*
X1260446Y704245D01*
D02*
G37*
G36*
X1246953Y732255D02*
X1236365D01*
Y721133D01*
X1237362D01*
Y702020D01*
X1237160Y701885D01*
X1236389Y700731D01*
X1236118Y699369D01*
Y686159D01*
X1234156Y684197D01*
X1222983D01*
Y687177D01*
X1211861D01*
Y681994D01*
X1210539D01*
X1209653Y681817D01*
X1208903Y681316D01*
X1204609Y677023D01*
X1204108Y676272D01*
X1203932Y675386D01*
Y610616D01*
X1204108Y609730D01*
X1204609Y608979D01*
X1207403Y606185D01*
X1208154Y605684D01*
X1209040Y605508D01*
X1259078D01*
X1259964Y605684D01*
X1260715Y606185D01*
X1266003Y611474D01*
X1274730D01*
Y623474D01*
X1262730D01*
Y614747D01*
X1259922Y611939D01*
X1258998Y612322D01*
Y616204D01*
X1251458D01*
X1243918D01*
Y610136D01*
X1209999D01*
X1208560Y611575D01*
Y674427D01*
X1210861Y676728D01*
X1211861Y676590D01*
Y676590D01*
X1222983D01*
Y679569D01*
X1235115D01*
X1236001Y679745D01*
X1236751Y680247D01*
X1238887Y682383D01*
X1239676Y682226D01*
X1241038Y682497D01*
X1241926Y683090D01*
X1242550Y682158D01*
X1244213Y681046D01*
X1244906Y680908D01*
Y692577D01*
Y704245D01*
X1244213Y704107D01*
X1242990Y703290D01*
X1241991Y703822D01*
Y721133D01*
X1246953D01*
Y732255D01*
D02*
G37*
G36*
X1264305Y691307D02*
X1260446D01*
Y680908D01*
X1261139Y681046D01*
X1262802Y682158D01*
X1263914Y683821D01*
X1264305Y685784D01*
Y691307D01*
D02*
G37*
G36*
X1247446Y704245D02*
Y692577D01*
Y680908D01*
X1248139Y681046D01*
X1249426Y681906D01*
X1250713Y681046D01*
X1251406Y680908D01*
Y692577D01*
Y704245D01*
X1250713Y704107D01*
X1249426Y703247D01*
X1248139Y704107D01*
X1247446Y704245D01*
D02*
G37*
G36*
X1222983Y671643D02*
X1211861D01*
Y661055D01*
X1222983D01*
Y663800D01*
X1242180D01*
X1245337Y660643D01*
X1245047Y659686D01*
X1244814Y659639D01*
X1244166Y659206D01*
X1243166Y659741D01*
Y659842D01*
X1236186D01*
Y644326D01*
X1231893D01*
X1230918Y644132D01*
X1230091Y643579D01*
X1215112Y628600D01*
X1214559Y627773D01*
X1214365Y626797D01*
Y623728D01*
X1210914D01*
Y611728D01*
X1222914D01*
Y623728D01*
X1219463D01*
Y625742D01*
X1232949Y639228D01*
X1238686D01*
X1238932Y639277D01*
X1241324D01*
X1241706Y638353D01*
X1232384Y629030D01*
X1231831Y628204D01*
X1231637Y627228D01*
Y623728D01*
X1228186D01*
Y611728D01*
X1240186D01*
Y623728D01*
X1236735D01*
Y626172D01*
X1247599Y637037D01*
X1248152Y637864D01*
X1248346Y638839D01*
Y640020D01*
X1248692Y640251D01*
X1248926Y640601D01*
X1249926D01*
X1250160Y640251D01*
X1251314Y639479D01*
X1252676Y639209D01*
X1254038Y639479D01*
X1254926Y640073D01*
X1255550Y639141D01*
X1257213Y638029D01*
X1257906Y637891D01*
Y649559D01*
Y661228D01*
X1257213Y661090D01*
X1255550Y659978D01*
X1254926Y659046D01*
X1254038Y659639D01*
X1253403Y659766D01*
X1253011Y660158D01*
X1252968Y660221D01*
X1245038Y668151D01*
X1244211Y668704D01*
X1243236Y668898D01*
X1222983D01*
Y671643D01*
D02*
G37*
G36*
X1260446Y661228D02*
Y650829D01*
X1264305D01*
Y656352D01*
X1263914Y658315D01*
X1262802Y659978D01*
X1261139Y661090D01*
X1260446Y661228D01*
D02*
G37*
G36*
X1264305Y648289D02*
X1260446D01*
Y637891D01*
X1261139Y638029D01*
X1262802Y639141D01*
X1263914Y640804D01*
X1264305Y642767D01*
Y648289D01*
D02*
G37*
G36*
X1258998Y625014D02*
X1252728D01*
Y618744D01*
X1258998D01*
Y625014D01*
D02*
G37*
G36*
X1250188D02*
X1243918D01*
Y618744D01*
X1250188D01*
Y625014D01*
D02*
G37*
G36*
X418995Y623784D02*
X416665D01*
X414414Y623181D01*
X412396Y622016D01*
X410748Y620368D01*
X409583Y618350D01*
X409351Y617483D01*
X400909D01*
X400677Y618350D01*
X399512Y620368D01*
X397864Y622016D01*
X395846Y623181D01*
X393595Y623784D01*
X391265D01*
X389014Y623181D01*
X386996Y622016D01*
X385348Y620368D01*
X384183Y618350D01*
X383580Y616099D01*
Y613769D01*
X384183Y611518D01*
X385348Y609500D01*
X386996Y607852D01*
X389014Y606687D01*
X391265Y606084D01*
X393595D01*
X395846Y606687D01*
X397864Y607852D01*
X399512Y609500D01*
X400677Y611518D01*
X400909Y612385D01*
X409351D01*
X409583Y611518D01*
X410748Y609500D01*
X412396Y607852D01*
X414414Y606687D01*
X416665Y606084D01*
X418995D01*
X421246Y606687D01*
X423264Y607852D01*
X424912Y609500D01*
X426077Y611518D01*
X426680Y613769D01*
Y616099D01*
X426077Y618350D01*
X424912Y620368D01*
X423264Y622016D01*
X421246Y623181D01*
X418995Y623784D01*
D02*
G37*
G36*
X1044542Y627784D02*
X1042830D01*
X1041177Y627341D01*
X1039695Y626485D01*
X1038485Y625275D01*
X1037629Y623793D01*
X1037186Y622140D01*
Y620428D01*
X1037629Y618775D01*
X1038485Y617293D01*
X1039695Y616083D01*
X1041177Y615227D01*
X1042830Y614784D01*
X1044542D01*
X1046195Y615227D01*
X1047677Y616083D01*
X1048887Y617293D01*
X1049743Y618775D01*
X1050186Y620428D01*
Y622140D01*
X1049743Y623793D01*
X1048887Y625275D01*
X1047677Y626485D01*
X1046195Y627341D01*
X1044542Y627784D01*
D02*
G37*
G36*
X1019504Y630534D02*
X1017068D01*
X1014716Y629904D01*
X1012606Y628686D01*
X1010884Y626964D01*
X1009666Y624854D01*
X1009393Y623833D01*
X541528D01*
X540553Y623639D01*
X539726Y623086D01*
X404455Y487816D01*
X403455Y488230D01*
Y542258D01*
X403719Y542522D01*
X405999D01*
X406246Y542571D01*
X414086D01*
Y553693D01*
X403499D01*
Y547620D01*
X402663D01*
X401688Y547426D01*
X400861Y546874D01*
X399104Y545116D01*
X398551Y544289D01*
X398357Y543314D01*
Y482652D01*
X393525D01*
Y511960D01*
X393331Y512935D01*
X392778Y513762D01*
X318399Y588141D01*
X317572Y588694D01*
X316597Y588888D01*
X151357D01*
Y591632D01*
X140235D01*
Y588888D01*
X127361D01*
Y591793D01*
X116774D01*
Y580671D01*
X127361D01*
Y583790D01*
X140235D01*
Y581045D01*
X151357D01*
Y583790D01*
X315541D01*
X388427Y510904D01*
Y484519D01*
X387748Y484212D01*
X387427Y484178D01*
X376189Y495416D01*
Y495692D01*
X383129Y502633D01*
X383656Y503420D01*
X383840Y504349D01*
Y506637D01*
X383656Y507565D01*
X383129Y508353D01*
X381512Y509970D01*
X380724Y510496D01*
X379796Y510681D01*
X376936D01*
X376007Y510496D01*
X375220Y509970D01*
X369077Y503827D01*
X367777D01*
X324468Y547137D01*
X324468Y547137D01*
X322264Y549340D01*
X321477Y549866D01*
X320548Y550051D01*
X230632D01*
X229703Y549866D01*
X228916Y549340D01*
X197115Y517539D01*
X172709D01*
X168543Y521705D01*
Y523857D01*
X174493Y529806D01*
X182060D01*
Y537806D01*
X168060D01*
Y530239D01*
X165706Y527884D01*
X164782Y528267D01*
Y546476D01*
X167390Y549084D01*
X168060Y548806D01*
Y548806D01*
X182060D01*
Y556806D01*
X168060D01*
Y555233D01*
X167679D01*
X166751Y555048D01*
X165963Y554522D01*
X160639Y549198D01*
X160112Y548410D01*
X159928Y547481D01*
Y519142D01*
X160112Y518213D01*
X160639Y517426D01*
X168430Y509635D01*
X169217Y509108D01*
X170146Y508924D01*
X199678D01*
X200607Y509108D01*
X201394Y509635D01*
X233195Y541436D01*
X317985D01*
X375844Y483576D01*
X375462Y482652D01*
X368406D01*
Y475898D01*
X368357Y475652D01*
Y458404D01*
X368551Y457429D01*
X369104Y456602D01*
X375642Y450064D01*
X376469Y449511D01*
X377444Y449317D01*
X391884D01*
X392001Y449034D01*
X393408Y447627D01*
X395245Y446866D01*
X397235D01*
X399072Y447627D01*
X400479Y449034D01*
X401240Y450871D01*
Y452861D01*
X400536Y454561D01*
X400792Y454988D01*
X401202Y455368D01*
X402103Y454994D01*
X404093D01*
X405930Y455755D01*
X407337Y457162D01*
X408098Y458999D01*
Y460989D01*
X407337Y462826D01*
X405930Y464233D01*
X404093Y464994D01*
X402103D01*
X400266Y464233D01*
X398859Y462826D01*
X398742Y462543D01*
X379262D01*
X378455Y463350D01*
Y468652D01*
X428406D01*
Y482652D01*
X423455D01*
Y484620D01*
X525420Y586585D01*
X1011536D01*
X1011782Y586634D01*
X1027536D01*
Y605134D01*
X1009036D01*
Y591683D01*
X524364D01*
X523388Y591489D01*
X522562Y590936D01*
X419104Y487478D01*
X418551Y486651D01*
X418357Y485676D01*
Y482652D01*
X408455D01*
Y484606D01*
X542584Y618735D01*
X1009393D01*
X1009666Y617714D01*
X1010884Y615604D01*
X1012606Y613882D01*
X1014716Y612664D01*
X1017068Y612034D01*
X1019504D01*
X1021856Y612664D01*
X1023966Y613882D01*
X1025688Y615604D01*
X1026906Y617714D01*
X1027536Y620066D01*
Y622502D01*
X1026906Y624854D01*
X1025688Y626964D01*
X1023966Y628686D01*
X1021856Y629904D01*
X1019504Y630534D01*
D02*
G37*
G36*
X368195Y623784D02*
X365865D01*
X363614Y623181D01*
X361596Y622016D01*
X359948Y620368D01*
X358783Y618350D01*
X358180Y616099D01*
Y613769D01*
X358783Y611518D01*
X359948Y609500D01*
X361596Y607852D01*
X363614Y606687D01*
X365865Y606084D01*
X368195D01*
X370446Y606687D01*
X372464Y607852D01*
X374112Y609500D01*
X375277Y611518D01*
X375880Y613769D01*
Y616099D01*
X375277Y618350D01*
X374112Y620368D01*
X372464Y622016D01*
X370446Y623181D01*
X368195Y623784D01*
D02*
G37*
G36*
X342795D02*
X340465D01*
X338214Y623181D01*
X336196Y622016D01*
X334548Y620368D01*
X333383Y618350D01*
X332780Y616099D01*
Y613769D01*
X333383Y611518D01*
X334548Y609500D01*
X336196Y607852D01*
X338214Y606687D01*
X340465Y606084D01*
X342795D01*
X345046Y606687D01*
X347064Y607852D01*
X348712Y609500D01*
X349877Y611518D01*
X350480Y613769D01*
Y616099D01*
X349877Y618350D01*
X348712Y620368D01*
X347064Y622016D01*
X345046Y623181D01*
X342795Y623784D01*
D02*
G37*
G36*
X325080D02*
X307380D01*
Y606084D01*
X325080D01*
Y623784D01*
D02*
G37*
G36*
X152897Y608707D02*
X147066D01*
Y603143D01*
X152897D01*
Y608707D01*
D02*
G37*
G36*
X144526D02*
X138695D01*
Y603143D01*
X144526D01*
Y608707D01*
D02*
G37*
G36*
X152897Y600603D02*
X147066D01*
Y595039D01*
X152897D01*
Y600603D01*
D02*
G37*
G36*
X144526D02*
X138695D01*
Y595039D01*
X144526D01*
Y600603D01*
D02*
G37*
G36*
X1044542Y602384D02*
X1042830D01*
X1041177Y601941D01*
X1039695Y601085D01*
X1038485Y599875D01*
X1037629Y598393D01*
X1037186Y596740D01*
Y595028D01*
X1037629Y593375D01*
X1038485Y591893D01*
X1039695Y590683D01*
X1041177Y589827D01*
X1042830Y589384D01*
X1044542D01*
X1046195Y589827D01*
X1047677Y590683D01*
X1048887Y591893D01*
X1049743Y593375D01*
X1050186Y595028D01*
Y596740D01*
X1049743Y598393D01*
X1048887Y599875D01*
X1047677Y601085D01*
X1046195Y601941D01*
X1044542Y602384D01*
D02*
G37*
G36*
X111826Y591793D02*
X101239D01*
Y588202D01*
X99497D01*
X98521Y588008D01*
X97694Y587455D01*
X94972Y584732D01*
X94419Y583905D01*
X94225Y582930D01*
Y572262D01*
Y567730D01*
X93254Y566759D01*
X90032D01*
X89647Y567143D01*
X88085Y567790D01*
X86395D01*
X84833Y567143D01*
X83778Y566089D01*
X77201D01*
X76147Y567143D01*
X74585Y567790D01*
X72895D01*
X71333Y567143D01*
X70137Y565947D01*
X69490Y564385D01*
Y562695D01*
X70137Y561133D01*
X71333Y559937D01*
X71687Y559790D01*
Y558790D01*
X71333Y558643D01*
X70137Y557447D01*
X69490Y555885D01*
Y554195D01*
X70137Y552633D01*
X71333Y551437D01*
X71687Y551290D01*
Y550290D01*
X71333Y550143D01*
X70137Y548947D01*
X69490Y547385D01*
Y545695D01*
X70137Y544133D01*
X71333Y542937D01*
X71687Y542790D01*
Y541790D01*
X71333Y541643D01*
X70137Y540447D01*
X69490Y538885D01*
Y537195D01*
X70137Y535633D01*
X71333Y534437D01*
X71687Y534290D01*
Y533290D01*
X71333Y533143D01*
X70137Y531947D01*
X69490Y530385D01*
Y528895D01*
X59011Y518415D01*
X58458Y517588D01*
X58264Y516613D01*
Y478763D01*
X55519D01*
Y467641D01*
X66107D01*
Y478763D01*
X63362D01*
Y515557D01*
X68566Y520761D01*
X69490Y520379D01*
Y520195D01*
X70137Y518633D01*
X71333Y517437D01*
X72895Y516790D01*
X74585D01*
X76147Y517437D01*
X77201Y518491D01*
X83778D01*
X84833Y517437D01*
X86395Y516790D01*
X88085D01*
X89647Y517437D01*
X90843Y518633D01*
X91490Y520195D01*
Y521885D01*
X90843Y523447D01*
X89647Y524643D01*
X89293Y524790D01*
Y525790D01*
X89647Y525937D01*
X90843Y527132D01*
X91490Y528695D01*
Y530385D01*
X90843Y531947D01*
X89647Y533143D01*
X89292Y533290D01*
Y534290D01*
X89647Y534437D01*
X90823Y535613D01*
X128975D01*
X132498Y532090D01*
X133285Y531563D01*
X134214Y531379D01*
X143060D01*
Y529806D01*
X157060D01*
Y537766D01*
X158600D01*
Y542036D01*
X141520D01*
Y537766D01*
X143060D01*
Y536233D01*
X135219D01*
X131696Y539756D01*
X130909Y540283D01*
X129980Y540467D01*
X90823D01*
X89647Y541643D01*
X89292Y541790D01*
Y542790D01*
X89647Y542937D01*
X90823Y544113D01*
X130488D01*
X131417Y544297D01*
X132204Y544824D01*
X137759Y550379D01*
X143060D01*
Y548846D01*
X141520D01*
Y544576D01*
X158600D01*
Y548846D01*
X157060D01*
Y556806D01*
X143060D01*
Y555233D01*
X136754D01*
X135825Y555048D01*
X135038Y554522D01*
X129483Y548967D01*
X90823D01*
X89647Y550143D01*
X89292Y550290D01*
Y551290D01*
X89647Y551437D01*
X90702Y552491D01*
X101239D01*
Y551715D01*
X111826D01*
Y562837D01*
X101239D01*
Y557589D01*
X90702D01*
X89647Y558643D01*
X89293Y558790D01*
Y559790D01*
X89647Y559937D01*
X90843Y561133D01*
X91062Y561661D01*
X94310D01*
X95285Y561855D01*
X96112Y562407D01*
X98576Y564872D01*
X99129Y565699D01*
X99323Y566674D01*
Y569713D01*
X178522D01*
X185411Y562824D01*
Y548680D01*
X183060Y546329D01*
X182060Y546743D01*
Y547306D01*
X168060D01*
Y539306D01*
X182060D01*
Y540918D01*
X183803D01*
X184778Y541112D01*
X185605Y541664D01*
X189762Y545822D01*
X190315Y546648D01*
X190509Y547624D01*
Y563880D01*
X190315Y564855D01*
X189762Y565682D01*
X181380Y574064D01*
X180553Y574617D01*
X179578Y574811D01*
X99323D01*
Y581874D01*
X100239Y582791D01*
X101239Y582376D01*
Y580671D01*
X111826D01*
Y591793D01*
D02*
G37*
G36*
X458406Y569538D02*
X453136D01*
Y564268D01*
X458406D01*
Y569538D01*
D02*
G37*
G36*
X450596D02*
X445326D01*
Y564268D01*
X450596D01*
Y569538D01*
D02*
G37*
G36*
X128901Y564377D02*
X123337D01*
Y558546D01*
X128901D01*
Y564377D01*
D02*
G37*
G36*
X120797D02*
X115233D01*
Y558546D01*
X120797D01*
Y564377D01*
D02*
G37*
G36*
X458406Y561728D02*
X453136D01*
Y556458D01*
X458406D01*
Y561728D01*
D02*
G37*
G36*
X450596D02*
X445326D01*
Y556458D01*
X450596D01*
Y561728D01*
D02*
G37*
G36*
X128901Y556006D02*
X123337D01*
Y550175D01*
X128901D01*
Y556006D01*
D02*
G37*
G36*
X120797D02*
X115233D01*
Y550175D01*
X120797D01*
Y556006D01*
D02*
G37*
G36*
X1045304Y559966D02*
X1043592D01*
X1041939Y559523D01*
X1040457Y558667D01*
X1039247Y557457D01*
X1038391Y555975D01*
X1037948Y554322D01*
Y552610D01*
X1038391Y550957D01*
X1039247Y549475D01*
X1040457Y548265D01*
X1041939Y547409D01*
X1043592Y546966D01*
X1045304D01*
X1046957Y547409D01*
X1048439Y548265D01*
X1049649Y549475D01*
X1050505Y550957D01*
X1050948Y552610D01*
Y554322D01*
X1050505Y555975D01*
X1049649Y557457D01*
X1048439Y558667D01*
X1046957Y559523D01*
X1045304Y559966D01*
D02*
G37*
G36*
X429621Y553693D02*
X419034D01*
Y542571D01*
X429621D01*
Y545449D01*
X446866D01*
Y542998D01*
X456866D01*
Y552998D01*
X446866D01*
Y550547D01*
X429621D01*
Y553693D01*
D02*
G37*
G36*
X1263519Y545073D02*
X1257955D01*
Y539242D01*
X1263519D01*
Y545073D01*
D02*
G37*
G36*
X1255415D02*
X1249852D01*
Y539242D01*
X1255415D01*
Y545073D01*
D02*
G37*
G36*
X1263519Y536702D02*
X1257955D01*
Y530871D01*
X1263519D01*
Y536702D01*
D02*
G37*
G36*
X1255415D02*
X1249852D01*
Y530871D01*
X1255415D01*
Y536702D01*
D02*
G37*
G36*
X1045304Y534566D02*
X1043592D01*
X1041939Y534123D01*
X1040457Y533267D01*
X1039247Y532057D01*
X1038391Y530575D01*
X1037948Y528922D01*
Y527210D01*
X1038391Y525557D01*
X1039247Y524075D01*
X1040457Y522865D01*
X1041939Y522009D01*
X1043592Y521566D01*
X1045304D01*
X1046957Y522009D01*
X1048439Y522865D01*
X1049649Y524075D01*
X1050505Y525557D01*
X1050948Y527210D01*
Y528922D01*
X1050505Y530575D01*
X1049649Y532057D01*
X1048439Y533267D01*
X1046957Y534123D01*
X1045304Y534566D01*
D02*
G37*
G36*
X1257398Y515269D02*
X1256705Y515131D01*
X1255418Y514271D01*
X1254131Y515131D01*
X1253438Y515269D01*
Y503601D01*
Y491932D01*
X1254131Y492070D01*
X1255418Y492930D01*
X1256705Y492070D01*
X1257398Y491932D01*
Y503601D01*
Y515269D01*
D02*
G37*
G36*
X1259938D02*
Y504871D01*
X1263796D01*
Y510393D01*
X1263406Y512356D01*
X1262294Y514020D01*
X1260631Y515131D01*
X1259938Y515269D01*
D02*
G37*
G36*
X1246444Y543533D02*
X1235857D01*
Y532411D01*
X1236853D01*
Y513044D01*
X1236652Y512909D01*
X1235881Y511755D01*
X1235610Y510393D01*
Y497437D01*
X1233648Y495476D01*
X1219173D01*
Y497439D01*
X1208051D01*
Y491683D01*
X1207226D01*
X1206340Y491507D01*
X1205589Y491005D01*
X1204101Y489517D01*
X1203600Y488767D01*
X1203423Y487881D01*
Y421894D01*
X1203600Y421008D01*
X1204101Y420257D01*
X1206895Y417463D01*
X1207646Y416962D01*
X1208532Y416786D01*
X1258570D01*
X1259456Y416962D01*
X1260207Y417463D01*
X1265495Y422752D01*
X1274222D01*
Y434752D01*
X1262222D01*
Y426025D01*
X1259414Y423217D01*
X1258490Y423600D01*
Y427482D01*
X1250950D01*
X1243410D01*
Y421414D01*
X1209491D01*
X1208053Y422853D01*
Y471317D01*
X1219173D01*
Y475078D01*
X1241672D01*
X1244941Y471809D01*
X1244612Y470724D01*
X1244306Y470663D01*
X1243658Y470230D01*
X1242658Y470765D01*
Y470866D01*
X1235678D01*
Y455604D01*
X1231385D01*
X1230410Y455410D01*
X1229583Y454857D01*
X1214604Y439878D01*
X1214051Y439051D01*
X1213857Y438075D01*
Y435006D01*
X1210406D01*
Y423006D01*
X1222406D01*
Y435006D01*
X1218955D01*
Y437020D01*
X1232441Y450506D01*
X1235678D01*
Y450301D01*
X1240562D01*
X1240944Y449377D01*
X1231876Y440308D01*
X1231323Y439482D01*
X1231129Y438506D01*
Y435006D01*
X1227678D01*
Y423006D01*
X1239678D01*
Y435006D01*
X1236227D01*
Y437450D01*
X1247092Y448315D01*
X1247644Y449142D01*
X1247838Y450117D01*
Y451044D01*
X1248184Y451275D01*
X1248418Y451625D01*
X1249418D01*
X1249652Y451275D01*
X1250806Y450503D01*
X1252168Y450233D01*
X1253530Y450503D01*
X1254418Y451097D01*
X1255042Y450164D01*
X1256705Y449053D01*
X1257398Y448915D01*
Y460583D01*
Y472252D01*
X1256705Y472114D01*
X1255042Y471002D01*
X1254418Y470070D01*
X1253530Y470663D01*
X1253212Y470727D01*
X1252503Y471436D01*
X1252460Y471499D01*
X1244530Y479429D01*
X1243703Y479982D01*
X1242728Y480176D01*
X1219173D01*
Y481904D01*
X1208053D01*
Y486852D01*
X1219173D01*
Y490847D01*
X1234607D01*
X1235493Y491023D01*
X1236244Y491525D01*
X1238168Y493449D01*
X1239168Y493250D01*
X1240530Y493521D01*
X1241684Y494292D01*
X1241918Y494642D01*
X1242918D01*
X1243152Y494292D01*
X1244306Y493521D01*
X1245668Y493250D01*
X1247030Y493521D01*
X1247918Y494114D01*
X1248542Y493182D01*
X1250205Y492070D01*
X1250898Y491932D01*
Y503601D01*
Y515269D01*
X1250205Y515131D01*
X1248542Y514020D01*
X1247918Y513087D01*
X1247030Y513681D01*
X1245668Y513951D01*
X1244306Y513681D01*
X1243152Y512909D01*
X1243142Y512895D01*
X1242028Y512820D01*
X1241482Y513379D01*
Y532411D01*
X1246444D01*
Y543533D01*
D02*
G37*
G36*
X1263796Y502331D02*
X1259938D01*
Y491932D01*
X1260631Y492070D01*
X1262294Y493182D01*
X1263406Y494845D01*
X1263796Y496808D01*
Y502331D01*
D02*
G37*
G36*
X83181Y480303D02*
X77617D01*
Y474472D01*
X83181D01*
Y480303D01*
D02*
G37*
G36*
X75077D02*
X69514D01*
Y474472D01*
X75077D01*
Y480303D01*
D02*
G37*
G36*
X83181Y471932D02*
X77617D01*
Y466101D01*
X83181D01*
Y471932D01*
D02*
G37*
G36*
X75077D02*
X69514D01*
Y466101D01*
X75077D01*
Y471932D01*
D02*
G37*
G36*
X1259938Y472252D02*
Y461853D01*
X1263796D01*
Y467376D01*
X1263406Y469339D01*
X1262294Y471002D01*
X1260631Y472114D01*
X1259938Y472252D01*
D02*
G37*
G36*
X264029Y467628D02*
X261751D01*
X259551Y467038D01*
X257579Y465900D01*
X255968Y464289D01*
X254830Y462317D01*
X254240Y460117D01*
Y457839D01*
X254830Y455639D01*
X255968Y453667D01*
X257579Y452056D01*
X259551Y450918D01*
X261751Y450328D01*
X264029D01*
X266229Y450918D01*
X268201Y452056D01*
X269812Y453667D01*
X270951Y455639D01*
X271540Y457839D01*
Y460117D01*
X270951Y462317D01*
X269812Y464289D01*
X268201Y465900D01*
X266229Y467038D01*
X264029Y467628D01*
D02*
G37*
G36*
X238629D02*
X236351D01*
X234151Y467038D01*
X232179Y465900D01*
X230568Y464289D01*
X229429Y462317D01*
X228840Y460117D01*
Y457839D01*
X229429Y455639D01*
X230568Y453667D01*
X232179Y452056D01*
X234151Y450918D01*
X236351Y450328D01*
X238629D01*
X240829Y450918D01*
X242801Y452056D01*
X244412Y453667D01*
X245550Y455639D01*
X246140Y457839D01*
Y460117D01*
X245550Y462317D01*
X244412Y464289D01*
X242801Y465900D01*
X240829Y467038D01*
X238629Y467628D01*
D02*
G37*
G36*
X362906Y463152D02*
X348906D01*
Y458201D01*
X327128D01*
X326152Y458007D01*
X325326Y457454D01*
X316212Y448341D01*
X249704D01*
X248728Y448147D01*
X247901Y447594D01*
X241537Y441230D01*
X240829Y441638D01*
X238629Y442228D01*
X236351D01*
X234151Y441638D01*
X232179Y440500D01*
X230568Y438889D01*
X229429Y436917D01*
X228840Y434717D01*
Y432439D01*
X229429Y430239D01*
X230568Y428267D01*
X232179Y426656D01*
X234151Y425518D01*
X236351Y424928D01*
X238629D01*
X240829Y425518D01*
X242801Y426656D01*
X244412Y428267D01*
X245550Y430239D01*
X246140Y432439D01*
Y434717D01*
X245550Y436917D01*
X245142Y437625D01*
X250760Y443243D01*
X317268D01*
X317650Y443319D01*
X318142Y442397D01*
X311618Y435873D01*
X271230D01*
X270951Y436917D01*
X269812Y438889D01*
X268201Y440500D01*
X266229Y441638D01*
X264029Y442228D01*
X261751D01*
X259551Y441638D01*
X257579Y440500D01*
X255968Y438889D01*
X254830Y436917D01*
X254240Y434717D01*
Y432439D01*
X254830Y430239D01*
X255968Y428267D01*
X257579Y426656D01*
X259551Y425518D01*
X261751Y424928D01*
X264029D01*
X266229Y425518D01*
X268201Y426656D01*
X269812Y428267D01*
X270951Y430239D01*
X271094Y430775D01*
X312674D01*
X313650Y430969D01*
X314476Y431522D01*
X330660Y447705D01*
X331110Y447635D01*
X331457Y446568D01*
X295616Y410727D01*
X271162D01*
X270951Y411517D01*
X269812Y413489D01*
X268201Y415100D01*
X266229Y416239D01*
X264029Y416828D01*
X261751D01*
X259551Y416239D01*
X257579Y415100D01*
X255968Y413489D01*
X254830Y411517D01*
X254240Y409317D01*
Y407039D01*
X254830Y404839D01*
X255968Y402867D01*
X257579Y401256D01*
X259551Y400117D01*
X261751Y399528D01*
X264029D01*
X266229Y400117D01*
X268201Y401256D01*
X269812Y402867D01*
X270951Y404839D01*
X271162Y405629D01*
X296672D01*
X297647Y405823D01*
X298474Y406376D01*
X335202Y443103D01*
X336230D01*
X336644Y442103D01*
X291298Y396757D01*
X252516D01*
X245142Y404131D01*
X245550Y404839D01*
X246140Y407039D01*
Y409317D01*
X245550Y411517D01*
X244412Y413489D01*
X242801Y415100D01*
X240829Y416239D01*
X238629Y416828D01*
X236351D01*
X234151Y416239D01*
X232179Y415100D01*
X230568Y413489D01*
X229429Y411517D01*
X228840Y409317D01*
Y407039D01*
X229429Y404839D01*
X230568Y402867D01*
X232179Y401256D01*
X234151Y400117D01*
X236351Y399528D01*
X238629D01*
X240829Y400117D01*
X241537Y400526D01*
X249658Y392406D01*
X250485Y391853D01*
X251460Y391659D01*
X258972D01*
X259240Y390659D01*
X257579Y389700D01*
X255968Y388089D01*
X254830Y386117D01*
X254240Y383917D01*
Y381639D01*
X254830Y379439D01*
X255968Y377467D01*
X257579Y375856D01*
X259551Y374717D01*
X261751Y374128D01*
X264029D01*
X266229Y374717D01*
X268201Y375856D01*
X269812Y377467D01*
X270951Y379439D01*
X271540Y381639D01*
Y383917D01*
X270951Y386117D01*
X269812Y388089D01*
X268201Y389700D01*
X266540Y390659D01*
X266808Y391659D01*
X292354D01*
X293330Y391853D01*
X294156Y392406D01*
X339097Y437346D01*
X339107Y437344D01*
X339436Y436259D01*
X298426Y395248D01*
X297873Y394422D01*
X297679Y393446D01*
Y337098D01*
X295108Y334527D01*
X271162D01*
X270951Y335317D01*
X269812Y337289D01*
X268201Y338900D01*
X266229Y340038D01*
X264029Y340628D01*
X261751D01*
X259551Y340038D01*
X257579Y338900D01*
X255968Y337289D01*
X254830Y335317D01*
X254240Y333117D01*
Y330839D01*
X254830Y328639D01*
X255968Y326667D01*
X257579Y325056D01*
X259551Y323918D01*
X261751Y323328D01*
X264029D01*
X266229Y323918D01*
X268201Y325056D01*
X269812Y326667D01*
X270951Y328639D01*
X271162Y329429D01*
X296164D01*
X297139Y329623D01*
X297966Y330176D01*
X302030Y334240D01*
X302583Y335066D01*
X302701Y335661D01*
X303701Y335562D01*
Y330420D01*
X295108Y321827D01*
X251246D01*
X245142Y327931D01*
X245550Y328639D01*
X246140Y330839D01*
Y333117D01*
X245550Y335317D01*
X244412Y337289D01*
X242801Y338900D01*
X240829Y340038D01*
X238629Y340628D01*
X236351D01*
X234151Y340038D01*
X232179Y338900D01*
X230568Y337289D01*
X229429Y335317D01*
X228840Y333117D01*
Y330839D01*
X229429Y328639D01*
X230568Y326667D01*
X232179Y325056D01*
X234151Y323918D01*
X236351Y323328D01*
X238629D01*
X240829Y323918D01*
X241537Y324326D01*
X248388Y317476D01*
X249214Y316923D01*
X250190Y316729D01*
X296164D01*
X297139Y316923D01*
X297966Y317476D01*
X308053Y327562D01*
X308605Y328389D01*
X308799Y329364D01*
Y390440D01*
X346379Y428020D01*
X347279Y427922D01*
X347636Y427022D01*
X311126Y390512D01*
X310573Y389685D01*
X310379Y388709D01*
Y322620D01*
X284694Y296935D01*
X264046D01*
X264029Y297928D01*
X266229Y298517D01*
X268201Y299656D01*
X269812Y301267D01*
X270951Y303239D01*
X271540Y305439D01*
Y307717D01*
X270951Y309917D01*
X269812Y311889D01*
X268201Y313500D01*
X266229Y314639D01*
X264029Y315228D01*
X261751D01*
X259551Y314639D01*
X257579Y313500D01*
X255968Y311889D01*
X254830Y309917D01*
X254240Y307717D01*
Y305439D01*
X254830Y303239D01*
X255968Y301267D01*
X257579Y299656D01*
X259551Y298517D01*
X261751Y297928D01*
X261734Y296935D01*
X250738D01*
X245142Y302531D01*
X245550Y303239D01*
X246140Y305439D01*
Y307717D01*
X245550Y309917D01*
X244412Y311889D01*
X242801Y313500D01*
X240829Y314639D01*
X238629Y315228D01*
X236351D01*
X234151Y314639D01*
X232179Y313500D01*
X230568Y311889D01*
X229429Y309917D01*
X228840Y307717D01*
Y305439D01*
X229429Y303239D01*
X230568Y301267D01*
X232179Y299656D01*
X234151Y298517D01*
X236351Y297928D01*
X238629D01*
X240829Y298517D01*
X241537Y298926D01*
X247880Y292584D01*
X248707Y292031D01*
X249682Y291837D01*
X285750D01*
X286726Y292031D01*
X287552Y292584D01*
X314730Y319762D01*
X315283Y320589D01*
X315477Y321564D01*
Y322575D01*
X316475Y322580D01*
X316669Y321605D01*
X317222Y320778D01*
X395815Y242185D01*
X396642Y241632D01*
X397617Y241438D01*
X528093D01*
Y238694D01*
X539215D01*
Y240372D01*
X540215Y240787D01*
X553792Y227209D01*
X553792Y227209D01*
Y225419D01*
X554477Y223765D01*
X555743Y222499D01*
X557397Y221814D01*
X559187D01*
X560841Y222499D01*
X562107Y223765D01*
X562107Y223765D01*
X597809D01*
Y220753D01*
X608396D01*
Y231875D01*
X597809D01*
Y228863D01*
X562107D01*
X562107Y228863D01*
X560841Y230129D01*
X559187Y230814D01*
X557397D01*
X557397Y230814D01*
X542760Y245451D01*
X541933Y246004D01*
X541531Y246084D01*
X541497Y246106D01*
X540619Y246281D01*
X539215D01*
Y249281D01*
X528093D01*
Y246536D01*
X398673D01*
X321573Y323636D01*
Y360132D01*
X327195Y365755D01*
X328195Y365340D01*
Y363408D01*
X339317D01*
Y366152D01*
X349955D01*
Y363408D01*
X361076D01*
Y366152D01*
X371714D01*
Y363408D01*
X382835D01*
Y366152D01*
X393473D01*
Y363408D01*
X404595D01*
Y373995D01*
X398522D01*
Y374079D01*
X398455Y374417D01*
Y382112D01*
X399636D01*
Y390652D01*
Y399192D01*
X396866D01*
Y397652D01*
X393455D01*
Y421092D01*
X421632Y449269D01*
X421915Y449152D01*
X423905D01*
X425742Y449913D01*
X427149Y451320D01*
X427910Y453157D01*
Y455147D01*
X427149Y456984D01*
X425742Y458391D01*
X423905Y459152D01*
X421915D01*
X420078Y458391D01*
X418671Y456984D01*
X417910Y455147D01*
Y453157D01*
X418027Y452874D01*
X389104Y423950D01*
X388551Y423124D01*
X388357Y422148D01*
Y397652D01*
X373406D01*
Y397599D01*
X373355Y397552D01*
X372406Y397156D01*
X371881Y397507D01*
X370906Y397701D01*
X369931Y397507D01*
X369104Y396954D01*
X368551Y396127D01*
X368357Y395152D01*
Y386152D01*
X368551Y385177D01*
X369104Y384350D01*
X369931Y383797D01*
X370906Y383603D01*
X371881Y383797D01*
X372406Y384148D01*
X373355Y383752D01*
X373406Y383705D01*
Y383652D01*
X380030D01*
X380413Y382728D01*
X377789Y380104D01*
X364637D01*
X363661Y379911D01*
X362835Y379358D01*
X357471Y373995D01*
X349955D01*
Y371250D01*
X339317D01*
Y373995D01*
X328195D01*
Y371166D01*
X326453D01*
X325477Y370972D01*
X324650Y370419D01*
X317222Y362990D01*
X316669Y362164D01*
X316475Y361188D01*
X315477Y361193D01*
Y387654D01*
X347982Y420159D01*
X348906Y419776D01*
Y413152D01*
Y403152D01*
X362906D01*
Y408152D01*
Y418152D01*
Y428152D01*
Y438152D01*
Y448152D01*
Y458152D01*
Y463152D01*
D02*
G37*
G36*
X1263796Y459313D02*
X1259938D01*
Y448915D01*
X1260631Y449053D01*
X1262294Y450164D01*
X1263406Y451828D01*
X1263796Y453791D01*
Y459313D01*
D02*
G37*
G36*
X1258490Y436292D02*
X1252220D01*
Y430022D01*
X1258490D01*
Y436292D01*
D02*
G37*
G36*
X1249680D02*
X1243410D01*
Y430022D01*
X1249680D01*
Y436292D01*
D02*
G37*
G36*
X928618Y490990D02*
X926382D01*
X924223Y490411D01*
X922287Y489294D01*
X920706Y487713D01*
X919589Y485777D01*
X919010Y483618D01*
Y481382D01*
X919589Y479223D01*
X920706Y477287D01*
X922287Y475706D01*
X924223Y474589D01*
X924951Y474394D01*
Y425990D01*
X922615D01*
X920590Y428014D01*
X919763Y428567D01*
X918788Y428761D01*
X908411D01*
Y431773D01*
X897823D01*
Y420651D01*
X908411D01*
Y423663D01*
X917732D01*
X919010Y422385D01*
Y409010D01*
X935990D01*
Y425990D01*
X930049D01*
Y474394D01*
X930777Y474589D01*
X932713Y475706D01*
X934294Y477287D01*
X935411Y479223D01*
X935990Y481382D01*
Y483618D01*
X935411Y485777D01*
X934294Y487713D01*
X932713Y489294D01*
X930777Y490411D01*
X928618Y490990D01*
D02*
G37*
G36*
X808078Y463201D02*
X440906D01*
X440660Y463152D01*
X433906D01*
Y453152D01*
Y443152D01*
Y433152D01*
Y423152D01*
Y413152D01*
Y403152D01*
X447906D01*
Y408338D01*
X450465D01*
X454701Y404102D01*
X454486Y403585D01*
Y401595D01*
X455247Y399758D01*
X456654Y398351D01*
X458491Y397590D01*
X460481D01*
X462318Y398351D01*
X463725Y399758D01*
X464486Y401595D01*
Y403585D01*
X463725Y405422D01*
X462493Y406654D01*
X463725Y407886D01*
X464486Y409723D01*
Y411713D01*
X463725Y413550D01*
X462318Y414957D01*
X460481Y415718D01*
X458813D01*
X458206Y416452D01*
X458648Y417276D01*
X460481D01*
X462318Y418037D01*
X463725Y419444D01*
X464486Y421282D01*
Y423271D01*
X463725Y425108D01*
X462848Y425985D01*
X462402Y426638D01*
X462848Y427291D01*
X463725Y428168D01*
X464486Y430005D01*
Y431995D01*
X463725Y433832D01*
X462318Y435239D01*
X460481Y436000D01*
X458491D01*
X456654Y435239D01*
X455247Y433832D01*
X454888Y432966D01*
X447906D01*
Y438152D01*
Y448337D01*
X454904D01*
X455247Y447510D01*
X456654Y446103D01*
X458491Y445342D01*
X460481D01*
X462318Y446103D01*
X463725Y447510D01*
X464486Y449347D01*
Y451337D01*
X463725Y453174D01*
X462318Y454581D01*
X460481Y455342D01*
X458491D01*
X456654Y454581D01*
X455247Y453174D01*
X455161Y452966D01*
X447906D01*
Y458103D01*
X807022D01*
X827523Y437602D01*
Y431145D01*
X824511D01*
Y420558D01*
X835633D01*
Y423302D01*
X857277D01*
Y420558D01*
X868399D01*
Y423302D01*
X882289D01*
Y420651D01*
X892877D01*
Y431773D01*
X882289D01*
Y428400D01*
X868399D01*
Y431145D01*
X857277D01*
Y428400D01*
X835633D01*
Y431145D01*
X832621D01*
Y438658D01*
X832427Y439633D01*
X831874Y440460D01*
X809881Y462454D01*
X809054Y463007D01*
X808078Y463201D01*
D02*
G37*
G36*
X869939Y417150D02*
X864108D01*
Y411587D01*
X869939D01*
Y417150D01*
D02*
G37*
G36*
X861568D02*
X855737D01*
Y411587D01*
X861568D01*
Y417150D01*
D02*
G37*
G36*
X423905Y421560D02*
X421915D01*
X420078Y420799D01*
X418671Y419392D01*
X417910Y417555D01*
Y415565D01*
X418671Y413728D01*
X420078Y412321D01*
X420596Y412107D01*
Y409218D01*
X420474Y409144D01*
X419595Y408912D01*
X418376Y410131D01*
X416539Y410892D01*
X414549D01*
X412712Y410131D01*
X411305Y408724D01*
X410544Y406887D01*
Y404897D01*
X411305Y403060D01*
X412712Y401653D01*
X413357Y401386D01*
Y397652D01*
X404946D01*
Y399192D01*
X402176D01*
Y390652D01*
Y382112D01*
X403357D01*
Y379139D01*
X403551Y378164D01*
X404104Y377337D01*
X417834Y363606D01*
Y318623D01*
X414555D01*
Y308036D01*
X425677D01*
Y310761D01*
X434390D01*
Y306310D01*
X450390D01*
Y319770D01*
X450390Y320310D01*
X451199Y320770D01*
X451930D01*
Y328040D01*
X442390D01*
X432850D01*
Y320770D01*
X433581D01*
X434390Y320310D01*
X434390Y319770D01*
Y315859D01*
X425677D01*
Y318623D01*
X422932D01*
Y362980D01*
X423856Y363363D01*
X424495Y362724D01*
X425322Y362172D01*
X426297Y361978D01*
X443822D01*
X446493Y359306D01*
X446110Y358383D01*
X443591D01*
Y352552D01*
X449155D01*
Y355338D01*
X450078Y355721D01*
X452561Y353238D01*
Y345721D01*
X457953D01*
Y336310D01*
X456390D01*
Y322850D01*
X456390Y322310D01*
X455581Y321850D01*
X454850D01*
Y314580D01*
X464390D01*
X473930D01*
Y321850D01*
X473199D01*
X472390Y322310D01*
X472390Y322850D01*
Y336310D01*
X463051D01*
Y345721D01*
X463149D01*
Y356843D01*
X456166D01*
X447955Y365054D01*
X448338Y365978D01*
X456172D01*
X582652Y239498D01*
X583479Y238945D01*
X584454Y238751D01*
X615824D01*
X616088Y238487D01*
Y231875D01*
X613344D01*
Y220753D01*
X616791D01*
Y199109D01*
X613811D01*
Y191261D01*
X604893Y182343D01*
X604392Y181592D01*
X604216Y180706D01*
Y177881D01*
X602111Y177317D01*
X600175Y176200D01*
X598594Y174619D01*
X597477Y172683D01*
X596898Y170524D01*
Y168288D01*
X597477Y166129D01*
X598594Y164193D01*
X600175Y162612D01*
X602111Y161495D01*
X603074Y161237D01*
Y112896D01*
X596898D01*
Y95916D01*
X613878D01*
Y112896D01*
X607702D01*
Y161237D01*
X608665Y161495D01*
X610601Y162612D01*
X612182Y164193D01*
X613299Y166129D01*
X613878Y168288D01*
Y170524D01*
X613299Y172683D01*
X612182Y174619D01*
X610601Y176200D01*
X608844Y177214D01*
Y179747D01*
X617085Y187987D01*
X624398D01*
Y199109D01*
X621419D01*
Y220753D01*
X623931D01*
Y231875D01*
X621186D01*
Y239543D01*
X620992Y240518D01*
X620439Y241345D01*
X618682Y243102D01*
X617855Y243655D01*
X616880Y243849D01*
X585510D01*
X459030Y370329D01*
X458203Y370882D01*
X457228Y371076D01*
X429010D01*
X418455Y381631D01*
Y383652D01*
X428406D01*
Y388103D01*
X772120D01*
X823083Y337141D01*
X823910Y336588D01*
X824885Y336394D01*
X846863D01*
Y333649D01*
X849875D01*
Y322199D01*
Y310495D01*
X846609D01*
Y299907D01*
X857731D01*
Y310495D01*
X854973D01*
Y319650D01*
X877463D01*
Y316257D01*
X888051D01*
Y327379D01*
X877463D01*
Y324748D01*
X854973D01*
Y333649D01*
X857985D01*
Y344236D01*
X846863D01*
Y341492D01*
X825941D01*
X774978Y392454D01*
X774152Y393007D01*
X773176Y393201D01*
X428406D01*
Y397652D01*
X423220D01*
Y400135D01*
X424547Y401461D01*
X425048Y402212D01*
X425224Y403098D01*
Y412107D01*
X425742Y412321D01*
X427149Y413728D01*
X427910Y415565D01*
Y417555D01*
X427149Y419392D01*
X425742Y420799D01*
X423905Y421560D01*
D02*
G37*
G36*
X869939Y409047D02*
X864108D01*
Y403483D01*
X869939D01*
Y409047D01*
D02*
G37*
G36*
X861568D02*
X855737D01*
Y403483D01*
X861568D01*
Y409047D01*
D02*
G37*
G36*
X1028298Y537316D02*
X1009798D01*
Y518816D01*
X1016499D01*
Y439460D01*
X956778Y379739D01*
X853734D01*
X832621Y400852D01*
Y405023D01*
X835633D01*
Y415611D01*
X824511D01*
Y412685D01*
X816180D01*
X815095Y413771D01*
X813441Y414456D01*
X811651D01*
X809997Y413771D01*
X808731Y412505D01*
X808046Y410851D01*
Y409061D01*
X808731Y407407D01*
X809997Y406141D01*
X811651Y405456D01*
X813441D01*
X815095Y406141D01*
X816361Y407407D01*
X816436Y407588D01*
X824511D01*
Y405023D01*
X827523D01*
Y399796D01*
X827717Y398821D01*
X828270Y397994D01*
X849875Y376388D01*
Y359771D01*
X846863D01*
Y349184D01*
X857985D01*
Y359771D01*
X854973D01*
Y374641D01*
X957834D01*
X958810Y374835D01*
X959636Y375388D01*
X1020850Y436602D01*
X1021403Y437429D01*
X1021597Y438404D01*
Y518816D01*
X1028298D01*
Y537316D01*
D02*
G37*
G36*
X238629Y391428D02*
X236351D01*
X234151Y390839D01*
X232179Y389700D01*
X230568Y388089D01*
X229429Y386117D01*
X228840Y383917D01*
Y381639D01*
X229429Y379439D01*
X230568Y377467D01*
X232179Y375856D01*
X234151Y374717D01*
X236351Y374128D01*
X238629D01*
X240829Y374717D01*
X242801Y375856D01*
X244412Y377467D01*
X245550Y379439D01*
X246140Y381639D01*
Y383917D01*
X245550Y386117D01*
X244412Y388089D01*
X242801Y389700D01*
X240829Y390839D01*
X238629Y391428D01*
D02*
G37*
G36*
X406135Y360000D02*
X400304D01*
Y354437D01*
X406135D01*
Y360000D01*
D02*
G37*
G36*
X384375D02*
X378545D01*
Y354437D01*
X384375D01*
Y360000D01*
D02*
G37*
G36*
X362616D02*
X356785D01*
Y354437D01*
X362616D01*
Y360000D01*
D02*
G37*
G36*
X340857D02*
X335026D01*
Y354437D01*
X340857D01*
Y360000D01*
D02*
G37*
G36*
X397764D02*
X391933D01*
Y354437D01*
X397764D01*
Y360000D01*
D02*
G37*
G36*
X376005D02*
X370174D01*
Y354437D01*
X376005D01*
Y360000D01*
D02*
G37*
G36*
X354245D02*
X348415D01*
Y354437D01*
X354245D01*
Y360000D01*
D02*
G37*
G36*
X332486D02*
X326655D01*
Y354437D01*
X332486D01*
Y360000D01*
D02*
G37*
G36*
X441051Y358383D02*
X435487D01*
Y352552D01*
X441051D01*
Y358383D01*
D02*
G37*
G36*
X264029Y366028D02*
X261751D01*
X259551Y365438D01*
X257579Y364300D01*
X255968Y362689D01*
X254830Y360717D01*
X254240Y358517D01*
Y356239D01*
X254830Y354039D01*
X255968Y352067D01*
X257579Y350456D01*
X259551Y349318D01*
X261751Y348728D01*
X264029D01*
X266229Y349318D01*
X268201Y350456D01*
X269812Y352067D01*
X270951Y354039D01*
X271540Y356239D01*
Y358517D01*
X270951Y360717D01*
X269812Y362689D01*
X268201Y364300D01*
X266229Y365438D01*
X264029Y366028D01*
D02*
G37*
G36*
X238629D02*
X236351D01*
X234151Y365438D01*
X232179Y364300D01*
X230568Y362689D01*
X229429Y360717D01*
X228840Y358517D01*
Y356239D01*
X229429Y354039D01*
X230568Y352067D01*
X232179Y350456D01*
X234151Y349318D01*
X236351Y348728D01*
X238629D01*
X240829Y349318D01*
X242801Y350456D01*
X244412Y352067D01*
X245550Y354039D01*
X246140Y356239D01*
Y358517D01*
X245550Y360717D01*
X244412Y362689D01*
X242801Y364300D01*
X240829Y365438D01*
X238629Y366028D01*
D02*
G37*
G36*
X406135Y351897D02*
X400304D01*
Y346333D01*
X406135D01*
Y351897D01*
D02*
G37*
G36*
X397764D02*
X391933D01*
Y346333D01*
X397764D01*
Y351897D01*
D02*
G37*
G36*
X384375D02*
X378545D01*
Y346333D01*
X384375D01*
Y351897D01*
D02*
G37*
G36*
X376005D02*
X370174D01*
Y346333D01*
X376005D01*
Y351897D01*
D02*
G37*
G36*
X362616D02*
X356785D01*
Y346333D01*
X362616D01*
Y351897D01*
D02*
G37*
G36*
X354245D02*
X348415D01*
Y346333D01*
X354245D01*
Y351897D01*
D02*
G37*
G36*
X340857D02*
X335026D01*
Y346333D01*
X340857D01*
Y351897D01*
D02*
G37*
G36*
X332486D02*
X326655D01*
Y346333D01*
X332486D01*
Y351897D01*
D02*
G37*
G36*
X449155Y350012D02*
X443591D01*
Y344181D01*
X449155D01*
Y350012D01*
D02*
G37*
G36*
X441051D02*
X435487D01*
Y344181D01*
X441051D01*
Y350012D01*
D02*
G37*
G36*
X451930Y337850D02*
X443660D01*
Y330580D01*
X451930D01*
Y337850D01*
D02*
G37*
G36*
X441120D02*
X432850D01*
Y330580D01*
X441120D01*
Y337850D01*
D02*
G37*
G36*
X928618Y330990D02*
X926382D01*
X924223Y330411D01*
X922287Y329294D01*
X920706Y327713D01*
X919589Y325777D01*
X919393Y325049D01*
X903585D01*
Y327379D01*
X892998D01*
Y316257D01*
X903585D01*
Y319951D01*
X919393D01*
X919589Y319223D01*
X920706Y317287D01*
X922287Y315706D01*
X924223Y314589D01*
X924951Y314394D01*
Y265990D01*
X919010D01*
Y249010D01*
X935990D01*
Y265990D01*
X930049D01*
Y314394D01*
X930777Y314589D01*
X932713Y315706D01*
X934294Y317287D01*
X935411Y319223D01*
X935990Y321382D01*
Y323618D01*
X935411Y325777D01*
X934294Y327713D01*
X932713Y329294D01*
X930777Y330411D01*
X928618Y330990D01*
D02*
G37*
G36*
X473930Y312040D02*
X465660D01*
Y304770D01*
X473930D01*
Y312040D01*
D02*
G37*
G36*
X463120D02*
X454850D01*
Y304770D01*
X463120D01*
Y312040D01*
D02*
G37*
G36*
X427217Y304629D02*
X421386D01*
Y299065D01*
X427217D01*
Y304629D01*
D02*
G37*
G36*
X418846D02*
X413015D01*
Y299065D01*
X418846D01*
Y304629D01*
D02*
G37*
G36*
X427217Y296525D02*
X421386D01*
Y290961D01*
X427217D01*
Y296525D01*
D02*
G37*
G36*
X418846D02*
X413015D01*
Y290961D01*
X418846D01*
Y296525D01*
D02*
G37*
G36*
X859271Y296500D02*
X853440D01*
Y290937D01*
X859271D01*
Y296500D01*
D02*
G37*
G36*
X850900D02*
X845069D01*
Y290937D01*
X850900D01*
Y296500D01*
D02*
G37*
G36*
X859271Y288397D02*
X853440D01*
Y282833D01*
X859271D01*
Y288397D01*
D02*
G37*
G36*
X850900D02*
X845069D01*
Y282833D01*
X850900D01*
Y288397D01*
D02*
G37*
G36*
X108648Y287540D02*
X72378D01*
Y266270D01*
X108648D01*
Y287540D01*
D02*
G37*
G36*
X69838D02*
X33568D01*
Y266270D01*
X69838D01*
Y287540D01*
D02*
G37*
G36*
X108648Y263730D02*
X72378D01*
Y242460D01*
X108648D01*
Y263730D01*
D02*
G37*
G36*
X69838D02*
X33568D01*
Y242460D01*
X69838D01*
Y263730D01*
D02*
G37*
G36*
X898266Y256554D02*
X886996D01*
Y240284D01*
X898266D01*
Y256554D01*
D02*
G37*
G36*
X884456D02*
X873186D01*
Y240284D01*
X884456D01*
Y256554D01*
D02*
G37*
G36*
X898266Y237744D02*
X886996D01*
Y221474D01*
X898266D01*
Y237744D01*
D02*
G37*
G36*
X884456D02*
X873186D01*
Y221474D01*
X884456D01*
Y237744D01*
D02*
G37*
G36*
X39925Y235000D02*
X37292D01*
X34748Y234319D01*
X32468Y233002D01*
X30606Y231140D01*
X29290Y228860D01*
X28608Y226317D01*
Y223683D01*
X29290Y221140D01*
X30606Y218860D01*
X32468Y216998D01*
X34748Y215681D01*
X37292Y215000D01*
X39925D01*
X42468Y215681D01*
X44748Y216998D01*
X46610Y218860D01*
X47927Y221140D01*
X48608Y223683D01*
Y226317D01*
X47927Y228860D01*
X46610Y231140D01*
X44748Y233002D01*
X42468Y234319D01*
X39925Y235000D01*
D02*
G37*
G36*
X279146Y199202D02*
X259588D01*
X258823Y198885D01*
X255076Y195138D01*
X249682D01*
X249682Y195138D01*
X248917Y194821D01*
X248916Y194821D01*
X242059Y187963D01*
X241742Y187198D01*
Y148590D01*
X241887Y148238D01*
X242009Y147877D01*
X245565Y143813D01*
X245600Y143796D01*
X245615Y143761D01*
X250173Y139203D01*
X250938Y138886D01*
X261528D01*
X261555Y138897D01*
X261558Y138896D01*
X261578D01*
X261605Y138907D01*
X261608Y138905D01*
X261608Y138906D01*
X261628D01*
X261704Y138937D01*
X261708Y138935D01*
X261713Y138938D01*
X261743Y138950D01*
X261870Y138941D01*
X261900Y138951D01*
X261901Y138953D01*
X261920Y138951D01*
X261950Y138961D01*
X261952Y138963D01*
X261971Y138961D01*
X262001Y138971D01*
X262013Y138982D01*
X262020Y138981D01*
X262050Y138991D01*
X262090Y139026D01*
X262142Y139030D01*
X262162Y139040D01*
X262186Y139068D01*
X262213Y139070D01*
X262232Y139080D01*
X262249Y139100D01*
X262252Y139100D01*
X262272Y139110D01*
X262352Y139202D01*
X262473Y139253D01*
X262493Y139272D01*
X262493Y139273D01*
X262494Y139275D01*
X262513Y139283D01*
X262533Y139303D01*
X262533Y139303D01*
X262534Y139305D01*
X262553Y139313D01*
X262593Y139353D01*
X262593Y139353D01*
X262594Y139353D01*
X262594Y139353D01*
X262594Y139353D01*
X262614Y139373D01*
X262614Y139373D01*
X262633Y139392D01*
X262641Y139412D01*
X262643Y139413D01*
X262644Y139413D01*
X262663Y139433D01*
X262671Y139452D01*
X262674Y139453D01*
X262674Y139453D01*
X262694Y139473D01*
X262744Y139594D01*
X262836Y139674D01*
X262846Y139694D01*
X262847Y139697D01*
X262866Y139713D01*
X262876Y139733D01*
X262878Y139760D01*
X262906Y139784D01*
X262916Y139804D01*
X262920Y139855D01*
X262955Y139895D01*
X262965Y139925D01*
X262964Y139933D01*
X262975Y139945D01*
X262985Y139976D01*
X262983Y139994D01*
X262985Y139995D01*
X262995Y140026D01*
X262993Y140044D01*
X262995Y140046D01*
X263005Y140076D01*
X262996Y140204D01*
X263008Y140234D01*
X263011Y140239D01*
X263009Y140242D01*
X263040Y140318D01*
Y140338D01*
X263040Y140338D01*
X263039Y140341D01*
X263050Y140368D01*
Y140388D01*
X263049Y140391D01*
X263060Y140418D01*
Y150518D01*
X263049Y150545D01*
X263050Y150548D01*
Y150568D01*
X263039Y150595D01*
X263040Y150598D01*
X263040Y150598D01*
Y150618D01*
X263009Y150694D01*
X263011Y150698D01*
X263008Y150703D01*
X262996Y150733D01*
X263005Y150860D01*
X262995Y150890D01*
X262994Y150892D01*
X262995Y150910D01*
X262985Y150940D01*
X262983Y150942D01*
X262985Y150961D01*
X262975Y150991D01*
X262964Y151003D01*
X262965Y151010D01*
X262955Y151040D01*
X262920Y151081D01*
X262916Y151132D01*
X262906Y151152D01*
X262878Y151176D01*
X262876Y151203D01*
X262866Y151223D01*
X262847Y151239D01*
X262846Y151242D01*
X262836Y151262D01*
X262744Y151342D01*
X262693Y151463D01*
X262673Y151483D01*
X262673Y151483D01*
X262671Y151484D01*
X262663Y151503D01*
X262644Y151523D01*
X262643Y151523D01*
X262641Y151524D01*
X262633Y151543D01*
X262573Y151603D01*
X262573Y151603D01*
X262553Y151623D01*
X262534Y151631D01*
X262533Y151633D01*
X262513Y151653D01*
X262494Y151661D01*
X262493Y151663D01*
X262473Y151683D01*
X262352Y151734D01*
X262272Y151826D01*
X262252Y151836D01*
X262249Y151837D01*
X262232Y151856D01*
X262213Y151866D01*
X262186Y151868D01*
X262162Y151896D01*
X262142Y151906D01*
X262090Y151910D01*
X262050Y151945D01*
X262020Y151955D01*
X262013Y151954D01*
X262001Y151965D01*
X261971Y151975D01*
X261952Y151973D01*
X261950Y151975D01*
X261920Y151985D01*
X261901Y151983D01*
X261900Y151985D01*
X261870Y151995D01*
X261743Y151986D01*
X261708Y152000D01*
X261704Y151999D01*
X261628Y152030D01*
X261608D01*
X261605Y152029D01*
X261578Y152040D01*
X261558D01*
X261555Y152039D01*
X261528Y152050D01*
X254356D01*
X250256Y156150D01*
Y178114D01*
X253305Y181163D01*
X256794D01*
X256806Y181167D01*
X256817Y181163D01*
X257105Y181290D01*
X265657D01*
Y185894D01*
X267656Y187894D01*
X279146D01*
X279372Y187987D01*
X286833D01*
Y199109D01*
X279372D01*
X279146Y199202D01*
D02*
G37*
G36*
X641473Y200649D02*
X635909D01*
Y194818D01*
X641473D01*
Y200649D01*
D02*
G37*
G36*
X633369D02*
X627805D01*
Y194818D01*
X633369D01*
Y200649D01*
D02*
G37*
G36*
X835364Y204334D02*
X828344D01*
Y194564D01*
X835364D01*
Y204334D01*
D02*
G37*
G36*
X825804D02*
X818784D01*
Y194564D01*
X825804D01*
Y204334D01*
D02*
G37*
G36*
X457200Y193106D02*
X437642D01*
X436877Y192789D01*
X433130Y189042D01*
X427736D01*
X427736Y189042D01*
X426971Y188725D01*
X426970Y188725D01*
X420113Y181867D01*
X419796Y181102D01*
Y142494D01*
X419941Y142142D01*
X420063Y141781D01*
X423619Y137717D01*
X423654Y137700D01*
X423669Y137665D01*
X428227Y133107D01*
X428992Y132790D01*
X437032D01*
X437322Y132910D01*
X439582D01*
X439609Y132921D01*
X439612Y132920D01*
X439632D01*
X439659Y132931D01*
X439662Y132929D01*
X439662Y132930D01*
X439682D01*
X439758Y132961D01*
X439762Y132959D01*
X439767Y132962D01*
X439797Y132974D01*
X439924Y132965D01*
X439954Y132975D01*
X439955Y132977D01*
X439974Y132975D01*
X440004Y132985D01*
X440006Y132987D01*
X440024Y132985D01*
X440055Y132995D01*
X440067Y133006D01*
X440074Y133005D01*
X440104Y133015D01*
X440145Y133050D01*
X440196Y133054D01*
X440216Y133064D01*
X440240Y133092D01*
X440267Y133094D01*
X440286Y133104D01*
X440303Y133124D01*
X440306Y133124D01*
X440326Y133134D01*
X440406Y133226D01*
X440527Y133277D01*
X440547Y133296D01*
X440547Y133297D01*
X440548Y133299D01*
X440567Y133307D01*
X440587Y133327D01*
X440587Y133327D01*
X440588Y133329D01*
X440607Y133337D01*
X440647Y133377D01*
X440647Y133377D01*
X440648Y133377D01*
X440648Y133377D01*
X440648Y133377D01*
X440668Y133397D01*
X440668Y133397D01*
X440687Y133416D01*
X440695Y133436D01*
X440697Y133437D01*
X440698Y133437D01*
X440717Y133457D01*
X440725Y133476D01*
X440728Y133477D01*
X440728Y133477D01*
X440748Y133497D01*
X440798Y133618D01*
X440890Y133698D01*
X440900Y133718D01*
X440900Y133721D01*
X440920Y133737D01*
X440930Y133757D01*
X440932Y133784D01*
X440960Y133808D01*
X440970Y133828D01*
X440974Y133879D01*
X441009Y133919D01*
X441019Y133949D01*
X441018Y133957D01*
X441029Y133969D01*
X441039Y134000D01*
X441037Y134018D01*
X441039Y134019D01*
X441049Y134050D01*
X441047Y134068D01*
X441049Y134070D01*
X441059Y134100D01*
X441050Y134228D01*
X441062Y134258D01*
X441064Y134263D01*
X441063Y134266D01*
X441094Y134342D01*
Y134362D01*
X441094Y134362D01*
X441093Y134365D01*
X441104Y134392D01*
Y134412D01*
X441103Y134415D01*
X441114Y134442D01*
Y144542D01*
X441103Y144569D01*
X441104Y144572D01*
Y144592D01*
X441093Y144619D01*
X441095Y144622D01*
X441094Y144622D01*
Y144642D01*
X441063Y144718D01*
X441064Y144722D01*
X441062Y144727D01*
X441050Y144757D01*
X441059Y144884D01*
X441049Y144914D01*
X441048Y144916D01*
X441049Y144934D01*
X441039Y144964D01*
X441037Y144966D01*
X441039Y144985D01*
X441029Y145014D01*
X441018Y145027D01*
X441019Y145034D01*
X441009Y145064D01*
X440974Y145105D01*
X440970Y145156D01*
X440960Y145176D01*
X440932Y145200D01*
X440930Y145227D01*
X440920Y145246D01*
X440900Y145263D01*
X440900Y145266D01*
X440890Y145286D01*
X440798Y145366D01*
X440747Y145487D01*
X440728Y145507D01*
X440727Y145507D01*
X440725Y145508D01*
X440717Y145527D01*
X440698Y145547D01*
X440697Y145547D01*
X440695Y145548D01*
X440687Y145567D01*
X440627Y145627D01*
X440627Y145627D01*
X440607Y145647D01*
X440588Y145655D01*
X440587Y145657D01*
X440567Y145677D01*
X440548Y145685D01*
X440547Y145687D01*
X440527Y145707D01*
X440406Y145758D01*
X440326Y145850D01*
X440306Y145860D01*
X440303Y145861D01*
X440286Y145880D01*
X440267Y145890D01*
X440240Y145892D01*
X440216Y145920D01*
X440196Y145930D01*
X440145Y145934D01*
X440104Y145969D01*
X440074Y145979D01*
X440067Y145978D01*
X440055Y145989D01*
X440024Y145999D01*
X440006Y145997D01*
X440004Y145999D01*
X439974Y146009D01*
X439955Y146007D01*
X439954Y146009D01*
X439924Y146019D01*
X439797Y146010D01*
X439762Y146024D01*
X439758Y146023D01*
X439682Y146054D01*
X439662D01*
X439659Y146053D01*
X439632Y146064D01*
X439612D01*
X439609Y146063D01*
X439582Y146074D01*
X434482D01*
X434455Y146063D01*
X434452Y146064D01*
X434432D01*
X434405Y146053D01*
X434402Y146054D01*
X434382D01*
X434306Y146023D01*
X434302Y146024D01*
X434267Y146010D01*
X434141Y146019D01*
X434110Y146009D01*
X434109Y146007D01*
X434090Y146009D01*
X434059Y145999D01*
X434058Y145997D01*
X434040Y145999D01*
X434010Y145989D01*
X433997Y145978D01*
X433989Y145979D01*
X433960Y145969D01*
X433943Y145954D01*
X432410D01*
X428310Y150054D01*
Y172018D01*
X431359Y175067D01*
X434848D01*
X434860Y175071D01*
X434871Y175067D01*
X435159Y175194D01*
X443965D01*
Y180052D01*
X445710Y181798D01*
X457200D01*
X457426Y181891D01*
X464887D01*
Y193013D01*
X457426D01*
X457200Y193106D01*
D02*
G37*
G36*
X641473Y192278D02*
X635909D01*
Y186447D01*
X641473D01*
Y192278D01*
D02*
G37*
G36*
X633369D02*
X627805D01*
Y186447D01*
X633369D01*
Y192278D01*
D02*
G37*
G36*
X835364Y192024D02*
X828344D01*
Y182254D01*
X835364D01*
Y192024D01*
D02*
G37*
G36*
X825804D02*
X818784D01*
Y182254D01*
X825804D01*
Y192024D01*
D02*
G37*
G36*
X246140Y289828D02*
X228840D01*
Y272528D01*
X242295D01*
X242640Y272459D01*
X244718D01*
X253255Y263923D01*
X254412Y263149D01*
X255778Y262877D01*
X265476D01*
X323075Y205278D01*
Y180330D01*
X320564D01*
X302367Y198528D01*
Y199109D01*
X301470D01*
X301244Y199202D01*
X292862D01*
X292636Y199109D01*
X291779D01*
Y187987D01*
X291780D01*
Y166370D01*
X292097Y165605D01*
X292097Y165605D01*
X292288Y165414D01*
Y164619D01*
X293398D01*
X293624Y164526D01*
X314716D01*
Y153248D01*
X315033Y152483D01*
X315798Y152166D01*
X327418D01*
X327603Y152242D01*
X327804Y152237D01*
X327971Y152395D01*
X328183Y152483D01*
X328260Y152668D01*
X328406Y152806D01*
X328868Y153839D01*
X329310Y154741D01*
X329788Y155621D01*
X330307Y156486D01*
X330854Y157330D01*
X331438Y158154D01*
X332054Y158953D01*
X332698Y159731D01*
X333367Y160476D01*
X334076Y161195D01*
X334809Y161890D01*
X335569Y162563D01*
X336345Y163195D01*
X337150Y163799D01*
X337986Y164375D01*
X338827Y164911D01*
X339703Y165411D01*
X340598Y165893D01*
X341497Y166323D01*
X342429Y166726D01*
X343369Y167091D01*
X344319Y167417D01*
X345282Y167706D01*
X346260Y167965D01*
X347244Y168175D01*
X348238Y168349D01*
X349236Y168493D01*
X350241Y168589D01*
X351239Y168646D01*
X352298Y168665D01*
X353357Y168646D01*
X354355Y168589D01*
X355360Y168493D01*
X356357Y168349D01*
X357352Y168175D01*
X358336Y167965D01*
X359314Y167706D01*
X360277Y167417D01*
X361226Y167091D01*
X362167Y166726D01*
X363099Y166323D01*
X363998Y165893D01*
X364893Y165411D01*
X365769Y164911D01*
X366610Y164376D01*
X367445Y163799D01*
X368251Y163195D01*
X369027Y162563D01*
X369787Y161890D01*
X370520Y161195D01*
X371229Y160476D01*
X371898Y159731D01*
X372542Y158952D01*
X373158Y158154D01*
X373742Y157330D01*
X374290Y156485D01*
X374808Y155621D01*
X375286Y154741D01*
X375728Y153839D01*
X376190Y152806D01*
X376336Y152668D01*
X376413Y152483D01*
X376625Y152395D01*
X376792Y152237D01*
X376993Y152242D01*
X377178Y152166D01*
X388798D01*
X389563Y152483D01*
X389880Y153248D01*
Y175248D01*
X389870Y175273D01*
X389879Y175299D01*
X389859Y175720D01*
X389836Y175769D01*
X389850Y175821D01*
X389819Y176031D01*
X389803Y176059D01*
X389809Y176090D01*
X389769Y176290D01*
X389758Y176308D01*
X389761Y176329D01*
X389711Y176539D01*
X389691Y176566D01*
X389695Y176599D01*
X389635Y176799D01*
X389612Y176827D01*
X389614Y176862D01*
X389544Y177052D01*
X389533Y177064D01*
X389533Y177080D01*
X389453Y177280D01*
X389428Y177306D01*
X389426Y177341D01*
X389336Y177531D01*
X389309Y177556D01*
X389304Y177594D01*
X389204Y177774D01*
X389185Y177789D01*
X389182Y177812D01*
X389072Y177992D01*
X389059Y178001D01*
X389057Y178016D01*
X388947Y178186D01*
X388909Y178212D01*
X388898Y178256D01*
X388768Y178426D01*
X388735Y178445D01*
X388723Y178481D01*
X388583Y178641D01*
X388566Y178649D01*
X388559Y178666D01*
X388419Y178817D01*
X388383Y178833D01*
X388367Y178869D01*
X388217Y179009D01*
X388199Y179016D01*
X388191Y179033D01*
X388031Y179173D01*
X387995Y179185D01*
X387976Y179218D01*
X387805Y179348D01*
X387762Y179359D01*
X387736Y179397D01*
X387566Y179507D01*
X387551Y179510D01*
X387542Y179522D01*
X387363Y179632D01*
X387339Y179635D01*
X387324Y179654D01*
X387144Y179754D01*
X387106Y179758D01*
X387081Y179786D01*
X386891Y179876D01*
X386856Y179878D01*
X386830Y179903D01*
X386630Y179983D01*
X386614Y179983D01*
X386602Y179994D01*
X386412Y180064D01*
X386377Y180062D01*
X386349Y180085D01*
X386149Y180145D01*
X386116Y180141D01*
X386089Y180161D01*
X385879Y180211D01*
X385858Y180208D01*
X385840Y180219D01*
X385640Y180259D01*
X385609Y180253D01*
X385581Y180270D01*
X385371Y180299D01*
X385319Y180286D01*
X385270Y180309D01*
X384850Y180329D01*
X384823Y180320D01*
X384798Y180330D01*
X330213D01*
Y206756D01*
X329941Y208122D01*
X329167Y209279D01*
X269477Y268969D01*
X268320Y269743D01*
X266954Y270015D01*
X257256D01*
X248719Y278551D01*
X247562Y279325D01*
X246196Y279597D01*
X246140D01*
Y289828D01*
D02*
G37*
G36*
X539215Y233746D02*
X528093D01*
Y223159D01*
X530595D01*
Y176382D01*
X496471D01*
X480421Y192432D01*
Y193013D01*
X479524D01*
X479298Y193106D01*
X470916D01*
X470690Y193013D01*
X469833D01*
Y181891D01*
X469834D01*
Y170153D01*
X469833D01*
Y159031D01*
X470628D01*
X470913Y158747D01*
X471678Y158430D01*
X495916D01*
Y144382D01*
X572916D01*
Y176382D01*
X536713D01*
Y223159D01*
X539215D01*
Y233746D01*
D02*
G37*
G36*
X280777Y177281D02*
X275213D01*
Y176022D01*
X280777D01*
Y177281D01*
D02*
G37*
G36*
X267197Y177882D02*
X261366D01*
Y176022D01*
X267197D01*
Y177882D01*
D02*
G37*
G36*
X258826D02*
X252995D01*
Y172319D01*
X255524D01*
Y176022D01*
X258826D01*
Y177882D01*
D02*
G37*
G36*
X826131Y177789D02*
X820567D01*
Y171958D01*
X826131D01*
Y177789D01*
D02*
G37*
G36*
X818027D02*
X812464D01*
Y171958D01*
X818027D01*
Y177789D01*
D02*
G37*
G36*
X288881Y177281D02*
X283317D01*
Y176022D01*
X286258D01*
Y171450D01*
X288881D01*
Y177281D01*
D02*
G37*
G36*
X458323Y171693D02*
X452759D01*
Y169926D01*
X458323D01*
Y171693D01*
D02*
G37*
G36*
X445505Y171786D02*
X439674D01*
Y169926D01*
X445505D01*
Y171786D01*
D02*
G37*
G36*
X847079Y174367D02*
X841248D01*
Y168803D01*
X847079D01*
Y174367D01*
D02*
G37*
G36*
X838708D02*
X832877D01*
Y168803D01*
X838708D01*
Y174367D01*
D02*
G37*
G36*
X437134Y171786D02*
X431303D01*
Y166223D01*
X433578D01*
Y169926D01*
X437134D01*
Y171786D01*
D02*
G37*
G36*
X466427Y171693D02*
X460863D01*
Y169926D01*
X464312D01*
Y165862D01*
X466427D01*
Y171693D01*
D02*
G37*
G36*
X39925Y185000D02*
X37292D01*
X34748Y184319D01*
X32468Y183002D01*
X30606Y181140D01*
X29290Y178860D01*
X28608Y176317D01*
Y173683D01*
X29290Y171140D01*
X30606Y168860D01*
X32468Y166998D01*
X34748Y165681D01*
X37292Y165000D01*
X39925D01*
X42468Y165681D01*
X44748Y166998D01*
X46610Y168860D01*
X47927Y171140D01*
X48608Y173683D01*
Y176317D01*
X47927Y178860D01*
X46610Y181140D01*
X44748Y183002D01*
X42468Y184319D01*
X39925Y185000D01*
D02*
G37*
G36*
X255524Y169779D02*
X252995D01*
Y164215D01*
X255524D01*
Y169779D01*
D02*
G37*
G36*
X826131Y169418D02*
X820567D01*
Y163587D01*
X826131D01*
Y169418D01*
D02*
G37*
G36*
X818027D02*
X812464D01*
Y163587D01*
X818027D01*
Y169418D01*
D02*
G37*
G36*
X288881Y168910D02*
X286258D01*
Y165298D01*
Y163079D01*
X288881D01*
Y168910D01*
D02*
G37*
G36*
X847079Y166263D02*
X841248D01*
Y160700D01*
X847079D01*
Y166263D01*
D02*
G37*
G36*
X838708D02*
X832877D01*
Y160700D01*
X838708D01*
Y166263D01*
D02*
G37*
G36*
X433578Y163683D02*
X431303D01*
Y158119D01*
X433578D01*
Y163683D01*
D02*
G37*
G36*
X1023112Y157800D02*
X973582D01*
X973531Y157779D01*
X973479Y157795D01*
X973386Y157746D01*
X957024D01*
Y131746D01*
X975433D01*
X980183Y126997D01*
X980948Y126680D01*
X1035304D01*
X1036069Y126997D01*
X1036386Y127762D01*
Y144526D01*
X1036386Y144526D01*
X1036069Y145291D01*
X1036069Y145292D01*
X1023877Y157483D01*
X1023112Y157800D01*
D02*
G37*
G36*
X466427Y163322D02*
X464312D01*
Y159202D01*
Y157491D01*
X466427D01*
Y163322D01*
D02*
G37*
G36*
X280493Y152105D02*
X280362Y152050D01*
X275428D01*
X275401Y152039D01*
X275398Y152040D01*
X275378D01*
X275351Y152029D01*
X275348Y152030D01*
X275348Y152030D01*
X275328D01*
X275252Y151999D01*
X275248Y152001D01*
X275243Y151998D01*
X275213Y151986D01*
X275086Y151995D01*
X275056Y151985D01*
X275054Y151983D01*
X275036Y151985D01*
X275006Y151975D01*
X275004Y151973D01*
X274986Y151975D01*
X274956Y151965D01*
X274943Y151954D01*
X274936Y151955D01*
X274906Y151945D01*
X274865Y151910D01*
X274814Y151906D01*
X274794Y151896D01*
X274770Y151868D01*
X274743Y151866D01*
X274723Y151856D01*
X274707Y151837D01*
X274704Y151836D01*
X274684Y151826D01*
X274604Y151734D01*
X274483Y151683D01*
X274463Y151664D01*
X274463Y151664D01*
X274462Y151661D01*
X274443Y151653D01*
X274423Y151634D01*
X274423Y151633D01*
X274422Y151631D01*
X274403Y151623D01*
X274343Y151563D01*
X274343Y151563D01*
X274323Y151543D01*
X274315Y151524D01*
X274313Y151523D01*
X274293Y151503D01*
X274285Y151484D01*
X274283Y151483D01*
X274263Y151463D01*
X274212Y151342D01*
X274120Y151262D01*
X274110Y151242D01*
X274109Y151239D01*
X274090Y151223D01*
X274080Y151203D01*
X274078Y151176D01*
X274050Y151152D01*
X274040Y151132D01*
X274036Y151081D01*
X274001Y151040D01*
X273991Y151010D01*
X273992Y151003D01*
X273981Y150991D01*
X273971Y150961D01*
X273973Y150942D01*
X273971Y150940D01*
X273961Y150910D01*
X273962Y150892D01*
X273961Y150890D01*
X273951Y150860D01*
X273960Y150733D01*
X273946Y150698D01*
X273947Y150694D01*
X273916Y150618D01*
Y150598D01*
X273917Y150595D01*
X273906Y150568D01*
Y150548D01*
X273907Y150545D01*
X273896Y150518D01*
Y140418D01*
X273907Y140391D01*
X273906Y140388D01*
Y140368D01*
X273917Y140341D01*
X273916Y140338D01*
X273916Y140338D01*
Y140318D01*
X273947Y140242D01*
X273946Y140239D01*
X273948Y140234D01*
X273960Y140204D01*
X273951Y140076D01*
X273961Y140046D01*
X273963Y140044D01*
X273961Y140026D01*
X273971Y139995D01*
X273973Y139994D01*
X273971Y139976D01*
X273981Y139945D01*
X273992Y139933D01*
X273991Y139925D01*
X274001Y139895D01*
X274036Y139855D01*
X274040Y139804D01*
X274050Y139784D01*
X274078Y139760D01*
X274080Y139733D01*
X274090Y139713D01*
X274109Y139697D01*
X274110Y139694D01*
X274120Y139674D01*
X274212Y139594D01*
X274262Y139473D01*
X274282Y139453D01*
X274282Y139453D01*
X274285Y139452D01*
X274293Y139433D01*
X274312Y139413D01*
X274313Y139413D01*
X274315Y139412D01*
X274323Y139392D01*
X274343Y139372D01*
X274343Y139372D01*
X274343Y139372D01*
X274362Y139353D01*
X274362Y139353D01*
X274363Y139353D01*
X274363Y139353D01*
X274383Y139333D01*
X274383Y139333D01*
X274403Y139313D01*
X274422Y139305D01*
X274423Y139303D01*
X274443Y139283D01*
X274462Y139275D01*
X274463Y139273D01*
X274483Y139253D01*
X274604Y139202D01*
X274684Y139110D01*
X274704Y139100D01*
X274707Y139100D01*
X274723Y139080D01*
X274743Y139070D01*
X274770Y139068D01*
X274794Y139040D01*
X274814Y139030D01*
X274865Y139026D01*
X274906Y138991D01*
X274936Y138981D01*
X274943Y138982D01*
X274956Y138971D01*
X274986Y138961D01*
X275004Y138963D01*
X275006Y138961D01*
X275036Y138951D01*
X275054Y138953D01*
X275056Y138951D01*
X275086Y138941D01*
X275213Y138950D01*
X275248Y138936D01*
X275252Y138937D01*
X275328Y138906D01*
X275348D01*
X275351Y138907D01*
X275378Y138896D01*
X275398D01*
X275401Y138897D01*
X275428Y138886D01*
X280682D01*
X281422Y138872D01*
X281432Y138876D01*
X281442Y138872D01*
X290890D01*
X293143Y136618D01*
Y128457D01*
X304265D01*
Y136934D01*
X304358Y137160D01*
Y148082D01*
X304041Y148847D01*
X304041Y148847D01*
X301755Y151133D01*
X300990Y151450D01*
X281699D01*
X281693Y151463D01*
X281673Y151483D01*
X281672Y151484D01*
X281664Y151503D01*
X281644Y151523D01*
X281642Y151524D01*
X281634Y151543D01*
X281614Y151563D01*
X281613Y151563D01*
X281613Y151564D01*
X281573Y151603D01*
X281573Y151603D01*
X281554Y151623D01*
X281535Y151631D01*
X281534Y151633D01*
X281514Y151653D01*
X281494Y151661D01*
X281493Y151663D01*
X281473Y151683D01*
X281352Y151734D01*
X281271Y151827D01*
X281251Y151837D01*
X281249Y151837D01*
X281232Y151856D01*
X281212Y151866D01*
X281186Y151868D01*
X281162Y151896D01*
X281142Y151906D01*
X281091Y151910D01*
X281050Y151945D01*
X281021Y151955D01*
X281012Y151954D01*
X281000Y151965D01*
X280970Y151975D01*
X280952Y151974D01*
X280951Y151975D01*
X280921Y151985D01*
X280901Y151983D01*
X280900Y151985D01*
X280879Y151992D01*
X280788Y152064D01*
X280635Y152046D01*
X280493Y152105D01*
D02*
G37*
G36*
X271518Y148508D02*
X271478D01*
Y146738D01*
X271518D01*
Y148508D01*
D02*
G37*
G36*
X265478D02*
X265438D01*
Y146738D01*
X265478D01*
Y148508D01*
D02*
G37*
G36*
X458582Y146074D02*
X453482D01*
X453455Y146063D01*
X453452Y146064D01*
X453432D01*
X453405Y146053D01*
X453402Y146054D01*
X453402Y146054D01*
X453382D01*
X453306Y146023D01*
X453302Y146025D01*
X453297Y146022D01*
X453267Y146010D01*
X453140Y146019D01*
X453110Y146009D01*
X453108Y146007D01*
X453090Y146009D01*
X453060Y145999D01*
X453058Y145997D01*
X453040Y145999D01*
X453009Y145989D01*
X452997Y145978D01*
X452990Y145979D01*
X452960Y145969D01*
X452920Y145934D01*
X452868Y145930D01*
X452848Y145920D01*
X452824Y145892D01*
X452797Y145890D01*
X452777Y145880D01*
X452761Y145861D01*
X452758Y145860D01*
X452738Y145850D01*
X452658Y145758D01*
X452537Y145707D01*
X452517Y145688D01*
X452517Y145687D01*
X452516Y145685D01*
X452497Y145677D01*
X452477Y145658D01*
X452477Y145657D01*
X452476Y145655D01*
X452457Y145647D01*
X452397Y145587D01*
X452397Y145587D01*
X452377Y145567D01*
X452369Y145548D01*
X452367Y145547D01*
X452347Y145527D01*
X452339Y145508D01*
X452337Y145507D01*
X452317Y145487D01*
X452266Y145366D01*
X452174Y145286D01*
X452164Y145266D01*
X452164Y145263D01*
X452144Y145246D01*
X452134Y145227D01*
X452132Y145200D01*
X452104Y145176D01*
X452094Y145156D01*
X452090Y145105D01*
X452055Y145064D01*
X452045Y145034D01*
X452046Y145027D01*
X452035Y145014D01*
X452025Y144985D01*
X452027Y144966D01*
X452025Y144964D01*
X452015Y144934D01*
X452016Y144916D01*
X452015Y144914D01*
X452005Y144884D01*
X452014Y144757D01*
X452000Y144722D01*
X452001Y144718D01*
X451970Y144642D01*
Y144622D01*
X451971Y144619D01*
X451960Y144592D01*
Y144572D01*
X451961Y144569D01*
X451950Y144542D01*
Y134442D01*
X451961Y134415D01*
X451960Y134412D01*
Y134392D01*
X451971Y134365D01*
X451970Y134362D01*
X451970Y134362D01*
Y134342D01*
X452001Y134266D01*
X452000Y134263D01*
X452002Y134258D01*
X452014Y134228D01*
X452005Y134100D01*
X452015Y134070D01*
X452017Y134068D01*
X452015Y134050D01*
X452025Y134019D01*
X452027Y134018D01*
X452025Y134000D01*
X452035Y133969D01*
X452046Y133957D01*
X452045Y133949D01*
X452055Y133919D01*
X452090Y133879D01*
X452094Y133828D01*
X452104Y133808D01*
X452132Y133784D01*
X452134Y133757D01*
X452144Y133737D01*
X452164Y133721D01*
X452164Y133718D01*
X452174Y133698D01*
X452266Y133618D01*
X452316Y133497D01*
X452336Y133477D01*
X452336Y133477D01*
X452339Y133476D01*
X452347Y133457D01*
X452366Y133437D01*
X452367Y133437D01*
X452369Y133436D01*
X452377Y133416D01*
X452397Y133396D01*
X452397Y133396D01*
X452397Y133396D01*
X452416Y133377D01*
X452416Y133377D01*
X452416Y133377D01*
X452417Y133377D01*
X452437Y133357D01*
X452437Y133357D01*
X452457Y133337D01*
X452476Y133329D01*
X452477Y133327D01*
X452497Y133307D01*
X452516Y133299D01*
X452517Y133297D01*
X452537Y133277D01*
X452658Y133226D01*
X452738Y133134D01*
X452758Y133124D01*
X452761Y133124D01*
X452777Y133104D01*
X452797Y133094D01*
X452824Y133092D01*
X452848Y133064D01*
X452868Y133054D01*
X452920Y133050D01*
X452960Y133015D01*
X452990Y133005D01*
X452997Y133006D01*
X453009Y132995D01*
X453040Y132985D01*
X453058Y132987D01*
X453060Y132985D01*
X453090Y132975D01*
X453108Y132977D01*
X453110Y132975D01*
X453140Y132965D01*
X453267Y132974D01*
X453302Y132960D01*
X453306Y132961D01*
X453382Y132930D01*
X453402D01*
X453405Y132931D01*
X453432Y132920D01*
X453452D01*
X453455Y132921D01*
X453482Y132910D01*
X455029D01*
X455129Y132830D01*
X455281Y132848D01*
X455423Y132790D01*
X458736D01*
X459476Y132776D01*
X459486Y132780D01*
X459496Y132776D01*
X468944D01*
X470943Y130776D01*
Y122361D01*
X482065D01*
Y130286D01*
X482095Y130299D01*
X482412Y131064D01*
Y141986D01*
X482095Y142751D01*
X482095Y142751D01*
X479809Y145037D01*
X479044Y145354D01*
X459812D01*
X459797Y145367D01*
X459747Y145487D01*
X459727Y145507D01*
X459726Y145508D01*
X459718Y145527D01*
X459698Y145547D01*
X459696Y145548D01*
X459688Y145567D01*
X459668Y145587D01*
X459667Y145587D01*
X459667Y145588D01*
X459627Y145627D01*
X459627Y145627D01*
X459608Y145647D01*
X459589Y145655D01*
X459588Y145657D01*
X459588Y145657D01*
X459568Y145677D01*
X459548Y145685D01*
X459547Y145687D01*
X459547Y145688D01*
X459527Y145707D01*
X459406Y145758D01*
X459325Y145851D01*
X459305Y145861D01*
X459303Y145861D01*
X459286Y145880D01*
X459266Y145890D01*
X459240Y145892D01*
X459216Y145920D01*
X459196Y145930D01*
X459145Y145934D01*
X459104Y145969D01*
X459075Y145979D01*
X459067Y145978D01*
X459054Y145989D01*
X459024Y145999D01*
X459006Y145997D01*
X459005Y145999D01*
X458974Y146009D01*
X458955Y146007D01*
X458954Y146009D01*
X458923Y146019D01*
X458797Y146010D01*
X458767Y146022D01*
X458762Y146025D01*
X458758Y146023D01*
X458682Y146054D01*
X458662D01*
X458662Y146054D01*
X458659Y146053D01*
X458632Y146064D01*
X458612D01*
X458609Y146063D01*
X458582Y146074D01*
D02*
G37*
G36*
X271518Y144198D02*
X271478D01*
Y142428D01*
X271518D01*
Y144198D01*
D02*
G37*
G36*
X265478D02*
X265438D01*
Y142428D01*
X265478D01*
Y144198D01*
D02*
G37*
G36*
X449572Y142532D02*
X449532D01*
Y140762D01*
X449572D01*
Y142532D01*
D02*
G37*
G36*
X443532D02*
X443492D01*
Y140762D01*
X443532D01*
Y142532D01*
D02*
G37*
G36*
X449572Y138222D02*
X449532D01*
Y136452D01*
X449572D01*
Y138222D01*
D02*
G37*
G36*
X443532D02*
X443492D01*
Y136452D01*
X443532D01*
Y138222D01*
D02*
G37*
G36*
X108648Y157540D02*
X72378D01*
Y136270D01*
X108648D01*
Y157540D01*
D02*
G37*
G36*
X69838D02*
X33568D01*
Y136270D01*
X69838D01*
Y157540D01*
D02*
G37*
G36*
X1049622Y145184D02*
X1047910D01*
X1046257Y144741D01*
X1044775Y143885D01*
X1043565Y142675D01*
X1042709Y141193D01*
X1042266Y139540D01*
Y137828D01*
X1042709Y136175D01*
X1043565Y134693D01*
X1044775Y133483D01*
X1046257Y132627D01*
X1047910Y132184D01*
X1049622D01*
X1051275Y132627D01*
X1052757Y133483D01*
X1053967Y134693D01*
X1054823Y136175D01*
X1055266Y137828D01*
Y139540D01*
X1054823Y141193D01*
X1053967Y142675D01*
X1052757Y143885D01*
X1051275Y144741D01*
X1049622Y145184D01*
D02*
G37*
G36*
X1032616Y122534D02*
X1014116D01*
Y122494D01*
X976884D01*
X976884Y122494D01*
X976119Y122177D01*
X976118Y122177D01*
X975687Y121746D01*
X957024D01*
Y95746D01*
X974952D01*
X975071Y95692D01*
X975089Y95699D01*
X975106Y95692D01*
X1026922D01*
X1027687Y96009D01*
X1027687Y96009D01*
X1032259Y100581D01*
X1032576Y101346D01*
Y104034D01*
X1032616D01*
Y122534D01*
D02*
G37*
G36*
X572916Y126382D02*
X495916D01*
Y117414D01*
X482065D01*
Y117415D01*
X472634D01*
X470431Y119617D01*
X469666Y119934D01*
X459144D01*
X459104Y119969D01*
X459075Y119979D01*
X459067Y119978D01*
X459054Y119989D01*
X459024Y119999D01*
X459006Y119998D01*
X459005Y119999D01*
X458974Y120009D01*
X458955Y120007D01*
X458954Y120009D01*
X458923Y120019D01*
X458797Y120010D01*
X458762Y120024D01*
X458758Y120023D01*
X458682Y120054D01*
X458662D01*
X458659Y120053D01*
X458632Y120064D01*
X458612D01*
X458609Y120063D01*
X458582Y120074D01*
X453482D01*
X453455Y120063D01*
X453452Y120064D01*
X453432D01*
X453405Y120053D01*
X453402Y120055D01*
X453402Y120054D01*
X453382D01*
X453306Y120023D01*
X453302Y120024D01*
X453297Y120022D01*
X453267Y120010D01*
X453140Y120019D01*
X453110Y120009D01*
X453108Y120007D01*
X453090Y120009D01*
X453060Y119999D01*
X453058Y119997D01*
X453040Y119999D01*
X453009Y119989D01*
X452997Y119978D01*
X452990Y119979D01*
X452960Y119969D01*
X452920Y119934D01*
X452868Y119930D01*
X452848Y119920D01*
X452824Y119892D01*
X452797Y119890D01*
X452777Y119880D01*
X452761Y119860D01*
X452758Y119860D01*
X452738Y119850D01*
X452658Y119758D01*
X452537Y119707D01*
X452517Y119688D01*
X452517Y119687D01*
X452516Y119685D01*
X452497Y119677D01*
X452477Y119657D01*
X452477Y119657D01*
X452476Y119655D01*
X452457Y119647D01*
X452417Y119607D01*
X452417Y119607D01*
X452416Y119607D01*
X452416Y119607D01*
X452416Y119607D01*
X452396Y119587D01*
X452396Y119587D01*
X452377Y119568D01*
X452369Y119548D01*
X452367Y119547D01*
X452366Y119547D01*
X452347Y119527D01*
X452339Y119508D01*
X452336Y119507D01*
X452336Y119507D01*
X452316Y119487D01*
X452266Y119366D01*
X452174Y119286D01*
X452164Y119266D01*
X452164Y119263D01*
X452144Y119247D01*
X452134Y119227D01*
X452132Y119200D01*
X452104Y119176D01*
X452094Y119156D01*
X452090Y119105D01*
X452055Y119065D01*
X452045Y119035D01*
X452046Y119027D01*
X452035Y119015D01*
X452025Y118984D01*
X452027Y118966D01*
X452025Y118965D01*
X452015Y118934D01*
X452017Y118916D01*
X452015Y118914D01*
X452005Y118884D01*
X452014Y118756D01*
X452002Y118726D01*
X452000Y118721D01*
X452001Y118718D01*
X451970Y118642D01*
Y118622D01*
X451970Y118622D01*
X451971Y118619D01*
X451960Y118592D01*
Y118572D01*
X451961Y118569D01*
X451950Y118542D01*
Y108442D01*
X451961Y108415D01*
X451960Y108412D01*
Y108392D01*
X451971Y108365D01*
X451969Y108362D01*
X451970Y108362D01*
Y108342D01*
X452001Y108266D01*
X452000Y108262D01*
X452002Y108257D01*
X452014Y108227D01*
X452005Y108100D01*
X452015Y108070D01*
X452016Y108069D01*
X452015Y108050D01*
X452025Y108020D01*
X452027Y108018D01*
X452025Y107999D01*
X452035Y107970D01*
X452046Y107957D01*
X452045Y107950D01*
X452055Y107920D01*
X452090Y107879D01*
X452094Y107828D01*
X452104Y107808D01*
X452132Y107784D01*
X452134Y107757D01*
X452144Y107738D01*
X452164Y107721D01*
X452164Y107718D01*
X452174Y107698D01*
X452266Y107618D01*
X452317Y107497D01*
X452337Y107477D01*
X452337Y107477D01*
X452339Y107476D01*
X452347Y107457D01*
X452366Y107437D01*
X452367Y107437D01*
X452369Y107436D01*
X452377Y107417D01*
X452437Y107357D01*
X452437Y107357D01*
X452457Y107337D01*
X452476Y107329D01*
X452477Y107327D01*
X452497Y107307D01*
X452516Y107299D01*
X452517Y107297D01*
X452537Y107277D01*
X452658Y107226D01*
X452738Y107134D01*
X452758Y107124D01*
X452761Y107123D01*
X452777Y107104D01*
X452797Y107094D01*
X452824Y107092D01*
X452848Y107064D01*
X452868Y107054D01*
X452920Y107050D01*
X452960Y107015D01*
X452990Y107005D01*
X452997Y107006D01*
X453009Y106995D01*
X453040Y106985D01*
X453058Y106987D01*
X453060Y106985D01*
X453090Y106975D01*
X453108Y106976D01*
X453110Y106975D01*
X453140Y106965D01*
X453267Y106974D01*
X453302Y106960D01*
X453306Y106961D01*
X453382Y106930D01*
X453402D01*
X453405Y106931D01*
X453432Y106920D01*
X453452D01*
X453455Y106921D01*
X453482Y106910D01*
X455742D01*
X456032Y106790D01*
X495916D01*
Y94382D01*
X572916D01*
Y126382D01*
D02*
G37*
G36*
X108648Y133730D02*
X72378D01*
Y112460D01*
X108648D01*
Y133730D01*
D02*
G37*
G36*
X69838D02*
X33568D01*
Y112460D01*
X69838D01*
Y133730D01*
D02*
G37*
G36*
X1049622Y119784D02*
X1047910D01*
X1046257Y119341D01*
X1044775Y118485D01*
X1043565Y117275D01*
X1042709Y115793D01*
X1042266Y114140D01*
Y112428D01*
X1042709Y110775D01*
X1043565Y109293D01*
X1044775Y108083D01*
X1046257Y107227D01*
X1047910Y106784D01*
X1049622D01*
X1051275Y107227D01*
X1052757Y108083D01*
X1053967Y109293D01*
X1054823Y110775D01*
X1055266Y112428D01*
Y114140D01*
X1054823Y115793D01*
X1053967Y117275D01*
X1052757Y118485D01*
X1051275Y119341D01*
X1049622Y119784D01*
D02*
G37*
G36*
X259417Y103621D02*
X254773D01*
X256540Y101854D01*
Y97790D01*
X259417D01*
Y103621D01*
D02*
G37*
G36*
X437471Y97525D02*
X432827D01*
X434848Y95504D01*
Y91694D01*
X437471D01*
Y97525D01*
D02*
G37*
G36*
X251313Y91186D02*
X245749D01*
Y89419D01*
X251313D01*
Y91186D01*
D02*
G37*
G36*
X823591Y90921D02*
X818027D01*
Y85090D01*
X823591D01*
Y90921D01*
D02*
G37*
G36*
X815487D02*
X809923D01*
Y85090D01*
X815487D01*
Y90921D01*
D02*
G37*
G36*
X429367Y85090D02*
X423803D01*
Y83323D01*
X429367D01*
Y85090D01*
D02*
G37*
G36*
X823591Y82550D02*
X818027D01*
Y76719D01*
X823591D01*
Y82550D01*
D02*
G37*
G36*
X815487D02*
X809923D01*
Y76719D01*
X815487D01*
Y82550D01*
D02*
G37*
G36*
X831088Y255082D02*
X806958D01*
X806193Y254765D01*
X805876Y254000D01*
Y224222D01*
X784666Y203012D01*
X692912D01*
X692147Y202695D01*
X692147Y202695D01*
X665477Y176025D01*
X665160Y175260D01*
Y83760D01*
X653094Y71694D01*
X459933D01*
X456954Y80362D01*
X456810Y80524D01*
X456739Y80729D01*
X451465Y86663D01*
Y95985D01*
X451424D01*
Y106725D01*
X451298Y107029D01*
X451226Y107350D01*
X450594Y108243D01*
X450574Y108293D01*
X450594Y108342D01*
Y108362D01*
X450593Y108365D01*
X450604Y108392D01*
Y108412D01*
X450603Y108415D01*
X450614Y108442D01*
Y118542D01*
X450603Y118569D01*
X450604Y118572D01*
Y118592D01*
X450593Y118619D01*
X450594Y118622D01*
X450594Y118622D01*
Y118642D01*
X450563Y118718D01*
X450564Y118722D01*
X450562Y118727D01*
X450550Y118757D01*
X450559Y118884D01*
X450549Y118914D01*
X450547Y118916D01*
X450549Y118934D01*
X450539Y118965D01*
X450537Y118966D01*
X450539Y118984D01*
X450529Y119015D01*
X450518Y119026D01*
X450519Y119034D01*
X450509Y119064D01*
X450474Y119105D01*
X450470Y119157D01*
X450460Y119177D01*
X450432Y119201D01*
X450430Y119226D01*
X450420Y119246D01*
X450401Y119263D01*
X450400Y119266D01*
X450390Y119286D01*
X450298Y119366D01*
X450247Y119487D01*
X450228Y119507D01*
X450227Y119507D01*
X450225Y119508D01*
X450217Y119527D01*
X450197Y119547D01*
X450197Y119547D01*
X450195Y119548D01*
X450187Y119568D01*
X450167Y119588D01*
X450167Y119588D01*
X450167Y119588D01*
X450148Y119607D01*
X450148Y119607D01*
X450147Y119607D01*
X450147Y119608D01*
X450147Y119608D01*
X450127Y119628D01*
X450127Y119628D01*
X450108Y119647D01*
X450088Y119655D01*
X450087Y119657D01*
X450087Y119657D01*
X450067Y119677D01*
X450048Y119685D01*
X450047Y119688D01*
X450047Y119688D01*
X450027Y119708D01*
X449906Y119758D01*
X449826Y119850D01*
X449806Y119860D01*
X449803Y119860D01*
X449787Y119880D01*
X449767Y119890D01*
X449740Y119892D01*
X449716Y119920D01*
X449696Y119930D01*
X449645Y119934D01*
X449604Y119969D01*
X449575Y119979D01*
X449567Y119978D01*
X449554Y119989D01*
X449525Y119999D01*
X449506Y119997D01*
X449505Y119999D01*
X449474Y120009D01*
X449456Y120007D01*
X449454Y120009D01*
X449424Y120019D01*
X449296Y120010D01*
X449266Y120022D01*
X449261Y120024D01*
X449258Y120023D01*
X449182Y120054D01*
X449162D01*
X449162Y120054D01*
X449159Y120053D01*
X449132Y120064D01*
X449112D01*
X449109Y120063D01*
X449082Y120074D01*
X443982D01*
X443955Y120063D01*
X443952Y120064D01*
X443932D01*
X443905Y120053D01*
X443902Y120054D01*
X443902Y120054D01*
X443882D01*
X443806Y120023D01*
X443803Y120024D01*
X443798Y120022D01*
X443768Y120010D01*
X443640Y120019D01*
X443610Y120009D01*
X443608Y120007D01*
X443590Y120009D01*
X443559Y119999D01*
X443558Y119997D01*
X443539Y119999D01*
X443509Y119989D01*
X443497Y119978D01*
X443489Y119979D01*
X443460Y119969D01*
X443419Y119934D01*
X443368Y119930D01*
X443348Y119920D01*
X443324Y119892D01*
X443297Y119890D01*
X443277Y119880D01*
X443261Y119860D01*
X443258Y119860D01*
X443238Y119850D01*
X443158Y119758D01*
X443037Y119708D01*
X443017Y119688D01*
X443017Y119688D01*
X443016Y119685D01*
X442997Y119677D01*
X442977Y119657D01*
X442977Y119657D01*
X442976Y119655D01*
X442956Y119647D01*
X442936Y119627D01*
X442936Y119627D01*
X442936Y119627D01*
X442917Y119608D01*
X442917Y119608D01*
X442917Y119607D01*
X442916Y119607D01*
X442896Y119587D01*
X442896Y119587D01*
X442877Y119568D01*
X442869Y119548D01*
X442867Y119547D01*
X442847Y119527D01*
X442839Y119508D01*
X442837Y119507D01*
X442817Y119487D01*
X442766Y119366D01*
X442674Y119286D01*
X442664Y119266D01*
X442663Y119263D01*
X442644Y119246D01*
X442634Y119226D01*
X442632Y119201D01*
X442604Y119177D01*
X442594Y119157D01*
X442590Y119105D01*
X442555Y119064D01*
X442545Y119034D01*
X442546Y119026D01*
X442535Y119015D01*
X442525Y118984D01*
X442527Y118966D01*
X442525Y118965D01*
X442515Y118934D01*
X442517Y118916D01*
X442515Y118914D01*
X442505Y118884D01*
X442514Y118757D01*
X442500Y118722D01*
X442501Y118718D01*
X442470Y118642D01*
Y118622D01*
X442471Y118619D01*
X442460Y118592D01*
Y118572D01*
X442461Y118569D01*
X442450Y118542D01*
Y115921D01*
X441114D01*
Y118542D01*
X441103Y118569D01*
X441104Y118572D01*
Y118592D01*
X441093Y118619D01*
X441094Y118622D01*
X441094Y118622D01*
Y118642D01*
X441063Y118718D01*
X441064Y118721D01*
X441062Y118726D01*
X441050Y118756D01*
X441059Y118884D01*
X441049Y118914D01*
X441047Y118916D01*
X441049Y118934D01*
X441039Y118965D01*
X441037Y118966D01*
X441039Y118984D01*
X441029Y119015D01*
X441018Y119027D01*
X441019Y119035D01*
X441009Y119065D01*
X440974Y119105D01*
X440970Y119156D01*
X440960Y119176D01*
X440932Y119200D01*
X440930Y119227D01*
X440920Y119247D01*
X440900Y119263D01*
X440900Y119266D01*
X440890Y119286D01*
X440798Y119366D01*
X440748Y119487D01*
X440728Y119507D01*
X440728Y119507D01*
X440725Y119508D01*
X440717Y119527D01*
X440698Y119547D01*
X440697Y119547D01*
X440695Y119548D01*
X440687Y119568D01*
X440667Y119588D01*
X440667Y119588D01*
X440667Y119588D01*
X440648Y119607D01*
X440648Y119607D01*
X440648Y119607D01*
X440647Y119607D01*
X440627Y119627D01*
X440627Y119627D01*
X440607Y119647D01*
X440588Y119655D01*
X440587Y119657D01*
X440567Y119677D01*
X440548Y119685D01*
X440547Y119687D01*
X440527Y119707D01*
X440406Y119758D01*
X440326Y119850D01*
X440306Y119860D01*
X440303Y119860D01*
X440286Y119880D01*
X440267Y119890D01*
X440240Y119892D01*
X440216Y119920D01*
X440196Y119930D01*
X440145Y119934D01*
X440104Y119969D01*
X440074Y119979D01*
X440067Y119978D01*
X440055Y119989D01*
X440024Y119999D01*
X440006Y119997D01*
X440004Y119999D01*
X439974Y120009D01*
X439955Y120007D01*
X439954Y120009D01*
X439924Y120019D01*
X439797Y120010D01*
X439762Y120024D01*
X439758Y120023D01*
X439682Y120054D01*
X439662D01*
X439659Y120053D01*
X439632Y120064D01*
X439612D01*
X439609Y120063D01*
X439582Y120074D01*
X434482D01*
X434455Y120063D01*
X434452Y120064D01*
X434432D01*
X434405Y120053D01*
X434402Y120055D01*
X434402Y120054D01*
X434382D01*
X434306Y120023D01*
X434302Y120024D01*
X434297Y120022D01*
X434267Y120010D01*
X434141Y120019D01*
X434110Y120009D01*
X434109Y120007D01*
X434090Y120009D01*
X434059Y119999D01*
X434058Y119998D01*
X434040Y119999D01*
X434010Y119989D01*
X433997Y119978D01*
X433989Y119979D01*
X433960Y119969D01*
X433919Y119934D01*
X433868Y119930D01*
X433848Y119920D01*
X433824Y119892D01*
X433798Y119890D01*
X433778Y119880D01*
X433761Y119861D01*
X433759Y119861D01*
X433739Y119851D01*
X433658Y119758D01*
X433537Y119707D01*
X433517Y119688D01*
X433517Y119687D01*
X433516Y119685D01*
X433496Y119677D01*
X433476Y119657D01*
X433476Y119657D01*
X433475Y119655D01*
X433456Y119647D01*
X433417Y119607D01*
X433417Y119607D01*
Y119607D01*
X433377Y119567D01*
X433369Y119548D01*
X433366Y119547D01*
X433346Y119527D01*
X433338Y119508D01*
X433336Y119507D01*
X433316Y119487D01*
X433266Y119367D01*
X433174Y119287D01*
X433164Y119267D01*
X433164Y119264D01*
X433144Y119247D01*
X433134Y119227D01*
X433132Y119201D01*
X433104Y119177D01*
X433094Y119157D01*
X433090Y119105D01*
X433055Y119065D01*
X433045Y119035D01*
X433046Y119027D01*
X433035Y119015D01*
X433025Y118984D01*
X433027Y118966D01*
X433025Y118964D01*
X433015Y118934D01*
X433016Y118916D01*
X433015Y118914D01*
X433005Y118884D01*
X433014Y118757D01*
X433000Y118721D01*
X433001Y118718D01*
X432970Y118642D01*
Y118622D01*
X432971Y118619D01*
X432960Y118592D01*
Y118572D01*
X432961Y118569D01*
X432950Y118542D01*
Y108442D01*
X432961Y108415D01*
X432960Y108412D01*
Y108392D01*
X432971Y108365D01*
X432970Y108362D01*
X432970Y108362D01*
Y108342D01*
X433001Y108266D01*
X432999Y108262D01*
X433002Y108257D01*
X433014Y108227D01*
X433005Y108099D01*
X433015Y108069D01*
X433016Y108068D01*
X433015Y108050D01*
X433025Y108020D01*
X433027Y108019D01*
X433025Y107999D01*
X433035Y107970D01*
X433046Y107957D01*
X433045Y107950D01*
X433055Y107920D01*
X433090Y107879D01*
X433094Y107827D01*
X433104Y107808D01*
X433132Y107783D01*
X433134Y107757D01*
X433144Y107738D01*
X433164Y107720D01*
X433164Y107717D01*
X433174Y107697D01*
X433267Y107617D01*
X433317Y107497D01*
X433336Y107477D01*
X433337Y107477D01*
X433338Y107476D01*
X433346Y107457D01*
X433366Y107437D01*
X433366Y107437D01*
X433368Y107436D01*
X433376Y107417D01*
X433396Y107397D01*
X433396Y107397D01*
X433397Y107397D01*
X433397Y107396D01*
X433437Y107357D01*
X433437Y107357D01*
X433456Y107337D01*
X433475Y107329D01*
X433476Y107327D01*
X433476Y107327D01*
X433496Y107307D01*
X433516Y107299D01*
X433517Y107297D01*
X433517Y107296D01*
X433537Y107277D01*
X433658Y107226D01*
X433739Y107133D01*
X433759Y107123D01*
X433761Y107123D01*
X433778Y107104D01*
X433798Y107094D01*
X433824Y107092D01*
X433848Y107064D01*
X433868Y107054D01*
X433919Y107050D01*
X433960Y107015D01*
X433989Y107005D01*
X433997Y107006D01*
X434010Y106995D01*
X434040Y106985D01*
X434058Y106987D01*
X434059Y106985D01*
X434090Y106975D01*
X434109Y106977D01*
X434110Y106975D01*
X434141Y106965D01*
X434267Y106974D01*
X434297Y106962D01*
X434302Y106959D01*
X434306Y106961D01*
X434382Y106930D01*
X434402D01*
X434402Y106930D01*
X434405Y106931D01*
X434432Y106920D01*
X434452D01*
X434455Y106921D01*
X434482Y106910D01*
X439582D01*
X439609Y106921D01*
X439612Y106920D01*
X439632D01*
X439659Y106931D01*
X439662Y106930D01*
X439662Y106930D01*
X439682D01*
X439758Y106961D01*
X439762Y106960D01*
X439764Y106960D01*
X439797Y106974D01*
X439924Y106965D01*
X439954Y106975D01*
X439955Y106976D01*
X439974Y106975D01*
X440190Y106891D01*
X440522Y106696D01*
X440854Y106384D01*
X440878Y106339D01*
Y95985D01*
X440877D01*
Y86554D01*
X438470Y84147D01*
X437471Y84562D01*
Y89154D01*
X434848D01*
Y85090D01*
X431907D01*
Y83323D01*
X436232D01*
X436647Y82323D01*
X435099Y80775D01*
X434982Y80493D01*
X434807Y80243D01*
X432921Y71694D01*
X283974D01*
X278900Y86458D01*
X278756Y86620D01*
X278685Y86825D01*
X273411Y92759D01*
Y102081D01*
X273370D01*
Y112527D01*
X273562Y112792D01*
X273804Y113019D01*
X274382Y113283D01*
X274463Y113273D01*
X274482Y113253D01*
X274483Y113253D01*
X274527Y113234D01*
X274604Y113202D01*
X274684Y113110D01*
X274704Y113100D01*
X274707Y113099D01*
X274723Y113080D01*
X274743Y113070D01*
X274770Y113068D01*
X274794Y113040D01*
X274814Y113030D01*
X274865Y113026D01*
X274906Y112991D01*
X274936Y112981D01*
X274943Y112982D01*
X274956Y112971D01*
X274986Y112961D01*
X275004Y112963D01*
X275006Y112961D01*
X275036Y112951D01*
X275054Y112952D01*
X275056Y112951D01*
X275086Y112941D01*
X275213Y112950D01*
X275248Y112936D01*
X275252Y112937D01*
X275328Y112906D01*
X275348D01*
X275351Y112907D01*
X275378Y112896D01*
X275398D01*
X275401Y112897D01*
X275428Y112886D01*
X314716D01*
Y110248D01*
X314726Y110223D01*
X314717Y110197D01*
X314737Y109776D01*
X314760Y109727D01*
X314746Y109675D01*
X314776Y109465D01*
X314793Y109437D01*
X314787Y109406D01*
X314827Y109206D01*
X314838Y109188D01*
X314835Y109167D01*
X314885Y108957D01*
X314905Y108930D01*
X314901Y108897D01*
X314961Y108697D01*
X314984Y108669D01*
X314982Y108634D01*
X315052Y108444D01*
X315063Y108432D01*
X315063Y108416D01*
X315143Y108216D01*
X315168Y108190D01*
X315170Y108155D01*
X315260Y107965D01*
X315287Y107940D01*
X315292Y107902D01*
X315392Y107722D01*
X315411Y107707D01*
X315415Y107683D01*
X315525Y107503D01*
X315536Y107495D01*
X315539Y107480D01*
X315649Y107310D01*
X315686Y107284D01*
X315698Y107240D01*
X315828Y107071D01*
X315861Y107051D01*
X315873Y107015D01*
X316013Y106855D01*
X316030Y106847D01*
X316037Y106830D01*
X316177Y106679D01*
X316213Y106663D01*
X316229Y106627D01*
X316380Y106487D01*
X316397Y106480D01*
X316405Y106463D01*
X316565Y106323D01*
X316601Y106311D01*
X316621Y106278D01*
X316791Y106148D01*
X316834Y106137D01*
X316860Y106099D01*
X317030Y105989D01*
X317045Y105986D01*
X317054Y105975D01*
X317234Y105864D01*
X317257Y105861D01*
X317272Y105842D01*
X317452Y105742D01*
X317490Y105737D01*
X317515Y105710D01*
X317705Y105620D01*
X317740Y105618D01*
X317766Y105593D01*
X317966Y105513D01*
X317982Y105513D01*
X317994Y105502D01*
X318184Y105432D01*
X318219Y105434D01*
X318247Y105411D01*
X318447Y105351D01*
X318480Y105355D01*
X318507Y105335D01*
X318717Y105285D01*
X318738Y105288D01*
X318756Y105277D01*
X318956Y105237D01*
X318987Y105243D01*
X319015Y105226D01*
X319225Y105197D01*
X319277Y105210D01*
X319326Y105187D01*
X319746Y105167D01*
X319772Y105176D01*
X319798Y105166D01*
X384798D01*
X384823Y105176D01*
X384850Y105167D01*
X385270Y105187D01*
X385319Y105210D01*
X385371Y105197D01*
X385581Y105226D01*
X385609Y105243D01*
X385640Y105237D01*
X385840Y105277D01*
X385858Y105288D01*
X385879Y105285D01*
X386089Y105335D01*
X386116Y105355D01*
X386149Y105351D01*
X386349Y105411D01*
X386377Y105434D01*
X386412Y105432D01*
X386602Y105502D01*
X386614Y105513D01*
X386630Y105513D01*
X386830Y105593D01*
X386856Y105618D01*
X386891Y105620D01*
X387081Y105710D01*
X387106Y105737D01*
X387144Y105742D01*
X387324Y105842D01*
X387339Y105861D01*
X387363Y105864D01*
X387542Y105975D01*
X387551Y105986D01*
X387566Y105989D01*
X387736Y106099D01*
X387762Y106137D01*
X387805Y106148D01*
X387976Y106278D01*
X387995Y106311D01*
X388031Y106323D01*
X388191Y106463D01*
X388199Y106480D01*
X388217Y106487D01*
X388367Y106627D01*
X388383Y106663D01*
X388419Y106679D01*
X388559Y106830D01*
X388566Y106847D01*
X388583Y106855D01*
X388723Y107015D01*
X388735Y107051D01*
X388768Y107071D01*
X388898Y107240D01*
X388909Y107284D01*
X388947Y107310D01*
X389057Y107480D01*
X389059Y107495D01*
X389072Y107503D01*
X389182Y107683D01*
X389185Y107707D01*
X389204Y107722D01*
X389304Y107902D01*
X389309Y107940D01*
X389336Y107965D01*
X389426Y108155D01*
X389428Y108190D01*
X389453Y108216D01*
X389533Y108416D01*
X389533Y108432D01*
X389544Y108444D01*
X389614Y108634D01*
X389612Y108669D01*
X389635Y108697D01*
X389695Y108897D01*
X389691Y108930D01*
X389711Y108957D01*
X389761Y109167D01*
X389758Y109188D01*
X389769Y109206D01*
X389809Y109406D01*
X389803Y109437D01*
X389819Y109465D01*
X389850Y109675D01*
X389836Y109727D01*
X389859Y109776D01*
X389879Y110197D01*
X389870Y110223D01*
X389880Y110248D01*
Y132248D01*
X389563Y133013D01*
X388798Y133330D01*
X377178D01*
X376993Y133254D01*
X376792Y133259D01*
X376625Y133101D01*
X376413Y133013D01*
X376336Y132828D01*
X376190Y132690D01*
X375728Y131657D01*
X375286Y130755D01*
X374808Y129875D01*
X374289Y129010D01*
X373742Y128166D01*
X373158Y127342D01*
X372542Y126544D01*
X371898Y125765D01*
X371229Y125020D01*
X370520Y124301D01*
X369787Y123606D01*
X369027Y122933D01*
X368251Y122301D01*
X367446Y121697D01*
X366610Y121121D01*
X365769Y120585D01*
X364893Y120084D01*
X363998Y119604D01*
X363099Y119173D01*
X362168Y118770D01*
X361227Y118405D01*
X360277Y118079D01*
X359314Y117790D01*
X358336Y117531D01*
X357352Y117321D01*
X356358Y117147D01*
X355360Y117003D01*
X354355Y116907D01*
X353357Y116850D01*
X352298Y116831D01*
X351239Y116850D01*
X350241Y116907D01*
X349236Y117003D01*
X348239Y117147D01*
X347244Y117321D01*
X346260Y117531D01*
X345282Y117790D01*
X344319Y118079D01*
X343370Y118405D01*
X342429Y118770D01*
X341497Y119173D01*
X340598Y119604D01*
X339703Y120084D01*
X338827Y120585D01*
X337986Y121120D01*
X337151Y121697D01*
X336345Y122301D01*
X335569Y122933D01*
X334809Y123606D01*
X334076Y124301D01*
X333367Y125020D01*
X332698Y125765D01*
X332054Y126544D01*
X331438Y127342D01*
X330854Y128166D01*
X330307Y129011D01*
X329788Y129875D01*
X329310Y130755D01*
X328868Y131657D01*
X328406Y132690D01*
X328260Y132828D01*
X328183Y133013D01*
X327971Y133101D01*
X327804Y133259D01*
X327603Y133254D01*
X327418Y133330D01*
X315798D01*
X315033Y133013D01*
X314716Y132248D01*
Y123510D01*
X304265D01*
Y123511D01*
X294580D01*
X292377Y125713D01*
X291612Y126030D01*
X280602D01*
X280578Y126040D01*
X280558D01*
X280555Y126039D01*
X280528Y126050D01*
X275428D01*
X275401Y126039D01*
X275398Y126040D01*
X275378D01*
X275351Y126029D01*
X275348Y126031D01*
X275348Y126030D01*
X275328D01*
X275252Y125999D01*
X275248Y126000D01*
X275243Y125998D01*
X275213Y125986D01*
X275086Y125995D01*
X275056Y125985D01*
X275054Y125983D01*
X275036Y125985D01*
X275006Y125975D01*
X275004Y125974D01*
X274986Y125975D01*
X274956Y125965D01*
X274943Y125954D01*
X274936Y125955D01*
X274906Y125945D01*
X274865Y125910D01*
X274814Y125906D01*
X274794Y125896D01*
X274770Y125868D01*
X274743Y125866D01*
X274723Y125856D01*
X274707Y125836D01*
X274704Y125836D01*
X274684Y125826D01*
X274604Y125734D01*
X274483Y125683D01*
X274463Y125663D01*
X274463Y125663D01*
X274462Y125661D01*
X274443Y125653D01*
X274423Y125633D01*
X274423Y125633D01*
X274422Y125631D01*
X274403Y125623D01*
X274363Y125583D01*
X274363Y125583D01*
X274362Y125583D01*
X274362Y125583D01*
X274362Y125583D01*
X274342Y125563D01*
X274342Y125563D01*
X274323Y125544D01*
X274315Y125524D01*
X274313Y125523D01*
X274312Y125523D01*
X274293Y125503D01*
X274285Y125484D01*
X274282Y125483D01*
X274282Y125483D01*
X274262Y125463D01*
X274212Y125342D01*
X274120Y125262D01*
X274110Y125242D01*
X274109Y125239D01*
X274090Y125223D01*
X274080Y125203D01*
X274078Y125176D01*
X274050Y125152D01*
X274040Y125132D01*
X274036Y125081D01*
X274001Y125041D01*
X273991Y125010D01*
X273992Y125003D01*
X273981Y124991D01*
X273971Y124961D01*
X273973Y124942D01*
X273971Y124941D01*
X273961Y124910D01*
X273963Y124892D01*
X273961Y124890D01*
X273951Y124860D01*
X273960Y124732D01*
X273948Y124702D01*
X273946Y124697D01*
X273947Y124694D01*
X273916Y124618D01*
Y124598D01*
X273916Y124598D01*
X273917Y124595D01*
X273906Y124568D01*
Y124548D01*
X273907Y124545D01*
X273896Y124518D01*
Y114547D01*
X273878Y114530D01*
X273732Y114418D01*
X272622Y114414D01*
X272560Y114478D01*
Y124518D01*
X272549Y124545D01*
X272550Y124548D01*
Y124568D01*
X272539Y124595D01*
X272540Y124598D01*
X272540Y124598D01*
Y124618D01*
X272509Y124694D01*
X272511Y124698D01*
X272508Y124703D01*
X272496Y124733D01*
X272505Y124860D01*
X272495Y124890D01*
X272493Y124892D01*
X272495Y124910D01*
X272485Y124941D01*
X272484Y124942D01*
X272485Y124961D01*
X272475Y124991D01*
X272465Y125002D01*
X272465Y125010D01*
X272455Y125040D01*
X272420Y125081D01*
X272416Y125133D01*
X272406Y125153D01*
X272378Y125177D01*
X272376Y125202D01*
X272366Y125222D01*
X272347Y125239D01*
X272346Y125242D01*
X272336Y125262D01*
X272244Y125342D01*
X272193Y125463D01*
X272174Y125483D01*
X272173Y125483D01*
X272171Y125484D01*
X272163Y125503D01*
X272143Y125523D01*
X272143Y125523D01*
X272141Y125524D01*
X272133Y125544D01*
X272113Y125564D01*
X272113Y125564D01*
X272113Y125564D01*
X272094Y125583D01*
X272094Y125583D01*
X272093Y125583D01*
X272093Y125584D01*
X272093Y125584D01*
X272073Y125604D01*
X272073Y125604D01*
X272054Y125623D01*
X272034Y125631D01*
X272033Y125633D01*
X272033Y125633D01*
X272013Y125653D01*
X271994Y125661D01*
X271993Y125664D01*
X271993Y125664D01*
X271973Y125684D01*
X271852Y125734D01*
X271772Y125826D01*
X271752Y125836D01*
X271749Y125836D01*
X271733Y125856D01*
X271713Y125866D01*
X271686Y125868D01*
X271662Y125896D01*
X271642Y125906D01*
X271591Y125910D01*
X271551Y125945D01*
X271521Y125955D01*
X271513Y125954D01*
X271500Y125965D01*
X271471Y125975D01*
X271452Y125974D01*
X271451Y125975D01*
X271420Y125985D01*
X271402Y125983D01*
X271400Y125985D01*
X271370Y125995D01*
X271242Y125986D01*
X271212Y125998D01*
X271207Y126000D01*
X271204Y125999D01*
X271128Y126030D01*
X271108D01*
X271108Y126030D01*
X271105Y126029D01*
X271078Y126040D01*
X271058D01*
X271055Y126039D01*
X271028Y126050D01*
X265928D01*
X265901Y126039D01*
X265898Y126040D01*
X265878D01*
X265851Y126029D01*
X265848Y126031D01*
X265848Y126030D01*
X265828D01*
X265752Y125999D01*
X265749Y126000D01*
X265744Y125998D01*
X265714Y125986D01*
X265586Y125995D01*
X265556Y125985D01*
X265554Y125983D01*
X265536Y125985D01*
X265506Y125975D01*
X265504Y125974D01*
X265485Y125975D01*
X265455Y125965D01*
X265443Y125954D01*
X265436Y125955D01*
X265406Y125945D01*
X265365Y125910D01*
X265314Y125906D01*
X265294Y125896D01*
X265270Y125868D01*
X265243Y125866D01*
X265223Y125856D01*
X265207Y125836D01*
X265204Y125836D01*
X265184Y125826D01*
X265104Y125734D01*
X264983Y125684D01*
X264963Y125664D01*
X264963Y125664D01*
X264962Y125661D01*
X264943Y125653D01*
X264923Y125633D01*
X264923Y125633D01*
X264922Y125631D01*
X264902Y125623D01*
X264882Y125603D01*
X264882Y125603D01*
X264882Y125603D01*
X264863Y125584D01*
X264863Y125584D01*
X264863Y125583D01*
X264862Y125583D01*
X264842Y125563D01*
X264842Y125563D01*
X264823Y125544D01*
X264815Y125524D01*
X264813Y125523D01*
X264793Y125503D01*
X264785Y125484D01*
X264783Y125483D01*
X264763Y125463D01*
X264712Y125342D01*
X264620Y125262D01*
X264610Y125242D01*
X264609Y125239D01*
X264590Y125222D01*
X264580Y125202D01*
X264578Y125177D01*
X264550Y125153D01*
X264540Y125133D01*
X264536Y125081D01*
X264501Y125040D01*
X264491Y125010D01*
X264492Y125002D01*
X264481Y124991D01*
X264471Y124961D01*
X264473Y124942D01*
X264471Y124941D01*
X264461Y124910D01*
X264463Y124892D01*
X264461Y124890D01*
X264451Y124860D01*
X264460Y124733D01*
X264446Y124698D01*
X264447Y124694D01*
X264416Y124618D01*
Y124598D01*
X264417Y124595D01*
X264406Y124568D01*
Y124548D01*
X264407Y124545D01*
X264396Y124518D01*
Y122017D01*
X263060D01*
Y124518D01*
X263049Y124545D01*
X263050Y124548D01*
Y124568D01*
X263039Y124595D01*
X263040Y124598D01*
X263040Y124598D01*
Y124618D01*
X263009Y124694D01*
X263011Y124697D01*
X263008Y124702D01*
X262996Y124732D01*
X263005Y124860D01*
X262995Y124890D01*
X262993Y124892D01*
X262995Y124910D01*
X262985Y124941D01*
X262983Y124942D01*
X262985Y124961D01*
X262975Y124991D01*
X262964Y125003D01*
X262965Y125010D01*
X262955Y125041D01*
X262920Y125081D01*
X262916Y125132D01*
X262906Y125152D01*
X262878Y125176D01*
X262876Y125203D01*
X262866Y125223D01*
X262847Y125239D01*
X262846Y125242D01*
X262836Y125262D01*
X262744Y125342D01*
X262694Y125463D01*
X262674Y125483D01*
X262674Y125483D01*
X262671Y125484D01*
X262663Y125503D01*
X262644Y125523D01*
X262643Y125523D01*
X262641Y125524D01*
X262633Y125544D01*
X262613Y125564D01*
X262613Y125564D01*
X262613Y125564D01*
X262594Y125583D01*
X262594Y125583D01*
X262593Y125583D01*
X262593Y125583D01*
X262573Y125603D01*
X262573Y125603D01*
X262553Y125623D01*
X262534Y125631D01*
X262533Y125633D01*
X262513Y125653D01*
X262494Y125661D01*
X262493Y125663D01*
X262473Y125683D01*
X262352Y125734D01*
X262272Y125826D01*
X262252Y125836D01*
X262249Y125836D01*
X262232Y125856D01*
X262213Y125866D01*
X262186Y125868D01*
X262162Y125896D01*
X262142Y125906D01*
X262090Y125910D01*
X262050Y125945D01*
X262020Y125955D01*
X262013Y125954D01*
X262001Y125965D01*
X261971Y125975D01*
X261952Y125974D01*
X261950Y125975D01*
X261920Y125985D01*
X261901Y125983D01*
X261900Y125985D01*
X261870Y125995D01*
X261743Y125986D01*
X261708Y126000D01*
X261704Y125999D01*
X261628Y126030D01*
X261608D01*
X261605Y126029D01*
X261578Y126040D01*
X261558D01*
X261555Y126039D01*
X261528Y126050D01*
X256428D01*
X256401Y126039D01*
X256398Y126040D01*
X256378D01*
X256351Y126029D01*
X256348Y126031D01*
X256348Y126030D01*
X256328D01*
X256252Y125999D01*
X256248Y126000D01*
X256243Y125998D01*
X256213Y125986D01*
X256087Y125995D01*
X256056Y125985D01*
X256055Y125983D01*
X256035Y125985D01*
X256005Y125975D01*
X256004Y125974D01*
X255986Y125975D01*
X255956Y125965D01*
X255944Y125954D01*
X255935Y125955D01*
X255905Y125945D01*
X255865Y125910D01*
X255814Y125906D01*
X255794Y125896D01*
X255770Y125868D01*
X255744Y125866D01*
X255724Y125856D01*
X255707Y125837D01*
X255705Y125837D01*
X255685Y125827D01*
X255604Y125734D01*
X255483Y125683D01*
X255463Y125663D01*
X255463Y125663D01*
X255462Y125661D01*
X255442Y125653D01*
X255422Y125633D01*
X255422Y125633D01*
X255421Y125631D01*
X255402Y125623D01*
X255363Y125583D01*
X255363Y125583D01*
Y125583D01*
X255323Y125543D01*
X255315Y125524D01*
X255312Y125523D01*
X255292Y125503D01*
X255284Y125484D01*
X255282Y125483D01*
X255262Y125463D01*
X255212Y125343D01*
X255120Y125263D01*
X255110Y125243D01*
X255110Y125240D01*
X255090Y125223D01*
X255080Y125203D01*
X255078Y125177D01*
X255050Y125153D01*
X255040Y125133D01*
X255036Y125081D01*
X255001Y125041D01*
X254991Y125010D01*
X254992Y125003D01*
X254981Y124991D01*
X254971Y124961D01*
X254973Y124942D01*
X254971Y124940D01*
X254961Y124910D01*
X254962Y124892D01*
X254961Y124891D01*
X254951Y124861D01*
X254960Y124733D01*
X254946Y124697D01*
X254947Y124694D01*
X254916Y124618D01*
Y124598D01*
X254917Y124595D01*
X254906Y124568D01*
Y124548D01*
X254907Y124545D01*
X254896Y124518D01*
Y114418D01*
X254907Y114391D01*
X254906Y114388D01*
Y114368D01*
X254917Y114341D01*
X254916Y114338D01*
X254916Y114338D01*
Y114318D01*
X254947Y114242D01*
X254946Y114238D01*
X254948Y114233D01*
X254960Y114203D01*
X254951Y114075D01*
X254961Y114045D01*
X254962Y114044D01*
X254961Y114026D01*
X254971Y113996D01*
X254973Y113995D01*
X254971Y113975D01*
X254981Y113946D01*
X254992Y113933D01*
X254991Y113926D01*
X255001Y113896D01*
X255036Y113855D01*
X255040Y113804D01*
X255050Y113784D01*
X255078Y113759D01*
X255080Y113734D01*
X255090Y113714D01*
X255110Y113696D01*
X255110Y113693D01*
X255120Y113673D01*
X255213Y113593D01*
X255263Y113473D01*
X255282Y113453D01*
X255283Y113453D01*
X255284Y113452D01*
X255292Y113433D01*
X255312Y113413D01*
X255312Y113413D01*
X255314Y113412D01*
X255322Y113393D01*
X255342Y113373D01*
X255342Y113373D01*
X255343Y113373D01*
X255343Y113372D01*
X255383Y113333D01*
X255383Y113333D01*
X255402Y113313D01*
X255421Y113305D01*
X255422Y113303D01*
X255422Y113303D01*
X255442Y113283D01*
X255462Y113275D01*
X255463Y113273D01*
X255463Y113272D01*
X255483Y113253D01*
X255604Y113202D01*
X255685Y113109D01*
X255705Y113099D01*
X255707Y113099D01*
X255724Y113080D01*
X255744Y113070D01*
X255770Y113068D01*
X255794Y113040D01*
X255814Y113030D01*
X255865Y113026D01*
X255905Y112991D01*
X255935Y112981D01*
X255944Y112982D01*
X255956Y112971D01*
X255986Y112961D01*
X256004Y112963D01*
X256005Y112961D01*
X256035Y112951D01*
X256055Y112953D01*
X256056Y112951D01*
X256087Y112941D01*
X256213Y112950D01*
X256243Y112938D01*
X256248Y112935D01*
X256252Y112937D01*
X256328Y112906D01*
X256348D01*
X256348Y112906D01*
X256351Y112907D01*
X256378Y112896D01*
X256398D01*
X256401Y112897D01*
X256428Y112886D01*
X261528D01*
X261555Y112897D01*
X261558Y112896D01*
X261578D01*
X261605Y112907D01*
X261608Y112906D01*
X261608Y112906D01*
X261628D01*
X261704Y112937D01*
X261708Y112936D01*
X261710Y112936D01*
X261743Y112950D01*
X261870Y112941D01*
X261900Y112951D01*
X261924Y112947D01*
X261934Y112944D01*
X262410Y112704D01*
X262472Y112668D01*
X262800Y112360D01*
X262824Y112315D01*
Y102081D01*
X262824D01*
Y92650D01*
X260417Y90243D01*
X259417Y90658D01*
Y95250D01*
X256540D01*
Y91186D01*
X253853D01*
Y89419D01*
X258178D01*
X258593Y88419D01*
X257045Y86871D01*
X256928Y86589D01*
X256753Y86339D01*
X253523Y71694D01*
X232096D01*
X189296Y114494D01*
Y194818D01*
X189151Y195168D01*
X189031Y195528D01*
X179608Y206364D01*
Y207500D01*
X178293D01*
X178129Y207582D01*
X178088Y207568D01*
X178047Y207584D01*
X165053Y207500D01*
X137608D01*
Y206449D01*
X128013Y196853D01*
X127696Y196088D01*
Y69850D01*
X128013Y69085D01*
X167383Y29715D01*
X168148Y29398D01*
X292608D01*
X292608Y29398D01*
X292608Y29398D01*
X780542D01*
X780627Y29433D01*
X780716Y29412D01*
X780999Y29587D01*
X781307Y29715D01*
X781307Y29715D01*
X804323Y52730D01*
X806800D01*
Y71730D01*
X806516D01*
Y78259D01*
X806516D01*
Y89381D01*
X806516D01*
Y99647D01*
X806516Y100103D01*
X807516Y100302D01*
X807717Y99819D01*
X809495Y98041D01*
X810260Y97724D01*
X833628D01*
X833628Y97724D01*
X834393Y98041D01*
X834393Y98041D01*
X835663Y99311D01*
X835663Y99311D01*
X835980Y100076D01*
Y107188D01*
X835980Y107188D01*
X835663Y107953D01*
X834202Y109414D01*
Y109701D01*
X833600D01*
X833374Y109794D01*
X810260D01*
X810260Y109794D01*
X809495Y109477D01*
X807717Y107699D01*
X807400Y106934D01*
Y101267D01*
X807400Y100811D01*
X806400Y100612D01*
X806199Y101095D01*
X800061Y107234D01*
X800443Y108158D01*
X802504D01*
Y112678D01*
X798714D01*
Y115218D01*
X802504D01*
Y118298D01*
X808288D01*
X814575Y112011D01*
X815340Y111694D01*
X839150D01*
Y109701D01*
X839149D01*
Y98579D01*
X839690D01*
X842007Y96263D01*
X842772Y95946D01*
X861256D01*
Y95792D01*
X873056D01*
Y96395D01*
X873318Y97028D01*
Y130556D01*
X873197Y130850D01*
X873056Y131792D01*
X873056D01*
X873096Y132776D01*
X884916D01*
X884956Y131792D01*
X884956Y131776D01*
Y95792D01*
X892060D01*
X892302Y95692D01*
X915387D01*
Y75922D01*
X914923Y75797D01*
X913281Y74849D01*
X911941Y73509D01*
X910993Y71867D01*
X910502Y70036D01*
Y68140D01*
X910993Y66309D01*
X911941Y64667D01*
X913281Y63327D01*
X914923Y62379D01*
X916754Y61888D01*
X918650D01*
X920481Y62379D01*
X922123Y63327D01*
X923463Y64667D01*
X924411Y66309D01*
X924902Y68140D01*
Y70036D01*
X924411Y71867D01*
X923463Y73509D01*
X922123Y74849D01*
X920481Y75797D01*
X920016Y75922D01*
Y95692D01*
X933450D01*
X933581Y95746D01*
X951024D01*
Y121746D01*
X933885D01*
X924055Y131575D01*
X923572Y131776D01*
X923771Y132776D01*
X931024D01*
Y131746D01*
X951024D01*
Y157746D01*
X943338D01*
Y165365D01*
X966019Y188046D01*
X987045D01*
X987887Y186587D01*
X989227Y185247D01*
X990869Y184299D01*
X992700Y183808D01*
X994596D01*
X996427Y184299D01*
X998069Y185247D01*
X999409Y186587D01*
X1000357Y188229D01*
X1000848Y190060D01*
Y191956D01*
X1000357Y193787D01*
X999409Y195429D01*
X998069Y196769D01*
X996427Y197717D01*
X994596Y198208D01*
X992700D01*
X990869Y197717D01*
X989227Y196769D01*
X987887Y195429D01*
X986939Y193787D01*
X986640Y192674D01*
X965060D01*
X964174Y192498D01*
X963423Y191996D01*
X939387Y167961D01*
X938886Y167210D01*
X938709Y166324D01*
Y157746D01*
X931024D01*
Y157546D01*
X819912Y157546D01*
X819147Y157229D01*
X810777Y148860D01*
X803421Y141974D01*
X802504Y142372D01*
D01*
X800061D01*
X799984Y142448D01*
X797444D01*
Y148386D01*
X797123Y149162D01*
X809247Y161287D01*
X809564Y162052D01*
Y201990D01*
X819598Y212024D01*
X835660D01*
X836425Y212341D01*
X836742Y213106D01*
Y249428D01*
X836726Y249468D01*
Y255014D01*
X831253D01*
X831088Y255082D01*
D02*
G37*
G36*
X833840Y73270D02*
X826820D01*
Y63500D01*
X833840D01*
Y73270D01*
D02*
G37*
G36*
X824280D02*
X817260D01*
Y63500D01*
X824280D01*
Y73270D01*
D02*
G37*
G36*
X833840Y60960D02*
X826820D01*
Y51190D01*
X833840D01*
Y60960D01*
D02*
G37*
G36*
X824280D02*
X817260D01*
Y51190D01*
X824280D01*
Y60960D01*
D02*
G37*
G36*
X18415Y13335D02*
X16510D01*
Y11430D01*
X18415D01*
Y13335D01*
D02*
G37*
G36*
X13970D02*
X12065D01*
Y11430D01*
X13970D01*
Y13335D01*
D02*
G37*
G36*
X18415Y8890D02*
X16510D01*
Y6985D01*
X18415D01*
Y8890D01*
D02*
G37*
G36*
X13970D02*
X12065D01*
Y6985D01*
X13970D01*
Y8890D01*
D02*
G37*
%LPD*%
G36*
X279146Y188976D02*
X267208D01*
X264414Y186182D01*
X260350Y190246D01*
X256622D01*
X256794Y182245D01*
X252857D01*
X249174Y178562D01*
Y155702D01*
X253908Y150968D01*
X261528D01*
X261558Y150958D01*
X261578D01*
X261608Y150948D01*
X261628D01*
X261658Y150938D01*
X261678Y150928D01*
X261708Y150918D01*
X261728Y150898D01*
X261748Y150888D01*
X261768Y150868D01*
X261788Y150858D01*
X261808Y150838D01*
X261828Y150818D01*
X261848Y150798D01*
X261868Y150778D01*
X261878Y150758D01*
X261898Y150738D01*
X261908Y150718D01*
X261928Y150698D01*
X261938Y150668D01*
X261948Y150648D01*
X261958Y150618D01*
Y150598D01*
X261968Y150568D01*
Y150548D01*
X261978Y150518D01*
Y140418D01*
X261968Y140388D01*
Y140368D01*
X261958Y140338D01*
Y140318D01*
X261948Y140288D01*
X261938Y140268D01*
X261928Y140238D01*
X261908Y140218D01*
X261898Y140198D01*
X261878Y140178D01*
X261868Y140158D01*
X261848Y140138D01*
X261828Y140118D01*
X261808Y140098D01*
X261788Y140078D01*
X261768Y140068D01*
X261748Y140048D01*
X261728Y140038D01*
X261708Y140018D01*
X261678Y140008D01*
X261658Y139998D01*
X261628Y139988D01*
X261608D01*
X261578Y139978D01*
X261558D01*
X261528Y139968D01*
X250938D01*
X246380Y144526D01*
X242824Y148590D01*
Y187198D01*
X249682Y194056D01*
X255524D01*
X259588Y198120D01*
X279146D01*
Y188976D01*
D02*
G37*
G36*
X457200Y182880D02*
X445262D01*
X442468Y180086D01*
X438404Y184150D01*
X434676D01*
X434848Y176149D01*
X430911D01*
X427228Y172466D01*
Y149606D01*
X431962Y144872D01*
X434212D01*
X434222Y144882D01*
X434242Y144892D01*
X434262Y144912D01*
X434282Y144922D01*
X434302Y144942D01*
X434332Y144952D01*
X434352Y144962D01*
X434382Y144972D01*
X434402D01*
X434432Y144982D01*
X434452D01*
X434482Y144992D01*
X439582D01*
X439612Y144982D01*
X439632D01*
X439662Y144972D01*
X439682D01*
X439712Y144962D01*
X439732Y144952D01*
X439762Y144942D01*
X439782Y144922D01*
X439802Y144912D01*
X439822Y144892D01*
X439842Y144882D01*
X439862Y144862D01*
X439882Y144842D01*
X439902Y144822D01*
X439922Y144802D01*
X439932Y144782D01*
X439952Y144762D01*
X439962Y144742D01*
X439982Y144722D01*
X439992Y144692D01*
X440002Y144672D01*
X440012Y144642D01*
Y144622D01*
X440022Y144592D01*
Y144572D01*
X440032Y144542D01*
Y134442D01*
X440022Y134412D01*
Y134392D01*
X440012Y134362D01*
Y134342D01*
X440002Y134312D01*
X439992Y134292D01*
X439982Y134262D01*
X439962Y134242D01*
X439952Y134222D01*
X439932Y134202D01*
X439922Y134182D01*
X439902Y134162D01*
X439882Y134142D01*
X439862Y134122D01*
X439842Y134102D01*
X439822Y134092D01*
X439802Y134072D01*
X439782Y134062D01*
X439762Y134042D01*
X439732Y134032D01*
X439712Y134022D01*
X439682Y134012D01*
X439662D01*
X439632Y134002D01*
X439612D01*
X439582Y133992D01*
X437032D01*
Y133872D01*
X428992D01*
X424434Y138430D01*
X420878Y142494D01*
Y181102D01*
X427736Y187960D01*
X433578D01*
X437642Y192024D01*
X457200D01*
Y182880D01*
D02*
G37*
G36*
X320116Y179248D02*
X384798D01*
X385008Y179238D01*
X385218Y179228D01*
X385428Y179198D01*
X385628Y179158D01*
X385838Y179108D01*
X386038Y179048D01*
X386228Y178978D01*
X386428Y178898D01*
X386618Y178808D01*
X386798Y178708D01*
X386978Y178598D01*
X387148Y178488D01*
X387318Y178358D01*
X387478Y178218D01*
X387628Y178078D01*
X387768Y177928D01*
X387908Y177768D01*
X388038Y177598D01*
X388148Y177428D01*
X388258Y177248D01*
X388358Y177068D01*
X388448Y176878D01*
X388528Y176678D01*
X388598Y176488D01*
X388658Y176288D01*
X388708Y176078D01*
X388748Y175878D01*
X388778Y175668D01*
X388788Y175458D01*
X388798Y175248D01*
Y153248D01*
X377178D01*
X376708Y154298D01*
X376248Y155238D01*
X375748Y156158D01*
X375208Y157058D01*
X374638Y157938D01*
X374028Y158798D01*
X373388Y159628D01*
X372718Y160438D01*
X372018Y161218D01*
X371278Y161968D01*
X370518Y162688D01*
X369728Y163388D01*
X368918Y164048D01*
X368078Y164678D01*
X367208Y165278D01*
X366328Y165838D01*
X365418Y166358D01*
X364488Y166858D01*
X363548Y167308D01*
X362578Y167728D01*
X361598Y168108D01*
X360608Y168448D01*
X359608Y168748D01*
X358588Y169018D01*
X357558Y169238D01*
X356528Y169418D01*
X355488Y169568D01*
X354438Y169668D01*
X353398Y169728D01*
X352298Y169748D01*
X351198Y169728D01*
X350158Y169668D01*
X349108Y169568D01*
X348068Y169418D01*
X347038Y169238D01*
X346008Y169018D01*
X344988Y168748D01*
X343988Y168448D01*
X342998Y168108D01*
X342018Y167728D01*
X341048Y167308D01*
X340108Y166858D01*
X339178Y166358D01*
X338268Y165838D01*
X337388Y165278D01*
X336518Y164678D01*
X335678Y164048D01*
X334868Y163388D01*
X334078Y162688D01*
X333318Y161968D01*
X332578Y161218D01*
X331878Y160438D01*
X331208Y159628D01*
X330568Y158798D01*
X329958Y157938D01*
X329388Y157058D01*
X328848Y156158D01*
X328348Y155238D01*
X327888Y154298D01*
X327418Y153248D01*
X315798D01*
Y165608D01*
X293624D01*
X292862Y166370D01*
Y198120D01*
X301244D01*
X320116Y179248D01*
D02*
G37*
G36*
X500380Y170942D02*
X504698D01*
X496824Y159512D01*
X471678D01*
X470916Y160274D01*
Y192024D01*
X479298D01*
X500380Y170942D01*
D02*
G37*
G36*
X1035304Y144526D02*
Y127762D01*
X980948D01*
X975868Y132842D01*
X973582Y156718D01*
X1023112D01*
X1035304Y144526D01*
D02*
G37*
G36*
X280558Y150958D02*
X280558Y150958D01*
X280578D01*
X280608Y150948D01*
X280628D01*
X280658Y150938D01*
X280678Y150928D01*
X280708Y150918D01*
X280728Y150898D01*
X280748Y150888D01*
X280768Y150868D01*
X280788Y150858D01*
X280808Y150838D01*
X280828Y150818D01*
X280848Y150798D01*
X280868Y150778D01*
X280878Y150758D01*
X280898Y150738D01*
X280908Y150718D01*
X280928Y150698D01*
X280938Y150668D01*
X280948Y150648D01*
X280958Y150618D01*
Y150598D01*
X280968Y150568D01*
Y150548D01*
D01*
X281148Y150368D01*
X300990D01*
X303276Y148082D01*
Y137160D01*
X294132D01*
X291338Y139954D01*
X281442D01*
X280693Y139968D01*
X275428D01*
X275398Y139978D01*
X275378D01*
X275348Y139988D01*
X275328D01*
X275298Y139998D01*
X275278Y140008D01*
X275248Y140018D01*
X275228Y140038D01*
X275208Y140048D01*
X275188Y140068D01*
X275168Y140078D01*
X275148Y140098D01*
X275128Y140118D01*
X275108Y140138D01*
X275088Y140158D01*
X275078Y140178D01*
X275058Y140198D01*
X275048Y140218D01*
X275028Y140238D01*
X275018Y140268D01*
X275008Y140288D01*
X274998Y140318D01*
Y140338D01*
X274988Y140368D01*
Y140388D01*
X274978Y140418D01*
Y150518D01*
X274988Y150548D01*
Y150568D01*
X274998Y150598D01*
Y150618D01*
X275008Y150648D01*
X275018Y150668D01*
X275028Y150698D01*
X275048Y150718D01*
X275058Y150738D01*
X275078Y150758D01*
X275088Y150778D01*
X275108Y150798D01*
X275128Y150818D01*
X275148Y150838D01*
X275168Y150858D01*
X275188Y150868D01*
X275208Y150888D01*
X275228Y150898D01*
X275248Y150918D01*
X275278Y150928D01*
X275298Y150938D01*
X275328Y150948D01*
X275348D01*
X275378Y150958D01*
X275398D01*
X275428Y150968D01*
X280478D01*
X280493Y151023D01*
X280558Y150958D01*
D02*
G37*
G36*
X458612Y144982D02*
X458632D01*
X458662Y144972D01*
X458682D01*
X458712Y144962D01*
X458732Y144952D01*
X458762Y144942D01*
X458782Y144922D01*
X458802Y144912D01*
X458822Y144892D01*
X458842Y144882D01*
X458862Y144862D01*
X458882Y144842D01*
X458902Y144822D01*
X458922Y144802D01*
X458932Y144782D01*
X458952Y144762D01*
X458962Y144742D01*
X458982Y144722D01*
X458992Y144692D01*
X459002Y144672D01*
X459012Y144642D01*
Y144622D01*
X459022Y144592D01*
Y144572D01*
X459032Y144542D01*
Y144442D01*
X459202Y144272D01*
X479044D01*
X481330Y141986D01*
Y131064D01*
X472186D01*
X469392Y133858D01*
X459496D01*
X458747Y133872D01*
X455423D01*
X455457Y133992D01*
X453482D01*
X453452Y134002D01*
X453432D01*
X453402Y134012D01*
X453382D01*
X453352Y134022D01*
X453332Y134032D01*
X453302Y134042D01*
X453282Y134062D01*
X453262Y134072D01*
X453242Y134092D01*
X453222Y134102D01*
X453202Y134122D01*
X453182Y134142D01*
X453162Y134162D01*
X453142Y134182D01*
X453132Y134202D01*
X453112Y134222D01*
X453102Y134242D01*
X453082Y134262D01*
X453072Y134292D01*
X453062Y134312D01*
X453052Y134342D01*
Y134362D01*
X453042Y134392D01*
Y134412D01*
X453032Y134442D01*
Y144542D01*
X453042Y144572D01*
Y144592D01*
X453052Y144622D01*
Y144642D01*
X453062Y144672D01*
X453072Y144692D01*
X453082Y144722D01*
X453102Y144742D01*
X453112Y144762D01*
X453132Y144782D01*
X453142Y144802D01*
X453162Y144822D01*
X453182Y144842D01*
X453202Y144862D01*
X453222Y144882D01*
X453242Y144892D01*
X453262Y144912D01*
X453282Y144922D01*
X453302Y144942D01*
X453332Y144952D01*
X453352Y144962D01*
X453382Y144972D01*
X453402D01*
X453432Y144982D01*
X453452D01*
X453482Y144992D01*
X458582D01*
X458612Y144982D01*
D02*
G37*
G36*
X1031494Y115316D02*
Y101346D01*
X1026922Y96774D01*
X975106D01*
X975868Y120396D01*
X976884Y121412D01*
X1025398D01*
X1031494Y115316D01*
D02*
G37*
G36*
X458612Y118982D02*
X458632D01*
X458662Y118972D01*
X458682D01*
X458712Y118962D01*
X458732Y118952D01*
X458762Y118942D01*
X458782Y118922D01*
X458802Y118912D01*
X458822Y118892D01*
X458842Y118882D01*
X458862Y118862D01*
X458872Y118852D01*
X469666D01*
X472186Y116332D01*
X497332D01*
X497840Y115824D01*
X497332Y115316D01*
Y107872D01*
X456032D01*
Y107992D01*
X453482D01*
X453452Y108002D01*
X453432D01*
X453402Y108012D01*
X453382D01*
X453352Y108022D01*
X453332Y108032D01*
X453302Y108042D01*
X453282Y108062D01*
X453262Y108072D01*
X453242Y108092D01*
X453222Y108102D01*
X453202Y108122D01*
X453182Y108142D01*
X453162Y108162D01*
X453142Y108182D01*
X453132Y108202D01*
X453112Y108222D01*
X453102Y108242D01*
X453082Y108262D01*
X453072Y108292D01*
X453062Y108312D01*
X453052Y108342D01*
Y108362D01*
X453042Y108392D01*
Y108412D01*
X453032Y108442D01*
Y118542D01*
X453042Y118572D01*
Y118592D01*
X453052Y118622D01*
Y118642D01*
X453062Y118672D01*
X453072Y118692D01*
X453082Y118722D01*
X453102Y118742D01*
X453112Y118762D01*
X453132Y118782D01*
X453142Y118802D01*
X453162Y118822D01*
X453182Y118842D01*
X453202Y118862D01*
X453222Y118882D01*
X453242Y118892D01*
X453262Y118912D01*
X453282Y118922D01*
X453302Y118942D01*
X453332Y118952D01*
X453352Y118962D01*
X453382Y118972D01*
X453402D01*
X453432Y118982D01*
X453452D01*
X453482Y118992D01*
X458582D01*
X458612Y118982D01*
D02*
G37*
G36*
X777428Y169127D02*
X776428Y168713D01*
X771401Y173739D01*
X770636Y174056D01*
X760713D01*
X760677Y174041D01*
X760640Y174054D01*
X760299Y173885D01*
X760185Y173838D01*
X752506D01*
Y154838D01*
X764629D01*
X764763Y154758D01*
X767246Y154391D01*
X767598Y153328D01*
X766758Y152488D01*
X766073Y150834D01*
Y149044D01*
X766758Y147390D01*
X768024Y146124D01*
X768946Y145742D01*
X768747Y144742D01*
X750949D01*
X750949Y144742D01*
X750071Y144567D01*
X749327Y144070D01*
X746489Y141232D01*
X744835D01*
Y144499D01*
X734248D01*
Y133377D01*
X736287D01*
X736701Y132377D01*
X734126Y129802D01*
X715375D01*
X715269Y130057D01*
X714003Y131323D01*
X712349Y132008D01*
X710559D01*
X708905Y131323D01*
X707639Y130057D01*
X706954Y128403D01*
Y126613D01*
X707639Y124959D01*
X708905Y123693D01*
X710559Y123008D01*
X712349D01*
X714003Y123693D01*
X715269Y124959D01*
X715375Y125214D01*
X735076D01*
X735954Y125389D01*
X736698Y125886D01*
X741163Y130351D01*
X741163Y130351D01*
X741661Y131095D01*
X741835Y131973D01*
X741835Y131973D01*
Y133377D01*
X744835D01*
Y136644D01*
X747439D01*
X748317Y136819D01*
X749061Y137316D01*
X751720Y139974D01*
X752418Y139889D01*
X752798Y138894D01*
X752089Y138185D01*
X751404Y136531D01*
Y134741D01*
X752089Y133087D01*
X753355Y131821D01*
X755009Y131136D01*
X756799D01*
X758453Y131821D01*
X759369Y132737D01*
X759893Y132736D01*
X760577Y131774D01*
X760548Y131705D01*
Y129915D01*
X760796Y129317D01*
X760205Y128422D01*
X759381Y128363D01*
X758453Y129291D01*
X756799Y129976D01*
X755009D01*
X753355Y129291D01*
X752089Y128025D01*
X751404Y126371D01*
Y124581D01*
X752089Y122927D01*
X753355Y121661D01*
X755009Y120976D01*
X756799D01*
X758453Y121661D01*
X759485Y122694D01*
X759951Y122718D01*
X760593Y121916D01*
X760626Y121734D01*
X760548Y121545D01*
Y119755D01*
X761233Y118101D01*
X762499Y116835D01*
X764153Y116150D01*
X765943D01*
X767597Y116835D01*
X768863Y118101D01*
X768972Y118364D01*
X774194D01*
X774619Y118448D01*
X775568D01*
X776464Y118198D01*
X776464Y117448D01*
Y114562D01*
X761492D01*
X761404Y114545D01*
X760404Y115358D01*
Y115703D01*
X759719Y117357D01*
X758453Y118623D01*
X756799Y119308D01*
X755009D01*
X753355Y118623D01*
X752089Y117357D01*
X751992Y117122D01*
X745089D01*
Y120623D01*
X734501D01*
Y109501D01*
X745089D01*
Y112493D01*
X751992D01*
X752089Y112259D01*
X753355Y110993D01*
X754913Y110348D01*
X755364Y109384D01*
X754028Y108048D01*
X753531Y107304D01*
X753356Y106426D01*
Y93601D01*
X753235Y93480D01*
X745089D01*
Y96747D01*
X734501D01*
Y85625D01*
X745089D01*
Y88892D01*
X754185D01*
X755063Y89067D01*
X755808Y89564D01*
X757272Y91028D01*
X757769Y91773D01*
X757944Y92650D01*
Y105476D01*
X762442Y109974D01*
X776464D01*
Y109698D01*
X779635D01*
X780049Y108698D01*
X774149Y102798D01*
X773149Y103166D01*
Y105517D01*
X762027D01*
Y94930D01*
X773149D01*
Y97909D01*
X774847D01*
X775733Y98085D01*
X776484Y98587D01*
X781980Y104083D01*
X782980Y103669D01*
Y102737D01*
X783665Y101083D01*
X784931Y99817D01*
X786585Y99132D01*
X788375D01*
X790029Y99817D01*
X790398Y100186D01*
X791398Y99771D01*
Y98081D01*
X776105Y71694D01*
X704028D01*
X703837Y71885D01*
X703837Y71885D01*
X690946Y84776D01*
Y160842D01*
X706314Y176210D01*
X725060D01*
X725466Y175378D01*
X725466Y175210D01*
Y165608D01*
X733756D01*
X742046D01*
Y175210D01*
X742046Y175378D01*
X742452Y176210D01*
X777428D01*
Y169127D01*
D02*
G37*
G36*
X774700Y168910D02*
X786384Y157226D01*
X790702Y153289D01*
Y147946D01*
X788694Y145938D01*
X779526Y153670D01*
X764921Y155829D01*
X763016Y157734D01*
X761746D01*
X760713Y172974D01*
X770636D01*
X774700Y168910D01*
D02*
G37*
G36*
X940054Y156210D02*
Y139954D01*
X933958Y133858D01*
X835152D01*
X830834Y129540D01*
X799592D01*
Y136906D01*
X811530Y148082D01*
X819912Y156464D01*
X932434Y156464D01*
X940054Y156210D01*
D02*
G37*
G36*
X388798Y110248D02*
X388788Y110038D01*
X388778Y109828D01*
X388748Y109618D01*
X388708Y109418D01*
X388658Y109208D01*
X388598Y109008D01*
X388528Y108818D01*
X388448Y108618D01*
X388358Y108428D01*
X388258Y108248D01*
X388148Y108068D01*
X388038Y107898D01*
X387908Y107728D01*
X387768Y107568D01*
X387628Y107418D01*
X387478Y107278D01*
X387318Y107138D01*
X387148Y107008D01*
X386978Y106898D01*
X386798Y106788D01*
X386618Y106688D01*
X386428Y106598D01*
X386228Y106518D01*
X386038Y106448D01*
X385838Y106388D01*
X385628Y106338D01*
X385428Y106298D01*
X385218Y106268D01*
X385008Y106258D01*
X384798Y106248D01*
X319798D01*
X319588Y106258D01*
X319378Y106268D01*
X319168Y106298D01*
X318968Y106338D01*
X318758Y106388D01*
X318558Y106448D01*
X318368Y106518D01*
X318168Y106598D01*
X317978Y106688D01*
X317798Y106788D01*
X317618Y106898D01*
X317448Y107008D01*
X317278Y107138D01*
X317118Y107278D01*
X316968Y107418D01*
X316828Y107568D01*
X316688Y107728D01*
X316558Y107898D01*
X316448Y108068D01*
X316338Y108248D01*
X316238Y108428D01*
X316148Y108618D01*
X316068Y108818D01*
X315998Y109008D01*
X315938Y109208D01*
X315888Y109418D01*
X315848Y109618D01*
X315818Y109828D01*
X315808Y110038D01*
X315798Y110248D01*
Y113968D01*
X275428D01*
X275398Y113978D01*
X275378D01*
X275348Y113988D01*
X275328D01*
X275298Y113998D01*
X275278Y114008D01*
X275248Y114018D01*
X275228Y114038D01*
X275208Y114048D01*
X275188Y114068D01*
X275168Y114078D01*
X275148Y114098D01*
X275128Y114118D01*
X275108Y114138D01*
X275088Y114158D01*
X275078Y114178D01*
X275058Y114198D01*
X275048Y114218D01*
X275028Y114238D01*
X275018Y114268D01*
X275008Y114288D01*
X274998Y114318D01*
Y114338D01*
X274988Y114368D01*
Y114388D01*
X274978Y114418D01*
Y124518D01*
X274988Y124548D01*
Y124568D01*
X274998Y124598D01*
Y124618D01*
X275008Y124648D01*
X275018Y124668D01*
X275028Y124698D01*
X275048Y124718D01*
X275058Y124738D01*
X275078Y124758D01*
X275088Y124778D01*
X275108Y124798D01*
X275128Y124818D01*
X275148Y124838D01*
X275168Y124858D01*
X275188Y124868D01*
X275208Y124888D01*
X275228Y124898D01*
X275248Y124918D01*
X275278Y124928D01*
X275298Y124938D01*
X275328Y124948D01*
X275348D01*
X275378Y124958D01*
X275398D01*
X275428Y124968D01*
X280528D01*
X280558Y124958D01*
X280578D01*
X280608Y124948D01*
X291612D01*
X294132Y122428D01*
X315798D01*
Y132248D01*
X327418D01*
X327888Y131198D01*
X328348Y130258D01*
X328848Y129338D01*
X329388Y128438D01*
X329958Y127558D01*
X330568Y126698D01*
X331208Y125868D01*
X331878Y125058D01*
X332578Y124278D01*
X333318Y123528D01*
X334078Y122808D01*
X334868Y122108D01*
X335678Y121448D01*
X336518Y120818D01*
X337388Y120218D01*
X338268Y119658D01*
X339178Y119138D01*
X340108Y118638D01*
X341048Y118188D01*
X342018Y117768D01*
X342998Y117388D01*
X343988Y117048D01*
X344988Y116748D01*
X346008Y116478D01*
X347038Y116258D01*
X348068Y116078D01*
X349108Y115928D01*
X350158Y115828D01*
X351198Y115768D01*
X352298Y115748D01*
X353398Y115768D01*
X354438Y115828D01*
X355488Y115928D01*
X356528Y116078D01*
X357558Y116258D01*
X358588Y116478D01*
X359608Y116748D01*
X360608Y117048D01*
X361598Y117388D01*
X362578Y117768D01*
X363548Y118188D01*
X364488Y118638D01*
X365418Y119138D01*
X366328Y119658D01*
X367208Y120218D01*
X368078Y120818D01*
X368918Y121448D01*
X369728Y122108D01*
X370518Y122808D01*
X371278Y123528D01*
X372018Y124278D01*
X372718Y125058D01*
X373388Y125868D01*
X374028Y126698D01*
X374638Y127558D01*
X375208Y128438D01*
X375748Y129338D01*
X376248Y130258D01*
X376708Y131198D01*
X377178Y132248D01*
X388798D01*
Y110248D01*
D02*
G37*
G36*
X261558Y124958D02*
X261578D01*
X261608Y124948D01*
X261628D01*
X261658Y124938D01*
X261678Y124928D01*
X261708Y124918D01*
X261728Y124898D01*
X261748Y124888D01*
X261768Y124868D01*
X261788Y124858D01*
X261808Y124838D01*
X261828Y124818D01*
X261848Y124798D01*
X261868Y124778D01*
X261878Y124758D01*
X261898Y124738D01*
X261908Y124718D01*
X261928Y124698D01*
X261938Y124668D01*
X261948Y124648D01*
X261958Y124618D01*
Y124598D01*
X261968Y124568D01*
Y124548D01*
X261978Y124518D01*
Y114418D01*
X261968Y114388D01*
Y114368D01*
X261958Y114338D01*
Y114318D01*
X261948Y114288D01*
X261938Y114268D01*
X261928Y114238D01*
X261908Y114218D01*
X261898Y114198D01*
X261878Y114178D01*
X261868Y114158D01*
X261848Y114138D01*
X261828Y114118D01*
X261808Y114098D01*
X261788Y114078D01*
X261768Y114068D01*
X261748Y114048D01*
X261728Y114038D01*
X261708Y114018D01*
X261678Y114008D01*
X261658Y113998D01*
X261628Y113988D01*
X261608D01*
X261578Y113978D01*
X261558D01*
X261528Y113968D01*
X256428D01*
X256398Y113978D01*
X256378D01*
X256348Y113988D01*
X256328D01*
X256298Y113998D01*
X256278Y114008D01*
X256248Y114018D01*
X256228Y114038D01*
X256208Y114048D01*
X256188Y114068D01*
X256168Y114078D01*
X256148Y114098D01*
X256128Y114118D01*
X256108Y114138D01*
X256088Y114158D01*
X256078Y114178D01*
X256058Y114198D01*
X256048Y114218D01*
X256028Y114238D01*
X256018Y114268D01*
X256008Y114288D01*
X255998Y114318D01*
Y114338D01*
X255988Y114368D01*
Y114388D01*
X255978Y114418D01*
Y124518D01*
X255988Y124548D01*
Y124568D01*
X255998Y124598D01*
Y124618D01*
X256008Y124648D01*
X256018Y124668D01*
X256028Y124698D01*
X256048Y124718D01*
X256058Y124738D01*
X256078Y124758D01*
X256088Y124778D01*
X256108Y124798D01*
X256128Y124818D01*
X256148Y124838D01*
X256168Y124858D01*
X256188Y124868D01*
X256208Y124888D01*
X256228Y124898D01*
X256248Y124918D01*
X256278Y124928D01*
X256298Y124938D01*
X256328Y124948D01*
X256348D01*
X256378Y124958D01*
X256398D01*
X256428Y124968D01*
X261528D01*
X261558Y124958D01*
D02*
G37*
G36*
X439612Y118982D02*
X439632D01*
X439662Y118972D01*
X439682D01*
X439712Y118962D01*
X439732Y118952D01*
X439762Y118942D01*
X439782Y118922D01*
X439802Y118912D01*
X439822Y118892D01*
X439842Y118882D01*
X439862Y118862D01*
X439882Y118842D01*
X439902Y118822D01*
X439922Y118802D01*
X439932Y118782D01*
X439952Y118762D01*
X439962Y118742D01*
X439982Y118722D01*
X439992Y118692D01*
X440002Y118672D01*
X440012Y118642D01*
Y118622D01*
X440022Y118592D01*
Y118572D01*
X440032Y118542D01*
Y108442D01*
X440022Y108412D01*
Y108392D01*
X440012Y108362D01*
Y108342D01*
X440002Y108312D01*
X439992Y108292D01*
X439982Y108262D01*
X439962Y108242D01*
X439952Y108222D01*
X439932Y108202D01*
X439922Y108182D01*
X439902Y108162D01*
X439882Y108142D01*
X439862Y108122D01*
X439842Y108102D01*
X439822Y108092D01*
X439802Y108072D01*
X439782Y108062D01*
X439762Y108042D01*
X439732Y108032D01*
X439712Y108022D01*
X439682Y108012D01*
X439662D01*
X439632Y108002D01*
X439612D01*
X439582Y107992D01*
X434482D01*
X434452Y108002D01*
X434432D01*
X434402Y108012D01*
X434382D01*
X434352Y108022D01*
X434332Y108032D01*
X434302Y108042D01*
X434282Y108062D01*
X434262Y108072D01*
X434242Y108092D01*
X434222Y108102D01*
X434202Y108122D01*
X434182Y108142D01*
X434162Y108162D01*
X434142Y108182D01*
X434132Y108202D01*
X434112Y108222D01*
X434102Y108242D01*
X434082Y108262D01*
X434072Y108292D01*
X434062Y108312D01*
X434052Y108342D01*
Y108362D01*
X434042Y108392D01*
Y108412D01*
X434032Y108442D01*
Y118542D01*
X434042Y118572D01*
Y118592D01*
X434052Y118622D01*
Y118642D01*
X434062Y118672D01*
X434072Y118692D01*
X434082Y118722D01*
X434102Y118742D01*
X434112Y118762D01*
X434132Y118782D01*
X434142Y118802D01*
X434162Y118822D01*
X434182Y118842D01*
X434202Y118862D01*
X434222Y118882D01*
X434242Y118892D01*
X434262Y118912D01*
X434282Y118922D01*
X434302Y118942D01*
X434332Y118952D01*
X434352Y118962D01*
X434382Y118972D01*
X434402D01*
X434432Y118982D01*
X434452D01*
X434482Y118992D01*
X439582D01*
X439612Y118982D01*
D02*
G37*
G36*
X271058Y124958D02*
X271078D01*
X271108Y124948D01*
X271128D01*
X271158Y124938D01*
X271178Y124928D01*
X271208Y124918D01*
X271228Y124898D01*
X271248Y124888D01*
X271268Y124868D01*
X271288Y124858D01*
X271308Y124838D01*
X271328Y124818D01*
X271348Y124798D01*
X271368Y124778D01*
X271378Y124758D01*
X271398Y124738D01*
X271408Y124718D01*
X271428Y124698D01*
X271438Y124668D01*
X271448Y124648D01*
X271458Y124618D01*
Y124598D01*
X271468Y124568D01*
Y124548D01*
X271478Y124518D01*
Y114418D01*
X271468Y114388D01*
Y114368D01*
X271458Y114338D01*
Y114318D01*
X271449Y114291D01*
X271478D01*
Y113967D01*
X272288Y112821D01*
Y100449D01*
X263906Y100203D01*
Y112719D01*
X265478Y114291D01*
X265507D01*
X265498Y114318D01*
Y114338D01*
X265488Y114368D01*
Y114388D01*
X265478Y114418D01*
Y124518D01*
X265488Y124548D01*
Y124568D01*
X265498Y124598D01*
Y124618D01*
X265508Y124648D01*
X265518Y124668D01*
X265528Y124698D01*
X265548Y124718D01*
X265558Y124738D01*
X265578Y124758D01*
X265588Y124778D01*
X265608Y124798D01*
X265628Y124818D01*
X265648Y124838D01*
X265668Y124858D01*
X265688Y124868D01*
X265708Y124888D01*
X265728Y124898D01*
X265748Y124918D01*
X265778Y124928D01*
X265798Y124938D01*
X265828Y124948D01*
X265848D01*
X265878Y124958D01*
X265898D01*
X265928Y124968D01*
X271028D01*
X271058Y124958D01*
D02*
G37*
G36*
X834898Y107188D02*
Y100076D01*
X833628Y98806D01*
X810260D01*
X808482Y100584D01*
Y106934D01*
X810260Y108712D01*
X833374D01*
X834898Y107188D01*
D02*
G37*
G36*
X872236Y130556D02*
Y97028D01*
X842772D01*
X840232Y99568D01*
Y112776D01*
X815340D01*
X808736Y119380D01*
X799592D01*
Y122939D01*
Y127254D01*
X839470D01*
X843026Y130810D01*
X871982D01*
X872236Y130556D01*
D02*
G37*
G36*
X933450Y120650D02*
Y96774D01*
X892302D01*
X892048Y130810D01*
X923290D01*
X933450Y120650D01*
D02*
G37*
G36*
X449112Y118982D02*
X449132D01*
X449162Y118972D01*
X449182D01*
X449212Y118962D01*
X449232Y118952D01*
X449262Y118942D01*
X449282Y118922D01*
X449302Y118912D01*
X449322Y118892D01*
X449342Y118882D01*
X449362Y118862D01*
X449382Y118842D01*
X449402Y118822D01*
X449422Y118802D01*
X449432Y118782D01*
X449452Y118762D01*
X449462Y118742D01*
X449482Y118722D01*
X449492Y118692D01*
X449502Y118672D01*
X449512Y118642D01*
Y118622D01*
X449522Y118592D01*
Y118572D01*
X449532Y118542D01*
Y108442D01*
X449522Y108412D01*
Y108392D01*
X449512Y108362D01*
Y108342D01*
X449502Y108312D01*
X449492Y108292D01*
X449482Y108262D01*
X449462Y108242D01*
X449452Y108222D01*
X449432Y108202D01*
X449428Y108195D01*
X449532D01*
Y107871D01*
X450342Y106725D01*
Y94354D01*
X441960Y94107D01*
Y106623D01*
X443532Y108195D01*
X443635D01*
X443632Y108202D01*
X443612Y108222D01*
X443602Y108242D01*
X443582Y108262D01*
X443572Y108292D01*
X443562Y108312D01*
X443552Y108342D01*
Y108362D01*
X443542Y108392D01*
Y108412D01*
X443532Y108442D01*
Y118542D01*
X443542Y118572D01*
Y118592D01*
X443552Y118622D01*
Y118642D01*
X443562Y118672D01*
X443572Y118692D01*
X443582Y118722D01*
X443602Y118742D01*
X443612Y118762D01*
X443632Y118782D01*
X443642Y118802D01*
X443662Y118822D01*
X443682Y118842D01*
X443702Y118862D01*
X443722Y118882D01*
X443742Y118892D01*
X443762Y118912D01*
X443782Y118922D01*
X443802Y118942D01*
X443832Y118952D01*
X443852Y118962D01*
X443882Y118972D01*
X443902D01*
X443932Y118982D01*
X443952D01*
X443982Y118992D01*
X449082D01*
X449112Y118982D01*
D02*
G37*
G36*
X835660Y249428D02*
Y213106D01*
X819150D01*
X808482Y202438D01*
Y162052D01*
X795020Y148590D01*
Y144526D01*
X792480D01*
Y153924D01*
X778510Y167894D01*
Y177292D01*
X705866D01*
X689864Y161290D01*
Y84328D01*
X703072Y71120D01*
X703580Y70612D01*
X776729D01*
X792480Y97790D01*
Y108458D01*
Y110998D01*
X794766D01*
X805434Y100330D01*
Y55372D01*
X780542Y30480D01*
X168148D01*
X128778Y69850D01*
Y196088D01*
X138938Y206248D01*
X178054Y206502D01*
X188214Y194818D01*
Y114046D01*
X231648Y70612D01*
X254392D01*
X257810Y86106D01*
X264668Y92964D01*
X271780D01*
X277876Y86106D01*
X283202Y70612D01*
X433791D01*
X435864Y80010D01*
X442722Y86868D01*
X449834D01*
X455930Y80010D01*
X459161Y70612D01*
X653542D01*
X666242Y83312D01*
Y175260D01*
X692912Y201930D01*
X785114D01*
X806958Y223774D01*
Y254000D01*
X831088D01*
X835660Y249428D01*
D02*
G37*
%LPC*%
G36*
X742046Y163068D02*
X735026D01*
Y153298D01*
X742046D01*
Y163068D01*
D02*
G37*
G36*
X732486D02*
X725466D01*
Y153298D01*
X732486D01*
Y163068D01*
D02*
G37*
G36*
X730841Y146039D02*
X725277D01*
Y140208D01*
X730841D01*
Y146039D01*
D02*
G37*
G36*
X722737D02*
X717173D01*
Y140208D01*
X722737D01*
Y146039D01*
D02*
G37*
G36*
X730841Y137668D02*
X725277D01*
Y131837D01*
X730841D01*
Y137668D01*
D02*
G37*
G36*
X722737D02*
X717173D01*
Y131837D01*
X722737D01*
Y137668D01*
D02*
G37*
G36*
X731095Y122163D02*
X725531D01*
Y116332D01*
X731095D01*
Y122163D01*
D02*
G37*
G36*
X722991D02*
X717427D01*
Y116332D01*
X722991D01*
Y122163D01*
D02*
G37*
G36*
X731095Y113792D02*
X725531D01*
Y107961D01*
X731095D01*
Y113792D01*
D02*
G37*
G36*
X722991D02*
X717427D01*
Y107961D01*
X722991D01*
Y113792D01*
D02*
G37*
G36*
X731095Y98287D02*
X725531D01*
Y92456D01*
X731095D01*
Y98287D01*
D02*
G37*
G36*
X722991D02*
X717427D01*
Y92456D01*
X722991D01*
Y98287D01*
D02*
G37*
G36*
X774689Y91523D02*
X768858D01*
Y85959D01*
X774689D01*
Y91523D01*
D02*
G37*
G36*
X766318D02*
X760487D01*
Y85959D01*
X766318D01*
Y91523D01*
D02*
G37*
G36*
X731095Y89916D02*
X725531D01*
Y84085D01*
X731095D01*
Y89916D01*
D02*
G37*
G36*
X722991D02*
X717427D01*
Y84085D01*
X722991D01*
Y89916D01*
D02*
G37*
G36*
X774689Y83419D02*
X768858D01*
Y77855D01*
X774689D01*
Y83419D01*
D02*
G37*
G36*
X766318D02*
X760487D01*
Y77855D01*
X766318D01*
Y83419D01*
D02*
G37*
%LPD*%
D10*
X739541Y131973D02*
Y138938D01*
X735076Y127508D02*
X739541Y131973D01*
X711454Y127508D02*
X735076D01*
X533654Y243987D02*
X540619D01*
X558292Y226314D01*
X739541Y138938D02*
X747439D01*
X750949Y142448D02*
X778714D01*
X747439Y138938D02*
X750949Y142448D01*
X755650Y92650D02*
Y106426D01*
X739795Y91186D02*
X754185D01*
X755650Y92650D01*
Y106426D02*
X761492Y112268D01*
X778714D02*
Y113948D01*
X761492Y112268D02*
X778714D01*
X798763Y113997D02*
X804623D01*
D13*
X1206246Y610616D02*
Y675386D01*
Y610616D02*
X1209040Y607822D01*
X1259078D01*
X1239168Y497722D02*
Y535989D01*
X1241151Y537972D01*
X1213122Y489369D02*
X1216914Y493161D01*
X1205738Y487881D02*
X1207226Y489369D01*
X1213122D01*
X1205738Y421894D02*
Y487881D01*
X1258570Y419100D02*
X1268222Y428752D01*
X1205738Y421894D02*
X1208532Y419100D01*
X1258570D01*
X1216914Y493161D02*
X1234607D01*
X1239168Y497722D01*
X1239676Y724711D02*
X1241659Y726694D01*
X1239676Y692577D02*
Y724711D01*
Y686444D02*
Y692577D01*
X1235115Y681883D02*
X1239676Y686444D01*
X1217422Y681883D02*
X1235115D01*
X1215218Y679679D02*
X1217422Y681883D01*
X1210539Y679679D02*
X1215218D01*
X1206246Y675386D02*
X1210539Y679679D01*
X1259078Y607822D02*
X1268730Y617474D01*
X422910Y403098D02*
Y416560D01*
X420906Y401094D02*
X422910Y403098D01*
X451424Y410652D02*
X459486Y402590D01*
X440906Y410652D02*
X451424D01*
X459138Y430652D02*
X459486Y431000D01*
X440906Y430652D02*
X459138D01*
X459176Y450652D02*
X459486Y450342D01*
X440906Y450652D02*
X459176D01*
X915162Y99822D02*
X917702Y97282D01*
Y69088D02*
Y97282D01*
X765076Y120678D02*
X774194D01*
X774214Y120698D01*
X765048Y120650D02*
X765076Y120678D01*
X740049Y114808D02*
X755650D01*
X739795Y115062D02*
X740049Y114808D01*
X440906Y415652D02*
X455568D01*
X460502Y410718D01*
X755904Y135636D02*
X755946Y135678D01*
X774194D01*
X774214Y135698D01*
X420906Y390652D02*
Y401094D01*
X440906Y425652D02*
X455682D01*
X459058Y422276D01*
X459994D01*
X756380Y125698D02*
X774214D01*
X756158Y125476D02*
X756380Y125698D01*
X765302Y130810D02*
X765394Y130718D01*
X774194D01*
X774214Y130698D01*
X783714Y142448D02*
Y145158D01*
X778933Y149939D02*
X783714Y145158D01*
X770573Y149939D02*
X778933D01*
X774847Y100223D02*
X783694Y109070D01*
X767588Y100223D02*
X774847D01*
X783694Y109070D02*
Y111968D01*
X780415Y158496D02*
X785749Y153162D01*
X788694Y142468D02*
Y149408D01*
X780288Y158496D02*
X780415D01*
X785876Y152226D02*
Y153162D01*
X785749D02*
X785876D01*
Y152226D02*
X788694Y149408D01*
Y142468D02*
X788714Y142448D01*
X965060Y190360D02*
X993000D01*
X941024Y166324D02*
X965060Y190360D01*
X941024Y144746D02*
Y166324D01*
X993000Y190360D02*
X993648Y191008D01*
X787480Y103632D02*
Y104568D01*
X788714Y105802D01*
Y113948D01*
X605388Y104406D02*
Y169406D01*
X619105Y193548D02*
Y224028D01*
X605388Y169406D02*
X606530Y170548D01*
Y180706D01*
X619105Y193281D01*
Y193548D01*
D14*
X255778Y266446D02*
X266954D01*
X237490Y281178D02*
X242640Y276028D01*
X246196D01*
X255778Y266446D01*
X266954D02*
X326644Y206756D01*
Y177038D02*
Y206756D01*
D16*
X533654Y161144D02*
Y228453D01*
Y161144D02*
X534416Y160382D01*
D17*
X1239168Y460583D02*
D03*
X1239676Y649559D02*
D03*
D18*
X1245668Y460583D02*
D03*
X1252168D02*
D03*
X1258668D02*
D03*
Y503601D02*
D03*
X1252168D02*
D03*
X1245668D02*
D03*
X1239168D02*
D03*
X1246176Y649559D02*
D03*
X1252676D02*
D03*
X1259176D02*
D03*
Y692577D02*
D03*
X1252676D02*
D03*
X1246176D02*
D03*
X1239676D02*
D03*
D19*
X1241151Y537972D02*
D03*
X1256685D02*
D03*
X442321Y351282D02*
D03*
X457855D02*
D03*
X459593Y187452D02*
D03*
X475127D02*
D03*
X446171Y90424D02*
D03*
X430637D02*
D03*
X803763Y170688D02*
D03*
X819297D02*
D03*
X424327Y548132D02*
D03*
X408793D02*
D03*
X475127Y164592D02*
D03*
X459593D02*
D03*
X1257193Y726694D02*
D03*
X1241659D02*
D03*
X297581Y170180D02*
D03*
X282047D02*
D03*
X268117Y96520D02*
D03*
X252583D02*
D03*
X739541Y138938D02*
D03*
X724007D02*
D03*
X801223Y83820D02*
D03*
X816757D02*
D03*
X828909Y104140D02*
D03*
X844443D02*
D03*
X619105Y193548D02*
D03*
X634639D02*
D03*
X281539D02*
D03*
X297073D02*
D03*
X898291Y321818D02*
D03*
X882757D02*
D03*
X903117Y426212D02*
D03*
X887583D02*
D03*
X724261Y91186D02*
D03*
X739795D02*
D03*
X724261Y115062D02*
D03*
X739795D02*
D03*
X618637Y226314D02*
D03*
X603103D02*
D03*
X122067Y586232D02*
D03*
X106533D02*
D03*
X76347Y473202D02*
D03*
X60813D02*
D03*
X122067Y557276D02*
D03*
X106533D02*
D03*
D20*
X1213612Y492145D02*
D03*
Y476611D02*
D03*
X145796Y586339D02*
D03*
Y601873D02*
D03*
X533654Y243987D02*
D03*
Y228453D02*
D03*
X839978Y167533D02*
D03*
Y151999D02*
D03*
X420116Y297795D02*
D03*
Y313329D02*
D03*
X399034Y353167D02*
D03*
Y368701D02*
D03*
X476504Y127655D02*
D03*
Y112121D02*
D03*
X298704Y133751D02*
D03*
Y118217D02*
D03*
X862838Y425851D02*
D03*
Y410317D02*
D03*
X852170Y305201D02*
D03*
Y289667D02*
D03*
X767588Y100223D02*
D03*
Y84689D02*
D03*
X333756Y368701D02*
D03*
Y353167D02*
D03*
X377275Y368701D02*
D03*
Y353167D02*
D03*
X355515Y368701D02*
D03*
Y353167D02*
D03*
X438404Y164953D02*
D03*
Y180487D02*
D03*
X1217422Y666349D02*
D03*
Y681883D02*
D03*
X260096Y171049D02*
D03*
Y186583D02*
D03*
X852424Y338943D02*
D03*
Y354477D02*
D03*
X830072Y425851D02*
D03*
Y410317D02*
D03*
D21*
X1216406Y429006D02*
D03*
X1233678D02*
D03*
X1250950Y428752D02*
D03*
X1268222D02*
D03*
X1216914Y617728D02*
D03*
X1234186D02*
D03*
X1251458Y617474D02*
D03*
X1268730D02*
D03*
D22*
X534416Y110382D02*
D03*
Y160382D02*
D03*
D23*
X827074Y193294D02*
D03*
X801574D02*
D03*
X759256Y164338D02*
D03*
X733756D02*
D03*
X800050Y62230D02*
D03*
X825550D02*
D03*
D24*
X781964Y132948D02*
D03*
D25*
X774214Y120698D02*
D03*
Y125698D02*
D03*
Y130698D02*
D03*
Y135698D02*
D03*
X803214Y120698D02*
D03*
Y125698D02*
D03*
Y135698D02*
D03*
Y130698D02*
D03*
D26*
X778714Y113948D02*
D03*
X783714D02*
D03*
X798714D02*
D03*
X793714D02*
D03*
X788714D02*
D03*
X778714Y142448D02*
D03*
X783714D02*
D03*
X798714D02*
D03*
X793714D02*
D03*
X788714D02*
D03*
D27*
X791464Y132698D02*
D03*
Y123698D02*
D03*
D28*
X442390Y313310D02*
D03*
X464390D02*
D03*
Y329310D02*
D03*
X442390D02*
D03*
D29*
X175060Y533806D02*
D03*
Y552806D02*
D03*
Y543306D02*
D03*
X150060D02*
D03*
Y552806D02*
D03*
Y533806D02*
D03*
D30*
X885726Y239014D02*
D03*
X825726D02*
D03*
D31*
X967024Y144746D02*
D03*
X941024D02*
D03*
Y108746D02*
D03*
X967024D02*
D03*
D32*
X890856Y113792D02*
D03*
X867156D02*
D03*
D33*
X370906Y390652D02*
D03*
D34*
X375906D02*
D03*
X380906D02*
D03*
X385906D02*
D03*
X390906D02*
D03*
X395906D02*
D03*
X400906D02*
D03*
X405906D02*
D03*
X410906D02*
D03*
X415906D02*
D03*
X420906D02*
D03*
X425906D02*
D03*
Y475652D02*
D03*
X420906D02*
D03*
X415906D02*
D03*
X410906D02*
D03*
X405906D02*
D03*
X400906D02*
D03*
X395906D02*
D03*
X390906D02*
D03*
X385906D02*
D03*
X380906D02*
D03*
X375906D02*
D03*
X370906D02*
D03*
D35*
X440906Y405652D02*
D03*
Y410652D02*
D03*
Y415652D02*
D03*
Y420652D02*
D03*
Y425652D02*
D03*
Y430652D02*
D03*
Y435652D02*
D03*
Y440652D02*
D03*
Y445652D02*
D03*
Y450652D02*
D03*
Y455652D02*
D03*
Y460652D02*
D03*
X355906D02*
D03*
Y455652D02*
D03*
Y450652D02*
D03*
Y445652D02*
D03*
Y440652D02*
D03*
Y435652D02*
D03*
Y430652D02*
D03*
Y425652D02*
D03*
Y420652D02*
D03*
Y415652D02*
D03*
Y410652D02*
D03*
Y405652D02*
D03*
D36*
X15240Y730758D02*
D03*
Y10160D02*
D03*
D37*
X451866Y547998D02*
D03*
Y562998D02*
D03*
D38*
X71108Y135000D02*
D03*
Y265000D02*
D03*
D39*
X158608Y194000D02*
D03*
D69*
X443230Y614934D02*
D03*
X417830D02*
D03*
X392430D02*
D03*
X367030D02*
D03*
X341630D02*
D03*
D70*
X316230D02*
D03*
D72*
X781964Y123448D02*
D03*
D73*
X258978Y119468D02*
D03*
X277978D02*
D03*
X268478D02*
D03*
X258978Y145468D02*
D03*
X277978D02*
D03*
X268478D02*
D03*
X437032Y113492D02*
D03*
X456032D02*
D03*
X446532D02*
D03*
X437032Y139492D02*
D03*
X456032D02*
D03*
X446532D02*
D03*
D74*
X352298Y110998D02*
D03*
Y174498D02*
D03*
D75*
X825500Y62230D02*
Y72050D01*
Y53390D02*
Y62230D01*
Y42976D02*
Y53086D01*
X826312Y61722D02*
X844244D01*
X815898D02*
X826008D01*
X885698Y239014D02*
Y244042D01*
Y233986D02*
Y239014D01*
X826770Y193294D02*
Y204334D01*
Y184404D02*
Y193294D01*
X71108Y265000D02*
Y451092D01*
Y135000D02*
Y265000D01*
X70982Y134874D02*
X117094D01*
X68580Y10160D02*
Y132472D01*
X826770Y193294D02*
X827074D01*
X816660D02*
X826770D01*
X827074D02*
X845006D01*
X885698Y244042D02*
Y264160D01*
Y212344D02*
Y233986D01*
X885726Y239014D02*
X896996D01*
X885698D02*
X885726D01*
X868934D02*
X885698D01*
X19050Y134874D02*
X70982D01*
X71108Y265000D02*
X123874D01*
X18112D02*
X71108D01*
X733756Y154568D02*
Y164338D01*
X720090D02*
X733756D01*
D76*
X816757Y83820D02*
X819551Y81026D01*
X825550Y11380D02*
Y42976D01*
Y53086D02*
Y62230D01*
X1252168Y503855D02*
X1258668D01*
X1214628Y547370D02*
X1252220D01*
X972500Y322500D02*
X1084326Y434326D01*
X972500Y482500D02*
Y505830D01*
Y257500D02*
Y322500D01*
X709709Y86868D02*
X714027Y91186D01*
X148857Y604667D02*
Y725183D01*
X86761Y601873D02*
X145796D01*
X42133Y452374D02*
X72390D01*
X399034Y143510D02*
Y189738D01*
X650388Y104406D02*
Y169406D01*
X225298Y129286D02*
Y215488D01*
X885698Y244042D02*
X885726Y244014D01*
X852170Y277570D02*
X885698Y244042D01*
Y233986D02*
X885726Y234014D01*
X845006Y193294D02*
X885698Y233986D01*
X70982Y134874D02*
X71108Y135000D01*
X68580Y132472D02*
X70982Y134874D01*
X885444Y212090D02*
X885698Y212344D01*
X798714Y143948D02*
X798964Y144198D01*
X800464D02*
X819297Y163031D01*
X798714Y142448D02*
Y143948D01*
X798964Y144198D02*
X800464D01*
X18034Y264922D02*
X18112Y265000D01*
X123874D02*
X153044Y235830D01*
X245640D01*
X18796Y135128D02*
X19050Y134874D01*
X828134Y170594D02*
X831195Y167533D01*
X819391Y170594D02*
X828134D01*
X831195Y167533D02*
X839711D01*
X819297Y170688D02*
X819391Y170594D01*
X819404Y170795D02*
Y179832D01*
X1257193Y726694D02*
X1259176Y724711D01*
X1255050Y728837D02*
X1257193Y726694D01*
X1256685Y537972D02*
X1258668Y535989D01*
X1254542Y540115D02*
X1256685Y537972D01*
X1258668Y503601D02*
Y503855D01*
Y460583D02*
Y503601D01*
X724007Y138938D02*
Y147309D01*
X767588Y77195D02*
Y84689D01*
X726018Y75438D02*
X765831D01*
X767588Y77195D01*
X724261D02*
Y91186D01*
Y77195D02*
X726018Y75438D01*
X702564Y116819D02*
Y137181D01*
X704321Y115062D02*
X724261D01*
X702564Y116819D02*
X704321Y115062D01*
X724261Y91186D02*
Y115062D01*
X1193501Y568497D02*
X1214628Y547370D01*
X1193501Y568497D02*
Y722120D01*
X1172972Y728218D02*
X1179068Y734314D01*
X1172972Y728218D02*
X1187403D01*
X1193501Y722120D01*
X1216914Y617728D02*
Y626797D01*
X1231893Y641777D01*
X1239168Y503601D02*
X1245668D01*
X1216406Y429006D02*
Y438075D01*
X1231385Y453055D01*
X1238178D01*
X1239168Y454045D01*
Y460837D01*
X1233678Y429006D02*
Y438506D01*
X1245289Y460459D02*
X1245668Y460837D01*
X1245289Y450117D02*
Y460459D01*
X1233678Y438506D02*
X1245289Y450117D01*
X1250950Y428752D02*
Y439022D01*
X1258668Y446740D01*
X1252168Y460837D02*
Y468166D01*
X1250658Y469676D02*
X1252168Y468166D01*
X1250658Y469676D02*
Y469697D01*
X1242728Y477627D02*
X1250658Y469697D01*
X1216914Y477627D02*
X1242728D01*
X1258668Y503855D02*
Y535989D01*
Y446740D02*
Y460583D01*
X1252220Y547370D02*
X1254542Y545048D01*
Y540115D02*
Y545048D01*
X1225786Y736092D02*
X1252728D01*
X1220452Y730758D02*
X1225786Y736092D01*
X1187450Y730758D02*
X1220452D01*
X1255050Y728837D02*
Y733770D01*
X1252728Y736092D02*
X1255050Y733770D01*
X1259176Y649559D02*
Y692577D01*
X1246176D02*
X1252676D01*
X1259176D01*
Y724711D01*
X1217422Y666349D02*
X1243236D01*
X1251166Y658419D01*
Y658398D02*
Y658419D01*
Y658398D02*
X1252676Y656888D01*
Y649559D02*
Y656888D01*
X1259176Y635462D02*
Y649559D01*
X1251458Y627744D02*
X1259176Y635462D01*
X1251458Y617474D02*
Y627744D01*
X1234186Y627228D02*
X1245797Y638839D01*
Y649181D01*
X1246176Y649559D01*
X1234186Y617728D02*
Y627228D01*
X1239676Y642767D02*
Y649559D01*
X1238686Y641777D02*
X1239676Y642767D01*
X1231893Y641777D02*
X1238686D01*
X699770Y104394D02*
X709422D01*
Y87630D02*
Y96012D01*
Y104394D01*
X699770Y87630D02*
Y96012D01*
Y104394D01*
X714027Y91186D02*
X724261D01*
X584454Y241300D02*
X616880D01*
X457228Y368526D02*
X584454Y241300D01*
X618637Y226581D02*
Y239543D01*
X616880Y241300D02*
X618637Y239543D01*
X971412Y505830D02*
X1019048Y553466D01*
X775640Y505830D02*
X971412D01*
X76347Y473202D02*
X107188D01*
X139816Y505830D02*
X245640D01*
X107188Y473202D02*
X139816Y505830D01*
X634639Y193548D02*
X658876D01*
X701158Y235830D02*
X775640D01*
X658876Y193548D02*
X701158Y235830D01*
X824885Y338943D02*
X852424D01*
X425906Y390652D02*
X773176D01*
X824885Y338943D01*
X829892Y410136D02*
X830072Y410317D01*
X812727Y410136D02*
X829892D01*
X812546Y409956D02*
X812727Y410136D01*
X829477Y289667D02*
X852170D01*
X775640Y235830D02*
X829477Y289667D01*
X885726Y239014D02*
Y244014D01*
X852170Y277570D02*
Y289667D01*
X885726Y234014D02*
Y239014D01*
X819297Y163031D02*
Y170688D01*
X825550Y11380D02*
X826262Y10668D01*
X702564Y137181D02*
X704321Y138938D01*
X724007D01*
X540957Y243649D02*
X558292Y226314D01*
X533992Y243649D02*
X540957D01*
X908325Y289667D02*
X910082Y287910D01*
X911839Y237490D02*
X968571D01*
X910082Y239247D02*
X911839Y237490D01*
X910082Y239247D02*
Y287910D01*
X852170Y289667D02*
X908325D01*
X970329Y239247D02*
Y255329D01*
X968571Y237490D02*
X970329Y239247D01*
X427954Y368526D02*
X457228D01*
X420383Y313329D02*
Y364662D01*
X405906Y379139D02*
X420383Y364662D01*
X410906Y379918D02*
X426297Y364527D01*
X444878D01*
X415906Y380575D02*
X427954Y368526D01*
X415906Y380575D02*
Y405530D01*
X410906Y379918D02*
Y390652D01*
X405906Y379139D02*
Y390652D01*
X459085Y297795D02*
X464390Y303100D01*
X420391Y313310D02*
X442390D01*
X420116Y297795D02*
X459085D01*
X442321Y329379D02*
Y351282D01*
X442390Y329310D02*
X446890Y324810D01*
X441813Y350774D02*
X442321Y351282D01*
X427228Y350774D02*
X441813D01*
X442321Y329379D02*
X442390Y329310D01*
X446890Y324810D02*
X449636D01*
X464390Y303100D02*
Y313310D01*
X459890Y317810D02*
X464390Y313310D01*
X456636Y317810D02*
X459890D01*
X449636Y324810D02*
X456636Y317810D01*
X460502Y333198D02*
X464390Y329310D01*
X460502Y333198D02*
Y348635D01*
X457855Y351282D02*
X460502Y348635D01*
X457855Y351282D02*
Y351549D01*
X444878Y364527D02*
X457855Y351549D01*
X533654Y243987D02*
X533992Y243649D01*
X558292Y226314D02*
X603103D01*
X397617Y243987D02*
X533654D01*
X634639Y193548D02*
X635307Y192880D01*
Y184487D02*
Y192880D01*
Y184487D02*
X650388Y169406D01*
X400812Y405384D02*
X400906Y405290D01*
Y390652D02*
Y405290D01*
X333756Y353167D02*
X334010Y352913D01*
Y330962D02*
Y352913D01*
X319024Y322580D02*
Y361188D01*
Y322580D02*
X397617Y243987D01*
X319024Y361188D02*
X326453Y368617D01*
X333672D01*
X333756Y368701D01*
X355515D01*
X297829Y290943D02*
X399034Y189738D01*
X288064Y281178D02*
X297829Y290943D01*
X399034Y143510D02*
X420540Y122004D01*
X262890Y281178D02*
X288064D01*
X249682Y294386D02*
X285750D01*
X312928Y321564D01*
Y388709D01*
X225298Y129286D02*
X231854Y122730D01*
X240586D01*
X240792Y122936D01*
X225298Y215488D02*
X245640Y235830D01*
X437032Y113372D02*
X446532D01*
X72390Y452374D02*
X74590D01*
X71108Y451092D02*
X72390Y452374D01*
X60813Y516613D02*
X73740Y529540D01*
X258978Y119468D02*
X268478D01*
X973163Y258163D02*
X1023465D01*
X972500Y257500D02*
X973163Y258163D01*
X1023465D02*
X1024128Y258826D01*
X970329Y255329D02*
X972500Y257500D01*
X1084326Y434326D02*
Y574019D01*
X927500Y257500D02*
Y322500D01*
X898973D02*
X927500D01*
X898291Y321818D02*
X898973Y322500D01*
X852424Y322199D02*
Y338943D01*
Y305455D02*
Y322199D01*
X882376D01*
X882757Y321818D01*
X852170Y305201D02*
X852424Y305455D01*
Y354477D02*
Y376936D01*
X852678Y377190D01*
X957834D01*
X830072Y399796D02*
Y410317D01*
Y399796D02*
X852678Y377190D01*
X1084326Y574019D02*
Y729996D01*
X1082569Y572262D02*
X1084326Y574019D01*
X1037844Y572262D02*
X1082569D01*
X1019048Y553466D02*
X1037844Y572262D01*
X1019048Y438404D02*
Y528066D01*
X957834Y377190D02*
X1019048Y438404D01*
X911606Y389890D02*
X944890D01*
X891179Y410317D02*
X911606Y389890D01*
X862838Y410317D02*
X891179D01*
X944890Y389890D02*
X972500Y417500D01*
Y482500D01*
X927500Y417500D02*
Y482500D01*
X903117Y426212D02*
X918788D01*
X927500Y417500D01*
X887222Y425851D02*
X887583Y426212D01*
X862838Y425851D02*
X887222D01*
X830072D02*
X862838D01*
X808078Y460652D02*
X830072Y438658D01*
Y425851D02*
Y438658D01*
X440906Y460652D02*
X808078D01*
X541528Y621284D02*
X1018286D01*
X405906Y475652D02*
Y485662D01*
X541528Y621284D01*
X420906Y475652D02*
Y485676D01*
X524364Y589134D02*
X1011536D01*
X420906Y485676D02*
X524364Y589134D01*
X1011536D02*
X1018286Y595884D01*
X390906Y422148D02*
X422910Y454152D01*
X390906Y390652D02*
Y422148D01*
X392430Y614934D02*
X417830D01*
X441960Y728218D02*
X443738D01*
X439420Y730758D02*
X441960Y728218D01*
X442976Y727456D02*
X443738Y728218D01*
X442976Y727456D02*
X443230Y727202D01*
Y614934D02*
Y727202D01*
Y614740D02*
X451866Y606105D01*
X443230Y614740D02*
Y614934D01*
X451866Y562998D02*
Y606105D01*
X424327Y548132D02*
X424461Y547998D01*
X451866D01*
X400906Y475652D02*
Y543314D01*
X405999Y545071D02*
X407706Y546778D01*
Y547045D01*
X400906Y543314D02*
X402663Y545071D01*
X405999D01*
X407706Y547045D02*
X408793Y548132D01*
X415544Y405892D02*
X415906Y405530D01*
X375906Y462294D02*
Y475652D01*
X378206Y459994D02*
X403098D01*
X375906Y462294D02*
X378206Y459994D01*
X377444Y451866D02*
X396240D01*
X370906Y458404D02*
Y475652D01*
Y458404D02*
X377444Y451866D01*
X77440Y585540D02*
X77671Y585771D01*
Y592783D01*
X86761Y601873D01*
X43640Y585540D02*
X77440D01*
X122067Y557276D02*
X130810D01*
X135890Y562356D01*
X183803Y543467D02*
X187960Y547624D01*
X179578Y572262D02*
X187960Y563880D01*
Y547624D02*
Y563880D01*
X175060Y543306D02*
X175221Y543467D01*
X183803D01*
X96774Y572262D02*
X179578D01*
X96774D02*
Y582930D01*
Y566674D02*
Y572262D01*
X316597Y586339D02*
X390976Y511960D01*
X146063Y586339D02*
X316597D01*
X122174D02*
X145796D01*
X390976Y480222D02*
Y511960D01*
X390906Y480152D02*
X390976Y480222D01*
X390906Y475652D02*
Y480152D01*
X136906Y543306D02*
X150060D01*
X145796Y601873D02*
X146063D01*
X148857Y604667D01*
Y725183D02*
X150876Y727202D01*
X122067Y586232D02*
X122174Y586339D01*
X99497Y585653D02*
X105954D01*
X96774Y582930D02*
X99497Y585653D01*
X105954D02*
X106533Y586232D01*
X87910Y564210D02*
X94310D01*
X96774Y566674D01*
X87240Y563540D02*
X87910Y564210D01*
X73740Y563540D02*
X88187D01*
X76347Y473202D02*
Y497947D01*
X77440Y499040D01*
X76347Y454131D02*
Y473202D01*
X40375Y454131D02*
Y496268D01*
X74590Y452374D02*
X76347Y454131D01*
X40375D02*
X42133Y452374D01*
X43147Y499040D02*
X43640D01*
X40375Y496268D02*
X43147Y499040D01*
X43640D02*
Y585540D01*
X60813Y473202D02*
Y516613D01*
X73740Y521040D02*
X87240D01*
X237490Y433578D02*
X249704Y445792D01*
X317268D01*
X251460Y394208D02*
X292354D01*
X237490Y408178D02*
X251460Y394208D01*
X292354D02*
X338798Y440652D01*
X355906D01*
X106229Y555040D02*
X106533Y554736D01*
X87240Y555040D02*
X106229D01*
X73740Y501812D02*
Y512540D01*
X87240D01*
X73740Y572040D02*
X87240D01*
X73740D02*
Y582768D01*
X327128Y455652D02*
X355906D01*
X317268Y445792D02*
X327128Y455652D01*
X263144Y433324D02*
X312674D01*
X262890Y433578D02*
X263144Y433324D01*
X312674D02*
X330002Y450652D01*
X355906D01*
X296672Y408178D02*
X334146Y445652D01*
X355906D01*
X262890Y408178D02*
X296672D01*
X300228Y336042D02*
Y393446D01*
X262890Y331978D02*
X296164D01*
X300228Y336042D01*
X312928Y388709D02*
X349870Y425652D01*
X300228Y393446D02*
X342434Y435652D01*
X355906D01*
X306250Y391496D02*
X345406Y430652D01*
X355906D01*
X306250Y329364D02*
Y391496D01*
X296164Y319278D02*
X306250Y329364D01*
X349870Y425652D02*
X355906D01*
X250190Y319278D02*
X296164D01*
X237490Y331978D02*
X250190Y319278D01*
X237490Y306578D02*
X249682Y294386D01*
X398767Y368701D02*
X399034D01*
X395973Y371495D02*
Y374079D01*
X395906Y374146D02*
X395973Y374079D01*
Y371495D02*
X398767Y368701D01*
X395906Y374146D02*
Y390652D01*
X377542Y368701D02*
X399034D01*
X377542D02*
X390906Y382065D01*
Y390652D01*
X377275Y368701D02*
X377542D01*
X355782D02*
X377275D01*
X378845Y377556D02*
X385906Y384617D01*
X364637Y377556D02*
X378845D01*
X355782Y368701D02*
X364637Y377556D01*
X355515Y368701D02*
X355782D01*
X385906Y384617D02*
Y390652D01*
X377275Y353167D02*
X399034D01*
X355515D02*
X377275D01*
X333756D02*
X355515D01*
D77*
X369571Y500889D02*
X376936Y508254D01*
X379796D01*
X373762Y496698D02*
X381413Y504349D01*
X379796Y508254D02*
X381413Y506637D01*
Y504349D02*
Y506637D01*
X373762Y494410D02*
Y496698D01*
Y494410D02*
X385787Y482385D01*
X367283Y500889D02*
X369571D01*
X322751Y545421D02*
X367283Y500889D01*
X322751Y545421D02*
Y545421D01*
X320548Y547624D02*
X322751Y545421D01*
X385787Y475771D02*
Y482385D01*
X318990Y543863D02*
Y543863D01*
X380787Y475771D02*
Y482066D01*
X232190Y543863D02*
X318990D01*
X380787Y475771D02*
X380906Y475652D01*
X318990Y543863D02*
X380787Y482066D01*
X230632Y547624D02*
X320548D01*
X134214Y533806D02*
X150060D01*
X129980Y538040D02*
X134214Y533806D01*
X87240Y538040D02*
X129980D01*
X136754Y552806D02*
X150060D01*
X87240Y546540D02*
X130488D01*
X136754Y552806D01*
X73740Y546540D02*
X73986D01*
X81771Y538755D02*
X86525D01*
X73986Y546540D02*
X81771Y538755D01*
X86525D02*
X87240Y538040D01*
X385787Y475771D02*
X385906Y475652D01*
X199678Y511351D02*
X232190Y543863D01*
X170146Y511351D02*
X199678D01*
X198120Y515112D02*
X230632Y547624D01*
X162355Y519142D02*
X170146Y511351D01*
X171704Y515112D02*
X198120D01*
X166116Y520700D02*
X171704Y515112D01*
X162355Y519142D02*
Y547481D01*
X167679Y552806D01*
X175060D01*
X166116Y520700D02*
Y524862D01*
X175060Y533806D01*
D78*
X791464Y128651D02*
D03*
D79*
X597501Y730620D02*
D03*
X597495Y10005D02*
D03*
D80*
X972500Y322500D02*
D03*
X927500D02*
D03*
X972500Y257500D02*
D03*
Y417500D02*
D03*
X927500Y482500D02*
D03*
X972500D02*
D03*
X650388Y169406D02*
D03*
X605388D02*
D03*
X650388Y104406D02*
D03*
D81*
X927500Y257500D02*
D03*
Y417500D02*
D03*
X605388Y104406D02*
D03*
D82*
X43640Y585540D02*
D03*
Y499040D02*
D03*
D83*
X77440Y585540D02*
D03*
Y499040D02*
D03*
D84*
X87240Y572040D02*
D03*
D85*
Y563540D02*
D03*
Y555040D02*
D03*
Y529540D02*
D03*
Y521040D02*
D03*
Y512540D02*
D03*
X73740D02*
D03*
Y521040D02*
D03*
Y529540D02*
D03*
Y555040D02*
D03*
Y563540D02*
D03*
Y572040D02*
D03*
Y538040D02*
D03*
X87240Y546540D02*
D03*
Y538040D02*
D03*
X73740Y546540D02*
D03*
D86*
X1018286Y595884D02*
D03*
X1023366Y113284D02*
D03*
X1019048Y528066D02*
D03*
D87*
X1018286Y621284D02*
D03*
X1023366Y138684D02*
D03*
X1019048Y553466D02*
D03*
D88*
X1043686Y595884D02*
D03*
Y621284D02*
D03*
X1048766Y138684D02*
D03*
Y113284D02*
D03*
X1044448Y528066D02*
D03*
Y553466D02*
D03*
D89*
X1024128Y258826D02*
D03*
X917702Y69088D02*
D03*
X993648Y191008D02*
D03*
D90*
X237490Y281178D02*
D03*
D91*
X262890D02*
D03*
X237490Y306578D02*
D03*
X262890D02*
D03*
X237490Y331978D02*
D03*
X262890D02*
D03*
X237490Y357378D02*
D03*
X262890D02*
D03*
X237490Y382778D02*
D03*
X262890D02*
D03*
X237490Y408178D02*
D03*
X262890D02*
D03*
X237490Y433578D02*
D03*
X262890D02*
D03*
X237490Y458978D02*
D03*
X262890D02*
D03*
D92*
X38608Y175000D02*
D03*
Y225000D02*
D03*
D93*
X70612Y163322D02*
D03*
X82804D02*
D03*
X70612Y173736D02*
D03*
X82804D02*
D03*
X83058Y231140D02*
D03*
X70866D02*
D03*
X83058Y220726D02*
D03*
X379222Y433832D02*
D03*
X70866Y220726D02*
D03*
X334264Y386080D02*
D03*
X459486Y431000D02*
D03*
Y450342D02*
D03*
Y402590D02*
D03*
Y410718D02*
D03*
X422910Y416560D02*
D03*
X459486Y422276D02*
D03*
X901954Y115316D02*
D03*
Y105664D02*
D03*
Y124968D02*
D03*
X913638D02*
D03*
Y115316D02*
D03*
Y105664D02*
D03*
X427228Y350774D02*
D03*
X400812Y405892D02*
D03*
X400050Y330962D02*
D03*
X378037D02*
D03*
X356023D02*
D03*
X334010D02*
D03*
X453898Y126492D02*
D03*
X437642Y126238D02*
D03*
X438404Y153924D02*
D03*
X453898Y153416D02*
D03*
X275844Y159512D02*
D03*
X260350Y160020D02*
D03*
X259588Y132334D02*
D03*
X275844Y132588D02*
D03*
X422910Y454152D02*
D03*
X415544Y405892D02*
D03*
X403098Y459994D02*
D03*
X396240Y451866D02*
D03*
X135890Y562356D02*
D03*
X136906Y543306D02*
D03*
X1187450Y730758D02*
D03*
X1165860D02*
D03*
X1144270D02*
D03*
X1121410D02*
D03*
X1102360D02*
D03*
X1080770D02*
D03*
X1060450D02*
D03*
X1041400D02*
D03*
X1023620D02*
D03*
X1002030D02*
D03*
X981710D02*
D03*
X960120D02*
D03*
X938530D02*
D03*
X918210D02*
D03*
X899160D02*
D03*
X878840D02*
D03*
X857250D02*
D03*
X836930D02*
D03*
X815340D02*
D03*
X793750D02*
D03*
X774700D02*
D03*
X754380D02*
D03*
X734060D02*
D03*
X712470D02*
D03*
X693420D02*
D03*
X675640D02*
D03*
X656590D02*
D03*
X636270D02*
D03*
X618490D02*
D03*
X598170D02*
D03*
X576580D02*
D03*
X557530D02*
D03*
X537210D02*
D03*
X518160D02*
D03*
X499110D02*
D03*
X480060D02*
D03*
X459740D02*
D03*
X439420D02*
D03*
X421640D02*
D03*
X402590D02*
D03*
X383540D02*
D03*
X363220D02*
D03*
X342900D02*
D03*
X323850D02*
D03*
X303530D02*
D03*
X284480D02*
D03*
X266700D02*
D03*
X250190D02*
D03*
X232410D02*
D03*
X215900D02*
D03*
X199390D02*
D03*
X182880D02*
D03*
X166370D02*
D03*
X149860D02*
D03*
X133350D02*
D03*
X118110D02*
D03*
X101600D02*
D03*
X85090D02*
D03*
X68580D02*
D03*
X53340D02*
D03*
X39370D02*
D03*
X24130D02*
D03*
X7620D02*
D03*
X1187450Y10160D02*
D03*
X1165860D02*
D03*
X1144270D02*
D03*
X1121410D02*
D03*
X1102360D02*
D03*
X1080770D02*
D03*
X1060450D02*
D03*
X1041400D02*
D03*
X1023620D02*
D03*
X1002030D02*
D03*
X981710D02*
D03*
X960120D02*
D03*
X938530D02*
D03*
X918210D02*
D03*
X899160D02*
D03*
X878840D02*
D03*
X857250D02*
D03*
X836930D02*
D03*
X815340D02*
D03*
X793750D02*
D03*
X774700D02*
D03*
X754380D02*
D03*
X734060D02*
D03*
X712470D02*
D03*
X693420D02*
D03*
X675640D02*
D03*
X656590D02*
D03*
X636270D02*
D03*
X618490D02*
D03*
X598170D02*
D03*
X576580D02*
D03*
X557530D02*
D03*
X537210D02*
D03*
X518160D02*
D03*
X499110D02*
D03*
X480060D02*
D03*
X459740D02*
D03*
X439420D02*
D03*
X421640D02*
D03*
X402590D02*
D03*
X383540D02*
D03*
X363220D02*
D03*
X342900D02*
D03*
X323850D02*
D03*
X303530D02*
D03*
X284480D02*
D03*
X266700D02*
D03*
X250190D02*
D03*
X232410D02*
D03*
X215900D02*
D03*
X199390D02*
D03*
X182880D02*
D03*
X166370D02*
D03*
X149860D02*
D03*
X133350D02*
D03*
X118110D02*
D03*
X101600D02*
D03*
X85090D02*
D03*
X68580D02*
D03*
X53340D02*
D03*
X39370D02*
D03*
X24130D02*
D03*
X7620D02*
D03*
D94*
X1275178Y700000D02*
D03*
Y600000D02*
D03*
X1250178Y550000D02*
D03*
X1275178Y500000D02*
D03*
Y400000D02*
D03*
X1250178Y350000D02*
D03*
X1275178Y300000D02*
D03*
X1250178Y250000D02*
D03*
X1275178Y200000D02*
D03*
X1250178Y150000D02*
D03*
X1275178Y100000D02*
D03*
X1250178Y50000D02*
D03*
X1225178Y700000D02*
D03*
X1200178Y650000D02*
D03*
X1225178Y600000D02*
D03*
X1200178Y550000D02*
D03*
X1225178Y500000D02*
D03*
X1200178Y450000D02*
D03*
X1225178Y400000D02*
D03*
X1200178Y350000D02*
D03*
X1225178Y300000D02*
D03*
X1200178Y250000D02*
D03*
X1225178Y200000D02*
D03*
X1200178Y150000D02*
D03*
X1225178Y100000D02*
D03*
X1200178Y50000D02*
D03*
X1175178Y700000D02*
D03*
X1150178Y650000D02*
D03*
X1175178Y600000D02*
D03*
X1150178Y550000D02*
D03*
X1175178Y500000D02*
D03*
X1150178Y450000D02*
D03*
X1175178Y400000D02*
D03*
X1150178Y350000D02*
D03*
X1175178Y300000D02*
D03*
X1150178Y250000D02*
D03*
X1175178Y200000D02*
D03*
X1150178Y150000D02*
D03*
X1175178Y100000D02*
D03*
X1150178Y50000D02*
D03*
X1125178Y700000D02*
D03*
X1100178Y650000D02*
D03*
X1125178Y600000D02*
D03*
X1100178Y550000D02*
D03*
X1125178Y500000D02*
D03*
X1100178Y450000D02*
D03*
X1125178Y400000D02*
D03*
X1100178Y350000D02*
D03*
X1125178Y300000D02*
D03*
X1100178Y250000D02*
D03*
X1125178Y200000D02*
D03*
X1100178Y150000D02*
D03*
X1125178Y100000D02*
D03*
X1100178Y50000D02*
D03*
X1075178Y700000D02*
D03*
X1050178Y650000D02*
D03*
X1075178Y600000D02*
D03*
Y500000D02*
D03*
X1050178Y450000D02*
D03*
X1075178Y400000D02*
D03*
X1050178Y350000D02*
D03*
X1075178Y300000D02*
D03*
X1050178Y250000D02*
D03*
X1075178Y200000D02*
D03*
X1050178Y150000D02*
D03*
X1075178Y100000D02*
D03*
X1050178Y50000D02*
D03*
X1025178Y700000D02*
D03*
X1000178Y650000D02*
D03*
Y550000D02*
D03*
X1025178Y500000D02*
D03*
X1000178Y450000D02*
D03*
X1025178Y400000D02*
D03*
X1000178Y350000D02*
D03*
X1025178Y300000D02*
D03*
X1000178Y250000D02*
D03*
X1025178Y200000D02*
D03*
X1000178Y50000D02*
D03*
X975178Y700000D02*
D03*
X950178Y650000D02*
D03*
X975178Y600000D02*
D03*
X950178Y550000D02*
D03*
X975178Y500000D02*
D03*
X950178Y450000D02*
D03*
Y350000D02*
D03*
X975178Y300000D02*
D03*
X950178Y250000D02*
D03*
X975178Y200000D02*
D03*
X950178Y50000D02*
D03*
X925178Y700000D02*
D03*
X900178Y650000D02*
D03*
X925178Y600000D02*
D03*
X900178Y550000D02*
D03*
X925178Y500000D02*
D03*
X900178Y450000D02*
D03*
X925178Y400000D02*
D03*
X900178Y350000D02*
D03*
X925178Y200000D02*
D03*
X900178Y50000D02*
D03*
X875178Y700000D02*
D03*
X850178Y650000D02*
D03*
X875178Y600000D02*
D03*
X850178Y550000D02*
D03*
X875178Y500000D02*
D03*
X850178Y450000D02*
D03*
X875178Y400000D02*
D03*
Y300000D02*
D03*
X850178Y250000D02*
D03*
X875178Y200000D02*
D03*
X850178Y50000D02*
D03*
X825178Y700000D02*
D03*
X800178Y650000D02*
D03*
X825178Y600000D02*
D03*
X800178Y550000D02*
D03*
X825178Y500000D02*
D03*
X800178Y450000D02*
D03*
Y350000D02*
D03*
X825178Y300000D02*
D03*
X775178Y700000D02*
D03*
X750178Y650000D02*
D03*
X775178Y600000D02*
D03*
X750178Y550000D02*
D03*
Y450000D02*
D03*
X775178Y400000D02*
D03*
X750178Y350000D02*
D03*
X775178Y300000D02*
D03*
X725178Y700000D02*
D03*
X700178Y650000D02*
D03*
X725178Y600000D02*
D03*
X700178Y550000D02*
D03*
X725178Y500000D02*
D03*
X700178Y450000D02*
D03*
X725178Y400000D02*
D03*
X700178Y350000D02*
D03*
X725178Y300000D02*
D03*
X700178Y250000D02*
D03*
Y150000D02*
D03*
X675178Y700000D02*
D03*
X650178Y650000D02*
D03*
X675178Y600000D02*
D03*
X650178Y550000D02*
D03*
X675178Y500000D02*
D03*
X650178Y450000D02*
D03*
X675178Y400000D02*
D03*
X650178Y350000D02*
D03*
X675178Y300000D02*
D03*
Y200000D02*
D03*
X650178Y150000D02*
D03*
X625178Y700000D02*
D03*
X600178Y650000D02*
D03*
X625178Y600000D02*
D03*
X600178Y550000D02*
D03*
X625178Y500000D02*
D03*
X600178Y450000D02*
D03*
X625178Y400000D02*
D03*
X600178Y350000D02*
D03*
Y250000D02*
D03*
Y150000D02*
D03*
X625178Y100000D02*
D03*
X575178Y700000D02*
D03*
X550178Y650000D02*
D03*
X575178Y600000D02*
D03*
X550178Y550000D02*
D03*
X575178Y500000D02*
D03*
X550178Y450000D02*
D03*
X575178Y400000D02*
D03*
Y300000D02*
D03*
X550178Y250000D02*
D03*
X575178Y200000D02*
D03*
X525178Y700000D02*
D03*
X500178Y650000D02*
D03*
Y550000D02*
D03*
X525178Y500000D02*
D03*
X500178Y450000D02*
D03*
Y350000D02*
D03*
Y250000D02*
D03*
X525178Y200000D02*
D03*
X475178Y700000D02*
D03*
X450178Y650000D02*
D03*
X475178Y600000D02*
D03*
Y500000D02*
D03*
Y400000D02*
D03*
Y300000D02*
D03*
X450178Y250000D02*
D03*
X475178Y200000D02*
D03*
Y100000D02*
D03*
X425178Y700000D02*
D03*
X400178Y650000D02*
D03*
Y250000D02*
D03*
X425178Y200000D02*
D03*
X400178Y150000D02*
D03*
X375178Y700000D02*
D03*
X350178Y650000D02*
D03*
X375178Y300000D02*
D03*
X350178Y250000D02*
D03*
X375178Y200000D02*
D03*
X350178Y150000D02*
D03*
X375178Y100000D02*
D03*
X325178Y700000D02*
D03*
X300178Y650000D02*
D03*
X325178Y500000D02*
D03*
Y300000D02*
D03*
X300178Y250000D02*
D03*
X325178Y100000D02*
D03*
X275178Y700000D02*
D03*
X250178Y650000D02*
D03*
X275178Y600000D02*
D03*
Y400000D02*
D03*
X250178Y350000D02*
D03*
X275178Y300000D02*
D03*
X225178Y700000D02*
D03*
X200178Y650000D02*
D03*
X225178Y600000D02*
D03*
X200178Y550000D02*
D03*
Y450000D02*
D03*
X225178Y400000D02*
D03*
X200178Y350000D02*
D03*
X225178Y300000D02*
D03*
X200178Y250000D02*
D03*
X225178Y200000D02*
D03*
X200178Y150000D02*
D03*
X225178Y100000D02*
D03*
X175178Y700000D02*
D03*
X150178Y650000D02*
D03*
X175178Y600000D02*
D03*
Y500000D02*
D03*
X150178Y450000D02*
D03*
X175178Y400000D02*
D03*
X150178Y350000D02*
D03*
X175178Y300000D02*
D03*
X150178Y250000D02*
D03*
X125178Y700000D02*
D03*
X100178Y650000D02*
D03*
X125178Y600000D02*
D03*
Y500000D02*
D03*
X100178Y450000D02*
D03*
X125178Y400000D02*
D03*
X100178Y350000D02*
D03*
X125178Y300000D02*
D03*
Y200000D02*
D03*
X100178Y50000D02*
D03*
X75178Y700000D02*
D03*
X50178Y650000D02*
D03*
X75178Y600000D02*
D03*
X50178Y550000D02*
D03*
Y450000D02*
D03*
X75178Y400000D02*
D03*
X50178Y350000D02*
D03*
X75178Y300000D02*
D03*
Y200000D02*
D03*
Y100000D02*
D03*
X50178Y50000D02*
D03*
X781919Y125172D02*
D03*
X781812Y134874D02*
D03*
X788670Y128397D02*
D03*
X794004D02*
D03*
X709422Y96012D02*
D03*
Y104394D02*
D03*
X699770Y87630D02*
D03*
Y96012D02*
D03*
Y104394D02*
D03*
X709422Y87630D02*
D03*
X812546Y409956D02*
D03*
X791464Y132842D02*
D03*
Y123746D02*
D03*
X765048Y120650D02*
D03*
X755904Y114808D02*
D03*
X558292Y226314D02*
D03*
X711454Y127508D02*
D03*
X755904Y135636D02*
D03*
X765048Y130810D02*
D03*
X755904Y125476D02*
D03*
X770573Y149939D02*
D03*
X785876Y153162D02*
D03*
X780288Y158496D02*
D03*
X804672Y114046D02*
D03*
X814578Y103378D02*
D03*
X787480Y103632D02*
D03*
D95*
X245640Y235830D02*
D03*
X775640D02*
D03*
Y505830D02*
D03*
X245640D02*
D03*
M02*
