G04*
G04 #@! TF.GenerationSoftware,Altium Limited,Altium Designer,25.3.3 (18)*
G04*
G04 Layer_Color=8388736*
%FSLAX44Y44*%
%MOMM*%
G71*
G04*
G04 #@! TF.SameCoordinates,6D202E75-467B-4672-BE30-C010D47AD25D*
G04*
G04*
G04 #@! TF.FilePolarity,Positive*
G04*
G01*
G75*
%ADD11C,0.2000*%
G36*
X1246889Y492401D02*
X1246948D01*
X1247104Y492382D01*
X1247270Y492343D01*
X1247465Y492304D01*
X1247660Y492236D01*
X1247855Y492148D01*
X1247865D01*
X1247874Y492138D01*
X1247904Y492119D01*
X1247943Y492099D01*
X1248030Y492040D01*
X1248148Y491963D01*
X1248274Y491855D01*
X1248401Y491728D01*
X1248528Y491592D01*
X1248645Y491426D01*
X1248655Y491407D01*
X1248684Y491348D01*
X1248733Y491250D01*
X1248782Y491133D01*
X1248830Y490977D01*
X1248879Y490802D01*
X1248908Y490607D01*
X1248918Y490402D01*
Y490363D01*
X1248908Y490304D01*
Y490236D01*
X1248899Y490158D01*
X1248879Y490061D01*
X1248860Y489953D01*
X1248830Y489836D01*
X1248791Y489709D01*
X1248743Y489573D01*
X1248684Y489446D01*
X1248616Y489310D01*
X1248528Y489173D01*
X1248430Y489036D01*
X1248323Y488910D01*
X1248196Y488793D01*
X1248187Y488783D01*
X1248157Y488763D01*
X1248118Y488734D01*
X1248060Y488695D01*
X1247982Y488646D01*
X1247884Y488597D01*
X1247767Y488539D01*
X1247631Y488490D01*
X1247475Y488432D01*
X1247299Y488373D01*
X1247104Y488324D01*
X1246889Y488276D01*
X1246655Y488237D01*
X1246392Y488207D01*
X1246119Y488188D01*
X1245816Y488178D01*
X1245807D01*
X1245797D01*
X1245768D01*
X1245738D01*
X1245641D01*
X1245514Y488188D01*
X1245358Y488198D01*
X1245182Y488217D01*
X1244987Y488237D01*
X1244782Y488266D01*
X1244558Y488295D01*
X1244334Y488344D01*
X1244110Y488402D01*
X1243895Y488471D01*
X1243671Y488549D01*
X1243476Y488637D01*
X1243280Y488744D01*
X1243115Y488861D01*
X1243105Y488871D01*
X1243085Y488890D01*
X1243046Y488919D01*
X1242998Y488968D01*
X1242939Y489036D01*
X1242881Y489105D01*
X1242812Y489193D01*
X1242744Y489290D01*
X1242676Y489397D01*
X1242607Y489524D01*
X1242549Y489651D01*
X1242490Y489797D01*
X1242442Y489953D01*
X1242403Y490119D01*
X1242383Y490295D01*
X1242373Y490480D01*
Y490548D01*
X1242383Y490607D01*
Y490665D01*
X1242393Y490743D01*
X1242422Y490919D01*
X1242481Y491114D01*
X1242559Y491319D01*
X1242656Y491524D01*
X1242725Y491621D01*
X1242803Y491719D01*
Y491728D01*
X1242822Y491738D01*
X1242881Y491797D01*
X1242978Y491875D01*
X1243105Y491972D01*
X1243271Y492080D01*
X1243466Y492167D01*
X1243700Y492255D01*
X1243963Y492304D01*
X1244022Y491524D01*
X1244012D01*
X1244002D01*
X1243944Y491504D01*
X1243866Y491475D01*
X1243768Y491446D01*
X1243544Y491348D01*
X1243446Y491289D01*
X1243359Y491221D01*
X1243339Y491212D01*
X1243300Y491163D01*
X1243251Y491094D01*
X1243183Y491007D01*
X1243124Y490890D01*
X1243066Y490753D01*
X1243027Y490597D01*
X1243017Y490431D01*
Y490363D01*
X1243027Y490295D01*
X1243046Y490207D01*
X1243066Y490100D01*
X1243105Y489982D01*
X1243164Y489875D01*
X1243232Y489758D01*
X1243242Y489739D01*
X1243280Y489700D01*
X1243349Y489631D01*
X1243437Y489553D01*
X1243544Y489456D01*
X1243680Y489358D01*
X1243846Y489261D01*
X1244032Y489173D01*
X1244041D01*
X1244051Y489163D01*
X1244090Y489154D01*
X1244129Y489144D01*
X1244178Y489124D01*
X1244246Y489105D01*
X1244324Y489085D01*
X1244412Y489066D01*
X1244509Y489046D01*
X1244617Y489027D01*
X1244743Y489007D01*
X1244870Y488988D01*
X1245017Y488978D01*
X1245173Y488968D01*
X1245339Y488958D01*
X1245504D01*
X1245495Y488968D01*
X1245446Y489007D01*
X1245368Y489066D01*
X1245270Y489154D01*
X1245163Y489251D01*
X1245056Y489368D01*
X1244958Y489505D01*
X1244870Y489651D01*
X1244861Y489670D01*
X1244841Y489719D01*
X1244802Y489807D01*
X1244763Y489914D01*
X1244724Y490041D01*
X1244685Y490187D01*
X1244666Y490343D01*
X1244656Y490509D01*
Y490587D01*
X1244666Y490646D01*
X1244675Y490714D01*
X1244685Y490792D01*
X1244724Y490977D01*
X1244802Y491182D01*
X1244841Y491299D01*
X1244900Y491407D01*
X1244968Y491524D01*
X1245046Y491641D01*
X1245134Y491748D01*
X1245241Y491855D01*
X1245251Y491865D01*
X1245270Y491875D01*
X1245300Y491904D01*
X1245348Y491943D01*
X1245407Y491982D01*
X1245475Y492031D01*
X1245553Y492080D01*
X1245641Y492138D01*
X1245748Y492187D01*
X1245855Y492236D01*
X1245982Y492284D01*
X1246109Y492323D01*
X1246255Y492362D01*
X1246402Y492392D01*
X1246568Y492401D01*
X1246733Y492411D01*
X1246743D01*
X1246762D01*
X1246792D01*
X1246831D01*
X1246889Y492401D01*
D02*
G37*
G36*
X1246353Y487115D02*
X1246441D01*
X1246548Y487105D01*
X1246665Y487095D01*
X1246909Y487066D01*
X1247162Y487027D01*
X1247416Y486978D01*
X1247640Y486900D01*
X1247650D01*
X1247670Y486891D01*
X1247699Y486881D01*
X1247738Y486861D01*
X1247835Y486803D01*
X1247972Y486725D01*
X1248118Y486618D01*
X1248274Y486481D01*
X1248421Y486305D01*
X1248567Y486110D01*
Y486101D01*
X1248587Y486081D01*
X1248596Y486052D01*
X1248625Y486003D01*
X1248645Y485954D01*
X1248674Y485886D01*
X1248713Y485798D01*
X1248743Y485710D01*
X1248772Y485613D01*
X1248811Y485496D01*
X1248840Y485379D01*
X1248860Y485242D01*
X1248899Y484950D01*
X1248918Y484618D01*
Y484530D01*
X1248908Y484472D01*
Y484394D01*
X1248899Y484306D01*
X1248889Y484208D01*
X1248879Y484101D01*
X1248840Y483867D01*
X1248791Y483623D01*
X1248713Y483370D01*
X1248616Y483145D01*
Y483135D01*
X1248596Y483116D01*
X1248587Y483097D01*
X1248557Y483058D01*
X1248489Y482950D01*
X1248382Y482833D01*
X1248255Y482697D01*
X1248109Y482570D01*
X1247923Y482443D01*
X1247718Y482336D01*
X1247709D01*
X1247689Y482326D01*
X1247660Y482316D01*
X1247611Y482297D01*
X1247553Y482277D01*
X1247475Y482258D01*
X1247387Y482238D01*
X1247289Y482219D01*
X1247182Y482189D01*
X1247065Y482170D01*
X1246928Y482150D01*
X1246792Y482131D01*
X1246636Y482111D01*
X1246470Y482102D01*
X1246294Y482092D01*
X1246109D01*
X1242403D01*
Y482940D01*
X1246109D01*
X1246119D01*
X1246148D01*
X1246187D01*
X1246246D01*
X1246314D01*
X1246392Y482950D01*
X1246577Y482960D01*
X1246772Y482980D01*
X1246977Y482999D01*
X1247172Y483038D01*
X1247260Y483058D01*
X1247338Y483087D01*
X1247357Y483097D01*
X1247406Y483116D01*
X1247475Y483155D01*
X1247562Y483214D01*
X1247660Y483282D01*
X1247767Y483379D01*
X1247865Y483487D01*
X1247952Y483623D01*
X1247962Y483643D01*
X1247982Y483691D01*
X1248021Y483769D01*
X1248050Y483877D01*
X1248089Y484013D01*
X1248128Y484169D01*
X1248148Y484345D01*
X1248157Y484540D01*
Y484628D01*
X1248148Y484696D01*
Y484774D01*
X1248138Y484862D01*
X1248109Y485057D01*
X1248050Y485281D01*
X1247982Y485496D01*
X1247874Y485701D01*
X1247816Y485798D01*
X1247738Y485876D01*
X1247728D01*
X1247718Y485896D01*
X1247689Y485915D01*
X1247650Y485935D01*
X1247601Y485974D01*
X1247543Y486003D01*
X1247465Y486042D01*
X1247377Y486081D01*
X1247270Y486110D01*
X1247153Y486149D01*
X1247026Y486188D01*
X1246870Y486218D01*
X1246704Y486237D01*
X1246528Y486257D01*
X1246324Y486276D01*
X1246109D01*
X1242403D01*
Y487125D01*
X1246109D01*
X1246119D01*
X1246148D01*
X1246197D01*
X1246265D01*
X1246353Y487115D01*
D02*
G37*
G36*
X852897Y240887D02*
X852985D01*
X853083Y240877D01*
X853200Y240857D01*
X853317Y240848D01*
X853590Y240789D01*
X853873Y240721D01*
X854146Y240614D01*
X854283Y240555D01*
X854409Y240477D01*
X854419Y240467D01*
X854438Y240457D01*
X854468Y240428D01*
X854517Y240399D01*
X854634Y240301D01*
X854770Y240165D01*
X854936Y239999D01*
X855092Y239785D01*
X855258Y239541D01*
X855394Y239258D01*
Y239248D01*
X855404Y239219D01*
X855424Y239180D01*
X855443Y239121D01*
X855472Y239043D01*
X855502Y238955D01*
X855531Y238858D01*
X855560Y238741D01*
X855589Y238624D01*
X855619Y238487D01*
X855677Y238195D01*
X855716Y237883D01*
X855726Y237541D01*
Y237532D01*
Y237492D01*
Y237444D01*
X855716Y237375D01*
Y237288D01*
X855706Y237180D01*
X855697Y237073D01*
X855677Y236946D01*
X855629Y236673D01*
X855570Y236381D01*
X855472Y236078D01*
X855346Y235795D01*
Y235786D01*
X855326Y235766D01*
X855307Y235727D01*
X855277Y235669D01*
X855238Y235610D01*
X855190Y235542D01*
X855063Y235376D01*
X854917Y235191D01*
X854731Y235005D01*
X854507Y234820D01*
X854263Y234664D01*
X854253D01*
X854234Y234644D01*
X854195Y234625D01*
X854136Y234605D01*
X854078Y234576D01*
X854000Y234537D01*
X853902Y234508D01*
X853804Y234469D01*
X853697Y234430D01*
X853580Y234401D01*
X853317Y234332D01*
X853024Y234293D01*
X852712Y234274D01*
X852615D01*
X852546Y234284D01*
X852468Y234293D01*
X852371Y234303D01*
X852263Y234313D01*
X852146Y234332D01*
X851893Y234391D01*
X851620Y234479D01*
X851483Y234537D01*
X851347Y234605D01*
X851220Y234683D01*
X851093Y234771D01*
X851083Y234781D01*
X851064Y234791D01*
X851034Y234820D01*
X850986Y234859D01*
X850937Y234908D01*
X850869Y234976D01*
X850800Y235044D01*
X850732Y235122D01*
X850654Y235220D01*
X850586Y235317D01*
X850508Y235434D01*
X850430Y235561D01*
X850361Y235688D01*
X850293Y235834D01*
X850176Y236146D01*
X851015Y236341D01*
Y236332D01*
X851025Y236312D01*
X851034Y236273D01*
X851054Y236224D01*
X851083Y236166D01*
X851113Y236098D01*
X851181Y235951D01*
X851269Y235786D01*
X851386Y235610D01*
X851512Y235454D01*
X851668Y235317D01*
X851688Y235308D01*
X851747Y235269D01*
X851834Y235220D01*
X851961Y235152D01*
X852107Y235093D01*
X852293Y235044D01*
X852498Y235005D01*
X852732Y234995D01*
X852800D01*
X852849Y235005D01*
X852917D01*
X852985Y235015D01*
X853161Y235044D01*
X853356Y235083D01*
X853561Y235152D01*
X853765Y235239D01*
X853961Y235356D01*
X853970D01*
X853980Y235376D01*
X854039Y235425D01*
X854126Y235503D01*
X854234Y235610D01*
X854341Y235746D01*
X854458Y235903D01*
X854565Y236098D01*
X854653Y236312D01*
Y236322D01*
X854663Y236341D01*
X854673Y236371D01*
X854682Y236420D01*
X854702Y236468D01*
X854712Y236537D01*
X854751Y236693D01*
X854790Y236878D01*
X854819Y237083D01*
X854838Y237307D01*
X854848Y237541D01*
Y237551D01*
Y237580D01*
Y237619D01*
Y237678D01*
X854838Y237746D01*
Y237834D01*
X854829Y237922D01*
X854819Y238019D01*
X854790Y238244D01*
X854751Y238487D01*
X854692Y238731D01*
X854614Y238965D01*
Y238975D01*
X854604Y238995D01*
X854585Y239024D01*
X854565Y239063D01*
X854517Y239180D01*
X854438Y239307D01*
X854331Y239463D01*
X854204Y239609D01*
X854058Y239755D01*
X853883Y239882D01*
X853873D01*
X853863Y239892D01*
X853834Y239911D01*
X853795Y239931D01*
X853688Y239970D01*
X853551Y240028D01*
X853395Y240077D01*
X853210Y240126D01*
X853005Y240165D01*
X852790Y240175D01*
X852722D01*
X852673Y240165D01*
X852615D01*
X852537Y240155D01*
X852371Y240126D01*
X852185Y240077D01*
X851981Y239999D01*
X851786Y239902D01*
X851590Y239765D01*
X851581Y239755D01*
X851571Y239746D01*
X851512Y239687D01*
X851425Y239590D01*
X851317Y239463D01*
X851210Y239287D01*
X851093Y239082D01*
X850995Y238829D01*
X850918Y238546D01*
X850069Y238760D01*
Y238770D01*
X850079Y238809D01*
X850098Y238858D01*
X850118Y238936D01*
X850157Y239014D01*
X850196Y239121D01*
X850235Y239229D01*
X850293Y239346D01*
X850420Y239609D01*
X850596Y239872D01*
X850791Y240126D01*
X850908Y240243D01*
X851034Y240350D01*
X851044Y240360D01*
X851064Y240370D01*
X851103Y240399D01*
X851161Y240438D01*
X851230Y240477D01*
X851308Y240526D01*
X851395Y240575D01*
X851503Y240623D01*
X851620Y240672D01*
X851747Y240721D01*
X851893Y240770D01*
X852039Y240809D01*
X852361Y240877D01*
X852537Y240887D01*
X852722Y240896D01*
X852819D01*
X852897Y240887D01*
D02*
G37*
G36*
X847172Y235776D02*
X847182Y235786D01*
X847221Y235825D01*
X847289Y235873D01*
X847377Y235942D01*
X847484Y236029D01*
X847611Y236117D01*
X847757Y236224D01*
X847923Y236322D01*
X847933D01*
X847943Y236332D01*
X848001Y236371D01*
X848089Y236420D01*
X848196Y236478D01*
X848323Y236546D01*
X848460Y236605D01*
X848606Y236673D01*
X848742Y236732D01*
Y235961D01*
X848733D01*
X848713Y235951D01*
X848674Y235932D01*
X848635Y235903D01*
X848577Y235873D01*
X848508Y235844D01*
X848352Y235756D01*
X848177Y235649D01*
X847982Y235522D01*
X847787Y235376D01*
X847601Y235220D01*
X847591Y235210D01*
X847582Y235200D01*
X847523Y235142D01*
X847435Y235054D01*
X847328Y234947D01*
X847211Y234810D01*
X847094Y234664D01*
X846987Y234508D01*
X846899Y234352D01*
X846382D01*
Y240789D01*
X847172D01*
Y235776D01*
D02*
G37*
G36*
X842198D02*
X842207Y235786D01*
X842246Y235825D01*
X842315Y235873D01*
X842403Y235942D01*
X842510Y236029D01*
X842637Y236117D01*
X842783Y236224D01*
X842949Y236322D01*
X842959D01*
X842968Y236332D01*
X843027Y236371D01*
X843115Y236420D01*
X843222Y236478D01*
X843349Y236546D01*
X843485Y236605D01*
X843632Y236673D01*
X843768Y236732D01*
Y235961D01*
X843758D01*
X843739Y235951D01*
X843700Y235932D01*
X843661Y235903D01*
X843602Y235873D01*
X843534Y235844D01*
X843378Y235756D01*
X843202Y235649D01*
X843007Y235522D01*
X842812Y235376D01*
X842627Y235220D01*
X842617Y235210D01*
X842607Y235200D01*
X842549Y235142D01*
X842461Y235054D01*
X842354Y234947D01*
X842237Y234810D01*
X842120Y234664D01*
X842012Y234508D01*
X841925Y234352D01*
X841408D01*
Y240789D01*
X842198D01*
Y235776D01*
D02*
G37*
G36*
X383252Y617079D02*
Y617070D01*
Y617042D01*
Y617005D01*
Y616949D01*
X383243Y616875D01*
Y616801D01*
X383225Y616626D01*
X383206Y616422D01*
X383169Y616210D01*
X383114Y616016D01*
X383049Y615831D01*
Y615821D01*
X383040Y615812D01*
X383012Y615757D01*
X382966Y615683D01*
X382901Y615581D01*
X382809Y615479D01*
X382707Y615368D01*
X382578Y615257D01*
X382430Y615165D01*
X382411Y615156D01*
X382356Y615128D01*
X382272Y615091D01*
X382152Y615054D01*
X382004Y615008D01*
X381838Y614971D01*
X381653Y614943D01*
X381450Y614934D01*
X381366D01*
X381311Y614943D01*
X381237Y614952D01*
X381163Y614962D01*
X380969Y614999D01*
X380765Y615054D01*
X380553Y615137D01*
X380442Y615193D01*
X380340Y615257D01*
X380248Y615331D01*
X380155Y615415D01*
X380146Y615424D01*
X380137Y615433D01*
X380118Y615470D01*
X380090Y615507D01*
X380053Y615553D01*
X380017Y615618D01*
X379980Y615692D01*
X379933Y615775D01*
X379896Y615868D01*
X379859Y615979D01*
X379822Y616090D01*
X379785Y616219D01*
X379767Y616358D01*
X379739Y616515D01*
X379730Y616672D01*
Y616848D01*
X380497Y616959D01*
Y616949D01*
Y616931D01*
Y616894D01*
X380507Y616838D01*
X380516Y616783D01*
Y616718D01*
X380544Y616561D01*
X380571Y616395D01*
X380627Y616228D01*
X380682Y616080D01*
X380719Y616016D01*
X380765Y615960D01*
X380775Y615951D01*
X380812Y615923D01*
X380867Y615877D01*
X380941Y615831D01*
X381043Y615775D01*
X381154Y615738D01*
X381292Y615701D01*
X381440Y615692D01*
X381496D01*
X381551Y615701D01*
X381634Y615710D01*
X381718Y615729D01*
X381810Y615747D01*
X381903Y615784D01*
X381995Y615831D01*
X382004Y615840D01*
X382032Y615858D01*
X382069Y615895D01*
X382124Y615932D01*
X382171Y615997D01*
X382226Y616062D01*
X382272Y616136D01*
X382309Y616228D01*
Y616237D01*
X382328Y616274D01*
X382337Y616339D01*
X382356Y616422D01*
X382374Y616533D01*
X382383Y616672D01*
X382402Y616838D01*
Y617033D01*
Y621443D01*
X383252D01*
Y617079D01*
D02*
G37*
G36*
X386535Y621461D02*
X386609Y621452D01*
X386692Y621443D01*
X386784Y621433D01*
X386877Y621406D01*
X387099Y621350D01*
X387321Y621267D01*
X387431Y621212D01*
X387542Y621147D01*
X387644Y621064D01*
X387746Y620980D01*
X387755Y620971D01*
X387764Y620962D01*
X387792Y620934D01*
X387829Y620897D01*
X387866Y620842D01*
X387912Y620786D01*
X388005Y620648D01*
X388097Y620472D01*
X388180Y620269D01*
X388245Y620037D01*
X388254Y619917D01*
X388264Y619788D01*
Y619779D01*
Y619769D01*
Y619714D01*
X388254Y619631D01*
X388236Y619529D01*
X388208Y619399D01*
X388162Y619270D01*
X388106Y619141D01*
X388023Y619011D01*
X388014Y618993D01*
X387977Y618956D01*
X387921Y618900D01*
X387848Y618826D01*
X387746Y618743D01*
X387626Y618660D01*
X387487Y618577D01*
X387321Y618503D01*
X387330D01*
X387348Y618493D01*
X387376Y618484D01*
X387413Y618466D01*
X387524Y618419D01*
X387653Y618355D01*
X387792Y618262D01*
X387940Y618161D01*
X388079Y618031D01*
X388208Y617883D01*
Y617874D01*
X388217Y617865D01*
X388254Y617809D01*
X388310Y617717D01*
X388365Y617597D01*
X388421Y617449D01*
X388476Y617273D01*
X388513Y617079D01*
X388522Y616866D01*
Y616857D01*
Y616829D01*
Y616783D01*
X388513Y616727D01*
X388504Y616663D01*
X388495Y616580D01*
X388476Y616487D01*
X388448Y616385D01*
X388384Y616173D01*
X388338Y616053D01*
X388273Y615942D01*
X388208Y615821D01*
X388134Y615710D01*
X388042Y615600D01*
X387940Y615489D01*
X387931Y615479D01*
X387912Y615461D01*
X387884Y615433D01*
X387838Y615405D01*
X387774Y615359D01*
X387709Y615313D01*
X387626Y615267D01*
X387533Y615211D01*
X387431Y615156D01*
X387311Y615109D01*
X387182Y615063D01*
X387052Y615017D01*
X386904Y614989D01*
X386747Y614962D01*
X386590Y614943D01*
X386414Y614934D01*
X386322D01*
X386257Y614943D01*
X386174Y614952D01*
X386082Y614962D01*
X385980Y614980D01*
X385869Y615008D01*
X385619Y615073D01*
X385490Y615119D01*
X385370Y615165D01*
X385240Y615230D01*
X385111Y615304D01*
X384991Y615387D01*
X384880Y615489D01*
X384870Y615498D01*
X384852Y615516D01*
X384824Y615544D01*
X384787Y615590D01*
X384750Y615646D01*
X384695Y615710D01*
X384649Y615784D01*
X384593Y615877D01*
X384538Y615969D01*
X384491Y616080D01*
X384399Y616311D01*
X384362Y616450D01*
X384334Y616589D01*
X384316Y616737D01*
X384306Y616885D01*
Y616894D01*
Y616912D01*
Y616949D01*
X384316Y616986D01*
Y617042D01*
X384325Y617107D01*
X384343Y617254D01*
X384380Y617421D01*
X384436Y617587D01*
X384519Y617763D01*
X384621Y617929D01*
Y617939D01*
X384639Y617948D01*
X384676Y617994D01*
X384750Y618068D01*
X384852Y618161D01*
X384981Y618253D01*
X385139Y618355D01*
X385314Y618438D01*
X385527Y618503D01*
X385518D01*
X385508Y618512D01*
X385481Y618521D01*
X385444Y618540D01*
X385360Y618577D01*
X385249Y618632D01*
X385129Y618706D01*
X385009Y618798D01*
X384898Y618900D01*
X384796Y619011D01*
X384787Y619030D01*
X384759Y619067D01*
X384723Y619141D01*
X384686Y619233D01*
X384639Y619353D01*
X384602Y619492D01*
X384575Y619649D01*
X384565Y619815D01*
Y619825D01*
Y619843D01*
Y619880D01*
X384575Y619936D01*
X384584Y619991D01*
X384593Y620065D01*
X384630Y620222D01*
X384686Y620407D01*
X384778Y620601D01*
X384833Y620703D01*
X384898Y620805D01*
X384981Y620897D01*
X385065Y620990D01*
X385074Y620999D01*
X385092Y621008D01*
X385120Y621036D01*
X385157Y621064D01*
X385203Y621101D01*
X385268Y621138D01*
X385342Y621184D01*
X385416Y621230D01*
X385508Y621276D01*
X385610Y621323D01*
X385721Y621360D01*
X385841Y621396D01*
X386100Y621452D01*
X386248Y621461D01*
X386396Y621470D01*
X386479D01*
X386535Y621461D01*
D02*
G37*
%LPC*%
G36*
X1246782Y491602D02*
X1246772D01*
X1246753D01*
X1246714D01*
X1246675Y491592D01*
X1246616D01*
X1246548Y491582D01*
X1246402Y491563D01*
X1246236Y491514D01*
X1246060Y491455D01*
X1245894Y491367D01*
X1245738Y491250D01*
X1245719Y491231D01*
X1245680Y491192D01*
X1245612Y491114D01*
X1245543Y491007D01*
X1245475Y490880D01*
X1245407Y490724D01*
X1245368Y490548D01*
X1245348Y490353D01*
Y490304D01*
X1245358Y490265D01*
X1245368Y490168D01*
X1245397Y490041D01*
X1245446Y489905D01*
X1245514Y489748D01*
X1245612Y489602D01*
X1245738Y489456D01*
X1245758Y489436D01*
X1245807Y489397D01*
X1245894Y489339D01*
X1246002Y489271D01*
X1246148Y489202D01*
X1246324Y489144D01*
X1246519Y489105D01*
X1246743Y489085D01*
X1246762D01*
X1246811D01*
X1246889Y489095D01*
X1246987Y489105D01*
X1247114Y489124D01*
X1247241Y489154D01*
X1247377Y489193D01*
X1247523Y489251D01*
X1247543Y489261D01*
X1247582Y489280D01*
X1247650Y489319D01*
X1247728Y489378D01*
X1247826Y489446D01*
X1247914Y489524D01*
X1248011Y489622D01*
X1248089Y489729D01*
X1248099Y489739D01*
X1248118Y489787D01*
X1248148Y489846D01*
X1248177Y489924D01*
X1248216Y490022D01*
X1248245Y490139D01*
X1248265Y490256D01*
X1248274Y490382D01*
Y490431D01*
X1248265Y490470D01*
X1248255Y490558D01*
X1248226Y490685D01*
X1248177Y490812D01*
X1248109Y490958D01*
X1248011Y491104D01*
X1247874Y491241D01*
X1247855Y491260D01*
X1247796Y491299D01*
X1247709Y491358D01*
X1247592Y491426D01*
X1247436Y491485D01*
X1247241Y491543D01*
X1247026Y491582D01*
X1246782Y491602D01*
D02*
G37*
G36*
X386414Y620823D02*
X386340D01*
X386257Y620805D01*
X386146Y620786D01*
X386026Y620749D01*
X385897Y620703D01*
X385776Y620629D01*
X385656Y620527D01*
X385647Y620518D01*
X385610Y620481D01*
X385564Y620416D01*
X385518Y620333D01*
X385462Y620232D01*
X385416Y620111D01*
X385379Y619982D01*
X385370Y619834D01*
Y619825D01*
Y619815D01*
X385379Y619760D01*
X385388Y619677D01*
X385407Y619575D01*
X385444Y619455D01*
X385490Y619335D01*
X385564Y619205D01*
X385656Y619094D01*
X385666Y619085D01*
X385712Y619048D01*
X385776Y619002D01*
X385860Y618956D01*
X385971Y618900D01*
X386100Y618854D01*
X386248Y618817D01*
X386414Y618808D01*
X386433D01*
X386488Y618817D01*
X386572Y618826D01*
X386683Y618845D01*
X386803Y618882D01*
X386923Y618928D01*
X387052Y619002D01*
X387163Y619094D01*
X387173Y619104D01*
X387210Y619150D01*
X387256Y619205D01*
X387311Y619289D01*
X387367Y619390D01*
X387413Y619510D01*
X387450Y619649D01*
X387459Y619797D01*
Y619806D01*
Y619815D01*
Y619871D01*
X387441Y619954D01*
X387422Y620056D01*
X387385Y620167D01*
X387330Y620287D01*
X387256Y620407D01*
X387154Y620527D01*
X387145Y620537D01*
X387099Y620574D01*
X387034Y620620D01*
X386951Y620675D01*
X386840Y620731D01*
X386720Y620777D01*
X386572Y620814D01*
X386414Y620823D01*
D02*
G37*
G36*
X386387Y618170D02*
X386331D01*
X386294Y618161D01*
X386193Y618151D01*
X386063Y618124D01*
X385915Y618077D01*
X385767Y618013D01*
X385610Y617920D01*
X385471Y617800D01*
X385453Y617781D01*
X385416Y617735D01*
X385360Y617652D01*
X385296Y617550D01*
X385222Y617412D01*
X385166Y617254D01*
X385129Y617079D01*
X385111Y616885D01*
Y616866D01*
Y616829D01*
X385120Y616764D01*
X385129Y616681D01*
X385148Y616580D01*
X385176Y616469D01*
X385213Y616358D01*
X385259Y616237D01*
X385268Y616228D01*
X385286Y616182D01*
X385323Y616127D01*
X385379Y616062D01*
X385444Y615979D01*
X385527Y615895D01*
X385619Y615821D01*
X385730Y615747D01*
X385749Y615738D01*
X385786Y615720D01*
X385850Y615692D01*
X385934Y615664D01*
X386035Y615636D01*
X386156Y615609D01*
X386285Y615590D01*
X386414Y615581D01*
X386470D01*
X386507Y615590D01*
X386618Y615600D01*
X386747Y615627D01*
X386895Y615673D01*
X387052Y615729D01*
X387200Y615821D01*
X387348Y615942D01*
X387367Y615960D01*
X387404Y616006D01*
X387468Y616090D01*
X387533Y616191D01*
X387598Y616321D01*
X387663Y616478D01*
X387700Y616663D01*
X387718Y616857D01*
Y616866D01*
Y616885D01*
Y616912D01*
X387709Y616949D01*
X387700Y617051D01*
X387672Y617190D01*
X387626Y617328D01*
X387561Y617486D01*
X387468Y617643D01*
X387339Y617791D01*
X387321Y617809D01*
X387274Y617846D01*
X387191Y617911D01*
X387080Y617985D01*
X386941Y618050D01*
X386775Y618114D01*
X386590Y618151D01*
X386387Y618170D01*
D02*
G37*
%LPD*%
D11*
X1228918Y446301D02*
Y517883D01*
X1268918D01*
Y446301D02*
Y517883D01*
X1228918Y446301D02*
X1268918D01*
X1263479Y530911D02*
Y545033D01*
X1234357D02*
X1263479D01*
X1234357Y530911D02*
Y545033D01*
Y530911D02*
X1263479D01*
X1206551Y469817D02*
X1220673D01*
Y498939D01*
X1206551D02*
X1220673D01*
X1206551Y469817D02*
Y498939D01*
X1229426Y635277D02*
Y706859D01*
X1269426D01*
Y635277D02*
Y706859D01*
X1229426Y635277D02*
X1269426D01*
X138735Y608667D02*
X152857D01*
X138735Y579545D02*
Y608667D01*
Y579545D02*
X152857D01*
Y608667D01*
X526593Y221659D02*
X540715D01*
Y250781D01*
X526593D02*
X540715D01*
X526593Y221659D02*
Y250781D01*
X847039Y145205D02*
Y174327D01*
X832917Y145205D02*
X847039D01*
X832917D02*
Y174327D01*
X847039D01*
X413055Y320123D02*
X427177D01*
X413055Y291001D02*
Y320123D01*
Y291001D02*
X427177D01*
Y320123D01*
X464649Y344221D02*
Y358343D01*
X435527D02*
X464649D01*
X435527Y344221D02*
Y358343D01*
Y344221D02*
X464649D01*
X391973Y375495D02*
X406095D01*
X391973Y346373D02*
Y375495D01*
Y346373D02*
X406095D01*
Y375495D01*
X452799Y194513D02*
X481921D01*
Y180391D02*
Y194513D01*
X452799Y180391D02*
X481921D01*
X452799D02*
Y194513D01*
X423843Y83363D02*
X452965D01*
X423843D02*
Y97485D01*
X452965D01*
Y83363D02*
Y97485D01*
X796969Y177749D02*
X826091D01*
Y163627D02*
Y177749D01*
X796969Y163627D02*
X826091D01*
X796969D02*
Y177749D01*
X401999Y541071D02*
X431121D01*
X401999D02*
Y555193D01*
X431121D01*
Y541071D02*
Y555193D01*
X452799Y157531D02*
X481921D01*
X452799D02*
Y171653D01*
X481921D01*
Y157531D02*
Y171653D01*
X483565Y105327D02*
Y134449D01*
X469443Y105327D02*
X483565D01*
X469443D02*
Y134449D01*
X483565D01*
X1234865Y719633D02*
X1263987D01*
X1234865D02*
Y733755D01*
X1263987D01*
Y719633D02*
Y733755D01*
X275253Y163119D02*
X304375D01*
X275253D02*
Y177241D01*
X304375D01*
Y163119D02*
Y177241D01*
X305765Y111423D02*
Y140545D01*
X291643Y111423D02*
X305765D01*
X291643D02*
Y140545D01*
X305765D01*
X245789Y89459D02*
X274911D01*
X245789D02*
Y103581D01*
X274911D01*
Y89459D02*
Y103581D01*
X869899Y403523D02*
Y432645D01*
X855777Y403523D02*
X869899D01*
X855777D02*
Y432645D01*
X869899D01*
X859231Y282873D02*
Y311995D01*
X845109Y282873D02*
X859231D01*
X845109D02*
Y311995D01*
X859231D01*
X774649Y77895D02*
Y107017D01*
X760527Y77895D02*
X774649D01*
X760527D02*
Y107017D01*
X774649D01*
X717213Y131877D02*
X746335D01*
X717213D02*
Y145999D01*
X746335D01*
Y131877D02*
Y145999D01*
X794429Y90881D02*
X823551D01*
Y76759D02*
Y90881D01*
X794429Y76759D02*
X823551D01*
X794429D02*
Y90881D01*
X822115Y111201D02*
X851237D01*
Y97079D02*
Y111201D01*
X822115Y97079D02*
X851237D01*
X822115D02*
Y111201D01*
X612311Y200609D02*
X641433D01*
Y186487D02*
Y200609D01*
X612311Y186487D02*
X641433D01*
X612311D02*
Y200609D01*
X340817Y346373D02*
Y375495D01*
X326695Y346373D02*
X340817D01*
X326695D02*
Y375495D01*
X340817D01*
X384335Y346373D02*
Y375495D01*
X370214Y346373D02*
X384335D01*
X370214D02*
Y375495D01*
X384335D01*
X362576Y346373D02*
Y375495D01*
X348455Y346373D02*
X362576D01*
X348455D02*
Y375495D01*
X362576D01*
X431343Y158159D02*
Y187281D01*
X445465D01*
Y158159D02*
Y187281D01*
X431343Y158159D02*
X445465D01*
X1210361Y659555D02*
Y688677D01*
X1224483D01*
Y659555D02*
Y688677D01*
X1210361Y659555D02*
X1224483D01*
X253035Y164255D02*
Y193377D01*
X267157D01*
Y164255D02*
Y193377D01*
X253035Y164255D02*
X267157D01*
X274745Y200609D02*
X303867D01*
Y186487D02*
Y200609D01*
X274745Y186487D02*
X303867D01*
X274745D02*
Y200609D01*
X875963Y314757D02*
X905085D01*
X875963D02*
Y328879D01*
X905085D01*
Y314757D02*
Y328879D01*
X880789Y419151D02*
X909911D01*
X880789D02*
Y433273D01*
X909911D01*
Y419151D02*
Y433273D01*
X845363Y332149D02*
Y361271D01*
X859485D01*
Y332149D02*
Y361271D01*
X845363Y332149D02*
X859485D01*
X837133Y403523D02*
Y432645D01*
X823011Y403523D02*
X837133D01*
X823011D02*
Y432645D01*
X837133D01*
X717467Y98247D02*
X746589D01*
Y84125D02*
Y98247D01*
X717467Y84125D02*
X746589D01*
X717467D02*
Y98247D01*
Y122123D02*
X746589D01*
Y108001D02*
Y122123D01*
X717467Y108001D02*
X746589D01*
X717467D02*
Y122123D01*
X596309Y219253D02*
X625431D01*
X596309D02*
Y233375D01*
X625431D01*
Y219253D02*
Y233375D01*
X99739Y579171D02*
X128861D01*
X99739D02*
Y593293D01*
X128861D01*
Y579171D02*
Y593293D01*
X54019Y466141D02*
X83141D01*
X54019D02*
Y480263D01*
X83141D01*
Y466141D02*
Y480263D01*
X99739Y550215D02*
X128861D01*
X99739D02*
Y564337D01*
X128861D01*
Y550215D02*
Y564337D01*
X814726Y215514D02*
X896726D01*
X814726D02*
Y262514D01*
X896726D01*
Y215514D02*
Y262514D01*
X301280Y600234D02*
Y629634D01*
Y600234D02*
X458180D01*
Y629634D01*
X301280D02*
X458180D01*
M02*
