G04*
G04 #@! TF.GenerationSoftware,Altium Limited,Altium Designer,25.3.3 (18)*
G04*
G04 Layer_Color=255*
%FSLAX44Y44*%
%MOMM*%
G71*
G04*
G04 #@! TF.SameCoordinates,6D202E75-467B-4672-BE30-C010D47AD25D*
G04*
G04*
G04 #@! TF.FilePolarity,Positive*
G04*
G01*
G75*
%ADD69C,1.5700*%
%ADD70R,1.5700X1.5700*%
%ADD80C,1.4980*%
%ADD81R,1.4980X1.4980*%
%ADD82O,1.7000X0.9000*%
%ADD83O,2.4000X0.9000*%
%ADD84R,0.6500X0.6500*%
%ADD85C,0.6500*%
%ADD86R,1.6500X1.6500*%
%ADD87C,1.6500*%
%ADD88C,1.1000*%
%ADD89C,1.2400*%
%ADD90R,1.5300X1.5300*%
%ADD91C,1.5300*%
%ADD92C,1.8000*%
D69*
X443230Y614934D02*
D03*
X417830D02*
D03*
X392430D02*
D03*
X367030D02*
D03*
X341630D02*
D03*
D70*
X316230D02*
D03*
D80*
X972500Y322500D02*
D03*
X927500D02*
D03*
X972500Y257500D02*
D03*
Y417500D02*
D03*
X927500Y482500D02*
D03*
X972500D02*
D03*
X650388Y169406D02*
D03*
X605388D02*
D03*
X650388Y104406D02*
D03*
D81*
X927500Y257500D02*
D03*
Y417500D02*
D03*
X605388Y104406D02*
D03*
D82*
X43640Y585540D02*
D03*
Y499040D02*
D03*
D83*
X77440Y585540D02*
D03*
Y499040D02*
D03*
D84*
X87240Y572040D02*
D03*
D85*
Y563540D02*
D03*
Y555040D02*
D03*
Y529540D02*
D03*
Y521040D02*
D03*
Y512540D02*
D03*
X73740D02*
D03*
Y521040D02*
D03*
Y529540D02*
D03*
Y555040D02*
D03*
Y563540D02*
D03*
Y572040D02*
D03*
Y538040D02*
D03*
X87240Y546540D02*
D03*
Y538040D02*
D03*
X73740Y546540D02*
D03*
D86*
X1018286Y595884D02*
D03*
X1023366Y113284D02*
D03*
X1019048Y528066D02*
D03*
D87*
X1018286Y621284D02*
D03*
X1023366Y138684D02*
D03*
X1019048Y553466D02*
D03*
D88*
X1043686Y595884D02*
D03*
Y621284D02*
D03*
X1048766Y138684D02*
D03*
Y113284D02*
D03*
X1044448Y528066D02*
D03*
Y553466D02*
D03*
D89*
X1024128Y258826D02*
D03*
X917702Y69088D02*
D03*
X993648Y191008D02*
D03*
D90*
X237490Y281178D02*
D03*
D91*
X262890D02*
D03*
X237490Y306578D02*
D03*
X262890D02*
D03*
X237490Y331978D02*
D03*
X262890D02*
D03*
X237490Y357378D02*
D03*
X262890D02*
D03*
X237490Y382778D02*
D03*
X262890D02*
D03*
X237490Y408178D02*
D03*
X262890D02*
D03*
X237490Y433578D02*
D03*
X262890D02*
D03*
X237490Y458978D02*
D03*
X262890D02*
D03*
D92*
X38608Y175000D02*
D03*
Y225000D02*
D03*
M02*
